<svg xmlns="http://www.w3.org/2000/svg" xmlns:xlink="http://www.w3.org/1999/xlink" fill="none" version="1.1" width="20" height="20" viewBox="0 0 20 20"><defs><clipPath id="master_svg0_666_3683"><rect x="0" y="0" width="20" height="20" rx="0"/></clipPath></defs><g clip-path="url(#master_svg0_666_3683)"><g><path d="M14.9231,2C15.28,2,15.5631,2.328889,15.5368,2.713778L15.4663,3.77778L17.3846,3.77778C17.6921,3.77779,17.9524,4.0237300000000005,17.994300000000003,4.35378L18,4.44444L18,6.22222C17.9999,8.21038,16.72,9.92933,14.9264,10.35022L14.8246,10.37156C14.1509,12.3259,12.5273,13.7101,10.61538,13.96L10.61538,16.6667L12.4615,16.6667C12.8014,16.6667,13.0769,16.9651,13.0769,17.3333C13.0769,17.7015,12.8014,18,12.4615,18L7.53846,18C7.19859,18,6.92308,17.7015,6.92308,17.3333C6.92308,16.9651,7.19859,16.6667,7.53846,16.6667L9.38544,16.6667L9.38462,16.6578L9.38462,13.9609C7.47274,13.711,5.849130000000001,12.3268,5.1753800000000005,10.37245C3.33359,9.99538,2,8.252379999999999,2,6.22222L2,4.44444C2,4.07625,2.275517,3.77778,2.615385,3.77778L4.53292,3.77778L4.4631799999999995,2.713778C4.43801,2.327983,4.7200299999999995,1.999999796549,5.076919999999999,2L14.9231,2ZM14.2626,3.33333L5.737439999999999,3.33333L6.09354,8.72622C6.23919,10.94711,7.94478,12.6682,10,12.6682C12.0552,12.6682,13.7608,10.94711,13.9065,8.72622L14.2626,3.33333ZM15.1339,8.82133L15.129,8.88978C16.0964,8.453330000000001,16.769199999999998,7.416,16.769199999999998,6.22222L16.769199999999998,5.11111L15.3785,5.11111L15.1339,8.82133ZM4.59528,5.11111L3.2307699999999997,5.11111L3.2307699999999997,6.22222C3.2307699999999997,7.40089,3.8855399999999998,8.42667,4.8340499999999995,8.87289L4.5961,5.11111L4.59528,5.11111Z" fill="#141124" fill-opacity="1"/></g></g></svg>