<svg xmlns="http://www.w3.org/2000/svg" xmlns:xlink="http://www.w3.org/1999/xlink" fill="none" version="1.1" width="24" height="24" viewBox="0 0 24 24"><defs><mask id="master_svg0_4_456"><g><rect x="0" y="0" width="24" height="24" rx="0" fill="#FFFFFF" fill-opacity="1"/></g></mask></defs><g mask="url(#master_svg0_4_456)"><g><path d="M6.707226,8.293012000000001L6.707107,8.292893Q6.566455,8.152241,6.382683,8.07612Q6.198912,8,6,8Q5.801088,8,5.617317,8.07612Q5.433545,8.152241,5.292893,8.292893Q5.152241,8.433545,5.0761199999999995,8.617317Q5,8.801088,5,9Q5,9.198912,5.0761199999999995,9.382683Q5.152241,9.566455,5.292893,9.707107L5.293012,9.707226L11.29289,15.70711Q11.43355,15.847760000000001,11.61732,15.92388Q11.80109,16,12,16Q12.19891,16,12.38268,15.92388Q12.56645,15.847760000000001,12.70711,15.70711L18.706699999999998,9.707482L18.7071,9.707107Q18.8478,9.566455,18.9239,9.382683Q19,9.198912,19,9Q19,8.801088,18.9239,8.617317Q18.8478,8.433545,18.7071,8.292893Q18.566499999999998,8.152241,18.3827,8.07612Q18.198900000000002,8,18,8Q17.801099999999998,8,17.6173,8.076121Q17.433500000000002,8.152241,17.2929,8.292893L17.2925,8.293268L12,13.58579L6.707226,8.293012000000001Z" fill-rule="evenodd" fill="#0E043E" fill-opacity="1"/></g></g></svg>