<svg xmlns="http://www.w3.org/2000/svg" xmlns:xlink="http://www.w3.org/1999/xlink" fill="none" version="1.1" width="20" height="20" viewBox="0 0 20 20"><defs><clipPath id="master_svg0_2377_04155"><rect x="0" y="0" width="20" height="20" rx="0"/></clipPath></defs><g clip-path="url(#master_svg0_2377_04155)"><g><g><path d="M17.5,9.25L2.5,9.25Q2.4261315,9.25,2.353682,9.264410999999999Q2.281233,9.278822,2.212987,9.30709Q2.144742,9.335359,2.083322,9.376398Q2.021903,9.417437,1.96967,9.46967Q1.917437,9.521903,1.876398,9.583322Q1.835359,9.644742,1.80709,9.712987Q1.778822,9.781233,1.764411,9.853682Q1.75,9.9261315,1.75,10Q1.75,10.0738685,1.764411,10.146318Q1.778822,10.218767,1.80709,10.287013Q1.835359,10.355258,1.876398,10.416678Q1.917437,10.478097,1.96967,10.53033Q2.021903,10.582563,2.083322,10.623602Q2.144742,10.664641,2.212987,10.69291Q2.281233,10.721178,2.353682,10.735589000000001Q2.4261315,10.75,2.5,10.75L17.5,10.75Q17.573900000000002,10.75,17.6463,10.735589000000001Q17.7187,10.721178,17.787,10.69291Q17.8552,10.664641,17.9167,10.623602Q17.978099999999998,10.582563,18.0303,10.53033Q18.0825,10.478097,18.1236,10.416678Q18.1646,10.355258,18.1929,10.287013Q18.2212,10.218767,18.235599999999998,10.146318Q18.25,10.0738685,18.25,10Q18.25,9.9261315,18.235599999999998,9.853682Q18.2212,9.781233,18.1929,9.712987Q18.1646,9.644742,18.1236,9.583322Q18.0825,9.521903,18.0303,9.46967Q17.978099999999998,9.417437,17.9167,9.376398Q17.8552,9.335359,17.787,9.30709Q17.7187,9.278822,17.6463,9.264410999999999Q17.573900000000002,9.25,17.5,9.25Z" fill-rule="evenodd" fill="#999999" fill-opacity="1"/></g><g><path d="M13.030484,4.469824L13.03033,4.46967Q12.924841,4.364181,12.787013,4.30709Q12.649184,4.25,12.5,4.25Q12.350816,4.25,12.212987,4.30709Q12.075159,4.364181,11.96967,4.46967Q11.864181,4.575159,11.80709,4.712987Q11.75,4.850816,11.75,5Q11.75,5.149184,11.80709,5.287013Q11.864181,5.424841,11.96967,5.53033L11.969824,5.5304839999999995L16.43934,10L11.970132,14.46921L11.96967,14.46967Q11.864181,14.57516,11.80709,14.71299Q11.75,14.85081,11.75,15Q11.75,15.1492,11.80709,15.287Q11.864181,15.4248,11.96967,15.5303Q12.075159,15.6358,12.212987,15.6929Q12.350816,15.75,12.5,15.75Q12.649184,15.75,12.787013,15.6929Q12.924841,15.6358,13.03033,15.5303L13.030792,15.5299L18.03033,10.53033Q18.08256,10.478100000000001,18.1236,10.41668Q18.16464,10.355260000000001,18.19291,10.28701Q18.22118,10.21877,18.235590000000002,10.14632Q18.25,10.07387,18.25,10Q18.25,9.92613,18.235590000000002,9.85368Q18.22118,9.78123,18.19291,9.71299Q18.16464,9.644739999999999,18.1236,9.58332Q18.08256,9.521899999999999,18.03033,9.46967L13.030484,4.469824Z" fill-rule="evenodd" fill="#999999" fill-opacity="1"/></g></g></g></svg>