<svg xmlns="http://www.w3.org/2000/svg" xmlns:xlink="http://www.w3.org/1999/xlink" fill="none" version="1.1" width="24" height="24" viewBox="0 0 24 24"><defs><clipPath id="master_svg0_1691_9159"><rect x="0" y="24" width="24" height="24" rx="0"/></clipPath></defs><g transform="matrix(0,-1,1,0,-24,24)" clip-path="url(#master_svg0_1691_9159)"><g><path d="M13.004150390625,41.949799999999996L13.004150390625,30Q13.004150390625,29.9015086,12.984935390625001,29.80491Q12.965720390625,29.708311,12.928029390625,29.617317Q12.890338390625,29.526322,12.835620390625,29.44443Q12.780901390625,29.362537,12.711257390625,29.292893Q12.641613390625,29.223249,12.559720390625,29.16853Q12.477828390625,29.113812,12.386833390625,29.076121Q12.295839390625,29.038429999999998,12.199240390625,29.019215Q12.102641790625,29,12.004150390625,29Q11.905658990625,29,11.809060390625,29.019215Q11.712461390625,29.038429999999998,11.621467390625,29.076121Q11.530472390625,29.113812,11.448580390625,29.16853Q11.366687390625,29.223249,11.297043390625,29.292893Q11.227399390625,29.362537,11.172680390625,29.44443Q11.117962390625,29.526322,11.080271390625,29.617317Q11.042580390625,29.708311,11.023365390624999,29.80491Q11.004150390625,29.9015086,11.004150390625,30L11.004150390625,41.949799999999996Q11.004150390625,42.0482,11.023365390624999,42.144800000000004Q11.042580390625,42.2414,11.080271390625,42.3324Q11.117962390625,42.4234,11.172680390625,42.5053Q11.227399390625,42.587199999999996,11.297043390625,42.6569Q11.366687390625,42.7265,11.448580390625,42.7812Q11.530472390625,42.8359,11.621467390625,42.873599999999996Q11.712461390625,42.9113,11.809060390625,42.9305Q11.905658990625,42.949799999999996,12.004150390625,42.949799999999996Q12.102641790625,42.949799999999996,12.199240390625,42.9305Q12.295839390625,42.9113,12.386833390625,42.873599999999996Q12.477828390625,42.8359,12.559720390625,42.7812Q12.641613390625,42.7265,12.711257390625,42.6569Q12.780901390625,42.587199999999996,12.835620390625,42.5053Q12.890338390625,42.4234,12.928029390625,42.3324Q12.965720390625,42.2414,12.984935390625001,42.144800000000004Q13.004150390625,42.0482,13.004150390625,41.949799999999996Z" fill-rule="evenodd" fill="#0E043E" fill-opacity="1"/></g><g><path d="M6.707226,35.293012L6.707107,35.292893Q6.566455,35.152241,6.382683,35.07612Q6.198912,35,6,35Q5.801088,35,5.617317,35.07612Q5.433545,35.152241,5.292893,35.292893Q5.152241,35.433545,5.0761199999999995,35.617317Q5,35.801088,5,36Q5,36.198912,5.0761199999999995,36.382683Q5.152241,36.566455,5.292893,36.707107L5.293012,36.707226L11.29289,42.70711Q11.43355,42.84776,11.61732,42.92388Q11.80109,43,12,43Q12.19891,43,12.38268,42.92388Q12.56645,42.84776,12.70711,42.70711L18.706699999999998,36.707482L18.7071,36.707107Q18.8478,36.566455,18.9239,36.382683Q19,36.198912,19,36Q19,35.801088,18.9239,35.617317Q18.8478,35.433545,18.7071,35.292893Q18.566499999999998,35.152241,18.3827,35.07612Q18.198900000000002,35,18,35Q17.801099999999998,35,17.6173,35.076121Q17.433500000000002,35.152241,17.2929,35.292893L17.2925,35.293268L12,40.58579L6.707226,35.293012Z" fill-rule="evenodd" fill="#0E043E" fill-opacity="1"/></g></g></svg>