<svg xmlns="http://www.w3.org/2000/svg" xmlns:xlink="http://www.w3.org/1999/xlink" fill="none" version="1.1" width="24.000001251506887" height="24.000001251506887" viewBox="0 0 24.000001251506887 24.000001251506887"><defs><clipPath id="master_svg0_2221_02217"><rect x="24" y="24.000001251506887" width="24" height="24" rx="0"/></clipPath></defs><g transform="matrix(-1,-5.2146120310681e-8,5.2146120310681e-8,-1,47.99999874849305,48.00000375452066)" clip-path="url(#master_svg0_2221_02217)"><g><path d="M26.8994140625,37.00000125150689L44.8994140625,37.00000125150689Q44.9979140625,37.00000125150689,45.0945140625,36.980786251506885Q45.1911140625,36.96157125150689,45.2821140625,36.92388025150689Q45.3731140625,36.886189251506885,45.4550140625,36.83147125150689Q45.5369140625,36.776752251506885,45.6065140625,36.70710825150689Q45.6762140625,36.637464251506884,45.7309140625,36.55557125150689Q45.7856140625,36.47367925150689,45.8233140625,36.38268425150689Q45.861014062500004,36.291690251506886,45.8802140625,36.19509125150689Q45.8994140625,36.09849265150689,45.8994140625,36.00000125150689Q45.8994140625,35.90150985150689,45.8802140625,35.80491125150689Q45.861014062500004,35.70831225150689,45.8233140625,35.61731825150689Q45.7856140625,35.52632325150689,45.7309140625,35.444431251506884Q45.6762140625,35.36253825150689,45.6065140625,35.29289425150689Q45.5369140625,35.22325025150689,45.4550140625,35.168531251506884Q45.3731140625,35.11381325150689,45.2821140625,35.07612225150689Q45.1911140625,35.038431251506886,45.0945140625,35.01921625150689Q44.9979140625,35.00000125150689,44.8994140625,35.00000125150689L26.8994140625,35.00000125150689Q26.8009226625,35.00000125150689,26.7043240625,35.01921625150689Q26.6077250625,35.038431251506886,26.5167310625,35.07612225150689Q26.4257360625,35.11381325150689,26.3438440625,35.168531251506884Q26.2619510625,35.22325025150689,26.1923070625,35.29289425150689Q26.1226630625,35.36253825150689,26.0679440625,35.444431251506884Q26.0132260625,35.52632325150689,25.9755350625,35.61731825150689Q25.937844062499998,35.70831225150689,25.9186290625,35.80491125150689Q25.8994140625,35.90150985150689,25.8994140625,36.00000125150689Q25.8994140625,36.09849265150689,25.9186290625,36.19509125150689Q25.937844062499998,36.291690251506886,25.9755350625,36.38268425150689Q26.0132260625,36.47367925150689,26.0679440625,36.55557125150689Q26.1226630625,36.637464251506884,26.1923070625,36.70710825150689Q26.2619510625,36.776752251506885,26.3438440625,36.83147125150689Q26.4257360625,36.886189251506885,26.5167310625,36.92388025150689Q26.6077250625,36.96157125150689,26.7043240625,36.980786251506885Q26.8009226625,37.00000125150689,26.8994140625,37.00000125150689Z" fill-rule="evenodd" fill="#333333" fill-opacity="1"/></g><g><path d="M33.6061940625,30.707421251506887L33.6065040625,30.707107251506887Q33.7471540625,30.566455251506888,33.8232740625,30.382684251506888Q33.8994040625,30.19891425150689,33.8994040625,30.000001251506887Q33.8993940625,29.801088251506886,33.8232740625,29.617317251506886Q33.7471540625,29.433546251506886,33.6065040625,29.292893251506886Q33.4658540625,29.152241251506886,33.2820840625,29.076121251506887Q33.0983140625,29.000001251506887,32.8993940625,29.000001251506887Q32.7004840625,29.000001251506887,32.5167140625,29.076122251506888Q32.3329440625,29.152242251506888,32.1922940625,29.292895251506888L32.1919740625,29.293209251506887L26.1923060625,35.29289125150689Q26.1226630625,35.36254125150689,26.0679440625,35.444431251506884Q26.0132250625,35.526321251506886,25.9755340625,35.61732125150689Q25.9378430625,35.708311251506885,25.9186290625,35.80491125150689Q25.8994140625,35.90151125150689,25.8994140625,36.00000125150689Q25.8994140625,36.098491251506886,25.9186290625,36.19509125150689Q25.9378430625,36.29169125150689,25.9755340625,36.38268125150689Q26.0132250625,36.47368125150689,26.0679440625,36.55557125150689Q26.1226630625,36.637461251506885,26.1923060625,36.70711125150689L32.1917740625,42.70660125150689L32.1922940625,42.707101251506884Q32.3329440625,42.84780125150689,32.5167140625,42.92390125150689Q32.7004840625,43.00000125150689,32.8994040625,43.00000125150689Q32.9252840625,43.00000125150689,32.9511440625,42.99870125150689Q33.1363840625,42.98910125150689,33.3058640625,42.913701251506886Q33.4753440625,42.83830125150689,33.6065040625,42.707101251506884Q33.7471540625,42.566501251506885,33.8232740625,42.38270125150689Q33.8993940625,42.19890125150689,33.8994040625,42.00000125150689Q33.8994040625,41.97600125150689,33.8982440625,41.952001251506886Q33.889284062499996,41.76570125150689,33.8138140625,41.595201251506886Q33.7383440625,41.42470125150689,33.6065040625,41.29290125150689L33.6059940625,41.29240125150689L28.3136240625,36.00000125150689L33.6061940625,30.707421251506887Z" fill-rule="evenodd" fill="#333333" fill-opacity="1"/></g></g></svg>