<svg xmlns="http://www.w3.org/2000/svg" xmlns:xlink="http://www.w3.org/1999/xlink" fill="none" version="1.1" width="15.66650390625" height="18.2083740234375" viewBox="0 0 15.66650390625 18.2083740234375"><g><g><ellipse cx="7.8333330154418945" cy="10.375040531158447" rx="7.0833330154418945" ry="7.0833330154418945" fill-opacity="0" stroke-opacity="1" stroke="#999999" fill="none" stroke-width="1.5" stroke-linejoin="round"/></g><g><path d="M5.3330078125,0.000041023437500009585L10.3330078125,0.000041023437500009585Q10.4068778125,0.000041023437500009585,10.4793278125,0.014452023437499961Q10.5517778125,0.028863023437500024,10.6200178125,0.057131023437499984Q10.688267812500001,0.0853990234375,10.7496878125,0.12643902343750002Q10.811107812500001,0.1674780234375,10.8633378125,0.21971102343749999Q10.9155678125,0.2719440234375,10.9566078125,0.3333630234375Q10.9976478125,0.3947830234375,11.025917812500001,0.4630280234375Q11.0541878125,0.5312738234375,11.0685978125,0.6037230234375Q11.0830078125,0.6761721234375,11.0830078125,0.7500410234375Q11.0830078125,0.8239090234374999,11.0685978125,0.8963580234374999Q11.0541878125,0.9688080234375,11.025917812500001,1.0370530234375Q10.9976478125,1.1052990234375,10.9566078125,1.1667180234374999Q10.9155678125,1.2281380234375,10.8633378125,1.2803710234375Q10.811107812500001,1.3326040234374998,10.7496878125,1.3736430234374999Q10.688267812500001,1.4146820234375,10.6200178125,1.4429500234375001Q10.5517778125,1.4712190234375,10.4793278125,1.4856300234375Q10.4068778125,1.5000410234375,10.3330078125,1.5000410234375L5.3330078125,1.5000410234375Q5.2591393125,1.5000410234375,5.1866898125,1.4856300234375Q5.1142408125,1.4712190234375,5.0459948125,1.4429500234375001Q4.9777498125,1.4146820234375,4.9163298125,1.3736430234374999Q4.8549108125,1.3326040234374998,4.8026778125,1.2803710234375Q4.7504448125,1.2281380234375,4.7094058125,1.1667180234374999Q4.6683668125,1.1052990234375,4.6400978125,1.0370530234375Q4.6118298125,0.9688080234375,4.5974188125,0.8963580234374999Q4.5830078125,0.8239090234374999,4.5830078125,0.7500410234375Q4.5830078125,0.6761721234375,4.5974188125,0.6037230234375Q4.6118298125,0.5312738234375,4.6400978125,0.4630280234375Q4.6683668125,0.3947830234375,4.7094058125,0.3333630234375Q4.7504448125,0.2719440234375,4.8026778125,0.21971102343749999Q4.8549108125,0.1674780234375,4.9163298125,0.1264380234375Q4.9777498125,0.0853990234375,5.0459948125,0.057131023437499984Q5.1142408125,0.028863023437500024,5.1866898125,0.014452023437499961Q5.2591393125,0.000041023437500009585,5.3330078125,0.000041023437500009585Z" fill-rule="evenodd" fill="#999999" fill-opacity="1"/></g><g><path d="M7.041667,7.0417070388793945Q7.041667,6.967838538879395,7.056078,6.895389038879395Q7.070489,6.822940038879395,7.098757,6.754694038879395Q7.127025,6.6864490388793945,7.168065,6.625029038879394Q7.209104,6.5636100388793945,7.261337,6.511377038879394Q7.31357,6.459144038879394,7.374989,6.4181050388793945Q7.436409,6.377066038879395,7.504654,6.348797038879394Q7.5728998,6.320529038879394,7.645349,6.3061180388793945Q7.7177980999999996,6.2917070388793945,7.791667,6.2917070388793945Q7.865535,6.2917070388793945,7.937984,6.3061180388793945Q8.010434,6.320529038879394,8.078679,6.348797038879394Q8.146925,6.377066038879395,8.208344,6.4181050388793945Q8.269764,6.459144038879394,8.321997,6.511377038879394Q8.37423,6.5636100388793945,8.415269,6.625029038879394Q8.456308,6.6864490388793945,8.484576,6.754694038879395Q8.512845,6.822940038879395,8.527256,6.895389038879395Q8.541667,6.967838538879395,8.541667,7.0417070388793945L8.541667,10.375037038879395Q8.541667,10.448907038879394,8.527256,10.521357038879394Q8.512845,10.593807038879394,8.484576,10.662057038879395Q8.456308,10.730297038879394,8.415269,10.791717038879394Q8.37423,10.853137038879394,8.321997,10.905367038879394Q8.269764,10.957607038879395,8.208344,10.998637038879394Q8.146925,11.039677038879395,8.078679,11.067947038879394Q8.010434,11.096217038879395,7.937984,11.110627038879395Q7.865535,11.125037038879395,7.791667,11.125037038879395Q7.7177980999999996,11.125037038879395,7.645349,11.110627038879395Q7.5728998,11.096217038879395,7.504654,11.067947038879394Q7.436409,11.039677038879395,7.374989,10.998647038879394Q7.31357,10.957607038879395,7.261337,10.905367038879394Q7.209104,10.853137038879394,7.168064,10.791717038879394Q7.127025,10.730297038879394,7.098757,10.662057038879395Q7.070489,10.593807038879394,7.056078,10.521357038879394Q7.041667,10.448907038879394,7.041667,10.375037038879395L7.041667,7.0417070388793945Z" fill-rule="evenodd" fill="#999999" fill-opacity="1"/></g><g><path d="M7.8330078125,9.583374038879395L11.1663378125,9.583374038879395Q11.2402078125,9.583374038879395,11.3126578125,9.597785038879394Q11.3851078125,9.612196038879395,11.4533578125,9.640464038879394Q11.5215978125,9.668732038879394,11.5830178125,9.709772038879395Q11.6444378125,9.750811038879394,11.6966678125,9.803044038879394Q11.7489078125,9.855277038879395,11.7899378125,9.916696038879394Q11.8309778125,9.978116038879394,11.8592478125,10.046361038879395Q11.8875178125,10.114606838879395,11.9019278125,10.187056038879394Q11.9163378125,10.259505138879394,11.9163378125,10.333374038879395Q11.9163378125,10.407242038879394,11.9019278125,10.479691038879395Q11.8875178125,10.552141038879395,11.8592478125,10.620386038879394Q11.8309778125,10.688632038879394,11.7899478125,10.750051038879395Q11.7489078125,10.811471038879395,11.6966678125,10.863704038879394Q11.6444378125,10.915937038879395,11.5830178125,10.956976038879395Q11.5215978125,10.998015038879394,11.4533578125,11.026283038879395Q11.3851078125,11.054552038879395,11.3126578125,11.068963038879394Q11.2402078125,11.083374038879395,11.1663378125,11.083374038879395L7.8330078125,11.083374038879395Q7.7591393125,11.083374038879395,7.6866898125,11.068963038879394Q7.6142408125,11.054552038879395,7.5459948125,11.026283038879395Q7.4777498125,10.998015038879394,7.4163298125,10.956976038879395Q7.3549108125,10.915937038879395,7.3026778125,10.863704038879394Q7.2504448125,10.811471038879395,7.2094058125,10.750051038879395Q7.1683668125,10.688632038879394,7.1400978125,10.620386038879394Q7.1118298125,10.552141038879395,7.0974188125,10.479691038879395Q7.0830078125,10.407242038879394,7.0830078125,10.333374038879395Q7.0830078125,10.259505138879394,7.0974188125,10.187056038879394Q7.1118298125,10.114606838879395,7.1400978125,10.046361038879395Q7.1683668125,9.978116038879394,7.2094058125,9.916696038879394Q7.2504448125,9.855277038879395,7.3026778125,9.803044038879394Q7.3549108125,9.750811038879394,7.4163298125,9.709771038879394Q7.4777498125,9.668732038879394,7.5459948125,9.640464038879394Q7.6142408125,9.612196038879395,7.6866898125,9.597785038879394Q7.7591393125,9.583374038879395,7.8330078125,9.583374038879395Z" fill-rule="evenodd" fill="#999999" fill-opacity="1"/></g><g><path d="M7.041667,0.7917073667049408Q7.041667,0.7178388667049408,7.056078,0.6453893667049408Q7.070489,0.5729403667049409,7.098757,0.5046943667049408Q7.127025,0.4364493667049408,7.168065,0.3750293667049408Q7.209104,0.3136103667049408,7.261337,0.26137736670494083Q7.31357,0.20914436670494074,7.374989,0.1681053667049408Q7.436409,0.12706636670494076,7.504654,0.09879736670494077Q7.5728998,0.07052936670494081,7.645349,0.05611836670494075Q7.7177980999999996,0.041707366704940796,7.791667,0.041707366704940796Q7.865535,0.041707366704940796,7.937984,0.05611836670494075Q8.010434,0.07052936670494081,8.078679,0.09879736670494077Q8.146925,0.12706636670494076,8.208344,0.1681053667049408Q8.269764,0.20914436670494074,8.321997,0.26137736670494083Q8.37423,0.3136103667049408,8.415269,0.3750293667049408Q8.456308,0.4364493667049408,8.484576,0.5046943667049408Q8.512845,0.5729403667049409,8.527256,0.6453893667049408Q8.541667,0.7178388667049408,8.541667,0.7917073667049408L8.541667,2.4583773667049407Q8.541667,2.532247366704941,8.527256,2.604687366704941Q8.512845,2.6771373667049407,8.484576,2.745387366704941Q8.456308,2.813627366704941,8.415269,2.875047366704941Q8.37423,2.936467366704941,8.321997,2.988707366704941Q8.269764,3.0409373667049406,8.208344,3.081977366704941Q8.146925,3.123017366704941,8.078679,3.1512873667049406Q8.010434,3.179547366704941,7.937984,3.193967366704941Q7.865535,3.2083773667049407,7.791667,3.2083773667049407Q7.7177980999999996,3.2083773667049407,7.645349,3.193967366704941Q7.5728998,3.179547366704941,7.504654,3.1512873667049406Q7.436409,3.123017366704941,7.374989,3.081977366704941Q7.31357,3.0409373667049406,7.261337,2.988707366704941Q7.209104,2.936467366704941,7.168064,2.875047366704941Q7.127025,2.813627366704941,7.098757,2.745387366704941Q7.070489,2.6771373667049407,7.056078,2.604687366704941Q7.041667,2.532247366704941,7.041667,2.4583773667049407L7.041667,0.7917073667049408Z" fill-rule="evenodd" fill="#999999" fill-opacity="1"/></g></g></svg>