<svg xmlns="http://www.w3.org/2000/svg" xmlns:xlink="http://www.w3.org/1999/xlink" fill="none" version="1.1" width="32" height="32" viewBox="0 0 32 32"><defs><clipPath id="master_svg0_2268_01231"><rect x="0" y="0" width="32" height="32" rx="0"/></clipPath></defs><g clip-path="url(#master_svg0_2268_01231)"><g><path d="M13.43467,14.666656494140625C14.2347,14.666656494140625,14.8827,15.266656494140625,14.868,15.999956494140624C14.868,16.733356494140626,14.236,17.333356494140624,13.43467,17.333356494140624C12.648,17.333356494140624,12,16.733356494140626,12,15.999956494140624C12,15.266656494140625,12.63333,14.666656494140625,13.43467,14.666656494140625ZM18.5653,14.666656494140625C19.3667,14.666656494140625,20,15.266656494140625,20,15.999956494140624C20,16.733356494140626,19.3667,17.333356494140624,18.5653,17.333356494140624C17.7787,17.333356494140624,17.131999999999998,16.733356494140626,17.131999999999998,15.999956494140624C17.131999999999998,15.266656494140625,17.764,14.666656494140625,18.5653,14.666656494140625ZM25.188,2.666656494140625C26.7387,2.666656494140625,28,3.9546564941406253,28,5.550656494140625L28,30.666656494140625L25.052,28.006656494140625L23.392,26.438656494140623L21.636,24.771956494140625L22.364,27.362656494140627L6.811999999999999,27.362656494140627C5.26133,27.362656494140627,4,26.074656494140626,4,24.478656494140626L4,5.550656494140625C4,3.9546564941406253,5.26133,2.666656494140625,6.811999999999999,2.666656494140625L25.188,2.666656494140625L25.188,2.666656494140625ZM19.8947,20.950656494140624Q22.9253,20.853356494140623,24.092,18.822656494140624Q24.092,14.314656494140625,22.116,10.659986494140625Q20.1427,9.149326494140624,18.262700000000002,9.190656494140626L18.070700000000002,9.414656494140626Q20.4027,10.142656494140624,21.4853,11.193326494140624C20.2121,10.475976494140625,18.8089,10.019106494140626,17.357300000000002,9.849326494140625C16.4366,9.745326494140624,15.5066,9.754286494140626,14.588,9.875986494140625C14.5053,9.875986494140625,14.436,9.890656494140625,14.3547,9.903986494140625C13.87467,9.946656494140626,12.708,10.127986494140625,11.24133,10.786656494140624Q10.73466,11.023986494140624,10.432,11.193326494140624Q11.57066,10.086656494140625,14.0387,9.358656494140625L13.90133,9.190656494140626Q12.02267,9.149326494140624,10.048,10.661326494140624Q8.07333,14.314656494140625,8.07333,18.822656494140624Q9.22533,20.851956494140627,12.256,20.950656494140624Q12.76267,20.321356494140623,13.176,19.789356494140623Q11.43333,19.255956494140626,10.776,18.135956494140625Q10.911999999999999,18.234656494140623,11.158660000000001,18.374656494140623C11.172,18.387956494140624,11.18533,18.402656494140626,11.21333,18.415956494140623C11.25467,18.445356494140626,11.296,18.458656494140627,11.33733,18.486656494140625C11.68,18.682656494140623,12.02267,18.835956494140625,12.33733,18.962656494140624C12.9,19.186656494140625,13.572,19.410656494140625,14.3547,19.565356494140627C15.5271,19.795156494140624,16.7325,19.799656494140624,17.9067,19.578656494140624C18.590600000000002,19.456556494140624,19.2578,19.254756494140626,19.8947,18.977356494140626C20.3747,18.794656494140625,20.9093,18.527956494140625,21.472,18.150656494140627Q20.7867,19.298656494140626,18.9893,19.817356494140626Q19.4013,20.349356494140626,19.896,20.950656494140624L19.8947,20.950656494140624Z" fill="#0E043E" fill-opacity="1"/></g></g></svg>