<svg xmlns="http://www.w3.org/2000/svg" xmlns:xlink="http://www.w3.org/1999/xlink" fill="none" version="1.1" width="24" height="24" viewBox="0 0 24 24"><defs><clipPath id="master_svg0_1691_01955"><rect x="0" y="0" width="24" height="24" rx="0"/></clipPath></defs><g clip-path="url(#master_svg0_1691_01955)"><g><path d="M18.071564849853516,8.371060054321289L18.071764849853515,8.37147005432129Q18.145664849853517,8.55615005432129,18.284564849853517,8.69851005432129Q18.423464849853517,8.84086005432129,18.606264849853517,8.91921005432129Q18.794964849853514,9.000050054321289,19.000164849853515,9.000050054321289L19.012864849853514,8.999970054321288Q19.198864849853514,8.997610054321289,19.371664849853516,8.92851005432129Q19.440864849853515,8.90083005432129,19.505164849853514,8.86320005432129Q19.569464849853517,8.82557005432129,19.627564849853513,8.778810054321289Q19.685564849853513,8.73206005432129,19.736064849853516,8.677220054321289Q19.786464849853516,8.62238005432129,19.828264849853518,8.56066005432129Q19.870064849853513,8.49895005432129,19.902264849853516,8.43172005432129Q19.934364849853516,8.364490054321289,19.95626484985352,8.293240054321288Q19.978064849853517,8.221990054321289,19.989164849853516,8.14828005432129Q20.000164849853515,8.074580054321288,20.000164849853515,8.000050054321289L20.000164849853515,7.996470054321289Q19.999464849853517,7.805730054321289,19.928664849853515,7.628630054321289L19.928464849853516,7.628210054321289L17.928464849853516,2.628618054321289Q17.891864849853516,2.537174054321289,17.838164849853516,2.454624054321289Q17.784464849853514,2.372073054321289,17.715664849853518,2.301589054321289Q17.646864849853515,2.231104054321289,17.565664849853516,2.175394054321289Q17.484464849853516,2.119683054321289,17.393864849853514,2.080888054321289Q17.303364849853516,2.042093054321289,17.207064849853516,2.0217030543212893Q17.110664849853514,2.001314054321289,17.012164849853516,2.000114054321289Q16.913664849853518,1.998910054321289,16.816864849853516,2.0169500543212893Q16.720064849853514,2.034986054321289,16.628564849853518,2.071564054321289L4.128671849853515,7.071570054321289Q3.9439868498535158,7.145450054321289,3.8016298498535157,7.284380054321289Q3.659273849853516,7.423300054321289,3.5809188498535156,7.606130054321289Q3.5000648498535156,7.794790054321289,3.5000648498535156,8.000050054321289L3.5001448498535157,8.012720054321289Q3.502502849853516,8.198730054321288,3.5715888498535158,8.37144005432129Q3.5992688498535155,8.440640054321289,3.6369018498535155,8.504970054321289Q3.674533849853516,8.569310054321289,3.7212868498535157,8.627350054321289Q3.7680398498535155,8.685390054321289,3.8228798498535155,8.73586005432129Q3.8777208498535156,8.78633005432129,3.9394368498535157,8.828120054321289Q4.001152849853516,8.869900054321288,4.068381849853516,8.902070054321289Q4.135609849853516,8.93425005432129,4.206864849853516,8.95610005432129Q4.278119849853516,8.977950054321289,4.3518268498535155,8.989000054321288Q4.425534349853516,9.000050054321289,4.500064849853516,9.000050054321289L4.503614619853516,9.000040054321289Q4.6943568498535155,8.99937005432129,4.871457849853516,8.928530054321289L16.442964849853517,4.299900054321289L18.071564849853516,8.371060054321289Z" fill-rule="evenodd" fill="#0E043E" fill-opacity="1"/></g><g><path d="M1,8L1,11Q1,11.09849,1.019215,11.19509Q1.03843,11.29169,1.076121,11.38268Q1.113812,11.47368,1.16853,11.55557Q1.223249,11.63746,1.2928929999999998,11.70711Q1.362537,11.77675,1.44443,11.83147Q1.526322,11.88619,1.617317,11.92388Q1.7083110000000001,11.96157,1.80491,11.98078Q1.9015086,12,2,12Q2.838551,12,3.3981399999999997,12.49741Q4,13.032399999999999,4,14Q4,14.96762,3.39816,15.502600000000001Q2.838591,16,2,16Q1.9015086,16,1.80491,16.01921Q1.7083110000000001,16.038429999999998,1.617317,16.07612Q1.526322,16.11381,1.44443,16.16853Q1.362537,16.22325,1.2928929999999998,16.29289Q1.223249,16.36254,1.16853,16.44443Q1.113812,16.52632,1.076121,16.61732Q1.03843,16.70831,1.019215,16.80491Q1,16.901510000000002,1,17L1,20Q1,20.0985,1.019215,20.1951Q1.03843,20.2917,1.076121,20.3827Q1.113812,20.4737,1.16853,20.5556Q1.223249,20.6375,1.2928929999999998,20.7071Q1.362537,20.776699999999998,1.44443,20.8315Q1.526322,20.886200000000002,1.617317,20.9239Q1.7083110000000001,20.9616,1.80491,20.980800000000002Q1.9015086,21,2,21L22,21Q22.0985,21,22.1951,20.980800000000002Q22.2917,20.9616,22.3827,20.9239Q22.4737,20.886200000000002,22.5556,20.8315Q22.6375,20.776699999999998,22.7071,20.7071Q22.7767,20.6375,22.8315,20.5556Q22.8862,20.4737,22.9239,20.3827Q22.9616,20.2917,22.9808,20.1951Q23,20.0985,23,20L23,17Q23,16.901510000000002,22.9808,16.80491Q22.9616,16.70831,22.9239,16.61732Q22.8862,16.52632,22.8315,16.44443Q22.7767,16.36254,22.7071,16.29289Q22.6375,16.22325,22.5556,16.16853Q22.4737,16.11381,22.3827,16.07612Q22.2917,16.038429999999998,22.1951,16.01921Q22.0985,16,22,16Q21.2854,16,20.6635,15.34351Q20,14.64319,20,13.75Q20,12.96838,20.5777,12.48697Q21.1621,12,22,12Q22.0985,12,22.1951,11.98078Q22.2917,11.96157,22.3827,11.92388Q22.4737,11.88619,22.5556,11.83147Q22.6375,11.77675,22.7071,11.70711Q22.7767,11.63746,22.8315,11.55557Q22.8862,11.47368,22.9239,11.38268Q22.9616,11.29169,22.9808,11.19509Q23,11.09849,23,11L23,8Q23,7.9015086,22.9808,7.80491Q22.9616,7.708311,22.9239,7.617317Q22.8862,7.526322,22.8315,7.44443Q22.7767,7.362537,22.7071,7.292893Q22.6375,7.223249,22.5556,7.16853Q22.4737,7.113812,22.3827,7.076121Q22.2917,7.03843,22.1951,7.019215Q22.0985,7,22,7L2,7Q1.9015086,7,1.80491,7.019215Q1.7083110000000001,7.03843,1.617317,7.076121Q1.526322,7.113812,1.44443,7.16853Q1.362537,7.223249,1.2928929999999998,7.292893Q1.223249,7.362537,1.16853,7.44443Q1.113812,7.526322,1.076121,7.617317Q1.03843,7.708311,1.019215,7.80491Q1,7.9015086,1,8ZM3,10.10826Q3.96959,10.329460000000001,4.72686,11.00259Q6,12.13427,6,14Q6,15.865739999999999,4.7269000000000005,16.9974Q3.96963,17.670540000000003,3,17.89174L3,19L21,19L21,17.86052Q20.0247,17.5773,19.2115,16.719Q18,15.44014,18,13.75Q18,12.03163,19.2973,10.95053Q20.0555,10.318670000000001,21,10.10683L21,9L3,9L3,10.10826Z" fill-rule="evenodd" fill="#0E043E" fill-opacity="1"/></g><g><path d="M8.5,13.692399978637695L11.5,13.692399978637695Q11.59849,13.692399978637695,11.69509,13.673184978637696Q11.79169,13.653969978637695,11.88268,13.616278978637695Q11.97368,13.578587978637696,12.05557,13.523869978637695Q12.13746,13.469150978637696,12.20711,13.399506978637696Q12.27675,13.329862978637696,12.33147,13.247969978637695Q12.38619,13.166077978637695,12.42388,13.075082978637695Q12.46157,12.984088978637695,12.48078,12.887489978637696Q12.5,12.790891378637696,12.5,12.692399978637695Q12.5,12.593908578637695,12.48078,12.497309978637695Q12.46157,12.400710978637695,12.42388,12.309716978637695Q12.38619,12.218721978637696,12.33147,12.136829978637696Q12.27675,12.054936978637695,12.20711,11.985292978637695Q12.13746,11.915648978637694,12.05557,11.860929978637696Q11.97368,11.806211978637695,11.88268,11.768520978637696Q11.79169,11.730829978637695,11.69509,11.711614978637694Q11.59849,11.692399978637695,11.5,11.692399978637695L8.5,11.692399978637695Q8.4015086,11.692399978637695,8.30491,11.711614978637694Q8.208311,11.730829978637695,8.117317,11.768520978637696Q8.026322,11.806211978637695,7.94443,11.860929978637696Q7.862537,11.915648978637694,7.792893,11.985292978637695Q7.723249,12.054936978637695,7.66853,12.136829978637696Q7.613812,12.218721978637696,7.576121,12.309716978637695Q7.53843,12.400710978637695,7.519215,12.497309978637695Q7.5,12.593908578637695,7.5,12.692399978637695Q7.5,12.790891378637696,7.519215,12.887489978637696Q7.53843,12.984088978637695,7.576121,13.075082978637695Q7.613812,13.166077978637695,7.66853,13.247969978637695Q7.723249,13.329862978637696,7.792893,13.399506978637696Q7.862537,13.469150978637696,7.94443,13.523869978637695Q8.026322,13.578587978637696,8.117317,13.616278978637695Q8.208311,13.653969978637695,8.30491,13.673184978637696Q8.4015086,13.692399978637695,8.5,13.692399978637695Z" fill-rule="evenodd" fill="#0E043E" fill-opacity="1"/></g><g><path d="M8.5,16.692399978637695L15.5,16.692399978637695Q15.59849,16.692399978637695,15.69509,16.673184978637696Q15.79169,16.653969978637697,15.88268,16.616278978637695Q15.97368,16.578587978637696,16.05557,16.523869978637695Q16.13746,16.469150978637696,16.20711,16.399506978637696Q16.27675,16.329862978637696,16.33147,16.247969978637695Q16.38619,16.166077978637695,16.42388,16.075082978637695Q16.461570000000002,15.984088978637695,16.48078,15.887489978637696Q16.5,15.790891378637696,16.5,15.692399978637695Q16.5,15.593908578637695,16.48078,15.497309978637695Q16.461570000000002,15.400710978637695,16.42388,15.309716978637695Q16.38619,15.218721978637696,16.33147,15.136829978637696Q16.27675,15.054936978637695,16.20711,14.985292978637695Q16.13746,14.915648978637694,16.05557,14.860929978637696Q15.97368,14.806211978637695,15.88268,14.768520978637696Q15.79169,14.730829978637695,15.69509,14.711614978637694Q15.59849,14.692399978637695,15.5,14.692399978637695L8.5,14.692399978637695Q8.4015086,14.692399978637695,8.30491,14.711614978637694Q8.208311,14.730829978637695,8.117317,14.768520978637696Q8.026322,14.806211978637695,7.94443,14.860929978637696Q7.862537,14.915648978637694,7.792893,14.985292978637695Q7.723249,15.054936978637695,7.66853,15.136829978637696Q7.613812,15.218721978637696,7.576121,15.309716978637695Q7.53843,15.400710978637695,7.519215,15.497309978637695Q7.5,15.593908578637695,7.5,15.692399978637695Q7.5,15.790891378637696,7.519215,15.887489978637696Q7.53843,15.984088978637695,7.576121,16.075082978637695Q7.613812,16.166077978637695,7.66853,16.247969978637695Q7.723249,16.329862978637696,7.792893,16.399506978637696Q7.862537,16.469150978637696,7.94443,16.523869978637695Q8.026322,16.578587978637696,8.117317,16.616278978637695Q8.208311,16.653969978637697,8.30491,16.673184978637696Q8.4015086,16.692399978637695,8.5,16.692399978637695Z" fill-rule="evenodd" fill="#0E043E" fill-opacity="1"/></g></g></svg>