<svg xmlns="http://www.w3.org/2000/svg" xmlns:xlink="http://www.w3.org/1999/xlink" fill="none" version="1.1" width="168.6015625" height="145.957275390625" viewBox="0 0 168.6015625 145.957275390625"><g><g transform="matrix(-1,0,0,-1,293.36236572265625,234.9952850341797)"><path d="M151.02204286132812,193.16544251708984C148.11230286132812,192.74294251708983,146.17169286132813,189.94104251708984,146.79941186132814,187.06854251708984L161.13158286132813,121.48395251708985C161.70918286132812,118.84114251708985,164.26068286132812,117.11793651708984,166.92788286132813,117.56930071708985L218.39498286132812,126.27879251708984C218.39608286132813,126.27896251708984,218.39698286132813,126.27827251708985,218.39718286132813,126.27724251708985C218.39738286132814,126.27621251708985,218.39838286132812,126.27552251708984,218.39938286132812,126.27569251708985L222.32428286132813,126.94371251708985C222.3254828613281,126.94392251708985,222.32668286132812,126.94412251708984,222.32788286132813,126.94432251708984L253.89718286132813,132.28664251708983C254.79118286132814,132.43794251708985,255.59318286132813,132.81604251708984,256.25218286132815,133.35314251708985C256.27118286132816,133.36844251708985,256.28918286132813,133.38354251708984,256.30818286132813,133.39894251708984C257.59918286132813,134.45674251708985,258.3361828613281,136.12714251708985,258.1341828613281,137.89724251708984L249.44018286132814,213.99554251708986C249.11718286132813,216.82724251708984,246.52298286132813,218.83564251708984,243.70058286132814,218.43864251708985L208.9760828613281,213.55844251708984C206.15098286132812,213.16134251708985,204.21028286132812,210.51164251708985,204.68408286132814,207.69854251708983L204.7731828613281,207.16974251708984C205.33238286132814,203.84954251708984,203.0505828613281,200.71924251708984,199.71858286132812,200.23544251708984L151.02204286132812,193.16544251708984Z" fill-rule="evenodd" fill="#E8F453" fill-opacity="1"/><path d="M151.02204286132812,193.16544251708984C148.11230286132812,192.74294251708983,146.17169286132813,189.94104251708984,146.79941186132814,187.06854251708984L161.13158286132813,121.48395251708985C161.70918286132812,118.84114251708985,164.26068286132812,117.11793651708984,166.92788286132813,117.56930071708985L218.39498286132812,126.27879251708984C218.39608286132813,126.27896251708984,218.39698286132813,126.27827251708985,218.39718286132813,126.27724251708985C218.39738286132814,126.27621251708985,218.39838286132812,126.27552251708984,218.39938286132812,126.27569251708985L222.32428286132813,126.94371251708985L222.32788286132813,126.94432251708984L253.89718286132813,132.28664251708983C254.79118286132814,132.43794251708985,255.59318286132813,132.81604251708984,256.25218286132815,133.35314251708985C256.27118286132816,133.36844251708985,256.28918286132813,133.38354251708984,256.30818286132813,133.39894251708984C257.59918286132813,134.45674251708985,258.3361828613281,136.12714251708985,258.1341828613281,137.89724251708984L249.44018286132814,213.99554251708986C249.11718286132813,216.82724251708984,246.52298286132813,218.83564251708984,243.70058286132814,218.43864251708985L208.9760828613281,213.55844251708984C206.15098286132812,213.16134251708985,204.21028286132812,210.51164251708985,204.68408286132814,207.69854251708983L204.7731828613281,207.16974251708984C205.33238286132814,203.84954251708984,203.0505828613281,200.71924251708984,199.71858286132812,200.23544251708984L151.02204286132812,193.16544251708984ZM151.30940286132812,191.18614251708985L200.00598286132814,198.25624251708985Q201.64038286132813,198.49354251708985,203.0385828613281,199.35144251708985Q204.38648286132812,200.17834251708985,205.32128286132811,201.46084251708984Q206.25608286132814,202.74334251708984,206.63088286132813,204.27954251708985Q207.01968286132814,205.87324251708986,206.74538286132812,207.50184251708984L206.65638286132813,208.03064251708986Q206.44118286132812,209.30784251708985,207.20648286132814,210.35274251708984Q207.9717828613281,211.39764251708985,209.2543828613281,211.57784251708983L243.97898286132812,216.45814251708984Q245.2602828613281,216.63814251708985,246.28348286132814,215.84614251708985Q247.30718286132813,215.05414251708984,247.45318286132812,213.76854251708983L256.14718286132813,137.67024251708983Q256.2371828613281,136.87834251708983,255.9341828613281,136.14834251708984Q255.63818286132812,135.43544251708985,255.04118286132814,134.94704251708984L255.01518286132813,134.92574251708984L254.98818286132814,134.90294251708985Q254.36418286132812,134.39404251708984,253.56318286132813,134.25854251708984L221.99438286132812,128.91634251708984L221.99138286132813,128.91584251708986L221.98868286132813,128.91534251708984L218.1882828613281,128.26854251708986Q218.12528286132812,128.26154251708985,218.06128286132812,128.25074251708983L166.59418286132814,119.54126251708985Q165.38328286132813,119.33634251708985,164.36548286132813,120.02372251708984Q163.3476828613281,120.71110251708984,163.08548286132813,121.91093251708985L148.75330286132814,187.49554251708986Q148.46831286132812,188.79964251708986,149.22835286132812,189.89704251708986Q149.98838286132812,190.99434251708985,151.30940286132812,191.18614251708985Z" fill-rule="evenodd" fill="#000000" fill-opacity="1"/></g><g transform="matrix(-0.9902680516242981,-0.13917310535907745,0.13917310535907745,-0.9902680516242981,270.889471147166,277.5658183133096)"><path d="M145.7314095449219,200.7748912841797C145.41867854492187,204.2848912841797,148.18384354492187,207.3073912841797,151.70773354492187,207.3073912841797L265.3263835449219,207.3073912841797C268.83338354492184,207.3073912841797,271.59238354492186,204.3118912841797,271.3053835449219,200.8163912841797L266.0403835449219,136.68722128417969C265.7883835449219,133.6139812841797,263.2473835449219,131.2323812841797,260.16438354492186,131.1791012841797L157.68288354492188,129.4081905841797C154.53619354492187,129.35381398417968,151.8822335449219,131.74004128417968,151.60293354492188,134.8748212841797L145.7314095449219,200.7748912841797Z" fill="#FFFFFF" fill-opacity="1"/><path d="M145.7314095449219,200.7748912841797C145.41867854492187,204.2848912841797,148.18384354492187,207.3073912841797,151.70773354492187,207.3073912841797L265.3263835449219,207.3073912841797C268.83338354492184,207.3073912841797,271.59238354492186,204.3118912841797,271.3053835449219,200.8163912841797L266.0403835449219,136.68722128417969C265.7883835449219,133.6139812841797,263.2473835449219,131.2323812841797,260.16438354492186,131.1791012841797L157.68288354492188,129.4081905841797C154.53619354492187,129.35381398417968,151.8822335449219,131.74004128417968,151.60293354492188,134.8748212841797L145.7314095449219,200.7748912841797ZM147.72351354492187,200.95239128417967Q147.56715354492187,202.7073912841797,148.75647354492187,204.00739128417968Q149.94579354492188,205.3073912841797,151.70773354492187,205.3073912841797L265.3263835449219,205.3073912841797Q267.0793835449219,205.3073912841797,268.26738354492187,204.01759128417967Q269.4563835449219,202.7277912841797,269.3123835449219,200.97999128417968L264.0473835449219,136.85088128417968Q263.92138354492187,135.31427128417968,262.79638354492187,134.2598512841797Q261.67138354492187,133.2054412841797,260.1293835449219,133.17880128417968L157.64838354492187,131.4078912841797Q156.07498354492188,131.38070128417968,154.90484354492187,132.43281128417968Q153.73468354492186,133.48492128417968,153.59503354492188,135.0523112841797L147.72351354492187,200.95239128417967Z" fill-rule="evenodd" fill="#000000" fill-opacity="1"/></g><g transform="matrix(-1,0,0,-1,263.9111328125,98.16636657714844)"><path d="M131.95556640625,66.52258328857422C131.95556640625,66.94688328857421,132.22331940625,67.32498328857422,132.62354140625,67.46588328857422L142.60806640625,70.98038328857422C143.48446640625,71.28888328857423,144.27116640625,70.33968328857422,143.80536640625,69.53578328857422L133.82082640625,52.30260328857422C133.30833640625,51.41805328857422,131.95556640625,51.78162328857422,131.95556640625,52.80392328857422L131.95556640625,66.52258328857422Z" fill="#E8F453" fill-opacity="1"/><path d="M131.95556640625,66.52258328857422C131.95556640625,66.94688328857421,132.22331940625,67.32498328857422,132.62354140625,67.46588328857422L142.60806640625,70.98038328857422C143.48446640625,71.28888328857423,144.27116640625,70.33968328857422,143.80536640625,69.53578328857422L133.82082640625,52.30260328857422C133.30833640625,51.41805328857422,131.95556640625,51.78162328857422,131.95556640625,52.80392328857422L131.95556640625,66.52258328857422ZM141.82841640625,69.11568328857422L133.45556640625,66.16858328857421L133.45556640625,54.66429328857422L141.82841640625,69.11568328857422Z" fill-rule="evenodd" fill="#000000" fill-opacity="1"/></g><g transform="matrix(1,0,0,-1,0,56.44298553466797)"><path d="M66.36238098144531,45.79329276733398C66.36238098144531,46.14969276733399,66.55211298144532,46.479192767333984,66.86039398144531,46.65809276733398L80.28528098144531,54.450092767333985C81.18398098144532,54.97179276733398,82.18348098144531,53.946492767333986,81.63908098144532,53.061392767333984L68.21418098144531,31.232522767333982C67.68588098144531,30.373512767333985,66.36238098144531,30.747922767333986,66.36238098144531,31.756382767333985L66.36238098144531,45.79329276733398Z" fill="#E8F453" fill-opacity="1"/><path d="M66.36238098144531,45.79329276733398C66.36238098144531,46.14969276733399,66.55211298144532,46.479192767333984,66.86039398144531,46.65809276733398L80.28528098144531,54.450092767333985C81.18398098144532,54.97179276733398,82.18348098144531,53.946492767333986,81.63908098144532,53.061392767333984L68.21418098144531,31.232522767333982C67.68588098144531,30.373512767333985,66.36238098144531,30.747922767333986,66.36238098144531,31.756382767333985L66.36238098144531,45.79329276733398ZM79.32148098144532,52.15639276733398L67.86238098144531,45.505292767333984L67.86238098144531,33.523832767333985L79.32148098144532,52.15639276733398Z" fill-rule="evenodd" fill="#000000" fill-opacity="1"/></g><g><g><path d="M87.34708400878907,70.62730446044922C87.31728400878906,71.36416446044922,87.54798400878906,71.99683446044922,88.35928400878906,71.37161446044922C92.84008400878906,67.92545346044922,99.90358400878907,69.34708446044922,100.77438400878907,75.58441446044922Q100.84138400878906,76.07565446044921,101.25078400878905,75.79282446044922C105.51568400878907,72.84534446044921,108.82778400878905,71.95217446044921,112.65358400878907,76.27662446044921Q113.91888400878906,77.72058446044922,114.82698400878905,81.20398446044922Q116.34538400878907,87.03938446044921,117.87868400878907,92.85988446044922C119.55338400878907,99.20138446044922,122.80598400878907,108.81048446044922,124.41368400878906,116.87138446044922Q125.57478400878907,122.72158446044922,122.96228400878907,130.6187844604492Q120.01478400878906,137.10918446044923,114.06028400878907,141.32198446044922C107.52528400878907,145.94408446044923,99.45698400878906,147.15738446044924,91.89478400878906,144.74578446044922Q88.24018400878906,143.57718446044922,81.79448400878906,139.1187844604492C76.43548400878906,135.40468446044923,71.13598400878907,131.6309844604492,65.72484400878906,127.99878446044922Q62.338234008789065,125.72118446044922,59.331224008789064,122.96728446044922C53.719124008789066,117.82408446044923,59.807584008789064,109.83018446044922,65.59087400878906,110.58938446044922C67.60048400878907,110.84988446044922,69.22308400878906,112.39058446044922,70.81588400878906,113.52938446044922Q71.85048400878907,114.26628446044921,71.53048400878906,113.03818446044922C69.64738400878906,105.87038446044922,67.97268400878906,98.94828446044922,65.80672400878906,91.96668446044922C64.93587400878906,89.16068446044922,63.74498400878906,85.58048446044921,65.13684400878907,82.80418446044922Q67.74188400878906,77.57168446044922,74.14298400878906,78.56168446044921Q74.62678400878906,78.63608446044921,74.41098400878906,78.20438446044922C69.98978400878906,69.18333446044922,81.49678400878906,62.58129446044922,87.34708400878907,70.62730446044922ZM76.54708400878906,121.32228446044923Q72.56508400878906,118.55348446044923,68.71698400878907,115.59858446044922C62.025624008789066,110.45538446044921,57.12806790878906,118.91818446044923,63.22396400878906,122.60258446044922C69.81858400878906,126.59208446044923,75.82508400878906,131.42258446044923,82.15918400878905,135.65778446044922C91.26958400878905,141.74618446044923,98.81688400878906,146.0408844604492,109.77308400878906,140.46598446044922C118.78668400878905,135.88108446044922,123.82568400878907,124.37398446044922,120.75168400878906,114.68308446044921C117.96048400878905,105.88528446044921,115.82438400878905,96.79728446044922,113.51698400878905,87.85808446044922Q113.21178400878907,86.65978446044922,112.34838400878905,84.50128446044923C111.58918400878906,82.58838446044922,111.38828400878907,79.83438446044921,110.32388400878907,78.36818446044921C107.76348400878906,74.83265446044922,101.96528400878907,76.93161446044923,102.60538400878906,81.51658446044922Q103.19338400878905,85.66978446044922,105.03928400878905,91.17768446044921C106.37908400878906,95.18208446044922,107.18288400878906,98.82928446044922,108.21008400878907,102.72198446044922C108.27358400878907,102.95268446044922,108.15658400878905,103.19628446044922,107.93468400878906,103.29508446044922L105.59008400878906,104.30738446044921Q105.20308400878906,104.47108446044922,105.09888400878907,104.06178446044922Q101.79408400878907,91.10328446044922,98.49678400878906,78.13738446044923C97.84178400878906,75.56952446044922,95.45258400878906,71.02178446044923,92.08828400878906,72.71881446044922C90.89738400878906,73.31426446044922,90.17538400878905,74.78055446044922,89.40878400878907,75.91935446044921Q89.20778400878906,76.21707446044923,89.29718400878906,76.56690446044922L95.63118400878906,100.92818446044922Q95.74288400878906,101.37478446044922,95.29628400878906,101.48638446044922L93.17498400878907,102.02238446044922C92.92968400878905,102.08238446044922,92.68338400878906,101.92718446044921,92.63168400878907,101.67998446044922C90.73368400878906,92.53978446044923,88.00948400878906,85.49858446044922,85.38208400878906,74.55726446044922C83.63298400878907,67.28534546044922,75.45298400878906,69.68946446044922,76.77038400878907,75.00384446044922Q78.31858400878906,81.25608446044922,79.90398400878907,87.50078446044921C81.25118400878907,92.83758446044922,83.77438400878907,100.31788446044922,85.12158400878906,106.92738446044922Q85.21088400878907,107.36648446044921,84.77918400878906,107.47808446044922L82.73978400878906,107.96938446044922C82.48628400878906,108.03078446044921,82.22818400878906,107.88048446044922,82.15178400878906,107.62698446044922Q78.92148400878907,96.50698446044922,76.19728400878907,85.23068446044923C74.85008400878905,79.63348446044922,66.67012400878906,81.43468446044922,67.89078400878907,86.86068446044922C69.45388400878906,93.81258446044922,72.22268400878906,104.05428446044922,74.87238400878906,112.97858446044921Q76.06328400878905,116.98298446044922,76.88208400878906,121.10648446044922Q76.97878400878906,121.62748446044921,76.54708400878906,121.32228446044923Z" fill="#0B0739" fill-opacity="1"/></g><g><path d="M76.88210073890686,121.10639747390746Q76.06340073890686,116.98289747390747,74.87250073890687,112.97859747390747C72.22270073890687,104.05429747390747,69.45390073890687,93.81249747390747,67.89085073890686,86.86069747390746C66.67018073890686,81.43469747390748,74.85010073890686,79.63341747390747,76.19730073890686,85.23059747390747Q78.92150073890686,96.50699747390748,82.15180073890686,107.62699747390747C82.22820073890686,107.88039747390746,82.48640073890687,108.03069747390748,82.73980073890687,107.96929747390747L84.77920073890687,107.47809747390747Q85.21090073890686,107.36649747390747,85.12160073890686,106.92729747390747C83.77440073890686,100.31779747390748,81.25120073890686,92.83749747390748,79.90400073890686,87.50079747390747Q78.31860073890687,81.25599747390747,76.77050073890686,75.00380747390747C75.45300073890687,69.68942647390747,83.63300073890686,67.28529747390748,85.38210073890686,74.55721747390747C88.00950073890687,85.49859747390747,90.73370073890686,92.53979747390747,92.63170073890686,101.67989747390747C92.68340073890687,101.92719747390747,92.92970073890686,102.08239747390746,93.17510073890686,102.02229747390747L95.29630073890687,101.48639747390747Q95.74290073890685,101.37469747390747,95.63130073890686,100.92819747390747L89.29720073890687,76.56685747390748Q89.20790073890686,76.21703747390747,89.40880073890686,75.91930747390747C90.17550073890686,74.78051747390747,90.89750073890686,73.31421747390748,92.08840073890686,72.71876747390748C95.45260073890685,71.02174747390747,97.84190073890686,75.56947747390747,98.49690073890686,78.13735747390747Q101.79420073890685,91.10329747390747,105.09890073890686,104.06169747390747Q105.20310073890687,104.47109747390746,105.59010073890687,104.30729747390747L107.93470073890686,103.29509747390748C108.15660073890686,103.19619747390746,108.27370073890685,102.95259747390747,108.21010073890686,102.72189747390746C107.18300073890686,98.82919747390747,106.37910073890686,95.18209747390748,105.03940073890686,91.17769747390747Q103.19350073890686,85.66979747390747,102.60550073890687,81.51649747390746C101.96540073890685,76.93156747390748,107.76350073890686,74.83261747390748,110.32400073890686,78.36808747390747C111.38830073890686,79.83438747390747,111.58930073890686,82.58829747390747,112.34850073890686,84.50119747390747Q113.21190073890686,86.65969747390747,113.51700073890686,87.85809747390746C115.82440073890686,96.79719747390747,117.96060073890686,105.88529747390747,120.75170073890686,114.68299747390748C123.82570073890686,124.37399747390748,118.78680073890686,135.88099747390748,109.77320073890687,140.46599747390746C98.81690073890687,146.04089747390748,91.26960073890686,141.74619747390747,82.15930073890686,135.6576974739075C75.82520073890686,131.42259747390747,69.81861073890686,126.59199747390747,63.22403073890686,122.60249747390748C57.12813073890686,118.91819747390747,62.02569073890686,110.45529747390748,68.71703073890686,115.59849747390747Q72.56510073890686,118.55339747390747,76.54720073890687,121.32229747390747Q76.97890073890686,121.62739747390748,76.88210073890686,121.10639747390746Z" fill="#DBFDEF" fill-opacity="1"/></g></g><g transform="matrix(0.9621592164039612,-0.2724877595901489,0.2724877595901489,0.9621592164039612,-24.162220087667265,3.6449851282409327)"><path d="" fill="#FFFFFF" fill-opacity="1"/><path d="M1.97354846875,88.54958847705078Q-5.18203953125,114.28705147705078,14.07058046875,130.8237514770508L15.37368046875,129.3065514770508Q-2.91463953125,113.59805147705077,3.90046046875,89.08531447705079L1.97354846875,88.54958847705078Z" fill-rule="evenodd" fill="#000000" fill-opacity="1"/></g><g><path d="" fill="#FFFFFF" fill-opacity="1"/><path d="M166.8163706298828,112.8861751455078Q158.45187062988282,129.4647241455078,144.0593376298828,133.02182414550782L144.53920362988282,134.96342414550782Q159.82367062988283,131.1858241455078,168.60197062988283,113.78707314550782L166.8163706298828,112.8861751455078Z" fill-rule="evenodd" fill="#000000" fill-opacity="1"/></g></g></svg>