<svg xmlns="http://www.w3.org/2000/svg" xmlns:xlink="http://www.w3.org/1999/xlink" fill="none" version="1.1" width="146.17236328125" height="141.1630859375" viewBox="0 0 146.17236328125 141.1630859375"><g><g transform="matrix(0.968205988407135,-0.25015437602996826,0.26773950457572937,0.9634913802146912,-6.37523646378213,0.8693191707607184)"><path d="M92.1573,136.34634033203125C77.8698,136.34634033203125,17.3168,136.34634033203125,3.02934,136.34634033203125C1.37249,136.34634033203125,0,135.03234033203125,0,133.37534033203124C0,119.03194033203125,0,57.06034033203125,0,42.71694033203125C0,41.06134033203125,1.35728,39.76944033203125,2.98949,39.49204033203125C6.36488,38.91854033203125,9.50152,37.38844033203125,11.9601,35.07334033203125C14.3712,32.80304033203125,15.9805,29.91877033203125,16.6164,26.81061033203125C16.9481,25.18875033203125,18.2226,23.81134033203125,19.8781,23.81134033203125C30.2207,23.81134033203125,64.7219,23.81134033203125,75.2125,23.81134033203125C76.872,23.81134033203125,78.2315,25.17110033203125,78.5596,26.797870332031252C78.7742,27.86180033203125,79.1046,28.904770332031248,79.5475,29.90994033203125C80.3978,31.84013033203125,81.6456,33.59264033203125,83.219,35.06634033203125C83.2238,35.07084033203125,83.228,35.07484033203125,83.2328,35.07934033203125C84.7978,36.56124033203125,86.659,37.73664033203125,88.7091,38.53754033203125C89.8383,38.97864033203125,91.0125,39.30144033203125,92.2103,39.50174033203125C93.8469,39.77544033203125,95.1866,41.057640332031255,95.1866,42.71694033203125C95.1866,57.06034033203125,95.1866,119.03194033203125,95.1866,133.37534033203124C95.1866,135.03234033203125,93.8141,136.34634033203125,92.1573,136.34634033203125" fill="#E8F453" fill-opacity="1"/><path d="M92.1573,136.34634033203125L3.02934,136.34634033203125C1.37249,136.34634033203125,0,135.03234033203125,0,133.37534033203124L0,42.71694033203125C0,41.06134033203125,1.35728,39.76944033203125,2.98949,39.49204033203125C6.36488,38.91854033203125,9.50152,37.38844033203125,11.9601,35.07334033203125C14.3712,32.80304033203125,15.9805,29.91877033203125,16.6164,26.81061033203125C16.9481,25.18875033203125,18.2226,23.81134033203125,19.8781,23.81134033203125L75.2125,23.81134033203125C76.872,23.81134033203125,78.2315,25.17110033203125,78.5596,26.797870332031252C78.7742,27.86180033203125,79.1046,28.904770332031248,79.5475,29.90994033203125C80.3978,31.84013033203125,81.6456,33.59264033203125,83.219,35.06634033203125C83.2238,35.07084033203125,83.228,35.07484033203125,83.2328,35.07934033203125C84.7978,36.56124033203125,86.659,37.73664033203125,88.7091,38.53754033203125C89.8383,38.97864033203125,91.0125,39.30144033203125,92.2103,39.50174033203125C93.8469,39.77544033203125,95.1866,41.057640332031255,95.1866,42.71694033203125L95.1866,133.37534033203124C95.1866,135.03234033203125,93.8141,136.34634033203125,92.1573,136.34634033203125ZM92.1573,134.34634033203125Q92.5927,134.34634033203125,92.898,134.04934033203125Q93.1866,133.76834033203124,93.1866,133.37534033203124L93.1866,88.04614033203126L93.1866,42.71694033203125Q93.1866,42.30534033203125,92.8692,41.97454033203125Q92.4864,41.575740332031245,91.8804,41.47434033203125Q89.8694,41.13804033203125,87.9813,40.40044033203125Q84.5121,39.04514033203125,81.8593,36.53314033203125L81.8569,36.53084033203125L81.8517,36.52604033203125Q79.1702,34.01424033203125,77.7172,30.71627033203125Q76.9654,29.00980033203125,76.5991,27.19324033203125Q76.4746,26.57581033203125,76.0285,26.16390033203125Q75.6467,25.81134033203125,75.2125,25.81134033203125L47.5933,25.81134033203125L19.8781,25.81134033203125Q19.4823,25.81134033203125,19.1395,26.14208033203125Q18.7097,26.55678033203125,18.5758,27.21145033203125Q17.4661,32.63590033203125,13.3312,36.52944033203125Q9.14041,40.47554033203125,3.32453,41.46384033203125Q2.71565,41.56724033203125,2.32375,41.97454033203125Q2,42.31094033203125,2,42.71694033203125L2,133.37534033203124Q2,133.76834033203124,2.28859,134.04934033203125Q2.59395,134.34634033203125,3.02934,134.34634033203125L92.1573,134.34634033203125Z" fill-rule="evenodd" fill="#0E043E" fill-opacity="1"/></g><g><path d="M120.0084,132.00006103515625C105.8991,132.00006103515625,46.100899999999996,132.00006103515625,31.99158,132.00006103515625C30.33472,132.00006103515625,29,130.64706103515624,29,128.99006103515626C29,114.45986103515625,29,51.68186103515625,29,37.151761035156255C29,35.49616103515625,30.37042,34.16526103515625,32.00059,33.87636103515625C35.3155,33.28876103515625,38.394819999999996,31.74246103515625,40.811,29.40866103515625C43.2038,27.097431035156248,44.797,24.15812103515625,45.4184,20.99174103515625C45.737300000000005,19.36725103515625,47.0696,18.00006103515625,48.7251,18.00006103515625C59.0531,18.00006103515625,92.9469,18.00006103515625,103.2749,18.00006103515625C104.9343,18.00006103515625,106.256,19.34956103515625,106.5712,20.978811035156248C106.7827,22.07275103515625,107.1122,23.14509103515625,107.5558,24.178031035156252C108.3956,26.13334103515625,109.6278,27.90866103515625,111.1815,29.40156103515625C111.1863,29.406161035156252,111.1905,29.41016103515625,111.1952,29.41476103515625C112.7407,30.91596103515625,114.5787,32.10656103515625,116.6032,32.91796103515625C117.7032,33.35876103515625,118.8463,33.68276103515625,120.0124,33.88626103515625C121.6471,34.17156103515625,123,35.49236103515625,123,37.151761035156255C123,51.68186103515625,123,114.45986103515625,123,128.99006103515626C123,130.64706103515624,121.6653,132.00006103515625,120.0084,132.00006103515625" fill="#FFFFFF" fill-opacity="1"/><path d="M120.0084,132.00006103515625L31.99158,132.00006103515625C30.33472,132.00006103515625,29,130.64706103515624,29,128.99006103515626L29,37.151761035156255C29,35.49616103515625,30.37042,34.16526103515625,32.00059,33.87636103515625C35.3155,33.28876103515625,38.394819999999996,31.74246103515625,40.811,29.40866103515625C43.2038,27.097431035156248,44.797,24.15812103515625,45.4184,20.99174103515625C45.737300000000005,19.36725103515625,47.0696,18.00006103515625,48.7251,18.00006103515625L103.2749,18.00006103515625C104.9343,18.00006103515625,106.256,19.34956103515625,106.5712,20.978811035156248C106.7827,22.07275103515625,107.1122,23.14509103515625,107.5558,24.178031035156252C108.3956,26.13334103515625,109.6278,27.90866103515625,111.1815,29.40156103515625C111.1863,29.406161035156252,111.1905,29.41016103515625,111.1952,29.41476103515625C112.7407,30.91596103515625,114.5787,32.10656103515625,116.6032,32.91796103515625C117.7032,33.35876103515625,118.8463,33.68276103515625,120.0124,33.88626103515625C121.6471,34.17156103515625,123,35.49236103515625,123,37.151761035156255L123,128.99006103515626C123,130.64706103515624,121.6653,132.00006103515625,120.0084,132.00006103515625ZM120.0084,130.00006103515625Q120.4159,130.00006103515625,120.7053,129.70806103515625Q121,129.41106103515625,121,128.99006103515626L121,83.07086103515626L121,37.151761035156255Q121,36.73076103515625,120.6666,36.37846103515625Q120.2723,35.96186103515625,119.6686,35.85656103515625Q117.7041,35.51366103515625,115.8592,34.77436103515625Q112.4262,33.39856103515625,109.8029,30.85056103515625L109.8017,30.84936103515625L109.7958,30.84376103515625Q107.1502,28.30166103515625,105.7181,24.96727103515625Q104.9675,23.21949103515625,104.6076,21.35861103515625Q104.4877,20.739131035156248,104.0595,20.33771103515625Q103.6992,20.00006103515625,103.2749,20.00006103515625L76,20.00006103515625L48.7251,20.00006103515625Q48.3064,20.00006103515625,47.94,20.34426103515625Q47.5031,20.75483103515625,47.381,21.37693103515625Q46.2993,26.88803103515625,42.2005,30.847161035156248Q38.07647,34.830661035156254,32.34964,35.845661035156255Q31.74313,35.95316103515625,31.33976,36.37826103515625Q31,36.73626103515625,31,37.151761035156255L31,128.99006103515626Q31,129.41106103515625,31.2947,129.70806103515625Q31.58412,130.00006103515625,31.99158,130.00006103515625L120.0084,130.00006103515625Z" fill-rule="evenodd" fill="#0E043E" fill-opacity="1"/></g><g><path d="M46.44482421875,102.00633056640625L49.30482421875,102.00633056640625L49.30482421875,94.62633056640625Q49.30482421875,93.62633056640625,49.22482421875,92.12633056640625L49.26482421875,92.12633056640625Q49.82482421875,93.34633056640625,50.28482421875,94.10633056640626L55.16482421875,102.00633056640625L57.964824218749996,102.00633056640625L57.964824218749996,87.70633156640625L55.10482421875,87.70633156640625L55.10482421875,95.20633056640625Q55.10482421875,96.20633056640625,55.18482421875,97.68633056640626L55.14482421875,97.68633056640626Q54.60482421875,96.46633056640624,54.14482421875,95.68633056640626L49.38482421875,87.70633156640625L46.44482421875,87.70633156640625L46.44482421875,102.00633056640625ZM66.44482421875,102.32633056640626C70.66482421875,102.32633056640626,73.32482421875,99.16633056640624,73.32482421875,94.88633056640624C73.32482421875,90.60633056640626,70.66482421875,87.42633056640625,66.44482421875,87.42633056640625C62.22482421875,87.42633056640625,59.54482421875,90.60633056640626,59.54482421875,94.88633056640624C59.54482421875,99.16633056640624,62.22482421875,102.32633056640626,66.44482421875,102.32633056640626ZM66.46482421875,99.94633056640625C63.84482421875,99.94633056640625,62.50482421875,97.72633056640625,62.50482421875,94.88633056640624C62.50482421875,92.02633056640624,63.84482421875,89.80633056640625,66.46482421875,89.80633056640625C69.08482421875,89.80633056640625,70.36482421875,92.02633056640624,70.36482421875,94.88633056640624C70.36482421875,97.72633056640625,69.08482421875,99.94633056640625,66.46482421875,99.94633056640625ZM76.68502421875,97.82633056640626L78.00492421875,97.82633056640626L78.76462421875,90.86633056640625L78.76462421875,87.70635956640625L75.92482421875,87.70635956640625L75.92482421875,90.86633056640625L76.68502421875,97.82633056640626ZM75.72462421875,100.48633056640625C75.72462421875,101.42633056640625,76.44472421875,102.08633056640625,77.34472421875,102.08633056640625C78.24472421875001,102.08633056640625,78.96482421875001,101.42633056640625,78.96482421875001,100.48633056640625C78.96482421875001,99.56633056640625,78.24472421875001,98.90633056640625,77.34472421875,98.90633056640625C76.44472421875,98.90633056640625,75.72462421875,99.56633056640625,75.72462421875,100.48633056640625Z" fill="#0E043E" fill-opacity="1"/></g><g><path d="M75.2509265625,63.32623291015625C75.2509265625,63.32623291015625,48.4384765625,63.32623291015625,48.4384765625,63.32623291015625C46.7298465625,63.32623291015625,45.3447265625,64.66938291015624,45.3447265625,66.32623291015625C45.3447265625,67.98308291015626,46.7298465625,69.32623291015625,48.4384765625,69.32623291015625C48.4384765625,69.32623291015625,75.2509265625,69.32623291015625,75.2509265625,69.32623291015625C76.9596265625,69.32623291015625,78.3447265625,67.98308291015626,78.3447265625,66.32623291015625C78.3447265625,64.66938291015624,76.9596265625,63.32623291015625,75.2509265625,63.32623291015625Z" fill="#0E043E" fill-opacity="1"/><path d="M75.2509265625,63.32623291015625L48.4384765625,63.32623291015625C46.7298465625,63.32623291015625,45.3447265625,64.66938291015624,45.3447265625,66.32623291015625C45.3447265625,67.98308291015626,46.7298465625,69.32623291015625,48.4384765625,69.32623291015625L75.2509265625,69.32623291015625C76.9596265625,69.32623291015625,78.3447265625,67.98308291015626,78.3447265625,66.32623291015625C78.3447265625,64.66938291015624,76.9596265625,63.32623291015625,75.2509265625,63.32623291015625ZM75.2509265625,64.32623291015625L48.4384765625,64.32623291015625Q47.5622365625,64.32623291015625,46.947016562499996,64.92281291015625Q46.3447265625,65.50685291015625,46.3447265625,66.32623291015625Q46.3447265625,67.14561291015625,46.947016562499996,67.72965291015625Q47.5622365625,68.32623291015625,48.4384765625,68.32623291015625L75.2509265625,68.32623291015625Q76.1272265625,68.32623291015625,76.7424265625,67.72965291015625Q77.3447265625,67.14563291015625,77.3447265625,66.32623291015625Q77.3447265625,65.50683291015625,76.7424265625,64.92281291015625Q76.1272265625,64.32623291015625,75.2509265625,64.32623291015625Z" fill-rule="evenodd" fill="#FFFFFF" fill-opacity="1"/></g><g><path d="M95.1647265625,48.32623291015625C95.1647265625,48.32623291015625,48.5247265625,48.32623291015625,48.5247265625,48.32623291015625C46.7684665625,48.32623291015625,45.3447265625,49.66938291015625,45.3447265625,51.32623291015625C45.3447265625,52.98308291015625,46.7684665625,54.32623291015625,48.5247265625,54.32623291015625C48.5247265625,54.32623291015625,95.1647265625,54.32623291015625,95.1647265625,54.32623291015625C96.9210265625,54.32623291015625,98.3447265625,52.98308291015625,98.3447265625,51.32623291015625C98.3447265625,49.66938291015625,96.9210265625,48.32623291015625,95.1647265625,48.32623291015625Z" fill="#0E043E" fill-opacity="1"/><path d="M95.1647265625,48.32623291015625L48.5247265625,48.32623291015625C46.7684665625,48.32623291015625,45.3447265625,49.66938291015625,45.3447265625,51.32623291015625C45.3447265625,52.98308291015625,46.7684665625,54.32623291015625,48.5247265625,54.32623291015625L95.1647265625,54.32623291015625C96.9210265625,54.32623291015625,98.3447265625,52.98308291015625,98.3447265625,51.32623291015625C98.3447265625,49.66938291015625,96.9210265625,48.32623291015625,95.1647265625,48.32623291015625ZM95.1647265625,49.32623291015625L48.5247265625,49.32623291015625Q47.6047865625,49.32623291015625,46.9623465625,49.93230291015625Q46.3447265625,50.51497291015625,46.3447265625,51.32623291015625Q46.3447265625,52.13749291015625,46.9623465625,52.72016291015625Q47.6047865625,53.32623291015625,48.5247265625,53.32623291015625L95.1647265625,53.32623291015625Q96.08472656250001,53.32623291015625,96.72712656249999,52.72016291015625Q97.3447265625,52.13750291015625,97.3447265625,51.32623291015625Q97.3447265625,50.51496291015625,96.72712656249999,49.93230291015625Q96.08472656250001,49.32623291015625,95.1647265625,49.32623291015625Z" fill-rule="evenodd" fill="#FFFFFF" fill-opacity="1"/></g><g><g><path d="M146.17236328125,109.6630859375C146.17236328125,127.06008593749999,132.06936328125,141.1630859375,114.67236328125,141.1630859375C97.27536328125,141.1630859375,83.172362778518,127.06008593749999,83.17236328125,109.6630859375C83.17236705174,92.2660859375,97.27536328125,78.163086188866,114.67236328125,78.1630859375C132.06936328125,78.16309021072,146.17236328125,92.2660859375,146.17236328125,109.6630859375ZM144.19486328125,109.6630859375C144.19486328125,93.3582859375,130.97716328125,80.1405659375,114.67236328125,80.1405659375C98.36756328125,80.1405659375,85.14984328125,93.3582859375,85.14984328125,109.6630859375C85.14984328125,125.9678859375,98.36756328125,139.1855859375,114.67236328125,139.1855859375C130.97716328125,139.1855859375,144.19486328125,125.9678859375,144.19486328125,109.6630859375Z" fill="#0E043E" fill-opacity="1"/></g><g><path d="M144.19484488487245,109.66305943489076C144.19484488487245,125.96795943489074,130.97724488487245,139.18555943489076,114.67234488487244,139.18555943489076C98.36754488487244,139.18555943489076,85.14984589033244,125.96795943489074,85.14984488487244,109.66305943489076C85.14984387941243,93.35825943489075,98.36754488487244,80.14055842943074,114.67234488487244,80.14055943489075C130.97724488487245,80.14055842943074,144.19484488487245,93.35825943489075,144.19484488487245,109.66305943489076ZM96.91124488487243,123.92785943489075Q112.99274488487244,107.86155943489075,129.06294488487242,91.78335943489074C129.58284488487243,91.26285943489074,129.60594488487243,90.57615943489074,128.98854488487245,90.12680943489075C121.73684488487244,84.84934943489074,112.03594488487244,83.90442943489074,103.97974488487243,87.92396943489075C90.59928488487243,94.60105943489074,86.25291488487244,111.55355943489074,94.97860488487244,123.76045943489075Q95.29684488487244,124.20585943489075,95.52424488487243,124.33105943489075C96.07504488487244,124.63485943489076,96.51654488487243,124.32185943489074,96.91124488487243,123.92785943489075ZM100.82344488487243,129.52745943489074C109.07134488487245,135.28725943489076,120.25294488487243,135.36505943489075,128.51144488487245,129.54065943489076C139.49404488487244,121.79485943489075,142.23914488487245,106.76375943489074,134.45704488487243,95.69025943489075Q134.16184488487244,95.27045943489074,133.93844488487244,95.12885943489074C133.30454488487243,94.72685943489074,132.86044488487244,95.15845943489074,132.37084488487244,95.64875943489075Q116.44884488487244,111.57205943489075,100.52624488487244,127.49335943489075C100.11834488487244,127.90125943489075,99.80404488487244,128.32495943489073,100.09984488487244,128.86325943489075Q100.24154488487244,129.12155943489074,100.82344488487243,129.52745943489074Z" fill="#FFFFFF" fill-opacity="1"/></g><g><path d="M96.91128502593995,123.9277817352295C96.51657502593994,124.32188173522948,96.07508502593994,124.6348817352295,95.52421502593994,124.33108173522949Q95.29687502593994,124.2058817352295,94.97861502593994,123.76048173522949C86.25291502593994,111.5535817352295,90.59929202593995,94.6010217352295,103.97977502593994,87.92397173522949C112.03597502593993,83.9044317352295,121.73687502593994,84.84935273522949,128.98847502593995,90.1268117352295C129.60597502593993,90.57620173522949,129.58287502593993,91.2628217352295,129.06297502593995,91.7833817352295Q112.99277502593995,107.86158173522949,96.91128502593995,123.9277817352295ZM108.23187502593994,88.36480173522949C94.07322502593995,92.65912173522949,87.89368502593994,109.44958173522949,96.10012502593995,121.8962817352295Q96.11594502593994,121.9206817352295,96.13702502593995,121.89958173522949L126.90827502593994,91.12840173522949C126.92187502593994,91.11510173522949,126.91957502593993,91.0926017352295,126.90367502593995,91.0822717352295C121.40017502593994,87.47391173522949,114.52867502593995,86.45519173522949,108.23187502593994,88.36480173522949Z" fill="#0E043E" fill-opacity="1"/></g><g><path d="M96.10012335510254,121.89634980926513C87.89367335510254,109.44954980926514,94.07322335510254,92.65911980926514,108.23187335510254,88.36479980926514C114.52867335510254,86.45518980926514,121.40017335510254,87.47391150926514,126.90367335510254,91.08226980926514C126.91957335510253,91.09259980926514,126.92187335510255,91.11509980926513,126.90827335510254,91.12839980926513L96.13702335510254,121.89964980926513Q96.11594335510254,121.92064980926514,96.10012335510254,121.89634980926513Z" fill="#FFFFFF" fill-opacity="1"/></g><g><path d="M100.09989089758301,128.86330721435547C99.80402689758301,128.32490721435548,100.11834089758301,127.90120721435547,100.526224897583,127.49340721435547Q116.44889189758301,111.57200721435547,132.37089189758302,95.64873221435546C132.86049189758302,95.15848021435546,133.304591897583,94.72687321435546,133.938491897583,95.12882721435547Q134.16189189758302,95.27049921435547,134.457091897583,95.69024621435547C142.239191897583,106.76370721435546,139.49399189758302,121.79480721435547,128.511391897583,129.54070721435548C120.25289189758301,135.36510721435548,109.071371897583,135.28730721435548,100.82340789758301,129.52750721435547Q100.24156189758301,129.12160721435546,100.09989089758301,128.86330721435547ZM102.547851897583,128.31830721435546Q108.660851897583,132.21990721435546,115.857091897583,131.87270721435547C125.833491897583,131.39230721435547,134.388491897583,124.06360721435547,136.433891897583,114.29350721435547C137.649591897583,108.48550721435547,136.533991897583,102.49380721435547,133.31449189758303,97.53132721435547C133.309391897583,97.52321721435547,133.29819189758302,97.52190721435547,133.29209189758302,97.52868721435547L102.54390189758301,128.27680721435547C102.53163189758301,128.28910721435545,102.53356189758301,128.30930721435547,102.547851897583,128.31830721435546Z" fill="#0E043E" fill-opacity="1"/></g><g><path d="M102.54786606323242,128.31831869506837C102.53357442323242,128.30931869506836,102.53164594323242,128.28901869506836,102.54391260323243,128.27681869506836L133.29210856323243,97.52868642506836C133.29820856323244,97.52189954506837,133.3094085632324,97.52321067506836,133.31450856323244,97.53132074506836C136.53400856323242,102.49380869506837,137.64960856323242,108.48551869506836,136.43390856323242,114.29341869506837C134.38850856323242,124.06351869506835,125.83350856323241,131.39231869506835,115.85710856323243,131.87271869506836Q108.66085856323242,132.21991869506837,102.54786606323242,128.31831869506837Z" fill="#FFFFFF" fill-opacity="1"/></g></g></g></svg>