<svg xmlns="http://www.w3.org/2000/svg" xmlns:xlink="http://www.w3.org/1999/xlink" fill="none" version="1.1" width="16" height="16" viewBox="0 0 16 16"><g><g><rect x="0" y="0" width="16" height="16" rx="0" fill="#C0C4CC" fill-opacity="0.009999999776482582"/></g><g><g><ellipse cx="8" cy="8.529412031173706" rx="4" ry="4" fill-opacity="0" stroke-opacity="1" stroke="#0E043E" fill="none" stroke-width="1" stroke-linejoin="round"/></g><g><path d="M6.58823561668396,2.666667L9.41176561668396,2.666667Q9.46101561668396,2.666667,9.50930561668396,2.676274Q9.55760561668396,2.685881,9.60310561668396,2.704727Q9.648605616683959,2.723572,9.68954561668396,2.750932Q9.73049561668396,2.778291,9.76531561668396,2.813113Q9.80013561668396,2.847935,9.82749561668396,2.888882Q9.85485561668396,2.9298279,9.87370561668396,2.975325Q9.892545616683961,3.0208221,9.90215561668396,3.0691215Q9.91176561668396,3.117421,9.91176561668396,3.166667Q9.91176561668396,3.215912,9.90215561668396,3.264212Q9.892545616683961,3.3125109999999998,9.87370561668396,3.358008Q9.85485561668396,3.403505,9.82749561668396,3.444452Q9.80013561668396,3.485398,9.76531561668396,3.52022Q9.73049561668396,3.5550420000000003,9.68954561668396,3.582401Q9.648605616683959,3.6097609999999998,9.60310561668396,3.628606Q9.55760561668396,3.647452,9.50930561668396,3.657059Q9.46101561668396,3.666667,9.41176561668396,3.666667L6.58823561668396,3.666667Q6.53898991668396,3.666667,6.49069051668396,3.657059Q6.44239061668396,3.647452,6.39689361668396,3.628606Q6.35139661668396,3.6097609999999998,6.31045061668396,3.582401Q6.26950461668396,3.5550420000000003,6.23468261668396,3.52022Q6.19986061668396,3.485398,6.17250061668396,3.444452Q6.14514161668396,3.403505,6.12629561668396,3.358008Q6.10745061668396,3.3125109999999998,6.09784261668396,3.264212Q6.08823561668396,3.215912,6.08823561668396,3.166667Q6.08823561668396,3.117421,6.09784261668396,3.0691215Q6.10745061668396,3.0208221,6.12629561668396,2.975325Q6.14514161668396,2.9298279,6.17250061668396,2.888882Q6.19986061668396,2.847935,6.23468261668396,2.813113Q6.26950461668396,2.778291,6.31045061668396,2.750932Q6.35139661668396,2.723572,6.39689361668396,2.704727Q6.44239061668396,2.685881,6.49069051668396,2.676274Q6.53898991668396,2.666667,6.58823561668396,2.666667Z" fill-rule="evenodd" fill="#0E043E" fill-opacity="1"/></g><g><path d="M7.54902054423523,6.647059202194214Q7.54902054423523,6.597813502194214,7.55862754423523,6.549514102194214Q7.56823454423523,6.501214202194214,7.58708054423523,6.455717202194214Q7.605925544235229,6.410220202194214,7.633285544235229,6.369274202194214Q7.66064454423523,6.328328202194214,7.69546654423523,6.293506202194214Q7.730288544235229,6.258684202194214,7.771235544235229,6.231324202194214Q7.81218144423523,6.2039652021942135,7.857678544235229,6.185119202194214Q7.90317564423523,6.166274202194214,7.951475044235229,6.156666202194214Q7.99977454423523,6.147059202194214,8.04902054423523,6.147059202194214Q8.098265544235229,6.147059202194214,8.14656554423523,6.156666202194214Q8.19486454423523,6.166274202194214,8.24036154423523,6.185119202194214Q8.285858544235229,6.2039652021942135,8.32680554423523,6.231324202194214Q8.36775154423523,6.258684202194214,8.40257354423523,6.293506202194214Q8.43739554423523,6.328328202194214,8.46475454423523,6.369274202194214Q8.49211454423523,6.410220202194214,8.510959544235229,6.455717202194214Q8.529805544235229,6.501214202194214,8.53941254423523,6.549514102194214Q8.54902054423523,6.597813502194214,8.54902054423523,6.647059202194214L8.54902054423523,8.529409202194215Q8.54902054423523,8.578659202194213,8.53941254423523,8.626959202194215Q8.529805544235229,8.675259202194214,8.510959544235229,8.720749202194213Q8.49211454423523,8.766249202194214,8.46475454423523,8.807199202194214Q8.43739554423523,8.848139202194215,8.40257354423523,8.882969202194214Q8.36775154423523,8.917789202194214,8.32680554423523,8.945149202194214Q8.285858544235229,8.972509202194214,8.24036154423523,8.991349202194215Q8.19486454423523,9.010199202194213,8.14656554423523,9.019809202194214Q8.098265544235229,9.029409202194215,8.04902054423523,9.029409202194215Q7.99977454423523,9.029409202194215,7.951475044235229,9.019809202194214Q7.90317564423523,9.010199202194213,7.857678544235229,8.991349202194215Q7.81218144423523,8.972509202194214,7.771235544235229,8.945149202194214Q7.730288544235229,8.917789202194214,7.69546654423523,8.882969202194214Q7.66064454423523,8.848139202194215,7.633285544235229,8.807199202194214Q7.605925544235229,8.766249202194214,7.58708054423523,8.720749202194213Q7.56823454423523,8.675259202194214,7.55862754423523,8.626959202194215Q7.54902054423523,8.578659202194213,7.54902054423523,8.529409202194215L7.54902054423523,6.647059202194214Z" fill-rule="evenodd" fill="#0E043E" fill-opacity="1"/></g><g><path d="M8,8.078432098571778L9.88235,8.078432098571778Q9.9316,8.078432098571778,9.9799,8.088039098571777Q10.0282,8.097646098571778,10.07369,8.116492098571777Q10.11919,8.135337098571778,10.16014,8.162697098571778Q10.201080000000001,8.190056098571777,10.23591,8.224878098571777Q10.27073,8.259700098571777,10.29809,8.300647098571778Q10.32545,8.341592998571777,10.34429,8.387090098571777Q10.36314,8.432587198571778,10.37275,8.480886598571777Q10.38235,8.529186098571778,10.38235,8.578432098571778Q10.38235,8.627677098571777,10.37275,8.675977098571778Q10.36314,8.724276098571778,10.34429,8.769773098571777Q10.32545,8.815270098571776,10.29809,8.856217098571777Q10.27073,8.897163098571777,10.23591,8.931985098571777Q10.201080000000001,8.966807098571778,10.16014,8.994166098571778Q10.11919,9.021526098571778,10.07369,9.040371098571777Q10.0282,9.059217098571777,9.9799,9.068824098571778Q9.9316,9.078432098571778,9.88235,9.078432098571778L8,9.078432098571778Q7.9507543,9.078432098571778,7.9024549,9.068824098571778Q7.854155,9.059217098571777,7.808658,9.040371098571777Q7.763161,9.021526098571778,7.722215,8.994166098571778Q7.681269,8.966807098571778,7.646447,8.931985098571777Q7.611625,8.897163098571777,7.584265,8.856217098571777Q7.556906,8.815270098571776,7.53806,8.769773098571777Q7.519215,8.724276098571778,7.509607,8.675977098571778Q7.5,8.627677098571777,7.5,8.578432098571778Q7.5,8.529186098571778,7.509607,8.480886598571777Q7.519215,8.432587198571778,7.53806,8.387090098571777Q7.556906,8.341592998571777,7.584265,8.300647098571778Q7.611625,8.259700098571777,7.646447,8.224878098571777Q7.681269,8.190056098571777,7.722215,8.162697098571778Q7.763161,8.135337098571778,7.808658,8.116492098571777Q7.854155,8.097646098571778,7.9024549,8.088039098571777Q7.9507543,8.078432098571778,8,8.078432098571778Z" fill-rule="evenodd" fill="#0E043E" fill-opacity="1"/></g><g><path d="M8.54902054423523,3.11764707416296L8.54902054423523,4.05882407416296Q8.54902054423523,4.10806907416296,8.53941254423523,4.15636707416296Q8.529805544235229,4.20466707416296,8.510959544235229,4.25016707416296Q8.49211454423523,4.29566707416296,8.46475454423523,4.33660707416296Q8.43739554423523,4.37755707416296,8.40257354423523,4.4123770741629595Q8.36775154423523,4.44719707416296,8.32680554423523,4.47455707416296Q8.285858544235229,4.50191707416296,8.24036154423523,4.5207670741629595Q8.19486454423523,4.53960707416296,8.14656554423523,4.54921707416296Q8.098265544235229,4.55882707416296,8.04902054423523,4.55882707416296Q7.99977454423523,4.55882707416296,7.951475044235229,4.54921707416296Q7.90317564423523,4.53960707416296,7.857678544235229,4.5207670741629595Q7.81218144423523,4.50191707416296,7.771235544235229,4.47455707416296Q7.730288544235229,4.44719707416296,7.69546654423523,4.4123770741629595Q7.66064454423523,4.37755707416296,7.633285544235229,4.33660707416296Q7.605925544235229,4.29566707416296,7.58708054423523,4.25016707416296Q7.56823454423523,4.20466707416296,7.55862754423523,4.15636707416296Q7.54902054423523,4.10806907416296,7.54902054423523,4.05882407416296L7.54902054423523,3.11764707416296Q7.54902054423523,3.06840137416296,7.55862754423523,3.02010197416296Q7.56823454423523,2.97180207416296,7.58708054423523,2.92630507416296Q7.605925544235229,2.8808080741629603,7.633285544235229,2.83986207416296Q7.66064454423523,2.79891607416296,7.69546654423523,2.7640940741629603Q7.730288544235229,2.72927207416296,7.771235544235229,2.70191207416296Q7.81218144423523,2.67455307416296,7.857678544235229,2.65570707416296Q7.90317564423523,2.63686207416296,7.951475044235229,2.62725407416296Q7.99977454423523,2.61764707416296,8.04902054423523,2.61764707416296Q8.098265544235229,2.61764707416296,8.14656554423523,2.62725407416296Q8.19486454423523,2.63686207416296,8.24036154423523,2.65570707416296Q8.285858544235229,2.67455307416296,8.32680554423523,2.70191207416296Q8.36775154423523,2.72927207416296,8.40257354423523,2.7640940741629603Q8.43739554423523,2.79891607416296,8.46475454423523,2.83986207416296Q8.49211454423523,2.8808080741629603,8.510959544235229,2.92630507416296Q8.529805544235229,2.97180207416296,8.53941254423523,3.02010197416296Q8.54902054423523,3.06840137416296,8.54902054423523,3.11764707416296Z" fill-rule="evenodd" fill="#0E043E" fill-opacity="1"/></g></g></g></svg>