<svg xmlns="http://www.w3.org/2000/svg" xmlns:xlink="http://www.w3.org/1999/xlink" fill="none" version="1.1" width="28" height="28" viewBox="0 0 28 28"><defs><mask id="master_svg0_854_80977" style="mask-type:alpha" maskUnits="userSpaceOnUse"><g><rect x="0" y="0" width="28" height="28" rx="0" fill="#FFFFFF" fill-opacity="1"/></g></mask></defs><g style="opacity:0.4000000059604645;" mask="url(#master_svg0_854_80977)"><g><g><path d="M24.489533253860472,15.944947422943116C24.037633253860474,15.422787422943115,23.319433253860474,15.163487422943115,22.641133253860474,15.359917422943115Q22.541233253860472,15.388947422943115,22.308233253860475,15.485477422943115Q20.589633253860473,16.197837422943117,18.862033253860474,16.922317422943117Q18.851733253860473,16.926597422943114,18.851033253860475,16.937637422943116C18.802633253860474,17.754547422943116,18.206533253860474,18.396747422943115,17.402033253860473,18.519267422943116Q17.276733253860474,18.538327422943116,17.046933253860473,18.538857422943117Q14.072033253860473,18.546337422943115,11.101723253860474,18.542247422943113C11.092683253860473,18.542247422943113,11.085353253860474,18.534907422943114,11.085353253860474,18.525857422943115L11.085353253860474,17.590517422943115Q11.085353253860474,17.568257422943116,11.107603253860473,17.568257422943116Q14.100333253860473,17.568077422943116,17.074633253860476,17.567727422943115C17.20763325386047,17.567727422943115,17.347033253860474,17.551167422943116,17.466433253860473,17.497197422943117C17.872033253860472,17.314297422943113,18.006233253860472,16.785367422943114,17.753533253860475,16.417607422943114Q17.546533253860474,16.116097422943113,17.138033253860474,16.116097422943113Q15.413333253860474,16.115737422943116,13.688433253860474,16.116987422943115C13.573233253860474,16.116987422943115,13.446733253860474,16.112357422943116,13.319833253860473,16.074427422943117Q11.608463253860474,15.563657422943116,9.897273253860472,15.052707422943115C9.122313253860472,14.821190422943115,8.224183253860474,14.780585422943116,7.408463253860473,14.952977422943116Q7.405793253860474,14.953517422943115,7.061563253860474,15.032587422943115C5.528903253860474,15.383957422943116,3.9985532538604733,15.744417422943116,2.465534253860474,16.095077422943113Q2.448803253860474,16.098817422943114,2.4450652538604736,16.082077422943115C2.4089339538604735,15.917527422943115,2.3578512538604737,15.742107422943116,2.3436120538604737,15.585387422943116Q2.3231434538604736,15.362767422943115,2.3434341538604735,15.138547422943116Q2.3441460538604737,15.129647422943115,2.3530454538604735,15.127507422943115Q4.790243253860474,14.562244422943115,7.227263253860474,13.996980422943116C8.209943253860473,13.769022422943115,9.300483253860474,13.862164942943116,10.261973253860473,14.149605422943115Q11.877403253860473,14.632591422943115,13.492633253860474,15.116467422943115C13.554033253860474,15.134807422943116,13.622233253860474,15.143357422943115,13.685433253860474,15.143537422943115Q15.386633253860474,15.147987422943116,17.088033253860473,15.144427422943116Q18.077233253860474,15.142287422943115,18.611433253860472,15.956347422943114C18.616633253860474,15.964187422943116,18.626633253860472,15.967257422943115,18.635233253860473,15.963647422943115Q20.296433253860474,15.270157422943115,21.961733253860473,14.578094422943115Q22.177833253860474,14.488336422943116,22.294333253860472,14.452539422943115C23.649933253860475,14.035804422943116,25.030233253860473,14.692785422943116,25.629833253860475,15.953317422943115C25.682233253860474,16.063557422943116,25.663733253860475,16.228647422943116,25.662633253860474,16.357057422943114C25.662433253860474,16.376327422943113,25.652133253860473,16.394077422943116,25.635533253860473,16.403897422943114Q20.793533253860474,19.273137422943115,15.936833253860474,22.147187422943116Q15.729233253860473,22.270067422943114,15.626933253860473,22.322427422943115Q14.396433253860474,22.952697422943118,13.010833253860474,22.600787422943114Q11.382943253860473,22.187607422943117,9.755773253860474,21.771767422943114Q8.069153253860474,21.340787422943116,7.3607632538604735,21.170347422943117Q6.757373253860473,21.025207422943115,6.129613253860473,21.154677422943116Q4.321063253860474,21.527247422943116,2.4669582538604735,21.922787422943117Q2.4447092538604736,21.927597422943116,2.439370253860474,21.905507422943117C2.3977205538604736,21.732587422943116,2.3455699538604735,21.550037422943113,2.3391623738604737,21.373197422943115Q2.3318647738604734,21.169817422943115,2.345926053860474,20.966257422943116Q2.3464599538604736,20.957347422943116,2.3553594538604736,20.955387422943115Q4.096093253860474,20.582287422943114,5.839493253860473,20.222537422943116Q6.072303253860474,20.174457422943114,6.189593253860473,20.158607422943113C6.749903253860474,20.082567422943114,7.278173253860474,20.144897422943117,7.827983253860474,20.284697422943115Q10.504573253860473,20.965897422943115,13.181833253860473,21.643897422943116C13.833333253860474,21.808987422943115,14.425533253860474,21.797947422943114,15.048933253860474,21.525817422943113Q15.198533253860473,21.460457422943115,15.457433253860474,21.306947422943114Q19.972333253860473,18.631287422943117,24.487933253860472,15.954927422943115C24.491433253860475,15.952947422943115,24.492233253860473,15.948117422943115,24.489533253860472,15.944947422943116Z" fill="#000000" fill-opacity="1"/><path d="M24.337933253860474,15.927567422943115Q24.033133253860473,15.614217422943115,23.618933253860472,15.477947422943116Q23.138633253860473,15.319947422943116,22.668933253860473,15.455967422943115Q22.574433253860473,15.483437422943116,22.346533253860475,15.577857422943115L18.947133253860475,16.995187422943115Q18.895433253860475,17.608737422943115,18.483633253860475,18.056537422943116Q18.056833253860475,18.520697422943115,17.417033253860474,18.618127422943115Q17.284333253860474,18.638307422943114,17.047133253860473,18.638857422943115L11.101783253860473,18.642247422943115Q10.985353253860474,18.642247422943115,10.985353253860474,18.525857422943115L10.985353253860474,17.590517422943115Q10.985353253860474,17.468257422943115,11.107603253860473,17.468257422943115L17.074633253860476,17.467727422943113Q17.288833253860474,17.467727422943113,17.425233253860476,17.406067422943117Q17.684833253860475,17.289047422943113,17.760133253860474,17.001387422943115Q17.835533253860476,16.713497422943114,17.671133253860475,16.474247422943115Q17.493833253860473,16.216097422943115,17.138033253860474,16.216097422943115L13.688433253860474,16.216987422943117Q13.447633253860474,16.216987422943117,13.291133253860474,16.170237422943117L9.868673253860473,15.148527422943115Q8.666363253860474,14.789343422943116,7.429133253860473,15.050817422943116L7.0839232538604735,15.130047422943115L5.516113253860474,15.492047422943115L2.488072253860474,16.192507422943116Q2.4385402538604737,16.203587422943116,2.3984387538604737,16.178117422943114Q2.358362653860474,16.152657422943115,2.3474688538604735,16.103877422943114Q2.3376264738604737,16.059047422943117,2.3155723538604738,15.967267422943115Q2.2549876538604736,15.715117422943115,2.2440223538604736,15.594427422943115Q2.2227282538604736,15.362837422943116,2.2438411538604734,15.129537422943116Q2.250245653860474,15.049347422943114,2.3296957738604736,15.030277422943115L7.204673253860474,13.899566622943116Q8.651803253860473,13.563866422943116,10.290613253860474,14.053795422943114L13.521333253860474,15.020667422943115Q13.597033253860474,15.043287422943115,13.685733253860473,15.043537422943116L17.088033253860473,15.044427422943116Q18.097033253860474,15.042247422943115,18.657533253860475,15.846047422943116L21.923233253860474,14.485782422943116Q22.143833253860475,14.394147422943115,22.265033253860473,14.356944422943116Q23.309733253860475,14.035771422943116,24.287233253860474,14.483020422943115Q25.250933253860474,14.924007422943115,25.720133253860475,15.910367422943114Q25.772933253860472,16.021587422943114,25.764433253860474,16.283567422943115Q25.762833253860475,16.334617422943115,25.762633253860475,16.357887422943115Q25.761533253860474,16.445457422943115,25.686533253860475,16.489917422943115L15.987733253860474,22.233227422943116Q15.777533253860474,22.357687422943116,15.672433253860474,22.411447422943116Q14.408433253860474,23.058907422943115,12.986233253860474,22.697707422943115L9.731093253860474,21.868667422943115Q8.044923253860475,21.437807422943116,7.337363253860474,21.267577422943116Q6.7557032538604735,21.127657422943116,6.149813253860474,21.252617422943114L2.4874832538604736,22.020657422943117Q2.3704447538604736,22.045957422943115,2.342170693860474,21.929007422943116Q2.3357873438604737,21.902507422943117,2.3224342538604734,21.848687422943115Q2.2450201538604735,21.536677422943114,2.239227953860474,21.376817422943116Q2.2317412538604735,21.168157422943114,2.2461637538604737,20.959367422943117Q2.2511626538604737,20.875927422943114,2.333868065860474,20.857727422943114L5.818903253860474,20.124687422943115Q6.055473253860473,20.075817422943114,6.176203253860473,20.059507422943113Q6.940323253860473,19.955797422943114,7.852623253860473,20.187777422943114L13.206533253860474,21.546967422943116Q14.183333253860473,21.794527422943116,15.008933253860473,21.434167422943116Q15.152833253860473,21.371297422943115,15.406433253860474,21.220927422943113L24.337933253860474,15.927567422943115ZM24.538033253860473,16.041437422943115L15.508433253860474,21.392967422943116Q15.244233253860473,21.549617422943115,15.088933253860473,21.617467422943115Q14.200533253860474,22.005217422943115,13.157233253860474,21.740817422943117L7.803333253860473,20.381607422943116Q6.928703253860474,20.159207422943116,6.202983253860474,20.257707422943113Q6.089123253860474,20.273097422943117,5.860073253860474,20.320397422943117L2.4416912538604736,21.039417422943117Q2.433176353860474,21.204567422943114,2.439097253860474,21.369567422943113Q2.4441372538604735,21.508677422943116,2.5165482538604738,21.800527422943116Q2.5177162538604736,21.805237422943115,2.5188312538604736,21.809737422943115L6.109413253860474,21.056737422943115Q6.759053253860474,20.922757422943114,7.3841532538604735,21.073127422943116Q8.093083253860474,21.243687422943115,9.780453253860474,21.674857422943116L13.035433253860473,22.503857422943113Q14.384533253860473,22.846477422943117,15.581333253860473,22.233397422943113Q15.680933253860474,22.182447422943113,15.885833253860474,22.061137422943116L25.563033253860475,16.330617422943114Q25.563533253860474,16.308677422943116,25.564533253860475,16.277087422943115Q25.571533253860473,16.063557422943116,25.539533253860473,15.996277422943116Q25.101633253860474,15.075607422943115,24.204033253860473,14.664887422943115Q23.295733253860472,14.249310422943115,22.323733253860475,14.548135422943115Q22.211733253860473,14.582524422943115,22.000133253860472,14.670406422943115L18.673633253860473,16.055997422943115Q18.582333253860472,16.093917422943115,18.527833253860475,16.011207422943116Q18.02333325386047,15.242407422943115,17.088033253860473,15.244427422943115L13.685133253860474,15.243537422943115Q13.567533253860473,15.243207422943115,13.463933253860473,15.212267422943116L10.233333253860474,14.245415422943115Q8.645333253860475,13.770679022943115,7.2498632538604735,14.094394422943115L2.4381722538604738,15.210417422943115Q2.4264295538604737,15.393917422943115,2.4432022538604734,15.576337422943116Q2.4528512538604734,15.682537422943115,2.5100372538604736,15.920537422943115Q2.5177182538604734,15.952507422943116,2.5239562538604736,15.978927422943116L5.4711232538604735,15.297177422943115L7.039193253860474,14.935117422943115L7.387783253860474,14.855139422943115Q8.674833253860474,14.583138422943115,9.925883253860473,14.956887422943115L13.348433253860474,15.978617422943115Q13.476833253860473,16.016987422943114,13.688433253860474,16.016987422943114L17.138033253860474,16.016097422943115Q17.599133253860472,16.016097422943115,17.835933253860475,16.360967422943116Q18.05223325386047,16.675637422943115,17.953633253860474,17.052067422943114Q17.85403325386047,17.432117422943115,17.507633253860476,17.588327422943117Q17.331933253860473,17.667727422943116,17.074633253860476,17.667727422943116L11.185353253860473,17.668257422943114L11.185353253860473,18.442197422943117L17.046633253860474,18.438857422943116Q17.269033253860474,18.438347422943117,17.386933253860473,18.420407422943114Q17.957133253860473,18.333557422943116,18.336433253860474,17.921157422943114Q18.717033253860475,17.507247422943117,18.751233253860473,16.931207422943114Q18.755933253860473,16.858017422943114,18.823533253860475,16.830017422943115L22.269933253860472,15.393087422943115Q22.508033253860475,15.294457422943115,22.613233253860475,15.263867422943115Q23.142433253860474,15.110637422943116,23.681433253860472,15.287967422943115Q24.201133253860473,15.458927422943116,24.565033253860474,15.879407422943116Q24.597733253860472,15.917057422943115,24.589833253860473,15.966227422943115Q24.581833253860474,16.015897422943116,24.538933253860474,16.040957422943116L24.538033253860473,16.041437422943115Z" fill-rule="evenodd" fill="#000000" fill-opacity="1"/></g><g><g><path d="M20.571949269485472,14.532720000000001C20.571349269485474,15.37566,19.611949269485475,15.83072,18.941299269485473,16.036099999999998C17.914149269485474,16.35064,17.634659269485475,16.036099999999998,16.452429269485474,16.036099999999998C15.869789269485473,15.97386,14.568249269485474,16.11893,14.022309269485474,15.90325C13.484844269485473,15.691,12.848471269485474,15.29959,12.762673879485474,14.66779Q12.753600110485474,14.60081,12.753600110485474,14.46644Q12.753499269485474,11.685130000000001,12.753499269485474,8.90383Q12.753499269485474,8.76552,12.761363179485473,8.70227C12.892932269485474,7.6428519999999995,14.502009269485473,7.231875,15.342849269485473,7.102146Q16.656219269485472,6.899583,17.970199269485473,7.0987164Q18.529949269485474,7.183656,19.06661926948547,7.363521C19.659739269485474,7.562453,20.433119269485474,7.95628,20.55591926948547,8.644870000000001Q20.569129269485472,8.71851,20.569329269485472,8.84572Q20.573869269485474,11.68917,20.571949269485472,14.532720000000001ZM13.735884269485474,9.05565C13.971899269485473,9.27072,14.298859269485474,9.41044,14.580649269485473,9.50214C15.010339269485474,9.64195,15.461309269485474,9.72346,15.914189269485474,9.76411Q16.808659269485474,9.84451,17.699399269485475,9.73264Q18.19996926948547,9.669789999999999,18.681379269485475,9.52211C18.977999269485473,9.43112,19.283679269485475,9.30189,19.530289269485472,9.10972C19.607109269485473,9.0498,19.721039269485473,8.9357,19.72980926948547,8.835329999999999C19.745429269485474,8.65728,19.453659269485474,8.46218,19.319569269485473,8.38632C19.054009269485473,8.23602,18.755789269485476,8.12777,18.460589269485475,8.05302Q17.843469269485475,7.896762,17.207599269485474,7.859236C16.456099269485474,7.81495,15.704589269485474,7.854797,14.969709269485474,8.0271C14.600309269485473,8.11365,14.240989269485473,8.24066,13.920389269485474,8.43949C13.805849269485474,8.5105,13.587176269485473,8.67947,13.595140269485473,8.82676C13.599879269485474,8.91291,13.671461269485473,8.99694,13.735884269485474,9.05565ZM14.277789269485474,11.29252C14.693869269485473,11.46724,15.135759269485474,11.57124,15.582089269485474,11.63157C16.488059269485476,11.753730000000001,17.427999269485476,11.72649,18.320849269485475,11.52504C18.729069269485475,11.432839999999999,19.145959269485473,11.291,19.489149269485473,11.04547C19.595919269485474,10.969100000000001,19.731619269485474,10.847850000000001,19.732329269485476,10.7044Q19.734139269485475,10.34769,19.732129269485473,9.99069Q19.732029269485473,9.98463,19.726679269485473,9.98756C19.041009269485475,10.35899,18.236969269485474,10.53139,17.467009269485473,10.602409999999999Q16.282179269485475,10.71176,15.112979269485473,10.49609C14.590729269485474,10.399750000000001,14.070099269485473,10.24076,13.598770269485474,9.98806Q13.593527269485474,9.985240000000001,13.593527269485474,9.99119Q13.591309269485473,10.33942,13.593225269485474,10.68775C13.593628269485473,10.74868,13.600383269485473,10.79559,13.632242269485474,10.84149C13.777419269485474,11.050609999999999,14.047419269485474,11.19578,14.277789269485474,11.29252ZM13.888829269485473,12.9912C14.192599269485473,13.190339999999999,14.553429269485473,13.31986,14.904279269485475,13.40692C15.722739269485473,13.61009,16.597039269485474,13.65145,17.434749269485472,13.57438Q17.975039269485475,13.524750000000001,18.499409269485476,13.38644C18.846829269485475,13.29484,19.215219269485473,13.15795,19.50467926948547,12.94046C19.597429269485474,12.870750000000001,19.732829269485475,12.746369999999999,19.732729269485475,12.62108Q19.732729269485475,12.257010000000001,19.732729269485475,11.89607Q19.732729269485475,11.88951,19.726979269485476,11.89264C19.214819269485474,12.17248,18.649219269485474,12.33025,18.061649269485475,12.42941C17.096399269485474,12.59233,16.081649269485474,12.58164,15.120339269485473,12.40379C14.597689269485473,12.30715,14.074839269485473,12.14817,13.597661269485474,11.89294Q13.592822269485474,11.890419999999999,13.592822269485474,11.89587Q13.592721269485473,12.240269999999999,13.592922269485474,12.58567C13.592922269485474,12.661629999999999,13.602399269485474,12.709150000000001,13.645550269485474,12.76534Q13.747680269485473,12.8987,13.888829269485473,12.9912ZM14.277789269485474,15.10329Q14.658279269485474,15.26207,15.049159269485473,15.34731C15.815789269485474,15.51446,16.602889269485473,15.54755,17.383329269485472,15.4836C17.987849269485473,15.43406,18.619989269485473,15.3114,19.171269269485474,15.05032C19.337619269485472,14.97164,19.732329269485476,14.74729,19.732529269485475,14.542200000000001Q19.732929269485474,14.17087,19.73262926948547,13.80206C19.732649269485474,13.79889,19.729239269485475,13.79688,19.726479269485473,13.79843C19.112189269485473,14.13355,18.403629269485474,14.30241,17.713819269485473,14.38594C16.698159269485473,14.50881,15.657399269485474,14.45918,14.664129269485473,14.207080000000001Q14.095509269485474,14.06283,13.597459269485473,13.79964Q13.593023269485474,13.79732,13.593023269485474,13.80226Q13.592317269485473,14.14979,13.593023269485474,14.497209999999999C13.593225269485474,14.558340000000001,13.599778269485473,14.60454,13.631335269485474,14.65075C13.774099269485474,14.859770000000001,14.045099269485474,15.00624,14.277789269485474,15.10329Z" fill="#000000" fill-opacity="1"/><path d="M20.671949269485474,14.53267L20.669329269485473,8.84568L20.669329269485473,8.84556Q20.669119269485474,8.70954,20.654369269485475,8.627320000000001Q20.495649269485472,7.737342,19.098389269485473,7.268705Q18.553519269485474,7.086087,17.985189269485474,6.999845393Q16.656089269485474,6.798422,15.327599269485473,7.00331576Q14.404979269485473,7.145663,13.742863269485474,7.46342Q12.755607369485473,7.937217,12.662127269485474,8.68994Q12.653499269485474,8.75933,12.653499269485474,8.90383L12.653600069485474,14.46644Q12.653600069485474,14.60755,12.663583469485474,14.68125Q12.777365969485473,15.51913,13.985569269485474,15.99625Q14.353359269485473,16.14156,15.613749269485474,16.122970000000002Q16.238019269485473,16.11376,16.44179926948547,16.13553L16.447099269485474,16.1361L16.452429269485474,16.1361Q16.889199269485474,16.1361,17.475549269485473,16.21818Q18.30779926948547,16.33468,18.970579269485473,16.13172Q20.671189269485474,15.61091,20.671949269485474,14.53267ZM20.469329269485474,8.84577L20.469329269485474,8.84588L20.471949269485474,14.53276Q20.471289269485474,15.46296,18.912019269485473,15.94049Q18.291619269485473,16.130470000000003,17.503279269485475,16.020110000000003Q16.90660926948547,15.93658,16.457659269485475,15.9361Q16.239349269485473,15.91372,15.610799269485474,15.92299Q14.390009269485473,15.94099,14.059059269485473,15.81024Q12.959783269485474,15.37614,12.861764269485473,14.654340000000001Q12.853600269485474,14.59407,12.853600269485474,14.46644L12.853499269485473,8.90383Q12.853499269485473,8.77172,12.860599269485474,8.71461Q12.940620269485473,8.07027,13.829399269485474,7.643731Q14.464779269485474,7.338803,15.358099269485473,7.200977Q16.656349269485474,7.000745296,17.955219269485475,7.197587Q18.506389269485474,7.281225,19.034839269485474,7.458338Q20.319589269485473,7.88924,20.457479269485475,8.66243Q20.469139269485474,8.72746,20.469329269485474,8.84577ZM13.867679269485473,8.3545Q13.482376269485474,8.59342,13.495286269485474,8.83216L13.495291269485474,8.83225Q13.503365269485474,8.97904,13.668527269485473,9.12956Q13.977349269485474,9.410969999999999,14.549709269485474,9.59723Q15.164279269485473,9.7972,15.905249269485473,9.863710000000001Q16.810439269485475,9.94508,17.711859269485473,9.831859999999999Q18.221019269485474,9.76794,18.710709269485474,9.61771Q19.255589269485473,9.45056,19.591749269485476,9.188600000000001Q19.814499269485474,9.01486,19.829429269485473,8.84404Q19.853189269485473,8.57332,19.368809269485475,8.29929Q18.986959269485475,8.08315,18.485139269485472,7.956082Q17.858829269485476,7.797495,17.213499269485474,7.75941Q15.982689269485473,7.686879,14.946889269485474,7.929737Q14.313179269485474,8.07822,13.867679269485473,8.3545ZM13.694994269485473,8.82136L13.694989269485474,8.82126Q13.688592269485474,8.70088,13.973089269485474,8.52447Q14.390719269485473,8.26547,14.992539269485473,8.12446Q15.999989269485473,7.888247,17.201709269485473,7.959062Q17.828119269485473,7.99603,18.436039269485473,8.14996Q18.911819269485473,8.27044,19.270329269485472,8.47336Q19.642699269485473,8.68403,19.630189269485474,8.82663Q19.622839269485475,8.91071,19.468819269485472,9.03084Q19.161719269485474,9.27016,18.652059269485473,9.42651Q18.178919269485473,9.57165,17.686939269485475,9.633420000000001Q16.806889269485474,9.74395,15.923129269485473,9.66452Q15.204669269485473,9.60002,14.611599269485474,9.40704Q14.080209269485474,9.23412,13.803239269485474,8.98174Q13.698643269485473,8.88641,13.694994269485473,8.82136ZM13.493226269485474,10.6883Q13.494083269485474,10.817820000000001,13.550092269485473,10.89851L13.550097269485473,10.89852Q13.743018269485473,11.17641,14.239069269485473,11.38472Q14.822869269485473,11.62986,15.568699269485474,11.73067Q17.005289269485473,11.924389999999999,18.342859269485473,11.622589999999999Q19.090329269485473,11.453759999999999,19.547339269485473,11.1268Q19.831249269485475,10.923729999999999,19.832329269485474,10.704889999999999Q19.834139269485473,10.34762,19.832119269485474,9.990120000000001Q19.831119269485473,9.92923,19.780519269485474,9.90016Q19.730529269485473,9.87145,19.678659269485472,9.899840000000001Q18.792839269485473,10.3797,17.457829269485472,10.50283Q16.286739269485473,10.61092,15.131119269485474,10.39775Q14.282579269485474,10.24122,13.646021269485473,9.89993Q13.593640269485473,9.87171,13.543607269485474,9.90155Q13.493527269485474,9.93143,13.493527269485474,9.99119Q13.491307269485473,10.33936,13.493226269485474,10.6883ZM14.316509269485474,11.20032Q13.874119269485474,11.01454,13.714392269485474,10.784469999999999L13.714387269485474,10.78446Q13.693669269485474,10.75461,13.693223269485474,10.6872Q13.691743269485473,10.41802,13.692737269485473,10.148530000000001Q14.307529269485475,10.44919,15.094839269485474,10.59443Q16.277619269485474,10.81261,17.476199269485473,10.70199Q18.748189269485472,10.58467,19.632829269485473,10.1486Q19.633739269485474,10.42635,19.632329269485474,10.70391Q19.631749269485475,10.82053,19.430959269485474,10.96414Q19.006829269485472,11.26759,18.298839269485473,11.427489999999999Q16.996359269485474,11.72137,15.595489269485473,11.53247Q14.875889269485473,11.43521,14.316509269485474,11.20032ZM13.566157269485474,12.826139999999999L13.566238269485474,12.82624Q13.678690269485474,12.973040000000001,13.834009269485474,13.07484Q14.250159269485474,13.34764,14.880199269485473,13.50398Q16.073039269485474,13.800080000000001,17.443909269485474,13.673960000000001Q17.992499269485474,13.623560000000001,18.524909269485473,13.483139999999999Q19.178109269485475,13.31092,19.564749269485475,13.02041Q19.832889269485474,12.81889,19.832729269485473,12.621L19.832729269485473,11.89607Q19.832729269485473,11.836020000000001,19.78254926948547,11.80607Q19.732139269485472,11.77598,19.679179269485473,11.80481Q19.016579269485476,12.16684,18.045009269485472,12.33081Q16.596789269485473,12.57524,15.138529269485474,12.30546Q14.286339269485474,12.14788,13.644824269485474,11.80476Q13.591602269485474,11.77703,13.542297269485474,11.806840000000001Q13.492821269485473,11.83675,13.492821269485473,11.89587L13.492922269485474,12.58569Q13.492922269485474,12.73069,13.566157269485474,12.826139999999999ZM13.943639269485473,12.90756Q13.816729269485474,12.824390000000001,13.724943269485474,12.70454L13.724861269485473,12.70443Q13.692922269485473,12.66284,13.692922269485473,12.58566L13.692845269485474,12.05388Q14.311799269485473,12.355979999999999,15.102149269485473,12.50212Q16.595189269485473,12.77834,18.078289269485474,12.52802Q18.982129269485473,12.37548,19.632729269485473,12.054269999999999L19.632729269485473,12.62116Q19.632809269485474,12.71908,19.444609269485476,12.86051Q19.089269269485474,13.127510000000001,18.47389926948547,13.28975Q17.957609269485474,13.425930000000001,17.425589269485474,13.4748Q16.088389269485475,13.597819999999999,14.928369269485474,13.30986Q14.331349269485473,13.161719999999999,13.943639269485473,12.90756ZM13.493023269485473,14.497209999999999Q13.493448269485473,14.62617,13.548758269485473,14.70715Q13.740187269485475,14.98742,14.239299269485473,15.19558Q14.628139269485473,15.35784,15.027849269485474,15.44501Q16.134379269485475,15.68627,17.39149926948547,15.58326Q18.465359269485475,15.49527,19.214069269485474,15.1407Q19.832229269485474,14.84831,19.832529269485473,14.542300000000001L19.832629269485473,13.80207Q19.832939269485472,13.74278,19.781449269485474,13.71237Q19.729909269485475,13.68194,19.677669269485474,13.71115Q18.885419269485475,14.14334,17.701799269485473,14.28667Q16.132309269485475,14.47653,14.688729269485474,14.11016Q14.131669269485474,13.96883,13.644181269485474,13.71122Q13.592256269485473,13.68407,13.543233269485473,13.713059999999999Q13.493023269485473,13.742750000000001,13.493023269485473,13.80226L13.493023269485473,14.497209999999999ZM14.316279269485474,15.01099Q13.871899269485473,14.82566,13.713912269485473,14.59435Q13.693244269485474,14.56409,13.693023269485474,14.497209999999999L13.693023269485474,13.960180000000001Q14.139709269485474,14.177209999999999,14.639529269485474,14.30401Q16.119279269485475,14.67957,17.725839269485473,14.48522Q18.844309269485475,14.349779999999999,19.632609269485474,13.95984L19.632529269485474,14.5421Q19.632349269485474,14.72161,19.128469269485475,14.95995Q18.412689269485472,15.29892,17.375169269485475,15.38393Q16.147819269485474,15.4845,15.070469269485473,15.24961Q14.688449269485474,15.1663,14.316279269485474,15.01099Z" fill-rule="evenodd" fill="#000000" fill-opacity="1"/></g></g></g></g></svg>