<svg xmlns="http://www.w3.org/2000/svg" xmlns:xlink="http://www.w3.org/1999/xlink" fill="none" version="1.1" width="11.43505859375" height="11.7333984375" viewBox="0 0 11.43505859375 11.7333984375"><g><g><rect x="0" y="0" width="1" height="11.733333587646484" rx="0.5" fill="#0E043E" fill-opacity="1"/><rect x="0" y="0" width="1" height="11.733333587646484" rx="0.5" fill-opacity="0" stroke-opacity="1" stroke="#0E043E" fill="none" stroke-width="0"/></g><g><path d="M0.33349609375,0.636128Q0.58222009375,0.725319,1.99008609375,0.567166C3.39794609375,0.409013,3.69875609375,0.259045,4.79553609375,0.134883Q5.39054609375,0.0675257,5.98880609375,0.0335541C6.54397609375,0.00202904,7.00016609375,0.453657,7.00016609375,1.00972L7.00016609375,5.33512C7.00016609375,5.89752,6.54178609375,6.35152,5.98056609375,6.38791Q5.46254609375,6.4215,4.82759609375,6.49372C3.47663609375,6.64738,3.03309609375,6.81399,2.13683609375,6.91444Q1.24056509375,7.01489,0.33349609375,6.99741L0.33349609375,0.636128Z" fill-rule="evenodd" fill="#0E043E" fill-opacity="1"/><path d="" fill="#0E043E" fill-opacity="1"/></g><g><path d="M4.0009765625,7.0384118070220945L4.0009765625,7.7107318070220945Q4.9581955625,7.726841807022095,5.9040165625,7.6342718070220945C6.8498365625,7.541691807022095,7.3178965625,7.388131807022095,8.7435465625,7.246521807022095Q9.7308165625,7.148451807022095,10.4501865625,7.127671807022095C10.816226562499999,7.117101807022094,11.2394265625,6.834501807022095,11.0395465625,6.527671807022095Q11.0379065625,6.525151807022095,11.0362265625,6.522651807022095C10.869006562500001,6.272101807022095,9.1277565625,4.675131807022095,9.115776562499999,4.247011807022094C9.109766562499999,4.031951807022095,9.3931665625,3.744951807022095,9.7778265625,3.3554218070220947C10.1589065625,2.969521807022095,10.6393565625,2.4829918070220947,11.0362265625,1.8660558070220947Q11.5095365625,1.1303180070220948,11.4210365625,1.0550334370220946Q11.395086562500001,1.0329609070220946,11.3208465625,1.0676603070220947C11.1183865625,1.1622878070220948,10.917956562499999,1.2620548070220947,10.6945265625,1.2668718070220948Q9.6978665625,1.2883628070220947,8.709716562499999,1.3860578070220948C8.1446465625,1.4419238070220948,7.7797965625,1.5034588070220947,7.3814565625,1.5687738070220947C7.5566765625,1.9097198070220949,7.6563965624999994,2.299171807022095,7.6582865625,2.7117618070220946L7.6653465625,4.2508718070220946C7.6715665625,5.606561807022095,6.5576165625,6.7081518070220945,5.2096365625,6.852731807022095Q5.1948265625,6.8543118070220945,5.1799665625,6.855921807022095C4.7086935625,6.906991807022095,4.3299405625,6.971191807022095,4.0009765625,7.0384118070220945Z" fill-rule="evenodd" fill="#0E043E" fill-opacity="1"/><path d="" fill="#0E043E" fill-opacity="1"/></g></g></svg>