<svg xmlns="http://www.w3.org/2000/svg" xmlns:xlink="http://www.w3.org/1999/xlink" fill="none" version="1.1" width="32" height="32" viewBox="0 0 32 32"><defs><clipPath id="master_svg0_2268_01227"><rect x="0" y="0" width="32" height="32" rx="0"/></clipPath></defs><g clip-path="url(#master_svg0_2268_01227)"><g><path d="M6.39175390625,25.244657934570313C7.96637390625,26.88085793457031,9.95497390625,28.11575793457031,12.18903390625,28.780857934570314C12.70460390625,27.167957934570314,14.21580390625,26.00005793457031,15.99980390625,26.00005793457031C17.78380390625,26.00005793457031,19.29500390625,27.167957934570314,19.81060390625,28.780857934570314C22.04470390625,28.11575793457031,24.03330390625,26.88085793457031,25.60790390625,25.244657934570313C25.02050390625,24.548457934570312,24.66650390625,23.648957934570312,24.66650390625,22.666757934570313C24.66650390625,20.457557934570314,26.45740390625,18.666757934570313,28.66650390625,18.666757934570313C28.80020390625,18.666757934570313,28.93220390625,18.673357934570312,29.06250390625,18.68615793457031C29.24000390625,17.81845793457031,29.33320390625,16.920157934570312,29.33320390625,16.000057934570314C29.33320390625,14.606357934570312,29.11930390625,13.262557934570312,28.72260390625,11.999667934570313C28.70400390625,11.999927934570312,28.68520390625,12.000067934570312,28.66650390625,12.000067934570312C26.45740390625,12.000067934570312,24.66650390625,10.209197934570312,24.66650390625,8.000067934570312C24.66650390625,7.365867934570312,24.81410390625,6.766197934570313,25.07680390625,6.233407934570312C23.53480390625,4.799667934570312,21.65280390625,3.7266779345703123,19.56510390625,3.1487579345703125C18.90360390625,4.445457934570312,17.55540390625,5.3334179345703125,15.99980390625,5.3334179345703125C14.44430390625,5.3334179345703125,13.09610390625,4.445457934570312,12.43457390625,3.1487579345703125C10.34683390625,3.7266779345703123,8.46483390625,4.799667934570312,6.92290390625,6.233407934570312C7.18557390625,6.766197934570313,7.33317390625,7.365867934570312,7.33317390625,8.000067934570312C7.33317390625,10.209197934570312,5.5423139062499995,12.000067934570312,3.33317090625,12.000067934570312C3.31442390625,12.000067934570312,3.29571090625,11.999927934570312,3.2770309062500003,11.999667934570313C2.88035090625,13.262557934570312,2.66650390625,14.606357934570312,2.66650390625,16.000057934570314C2.66650390625,16.920157934570312,2.75969730625,17.81845793457031,2.93716390625,18.68615793457031C3.06743090625,18.673357934570312,3.19953690625,18.666757934570313,3.33317090625,18.666757934570313C5.5423139062499995,18.666757934570313,7.33317390625,20.457557934570314,7.33317390625,22.666757934570313C7.33317390625,23.648957934570312,6.97917390625,24.548457934570312,6.39175390625,25.244657934570313ZM16.430703906250002,21.50005793457031Q16.56570390625,21.50005793457031,16.70050390625,21.493357934570312Q16.83540390625,21.486757934570313,16.96980390625,21.473557934570312Q17.10410390625,21.46025793457031,17.237703906249997,21.44045793457031Q17.371203906250003,21.42065793457031,17.50370390625,21.394357934570312Q17.63610390625,21.367957934570313,17.76710390625,21.33515793457031Q17.89800390625,21.302357934570313,18.02720390625,21.263157934570312Q18.15640390625,21.22395793457031,18.28360390625,21.17845793457031Q18.41070390625,21.133057934570314,18.53540390625,21.081357934570313Q18.66020390625,21.029657934570313,18.78220390625,20.971957934570312Q18.90430390625,20.914257934570312,19.02330390625,20.85055793457031Q19.14240390625,20.786957934570314,19.25820390625,20.717557934570312Q19.37400390625,20.648057934570314,19.48630390625,20.57305793457031Q19.59860390625,20.498057934570312,19.70700390625,20.41765793457031Q19.81550390625,20.337257934570314,19.91980390625,20.25155793457031Q20.02420390625,20.16595793457031,20.12420390625,20.075257934570313Q20.22430390625,19.98455793457031,20.31970390625,19.889057934570314Q20.41520390625,19.793657934570312,20.50590390625,19.69355793457031Q20.59660390625,19.593557934570313,20.68220390625,19.48915793457031Q20.76790390625,19.384757934570313,20.84830390625,19.276357934570314Q20.92870390625,19.167957934570314,21.00370390625,19.055657934570313Q21.07880390625,18.943357934570315,21.14820390625,18.827557934570315Q21.21760390625,18.711757934570315,21.28120390625,18.592657934570312Q21.34490390625,18.473657934570312,21.40260390625,18.351557934570312Q21.46030390625,18.229557934570312,21.51200390625,18.104757934570312Q21.56370390625,17.98005793457031,21.60920390625,17.852957934570313Q21.65460390625,17.72575793457031,21.69380390625,17.596557934570313Q21.73300390625,17.467357934570312,21.76580390625,17.336357934570312Q21.79860390625,17.205457934570312,21.82500390625,17.073057934570315Q21.85130390625,16.940557934570315,21.87110390625,16.807057934570313Q21.89090390625,16.673457934570312,21.90420390625,16.539157934570312Q21.91740390625,16.404757934570313,21.92400390625,16.26985793457031Q21.93070390625,16.135057934570312,21.93070390625,16.000057934570314Q21.93070390625,15.864957934570313,21.92400390625,15.730157934570313Q21.91740390625,15.595257934570313,21.90420390625,15.460957934570313Q21.89090390625,15.326557934570312,21.87110390625,15.192957934570313Q21.85130390625,15.059457934570313,21.82500390625,14.927057934570312Q21.79860390625,14.794557934570312,21.76580390625,14.663657934570313Q21.73300390625,14.532657934570313,21.69380390625,14.403457934570312Q21.65460390625,14.274257934570313,21.60920390625,14.147157934570313Q21.56370390625,14.019957934570312,21.51200390625,13.895257934570312Q21.46030390625,13.770557934570313,21.40260390625,13.648457934570313Q21.34490390625,13.526357934570312,21.28120390625,13.407357934570312Q21.21760390625,13.288257934570312,21.14820390625,13.172457934570312Q21.07880390625,13.056637934570313,21.00370390625,12.944377934570312Q20.92870390625,12.832117934570313,20.84830390625,12.723667934570312Q20.76790390625,12.615217934570312,20.68220390625,12.510847934570313Q20.59660390625,12.406477934570313,20.50590390625,12.306437934570312Q20.41520390625,12.206397934570312,20.31970390625,12.110927934570313Q20.22430390625,12.015457934570312,20.12420390625,11.924787934570313Q20.02420390625,11.834107934570312,19.91980390625,11.748457934570313Q19.81550390625,11.662807934570312,19.70700390625,11.582377934570312Q19.59860390625,11.501947934570312,19.48630390625,11.426927934570312Q19.37400390625,11.351917934570313,19.25820390625,11.282507934570312Q19.14240390625,11.213097934570312,19.02330390625,11.149447934570313Q18.90430390625,11.085797934570312,18.78220390625,11.028077934570312Q18.66020390625,10.970347934570313,18.53540390625,10.918677934570312Q18.41070390625,10.867007934570314,18.28360390625,10.821527934570312Q18.15640390625,10.776037934570311,18.02720390625,10.736847934570314Q17.89800390625,10.697647934570313,17.76710390625,10.664847934570313Q17.63610390625,10.632037934570313,17.50370390625,10.605697934570312Q17.371203906250003,10.579357934570313,17.237703906249997,10.559547934570313Q17.10410390625,10.539737934570311,16.96980390625,10.526497934570312Q16.83540390625,10.513267934570312,16.70050390625,10.506637934570312Q16.56570390625,10.500017934570312,16.430703906250002,10.500017934570312Q16.29560390625,10.500017934570312,16.160803906250003,10.506637934570312Q16.02590390625,10.513267934570312,15.89160390625,10.526497934570312Q15.75720390625,10.539737934570311,15.62360390625,10.559547934570313Q15.49010390625,10.579357934570313,15.35770390625,10.605697934570312Q15.22520390625,10.632037934570313,15.09430390625,10.664847934570313Q14.96330390625,10.697647934570313,14.83410390625,10.736847934570314Q14.70490390625,10.776037934570311,14.57780390625,10.821527934570312Q14.45060390625,10.867007934570314,14.32590390625,10.918677934570312Q14.20120390625,10.970347934570313,14.07910390625,11.028077934570312Q13.95710390625,11.085797934570312,13.83800390625,11.149447934570313Q13.71890390625,11.213097934570312,13.60310390625,11.282507934570312Q13.48730390625,11.351917934570313,13.37500390625,11.426927934570312Q13.26280390625,11.501947934570312,13.15430390625,11.582377934570312Q13.04590390625,11.662807934570312,12.94150390625,11.748457934570313Q12.83710390625,11.834107934570312,12.73710390625,11.924787934570313Q12.63704390625,12.015457934570312,12.54157390625,12.110927934570313Q12.44610390625,12.206397934570312,12.35543390625,12.306437934570312Q12.26476390625,12.406477934570313,12.17910390625,12.510847934570313Q12.09345390625,12.615217934570312,12.01302390625,12.723667934570312Q11.93259390625,12.832117934570313,11.85758390625,12.944377934570312Q11.78256390625,13.056637934570313,11.71315390625,13.172457934570312Q11.64374390625,13.288257934570312,11.58009390625,13.407357934570312Q11.51644390625,13.526357934570312,11.45872390625,13.648457934570313Q11.40099390625,13.770557934570313,11.34932390625,13.895257934570312Q11.29765390625,14.019957934570312,11.25217390625,14.147157934570313Q11.20668390625,14.274257934570313,11.16749390625,14.403457934570312Q11.12829390625,14.532657934570313,11.09549390625,14.663657934570313Q11.06268390625,14.794557934570312,11.03634390625,14.927057934570312Q11.01000390625,15.059457934570313,10.99019390625,15.192957934570313Q10.97038390625,15.326557934570312,10.95714390625,15.460957934570313Q10.94391390625,15.595257934570313,10.93729390625,15.730157934570313Q10.93066390625,15.864957934570313,10.93066390625,16.000057934570314Q10.93066390625,16.135057934570312,10.93729390625,16.26985793457031Q10.94391390625,16.404757934570313,10.95714390625,16.539157934570312Q10.97038390625,16.673457934570312,10.99019390625,16.807057934570313Q11.01000390625,16.940557934570315,11.03634390625,17.073057934570315Q11.06268390625,17.205457934570312,11.09549390625,17.336357934570312Q11.12829390625,17.467357934570312,11.16749390625,17.596557934570313Q11.20668390625,17.72575793457031,11.25217390625,17.852957934570313Q11.29765390625,17.98005793457031,11.34932390625,18.104757934570312Q11.40099390625,18.229557934570312,11.45872390625,18.351557934570312Q11.51645390625,18.473657934570312,11.58009390625,18.592657934570312Q11.64374390625,18.711757934570315,11.71315390625,18.827557934570315Q11.78256390625,18.943357934570315,11.85758390625,19.055657934570313Q11.93259390625,19.167957934570314,12.01302390625,19.276357934570314Q12.09345390625,19.384757934570313,12.17910390625,19.48915793457031Q12.26476390625,19.593557934570313,12.35543390625,19.69355793457031Q12.44610390625,19.793657934570312,12.54157390625,19.889057934570314Q12.63704390625,19.98455793457031,12.73710390625,20.075257934570313Q12.83710390625,20.16595793457031,12.94150390625,20.25155793457031Q13.04590390625,20.337257934570314,13.15430390625,20.41765793457031Q13.26280390625,20.498057934570312,13.37500390625,20.57305793457031Q13.48730390625,20.648057934570314,13.60310390625,20.717557934570312Q13.71890390625,20.786957934570314,13.83800390625,20.85055793457031Q13.95710390625,20.914257934570312,14.07910390625,20.971957934570312Q14.20120390625,21.029657934570313,14.32590390625,21.081357934570313Q14.45060390625,21.133057934570314,14.57780390625,21.17845793457031Q14.70490390625,21.22395793457031,14.83410390625,21.263157934570312Q14.96330390625,21.302357934570313,15.09430390625,21.33515793457031Q15.22520390625,21.367957934570313,15.35770390625,21.394357934570312Q15.49010390625,21.42065793457031,15.62360390625,21.44045793457031Q15.75720390625,21.46025793457031,15.89160390625,21.473557934570312Q16.02590390625,21.486757934570313,16.160803906250003,21.493357934570312Q16.29560390625,21.50005793457031,16.430703906250002,21.50005793457031Z" fill-rule="evenodd" fill="#0E043E" fill-opacity="1"/><path d="M7.35246390625,24.32015793457031Q9.550543906249999,26.604157934570313,12.56949390625,27.50295793457031L12.18903390625,28.780857934570314L10.91902390625,28.37485793457031Q11.44134390625,26.74095793457031,12.82430390625,25.71485793457031Q14.23690390625,24.666757934570313,15.99980390625,24.666757934570313Q17.76270390625,24.666757934570313,19.17540390625,25.71485793457031Q20.55830390625,26.74095793457031,21.08070390625,28.37485793457031L19.81060390625,28.780857934570314L19.43020390625,27.50295793457031Q22.44910390625,26.604157934570313,24.64720390625,24.32015793457031L25.60790390625,25.244657934570313L24.58880390625,26.104457934570313Q23.33320390625,24.616257934570314,23.33320390625,22.666757934570313Q23.33320390625,20.457557934570314,24.89530390625,18.895457934570313Q26.45740390625,17.333357934570312,28.66650390625,17.333357934570312Q28.93040390625,17.333357934570312,29.19290390625,17.359157934570312L29.06250390625,18.68615793457031L27.75620390625,18.418957934570315Q27.99980390625,17.227857934570313,27.99980390625,16.000057934570314Q27.99980390625,14.147857934570313,27.45060390625,12.399217934570313L28.72260390625,11.999667934570313L28.73210390625,13.332957934570313L28.67600390625,13.333357934570312Q26.45740390625,13.333357934570312,24.89530390625,11.771297934570313Q23.33320390625,10.209197934570312,23.33320390625,8.000067934570312Q23.33320390625,6.754787934570313,23.88090390625,5.643827934570313L25.07680390625,6.233407934570312L24.16880390625,7.209847934570313Q22.02000390625,5.2117979345703125,19.20940390625,4.433767934570312L19.56510390625,3.1487579345703125L20.75280390625,3.7546829345703125Q20.08050390625,5.072517934570312,18.82470390625,5.857837934570313Q17.53110390625,6.666747934570313,15.99980390625,6.666747934570313Q14.46850390625,6.666747934570313,13.17500390625,5.857837934570313Q11.91918390625,5.072517934570312,11.24687390625,3.7546829345703125L12.43457390625,3.1487579345703125L12.79030390625,4.433767934570312Q9.97966390625,5.2117979345703125,7.83083390625,7.209847934570313L6.92290390625,6.233407934570312L8.118803906250001,5.643827934570313Q8.66650390625,6.7547779345703125,8.66650390625,8.000067934570312Q8.66650390625,10.209197934570312,7.10440390625,11.771297934570313Q5.5423139062499995,13.333357934570312,3.33317090625,13.333357934570312L3.26754090625,13.332957934570313L3.2770309062500003,11.999667934570313L4.54908390625,12.399227934570312Q3.99983390625,14.147857934570313,3.99983390625,16.000057934570314Q3.99983390625,17.227857934570313,4.24345390625,18.418957934570315L2.93716390625,18.68615793457031L2.80677590625,17.359157934570312Q3.06926090625,17.333357934570312,3.33317090625,17.333357934570312Q5.5423139062499995,17.333357934570312,7.10440390625,18.895457934570313Q8.66650390625,20.457557934570314,8.66650390625,22.666757934570313Q8.66650390625,24.616257934570314,7.41080390625,26.104457934570313L6.39175390625,25.244657934570313L7.35246390625,24.32015793457031ZM5.431033906250001,26.16925793457031Q5.34602390625,26.08085793457031,5.27854390625,25.97855793457031Q5.211063906250001,25.876157934570312,5.16338390625,25.763257934570312Q5.115703906249999,25.650257934570313,5.0894239062499995,25.53055793457031Q5.06313390625,25.410757934570313,5.0591339062500005,25.288257934570314Q5.0551239062499995,25.165657934570312,5.07353390625,25.044457934570314Q5.09193390625,24.923257934570312,5.13213390625,24.807457934570312Q5.17233390625,24.691657934570312,5.23298390625,24.58505793457031Q5.29363390625,24.47855793457031,5.372693906249999,24.384857934570313Q5.99983390625,23.64155793457031,5.99983390625,22.666757934570313Q5.99983390625,21.562157934570312,5.21878390625,20.781157934570313Q4.43774390625,20.00005793457031,3.33317090625,20.00005793457031Q3.19995290625,20.00005793457031,3.06755190625,20.013057934570313Q2.94554590625,20.025057934570313,2.82339990625,20.014557934570313Q2.70125390625,20.004157934570312,2.58306310625,19.971557934570313Q2.46487190625,19.93905793457031,2.35459990625,19.88545793457031Q2.24432790625,19.831857934570312,2.14567090625,19.75915793457031Q2.0470149062500003,19.686357934570314,1.96328290625,19.596857934570313Q1.87955090625,19.507257934570312,1.81354990625,19.40395793457031Q1.74754990625,19.300657934570314,1.70149490625,19.187057934570312Q1.65544390625,19.073457934570314,1.63087390625,18.953357934570313Q1.33317390625,17.497757934570313,1.33317390625,16.000057934570314Q1.33317390625,13.738857934570312,2.00497490625,11.600097934570313Q2.03684690625,11.498627934570312,2.08440090625,11.403497934570312Q2.13195490625,11.308367934570313,2.19398790625,11.221977934570312Q2.25602090625,11.135587934570314,2.33096490625,11.060127934570312Q2.40590790625,10.984657934570311,2.49186690625,10.922027934570313Q2.57782550625,10.859397934570312,2.67262562625,10.811187934570313Q2.76742590625,10.762977934570312,2.86866990625,10.730407934570312Q2.96991390625,10.697827934570313,3.07504090625,10.681717934570312Q3.18016890625,10.665607934570312,3.28652090625,10.666367934570314L3.33317090625,10.666727934570313Q4.43774390625,10.666727934570313,5.21878390625,9.885677934570312Q5.99983390625,9.104627934570313,5.99983390625,8.000067934570312Q5.99983390625,7.376397934570313,5.72700390625,6.8229779345703125Q5.67974390625,6.727127934570312,5.64836390625,6.624957934570313Q5.61697390625,6.522797934570312,5.60226390625,6.416937934570313Q5.58755390625,6.311077934570312,5.5898939062499995,6.204227934570312Q5.59222390625,6.0973779345703125,5.61155390625,5.992267934570313Q5.63088390625,5.887147934570312,5.66671390625,5.786457934570313Q5.70253390625,5.685767934570313,5.75394390625,5.592067934570313Q5.80535390625,5.498367934570313,5.8710239062500005,5.414047934570313Q5.93670390625,5.329737934570312,6.01497390625,5.256957934570313Q8.64067390625,2.8154969345703127,12.07885390625,1.8637479345703125Q12.18908390625,1.8332379345703125,12.30289390625,1.8219379345703124Q12.41671390625,1.8106479345703126,12.53078390625,1.8188979345703125Q12.64485390625,1.8271579345703124,12.75590390625,1.8547079345703126Q12.86690390625,1.8822679345703126,12.97150390625,1.9283279345703126Q13.07620390625,1.9743879345703126,13.17150390625,2.037607934570312Q13.26680390625,2.1008279345703125,13.35000390625,2.1793499345703125Q13.43320390625,2.2578749345703124,13.50170390625,2.3494139345703124Q13.57030390625,2.4409539345703126,13.62230390625,2.5428329345703125Q13.95910390625,3.2029953345703124,14.58890390625,3.5968619345703123Q15.23370390625,4.000084934570312,15.99980390625,4.000084934570312Q16.76600390625,4.000084934570312,17.410803906250003,3.5968619345703123Q18.04060390625,3.2029960345703126,18.377403906250002,2.5428329345703125Q18.429403906250002,2.4409539345703126,18.497903906250002,2.3494139345703124Q18.56650390625,2.2578749345703124,18.64970390625,2.1793499345703125Q18.73280390625,2.1008279345703125,18.82810390625,2.037607934570312Q18.92340390625,1.9743879345703126,19.02810390625,1.9283279345703126Q19.13280390625,1.8822679345703126,19.24380390625,1.8547079345703126Q19.35480390625,1.8271579345703124,19.46890390625,1.8188979345703125Q19.58300390625,1.8106479345703126,19.69680390625,1.8219379345703124Q19.81060390625,1.8332379345703125,19.92080390625,1.8637479345703125Q23.35900390625,2.8154999345703127,25.98470390625,5.256957934570313Q26.06300390625,5.329737934570312,26.12860390625,5.414057934570312Q26.19430390625,5.498367934570313,26.24570390625,5.592067934570313Q26.29710390625,5.685767934570313,26.33300390625,5.786457934570313Q26.36880390625,5.887147934570312,26.38810390625,5.992267934570313Q26.40740390625,6.0973779345703125,26.40980390625,6.204227934570312Q26.41210390625,6.311077934570312,26.39740390625,6.416937934570313Q26.38270390625,6.522797934570312,26.35130390625,6.624957934570313Q26.31990390625,6.7271179345703125,26.27270390625,6.8229779345703125Q25.99980390625,7.376397934570313,25.99980390625,8.000067934570312Q25.99980390625,9.104627934570313,26.78090390625,9.885677934570312Q27.56190390625,10.666727934570313,28.65700390625,10.666767934570313L28.71310390625,10.666367934570314Q28.81950390625,10.665607934570312,28.92460390625,10.681717934570312Q29.02980390625,10.697827934570313,29.13100390625,10.730407934570312Q29.23220390625,10.762977934570312,29.32700390625,10.811187934570313Q29.42180390625,10.859397934570312,29.50780390625,10.922037934570312Q29.59380390625,10.984667934570313,29.66870390625,11.060127934570312Q29.74360390625,11.135597934570313,29.80570390625,11.221987934570313Q29.86770390625,11.308377934570313,29.91530390625,11.403507934570312Q29.96280390625,11.498647934570313,29.99470390625,11.600107934570312Q30.66650390625,13.738957934570312,30.66650390625,16.000057934570314Q30.66650390625,17.497757934570313,30.36880390625,18.953357934570313Q30.34420390625,19.073457934570314,30.29820390625,19.187057934570312Q30.25210390625,19.300657934570314,30.18610390625,19.40395793457031Q30.12010390625,19.507257934570312,30.03640390625,19.596857934570313Q29.95260390625,19.686357934570314,29.85400390625,19.75915793457031Q29.75530390625,19.831857934570312,29.64510390625,19.88545793457031Q29.53480390625,19.93905793457031,29.41660390625,19.971557934570313Q29.29840390625,20.004157934570312,29.17630390625,20.014557934570313Q29.05410390625,20.025057934570313,28.93210390625,20.013057934570313Q28.79970390625,20.00005793457031,28.66650390625,20.00005793457031Q27.56190390625,20.00005793457031,26.78090390625,20.781157934570313Q25.99980390625,21.562157934570312,25.99980390625,22.666757934570313Q25.99980390625,23.64155793457031,26.62700390625,24.384857934570313Q26.70600390625,24.47855793457031,26.76670390625,24.58505793457031Q26.82730390625,24.691657934570312,26.86750390625,24.807457934570312Q26.90770390625,24.923257934570312,26.92610390625,25.044457934570314Q26.94450390625,25.165757934570312,26.94050390625,25.288257934570314Q26.93650390625,25.410757934570313,26.91020390625,25.53055793457031Q26.88390390625,25.650257934570313,26.83630390625,25.763257934570312Q26.78860390625,25.876157934570312,26.72110390625,25.97855793457031Q26.65360390625,26.08085793457031,26.56860390625,26.16925793457031Q23.88340390625,28.959457934570313,20.19110390625,30.058757934570313Q20.12910390625,30.077257934570312,20.06560390625,30.089557934570312Q20.00220390625,30.10195793457031,19.93780390625,30.10815793457031Q19.87340390625,30.11425793457031,19.80880390625,30.11415793457031Q19.74410390625,30.11405793457031,19.67980390625,30.107757934570312Q19.61540390625,30.101457934570313,19.55200390625,30.088857934570314Q19.48850390625,30.076357934570314,19.42660390625,30.05765793457031Q19.36470390625,30.039057934570312,19.30480390625,30.014557934570313Q19.24500390625,29.990057934570313,19.18780390625,29.959757934570312Q19.13070390625,29.92955793457031,19.07670390625,29.893957934570313Q19.02270390625,29.858457934570314,18.97240390625,29.817757934570313Q18.92210390625,29.777057934570312,18.87600390625,29.73175793457031Q18.82990390625,29.686457934570313,18.78840390625,29.636857934570312Q18.74680390625,29.587257934570314,18.71030390625,29.533957934570314Q18.67380390625,29.480557934570314,18.642603906250002,29.42385793457031Q18.61140390625,29.36725793457031,18.58590390625,29.30785793457031Q18.56030390625,29.24845793457031,18.54060390625,29.186857934570313Q18.279803906250002,28.370857934570314,17.58640390625,27.85645793457031Q16.88150390625,27.333357934570312,15.99980390625,27.333357934570312Q15.11820390625,27.333357934570312,14.41330390625,27.85645793457031Q13.71990390625,28.370857934570314,13.45910390625,29.186857934570313Q13.43940390625,29.24845793457031,13.41380390625,29.30785793457031Q13.38820390625,29.36725793457031,13.35710390625,29.423957934570314Q13.32590390625,29.480557934570314,13.28930390625,29.533957934570314Q13.25280390625,29.587257934570314,13.21130390625,29.636857934570312Q13.16980390625,29.686457934570313,13.12370390625,29.73175793457031Q13.07760390625,29.777057934570312,13.02730390625,29.817757934570313Q12.97700390625,29.85835793457031,12.92300390625,29.893957934570313Q12.86900390625,29.92955793457031,12.81180390625,29.959757934570312Q12.75470390625,29.989957934570313,12.69480390625,30.014557934570313Q12.63499390625,30.039057934570312,12.57307390625,30.05765793457031Q12.51114390625,30.076357934570314,12.44771390625,30.088857934570314Q12.38427390625,30.101457934570313,12.31992390625,30.107757934570312Q12.25556390625,30.11405793457031,12.19090390625,30.11415793457031Q12.12623390625,30.11425793457031,12.06186390625,30.10815793457031Q11.99749390625,30.10195793457031,11.93402390625,30.089557934570312Q11.87055390625,30.077257934570312,11.80857390625,30.058757934570313Q8.11628390625,28.959457934570313,5.431033906250001,26.16925793457031ZM16.430703906250002,20.166657934570313Q18.156603906249998,20.166657934570313,19.37690390625,18.946257934570312Q20.59730390625,17.725857934570314,20.59730390625,16.000057934570314Q20.59730390625,14.274157934570313,19.37690390625,13.053737934570313Q18.156603906249998,11.833347934570313,16.430703906250002,11.833347934570313Q14.70480390625,11.833347934570313,13.48440390625,13.053737934570313Q12.26399390625,14.274157934570313,12.26399390625,16.000057934570314Q12.26399390625,17.725857934570314,13.48440390625,18.946257934570312Q14.70480390625,20.166657934570313,16.430703906250002,20.166657934570313ZM16.430703906250002,22.833357934570312Q13.60020390625,22.833357934570312,11.59876390625,20.831957934570312Q9.59733390625,18.830457934570312,9.59733390625,16.000057934570314Q9.59733390625,13.169557934570312,11.59876390625,11.168117934570313Q13.60020390625,9.166677934570313,16.430703906250002,9.166677934570313Q19.26110390625,9.166677934570313,21.26260390625,11.168117934570313Q23.26400390625,13.169557934570312,23.26400390625,16.000057934570314Q23.26400390625,18.830457934570312,21.26260390625,20.831957934570312Q19.26110390625,22.833357934570312,16.430703906250002,22.833357934570312Z" fill="#0E043E" fill-opacity="1"/></g></g></svg>