<svg xmlns="http://www.w3.org/2000/svg" xmlns:xlink="http://www.w3.org/1999/xlink" fill="none" version="1.1" width="20" height="20" viewBox="0 0 20 20"><g><g><rect x="0" y="0" width="20" height="20" rx="0" fill="#FFFFFF" fill-opacity="0.009999999776482582"/></g><g><g><path d="M6.343117820243835,14.342677894897461Q6.466637820243836,14.342677894897461,6.589557820243836,14.330577894897461Q6.712477820243835,14.318467894897461,6.833617820243836,14.294367894897462Q6.954757820243835,14.270267894897462,7.072957820243835,14.234417894897462Q7.191157820243836,14.198557894897462,7.305267820243835,14.151287894897461Q7.419387820243836,14.10401789489746,7.528317820243835,14.045797894897461Q7.637247820243836,13.987567894897461,7.739947820243835,13.91894789489746Q7.842647820243836,13.850317894897461,7.938127820243835,13.771967894897461Q8.033607820243835,13.693607894897461,8.120947820243835,13.60625789489746Q8.208287820243836,13.518917894897461,8.286647820243836,13.42343789489746Q8.364997820243836,13.32795789489746,8.433617820243835,13.22525789489746Q8.502247820243834,13.122557894897461,8.560467820243836,13.013617894897461Q8.618697820243835,12.90468789489746,8.665957820243836,12.79056789489746Q8.713227820243835,12.67644789489746,8.749087820243837,12.55824789489746Q8.784937820243837,12.44004789489746,8.809037820243836,12.31890789489746Q8.833137820243834,12.19775789489746,8.845237820243835,12.074837894897462Q8.857347820243834,11.951907894897461,8.857347820243834,11.82839789489746Q8.857347820243834,11.70487789489746,8.845237820243835,11.58194789489746Q8.833137820243834,11.45902789489746,8.809037820243836,11.33787789489746Q8.784937820243837,11.216737894897461,8.749087820243837,11.098537894897461Q8.713227820243835,10.980337894897461,8.665957820243836,10.866217894897462Q8.618697820243835,10.75209789489746,8.560467820243836,10.643167894897461Q8.502247820243834,10.53423789489746,8.433617820243835,10.43152789489746Q8.364997820243836,10.328827894897461,8.286647820243836,10.233347894897461Q8.208287820243836,10.13786589489746,8.120947820243835,10.05052489489746Q8.033607820243835,9.963183894897462,7.938127820243835,9.884824894897461Q7.842647820243836,9.806464894897461,7.739947820243835,9.73784189489746Q7.637247820243836,9.66921789489746,7.528317820243835,9.610991894897461Q7.419387820243836,9.55276489489746,7.305267820243835,9.50549689489746Q7.191157820243836,9.45822789489746,7.072957820243835,9.422371894897461Q6.954757820243835,9.38651649489746,6.833617820243836,9.36241919489746Q6.712477820243835,9.33832179489746,6.589557820243836,9.326214894897461Q6.466637820243836,9.314107894897461,6.343117820243835,9.314107894897461Q6.219597820243836,9.314107894897461,6.096677820243835,9.326214894897461Q5.9737578202438355,9.33832179489746,5.852617820243836,9.36241919489746Q5.731467820243836,9.38651649489746,5.613277820243836,9.422371894897461Q5.495077820243836,9.45822789489746,5.380967820243836,9.50549689489746Q5.266847820243836,9.55276489489746,5.157917820243835,9.610991894897461Q5.048987820243836,9.66921789489746,4.946287820243835,9.73784189489746Q4.843587820243835,9.806464894897461,4.7481068202438355,9.884824894897461Q4.652627820243835,9.963183894897462,4.565288820243835,10.05052489489746Q4.477949820243835,10.13786589489746,4.3995918202438355,10.233347894897461Q4.321233820243836,10.328827894897461,4.252611820243835,10.43152789489746Q4.183989820243835,10.53423789489746,4.125764820243836,10.643167894897461Q4.0675398202438355,10.75209789489746,4.020271820243836,10.866217894897462Q3.9730048202438355,10.980337894897461,3.9371498202438353,11.098537894897461Q3.9012948202438356,11.216737894897461,3.8771980202438354,11.33787789489746Q3.8531012202438353,11.45902789489746,3.8409945202438354,11.58194789489746Q3.8288878202438354,11.70487789489746,3.8288878202438354,11.82839789489746Q3.8288878202438354,11.951907894897461,3.8409945202438354,12.074837894897462Q3.8531012202438353,12.19775789489746,3.8771980202438354,12.31890789489746Q3.9012948202438356,12.44004789489746,3.9371498202438353,12.55824789489746Q3.9730048202438355,12.67644789489746,4.020271820243836,12.79056789489746Q4.0675398202438355,12.90468789489746,4.125764820243836,13.013617894897461Q4.183989820243835,13.122557894897461,4.252611820243835,13.22525789489746Q4.321233820243836,13.32795789489746,4.3995918202438355,13.42343789489746Q4.477949820243835,13.518917894897461,4.565288820243835,13.60625789489746Q4.652627820243835,13.693607894897461,4.7481068202438355,13.771957894897461Q4.843587820243835,13.850317894897461,4.946287820243835,13.91894789489746Q5.048987820243836,13.987567894897461,5.157917820243835,14.045797894897461Q5.266847820243836,14.10401789489746,5.380967820243836,14.151287894897461Q5.495077820243836,14.198557894897462,5.613277820243836,14.234417894897462Q5.731467820243836,14.270267894897462,5.852617820243836,14.294367894897462Q5.9737578202438355,14.318467894897461,6.096677820243835,14.330577894897461Q6.219597820243836,14.342677894897461,6.343117820243835,14.342677894897461ZM6.342817820243836,12.97140789489746Q6.398957820243835,12.97140789489746,6.454827820243835,12.965897894897461Q6.5107078202438355,12.960397894897461,6.565767820243836,12.94944789489746Q6.620837820243835,12.938487894897461,6.674557820243836,12.922197894897462Q6.728287820243835,12.90589789489746,6.7801578202438355,12.88440789489746Q6.832027820243836,12.86292789489746,6.881537820243835,12.83645789489746Q6.9310578202438355,12.80998789489746,6.977737820243835,12.778797894897462Q7.024417820243835,12.747607894897461,7.067817820243835,12.711987894897462Q7.111217820243835,12.67636789489746,7.150917820243835,12.63666789489746Q7.190617820243835,12.59696789489746,7.226237820243835,12.55356789489746Q7.261847820243835,12.51016789489746,7.2930378202438355,12.463487894897462Q7.324237820243836,12.41679789489746,7.350697820243836,12.36728789489746Q7.3771678202438355,12.317767894897461,7.398647820243836,12.26589789489746Q7.420137820243836,12.21402789489746,7.436437820243835,12.160297894897461Q7.452727820243835,12.10657789489746,7.463687820243836,12.051507894897462Q7.474637820243835,11.996437894897461,7.4801378202438356,11.94056789489746Q7.485647820243836,11.88468789489746,7.485647820243836,11.828547894897461Q7.485647820243836,11.77239789489746,7.4801378202438356,11.71652789489746Q7.474637820243835,11.660647894897462,7.463687820243836,11.605587894897461Q7.452727820243835,11.55051789489746,7.436437820243835,11.49678789489746Q7.420137820243836,11.44306789489746,7.398647820243836,11.391197894897461Q7.3771678202438355,11.339327894897462,7.350697820243836,11.28980789489746Q7.324237820243836,11.240287894897461,7.2930378202438355,11.193607894897461Q7.261847820243835,11.14692789489746,7.226237820243835,11.10352789489746Q7.190617820243835,11.06012789489746,7.150917820243835,11.02042789489746Q7.111217820243835,10.980727894897461,7.067817820243835,10.945107894897461Q7.024417820243835,10.909487894897461,6.977737820243835,10.878297894897461Q6.9310578202438355,10.84710789489746,6.881537820243835,10.82063789489746Q6.832027820243836,10.79416789489746,6.7801578202438355,10.77268789489746Q6.728287820243835,10.75119789489746,6.674557820243836,10.734897894897461Q6.620837820243835,10.718607894897461,6.565767820243836,10.70764789489746Q6.5107078202438355,10.696697894897461,6.454827820243835,10.69119789489746Q6.398957820243835,10.68568789489746,6.342817820243836,10.68568789489746Q6.286667820243835,10.68568789489746,6.230797820243835,10.69119789489746Q6.174927820243836,10.696697894897461,6.119857820243835,10.70764789489746Q6.064797820243836,10.718607894897461,6.011067820243835,10.734897894897461Q5.957337820243835,10.75119789489746,5.905467820243835,10.77268789489746Q5.853597820243835,10.79416789489746,5.8040878202438355,10.82063789489746Q5.754567820243835,10.84710789489746,5.707887820243835,10.878297894897461Q5.661207820243836,10.909487894897461,5.6178078202438355,10.945107894897461Q5.574407820243835,10.980727894897461,5.534707820243836,11.02042789489746Q5.495007820243836,11.06012789489746,5.459387820243835,11.10352789489746Q5.423777820243835,11.14692789489746,5.392587820243835,11.193607894897461Q5.361387820243835,11.240287894897461,5.334927820243836,11.28980789489746Q5.308457820243835,11.339327894897462,5.286977820243836,11.391197894897461Q5.265487820243836,11.44306789489746,5.249187820243836,11.496797894897462Q5.232897820243835,11.55051789489746,5.221937820243835,11.605587894897461Q5.210987820243836,11.660647894897462,5.205487820243835,11.71652789489746Q5.199977820243835,11.77239789489746,5.199977820243835,11.828547894897461Q5.199977820243835,11.88468789489746,5.205487820243835,11.94056789489746Q5.210987820243836,11.996437894897461,5.221937820243835,12.051507894897462Q5.232897820243835,12.10657789489746,5.249187820243836,12.160297894897461Q5.265487820243836,12.21402789489746,5.286977820243836,12.26589789489746Q5.308457820243835,12.317767894897461,5.334927820243836,12.36728789489746Q5.361387820243835,12.41679789489746,5.392587820243835,12.463487894897462Q5.423777820243835,12.51016789489746,5.459387820243835,12.55356789489746Q5.495007820243836,12.59696789489746,5.534707820243836,12.63666789489746Q5.574407820243835,12.67636789489746,5.6178078202438355,12.711987894897462Q5.661207820243836,12.747607894897461,5.707887820243835,12.778797894897462Q5.754567820243835,12.80998789489746,5.8040878202438355,12.83645789489746Q5.853597820243835,12.86292789489746,5.905467820243835,12.88440789489746Q5.957337820243835,12.90589789489746,6.011067820243835,12.922197894897462Q6.064797820243836,12.938487894897461,6.119857820243835,12.94944789489746Q6.174927820243836,12.960397894897461,6.230797820243835,12.965897894897461Q6.286667820243835,12.97140789489746,6.342817820243836,12.97140789489746Z" fill-rule="evenodd" fill="#0E043E" fill-opacity="1"/></g><g><path d="M13.657597767333984,14.342677894897461Q13.781117767333985,14.342677894897461,13.904037767333985,14.330577894897461Q14.026957767333984,14.318467894897461,14.148097767333985,14.294367894897462Q14.269237767333983,14.270267894897462,14.387437767333985,14.234417894897462Q14.505637767333985,14.198557894897462,14.619747767333983,14.151287894897461Q14.733867767333985,14.10401789489746,14.842797767333984,14.045797894897461Q14.951727767333985,13.987567894897461,15.054427767333983,13.91894789489746Q15.157127767333986,13.850317894897461,15.252607767333984,13.771967894897461Q15.348087767333984,13.693607894897461,15.435427767333984,13.60625789489746Q15.522767767333985,13.518917894897461,15.601127767333985,13.42343789489746Q15.679477767333985,13.32795789489746,15.748097767333984,13.22525789489746Q15.816727767333983,13.122557894897461,15.874947767333985,13.013617894897461Q15.933177767333984,12.90468789489746,15.980437767333985,12.79056789489746Q16.027707767333986,12.67644789489746,16.063567767333986,12.55824789489746Q16.099417767333986,12.44004789489746,16.123517767333986,12.31890789489746Q16.147617767333983,12.19775789489746,16.159717767333984,12.074837894897462Q16.171827767333983,11.951907894897461,16.171827767333983,11.82839789489746Q16.171827767333983,11.70487789489746,16.159717767333984,11.58194789489746Q16.147617767333983,11.45902789489746,16.123517767333986,11.33787789489746Q16.099417767333986,11.216737894897461,16.063567767333986,11.098537894897461Q16.027707767333986,10.980337894897461,15.980437767333985,10.866217894897462Q15.933177767333984,10.75209789489746,15.874947767333985,10.643167894897461Q15.816727767333983,10.53423789489746,15.748097767333984,10.43152789489746Q15.679477767333985,10.328827894897461,15.601127767333985,10.233347894897461Q15.522767767333985,10.13786589489746,15.435427767333984,10.05052489489746Q15.348087767333984,9.963183894897462,15.252607767333984,9.884824894897461Q15.157127767333986,9.806464894897461,15.054427767333983,9.73784189489746Q14.951727767333985,9.66921789489746,14.842797767333984,9.610991894897461Q14.733867767333985,9.55276489489746,14.619747767333983,9.50549689489746Q14.505637767333985,9.45822789489746,14.387437767333985,9.422371894897461Q14.269237767333983,9.38651649489746,14.148097767333985,9.36241919489746Q14.026957767333984,9.33832179489746,13.904037767333985,9.326214894897461Q13.781117767333985,9.314107894897461,13.657597767333984,9.314107894897461Q13.534077767333985,9.314107894897461,13.411157767333984,9.326214894897461Q13.288237767333985,9.33832179489746,13.167097767333985,9.36241919489746Q13.045947767333985,9.38651649489746,12.927757767333985,9.422371894897461Q12.809557767333985,9.45822789489746,12.695447767333985,9.50549689489746Q12.581327767333985,9.55276489489746,12.472397767333984,9.610991894897461Q12.363467767333985,9.66921789489746,12.260767767333984,9.73784189489746Q12.158067767333984,9.806464894897461,12.062586767333984,9.884824894897461Q11.967107767333985,9.963183894897462,11.879768767333985,10.05052489489746Q11.792429767333985,10.13786589489746,11.714071767333984,10.233347894897461Q11.635713767333984,10.328827894897461,11.567091767333984,10.43152789489746Q11.498469767333985,10.53423789489746,11.440244767333985,10.643167894897461Q11.382019767333984,10.75209789489746,11.334751767333984,10.866217894897462Q11.287484767333984,10.980337894897461,11.251629767333984,11.098537894897461Q11.215774767333984,11.216737894897461,11.191677967333984,11.33787789489746Q11.167581167333985,11.45902789489746,11.155474467333985,11.58194789489746Q11.143367767333984,11.70487789489746,11.143367767333984,11.82839789489746Q11.143367767333984,11.951907894897461,11.155474467333985,12.074837894897462Q11.167581167333985,12.19775789489746,11.191677967333984,12.31890789489746Q11.215774767333984,12.44004789489746,11.251629767333984,12.55824789489746Q11.287484767333984,12.67644789489746,11.334751767333984,12.79056789489746Q11.382019767333984,12.90468789489746,11.440244767333985,13.013617894897461Q11.498469767333985,13.122557894897461,11.567091767333984,13.22525789489746Q11.635713767333984,13.32795789489746,11.714071767333984,13.42343789489746Q11.792429767333985,13.518917894897461,11.879768767333985,13.60625789489746Q11.967107767333985,13.693607894897461,12.062586767333984,13.771957894897461Q12.158067767333984,13.850317894897461,12.260767767333984,13.91894789489746Q12.363467767333985,13.987567894897461,12.472397767333984,14.045797894897461Q12.581327767333985,14.10401789489746,12.695447767333985,14.151287894897461Q12.809557767333985,14.198557894897462,12.927757767333985,14.234417894897462Q13.045947767333985,14.270267894897462,13.167097767333985,14.294367894897462Q13.288237767333985,14.318467894897461,13.411157767333984,14.330577894897461Q13.534077767333985,14.342677894897461,13.657597767333984,14.342677894897461ZM13.657297767333985,12.97140789489746Q13.713437767333984,12.97140789489746,13.769307767333984,12.965897894897461Q13.825187767333984,12.960397894897461,13.880247767333984,12.94944789489746Q13.935317767333984,12.938487894897461,13.989037767333985,12.922197894897462Q14.042767767333984,12.90589789489746,14.094637767333985,12.88440789489746Q14.146507767333985,12.86292789489746,14.196017767333984,12.83645789489746Q14.245537767333985,12.80998789489746,14.292217767333984,12.778797894897462Q14.338897767333984,12.747607894897461,14.382297767333984,12.711987894897462Q14.425697767333984,12.67636789489746,14.465397767333984,12.63666789489746Q14.505097767333984,12.59696789489746,14.540717767333984,12.55356789489746Q14.576327767333984,12.51016789489746,14.607517767333984,12.463487894897462Q14.638717767333985,12.41679789489746,14.665177767333985,12.36728789489746Q14.691647767333984,12.317767894897461,14.713127767333985,12.26589789489746Q14.734617767333985,12.21402789489746,14.750917767333984,12.160297894897461Q14.767207767333984,12.10657789489746,14.778167767333985,12.051507894897462Q14.789117767333984,11.996437894897461,14.794617767333985,11.94056789489746Q14.800127767333985,11.88468789489746,14.800127767333985,11.828547894897461Q14.800127767333985,11.77239789489746,14.794617767333985,11.71652789489746Q14.789117767333984,11.660647894897462,14.778167767333985,11.605587894897461Q14.767207767333984,11.55051789489746,14.750917767333984,11.49678789489746Q14.734617767333985,11.44306789489746,14.713127767333985,11.391197894897461Q14.691647767333984,11.339327894897462,14.665177767333985,11.28980789489746Q14.638717767333985,11.240287894897461,14.607517767333984,11.193607894897461Q14.576327767333984,11.14692789489746,14.540717767333984,11.10352789489746Q14.505097767333984,11.06012789489746,14.465397767333984,11.02042789489746Q14.425697767333984,10.980727894897461,14.382297767333984,10.945107894897461Q14.338897767333984,10.909487894897461,14.292217767333984,10.878297894897461Q14.245537767333985,10.84710789489746,14.196017767333984,10.82063789489746Q14.146507767333985,10.79416789489746,14.094637767333985,10.77268789489746Q14.042767767333984,10.75119789489746,13.989037767333985,10.734897894897461Q13.935317767333984,10.718607894897461,13.880247767333984,10.70764789489746Q13.825187767333984,10.696697894897461,13.769307767333984,10.69119789489746Q13.713437767333984,10.68568789489746,13.657297767333985,10.68568789489746Q13.601147767333984,10.68568789489746,13.545277767333985,10.69119789489746Q13.489407767333985,10.696697894897461,13.434337767333984,10.70764789489746Q13.379277767333985,10.718607894897461,13.325547767333983,10.734897894897461Q13.271817767333985,10.75119789489746,13.219947767333984,10.77268789489746Q13.168077767333983,10.79416789489746,13.118567767333985,10.82063789489746Q13.069047767333984,10.84710789489746,13.022367767333984,10.878297894897461Q12.975687767333984,10.909487894897461,12.932287767333985,10.945107894897461Q12.888887767333983,10.980727894897461,12.849187767333984,11.02042789489746Q12.809487767333984,11.06012789489746,12.773867767333984,11.10352789489746Q12.738257767333984,11.14692789489746,12.707067767333985,11.193607894897461Q12.675867767333985,11.240287894897461,12.649407767333985,11.28980789489746Q12.622937767333985,11.339327894897462,12.601457767333985,11.391197894897461Q12.579967767333985,11.44306789489746,12.563667767333984,11.496797894897462Q12.547377767333984,11.55051789489746,12.536417767333985,11.605587894897461Q12.525467767333984,11.660647894897462,12.519967767333984,11.71652789489746Q12.514457767333985,11.77239789489746,12.514457767333985,11.828547894897461Q12.514457767333985,11.88468789489746,12.519967767333984,11.94056789489746Q12.525467767333984,11.996437894897461,12.536417767333985,12.051507894897462Q12.547377767333984,12.10657789489746,12.563667767333984,12.160297894897461Q12.579967767333985,12.21402789489746,12.601457767333985,12.26589789489746Q12.622937767333985,12.317767894897461,12.649407767333985,12.36728789489746Q12.675867767333985,12.41679789489746,12.707067767333985,12.463487894897462Q12.738257767333984,12.51016789489746,12.773867767333984,12.55356789489746Q12.809487767333984,12.59696789489746,12.849187767333984,12.63666789489746Q12.888887767333983,12.67636789489746,12.932287767333985,12.711987894897462Q12.975687767333984,12.747607894897461,13.022367767333984,12.778797894897462Q13.069047767333984,12.80998789489746,13.118567767333985,12.83645789489746Q13.168077767333983,12.86292789489746,13.219947767333984,12.88440789489746Q13.271817767333985,12.90589789489746,13.325547767333983,12.922197894897462Q13.379277767333985,12.938487894897461,13.434337767333984,12.94944789489746Q13.489407767333985,12.960397894897461,13.545277767333985,12.965897894897461Q13.601147767333984,12.97140789489746,13.657297767333985,12.97140789489746Z" fill-rule="evenodd" fill="#0E043E" fill-opacity="1"/></g><g><path d="M9.999821888427734,7.02857Q10.123341888427735,7.02857,10.246261888427735,7.01647Q10.369181888427734,7.00436,10.490321888427735,6.98026Q10.611461888427733,6.95616,10.729661888427735,6.92031Q10.847861888427735,6.88445,10.961971888427733,6.83718Q11.076091888427735,6.78991,11.185021888427734,6.73169Q11.293951888427735,6.67346,11.396651888427733,6.60484Q11.499351888427736,6.53621,11.594831888427734,6.45786Q11.690311888427734,6.3795,11.777651888427734,6.29215Q11.864991888427735,6.20481,11.943351888427735,6.10933Q12.021701888427735,6.01385,12.090321888427734,5.91115Q12.158951888427733,5.808450000000001,12.217171888427735,5.69951Q12.275401888427734,5.59058,12.322661888427735,5.476459999999999Q12.369931888427734,5.36234,12.405791888427736,5.24414Q12.441641888427736,5.12594,12.465741888427734,5.0047999999999995Q12.489841888427733,4.883649999999999,12.501941888427734,4.760730000000001Q12.514051888427733,4.6378,12.514051888427733,4.51429Q12.514051888427733,4.39077,12.501941888427734,4.26784Q12.489841888427733,4.14492,12.465741888427734,4.02377Q12.441641888427736,3.9026300000000003,12.405791888427736,3.78443Q12.369931888427734,3.66623,12.322661888427735,3.55211Q12.275401888427734,3.43799,12.217171888427735,3.32906Q12.158951888427733,3.22013,12.090321888427734,3.11742Q12.021701888427735,3.01472,11.943351888427735,2.91924Q11.864991888427735,2.8237579999999998,11.777651888427734,2.736417Q11.690311888427734,2.649076,11.594831888427734,2.570717Q11.499351888427736,2.492357,11.396651888427733,2.423734Q11.293951888427735,2.35511,11.185021888427734,2.296884Q11.076091888427735,2.238657,10.961971888427733,2.191389Q10.847861888427735,2.14412,10.729661888427735,2.108264Q10.611461888427733,2.0724086,10.490321888427735,2.0483113Q10.369181888427734,2.0242139,10.246261888427735,2.012107Q10.123341888427735,2,9.999821888427734,2Q9.876301888427735,2,9.753381888427734,2.012107Q9.630461888427735,2.0242139,9.509321888427735,2.0483113Q9.388171888427735,2.0724086,9.269981888427735,2.108264Q9.151781888427735,2.14412,9.037671888427735,2.191389Q8.923551888427735,2.238657,8.814621888427734,2.296884Q8.705691888427735,2.35511,8.602991888427734,2.423734Q8.500291888427734,2.492357,8.404810888427734,2.570717Q8.309331888427735,2.649076,8.221992888427735,2.736417Q8.134653888427735,2.8237579999999998,8.056295888427734,2.91924Q7.977937888427735,3.01472,7.909315888427734,3.11742Q7.840693888427734,3.22013,7.782468888427735,3.32906Q7.7242438884277345,3.43799,7.676975888427735,3.55211Q7.629708888427734,3.66623,7.593853888427734,3.78443Q7.5579988884277345,3.9026300000000003,7.533902088427735,4.02377Q7.509805288427734,4.14492,7.497698588427735,4.26784Q7.485591888427734,4.39077,7.485591888427734,4.51429Q7.485591888427734,4.6378,7.497698588427735,4.760730000000001Q7.509805288427734,4.883649999999999,7.533902088427735,5.0047999999999995Q7.5579988884277345,5.12594,7.593853888427734,5.24414Q7.629708888427734,5.36234,7.676975888427735,5.476459999999999Q7.7242438884277345,5.59058,7.782468888427735,5.69951Q7.840693888427734,5.808450000000001,7.909315888427734,5.91115Q7.977937888427735,6.01385,8.056295888427734,6.10933Q8.134653888427735,6.20481,8.221992888427735,6.29215Q8.309331888427735,6.3795,8.404810888427734,6.45785Q8.500291888427734,6.53621,8.602991888427734,6.60484Q8.705691888427735,6.67346,8.814621888427734,6.73169Q8.923551888427735,6.78991,9.037671888427735,6.83718Q9.151781888427735,6.88445,9.269981888427735,6.92031Q9.388171888427735,6.95616,9.509321888427735,6.98026Q9.630461888427735,7.00436,9.753381888427734,7.01647Q9.876301888427735,7.02857,9.999821888427734,7.02857ZM9.999521888427735,5.6573Q10.055661888427734,5.6573,10.111531888427734,5.65179Q10.167411888427734,5.6462900000000005,10.222471888427734,5.635339999999999Q10.277541888427734,5.62438,10.331261888427735,5.60809Q10.384991888427734,5.59179,10.436861888427735,5.5703Q10.488731888427735,5.54882,10.538241888427734,5.522349999999999Q10.587761888427735,5.49588,10.634441888427734,5.46469Q10.681121888427734,5.4335,10.724521888427734,5.39788Q10.767921888427734,5.36226,10.807621888427734,5.32256Q10.847321888427734,5.2828599999999994,10.882941888427734,5.239459999999999Q10.918551888427734,5.19606,10.949741888427734,5.14938Q10.980941888427735,5.10269,11.007401888427735,5.053179999999999Q11.033871888427734,5.00366,11.055351888427735,4.95179Q11.076841888427735,4.89992,11.093141888427734,4.84619Q11.109431888427734,4.79247,11.120391888427735,4.7374Q11.131341888427734,4.68233,11.136841888427735,4.62646Q11.142351888427735,4.57058,11.142351888427735,4.5144400000000005Q11.142351888427735,4.45829,11.136841888427735,4.40242Q11.131341888427734,4.34654,11.120391888427735,4.29148Q11.109431888427734,4.236409999999999,11.093141888427734,4.1826799999999995Q11.076841888427735,4.12896,11.055351888427735,4.07709Q11.033871888427734,4.02522,11.007401888427735,3.9757Q10.980941888427735,3.92618,10.949741888427734,3.8795Q10.918551888427734,3.83282,10.882941888427734,3.78942Q10.847321888427734,3.7460199999999997,10.807621888427734,3.70632Q10.767921888427734,3.66662,10.724521888427734,3.6310000000000002Q10.681121888427734,3.59538,10.634441888427734,3.56419Q10.587761888427735,3.533,10.538241888427734,3.5065299999999997Q10.488731888427735,3.48006,10.436861888427735,3.45858Q10.384991888427734,3.43709,10.331261888427735,3.42079Q10.277541888427734,3.4045,10.222471888427734,3.39354Q10.167411888427734,3.38259,10.111531888427734,3.37709Q10.055661888427734,3.37158,9.999521888427735,3.37158Q9.943371888427734,3.37158,9.887501888427735,3.37709Q9.831631888427735,3.38259,9.776561888427734,3.39354Q9.721501888427735,3.4045,9.667771888427733,3.42079Q9.614041888427735,3.43709,9.562171888427734,3.45858Q9.510301888427733,3.48006,9.460791888427735,3.5065299999999997Q9.411271888427734,3.533,9.364591888427734,3.56419Q9.317911888427734,3.59538,9.274511888427735,3.6310000000000002Q9.231111888427733,3.66662,9.191411888427734,3.70632Q9.151711888427734,3.7460199999999997,9.116091888427734,3.78942Q9.080481888427734,3.83282,9.049291888427735,3.8795Q9.018091888427735,3.92618,8.991631888427735,3.9757Q8.965161888427735,4.02522,8.943681888427735,4.07709Q8.922191888427735,4.12896,8.905891888427734,4.18269Q8.889601888427734,4.236409999999999,8.878641888427735,4.29148Q8.867691888427734,4.34654,8.862191888427734,4.40242Q8.856681888427735,4.45829,8.856681888427735,4.5144400000000005Q8.856681888427735,4.57058,8.862191888427734,4.62646Q8.867691888427734,4.68233,8.878641888427735,4.7374Q8.889601888427734,4.79247,8.905891888427734,4.84619Q8.922191888427735,4.89992,8.943681888427735,4.95179Q8.965161888427735,5.00366,8.991631888427735,5.053179999999999Q9.018091888427735,5.10269,9.049291888427735,5.14938Q9.080481888427734,5.19606,9.116091888427734,5.239459999999999Q9.151711888427734,5.2828599999999994,9.191411888427734,5.32256Q9.231111888427733,5.36226,9.274511888427735,5.39788Q9.317911888427734,5.4335,9.364591888427734,5.46469Q9.411271888427734,5.49588,9.460791888427735,5.522349999999999Q9.510301888427733,5.54882,9.562171888427734,5.5703Q9.614041888427735,5.59179,9.667771888427733,5.60809Q9.721501888427735,5.62438,9.776561888427734,5.635339999999999Q9.831631888427735,5.6462900000000005,9.887501888427735,5.65179Q9.943371888427734,5.6573,9.999521888427735,5.6573Z" fill-rule="evenodd" fill="#0E043E" fill-opacity="1"/></g><g><path d="M6.34276,12.971429824829102C8.74118,12.971429824829102,10.68552,14.915809824829102,10.68552,17.314289824829103C10.68552,17.6929998248291,10.37852,17.999999824829104,9.99982,17.999999824829104C9.621120000000001,17.999999824829104,9.314119999999999,17.6929998248291,9.314119999999999,17.314289824829103C9.314119999999999,15.673229824829102,7.98378,14.342859824829102,6.34276,14.342859824829102C4.7017299999999995,14.342859824829102,3.3714,15.6732198248291,3.3714,17.314289824829103C3.3714,17.6929998248291,3.0644,17.999999824829104,2.685699,17.999999824829104C2.306998,17.999999824829104,2,17.6929998248291,2,17.314289824829103C2,14.9157998248291,3.9443200000000003,12.971429824829102,6.34276,12.971429824829102Z" fill="#0E043E" fill-opacity="1"/></g><g><path d="M13.65723982788086,12.971429824829102C16.05565982788086,12.971429824829102,17.99999982788086,14.915809824829102,17.99999982788086,17.314289824829103C17.99999982788086,17.6929998248291,17.69299982788086,17.999999824829104,17.31429982788086,17.999999824829104C16.93559982788086,17.999999824829104,16.62859982788086,17.6929998248291,16.62859982788086,17.314289824829103C16.62859982788086,15.673229824829102,15.298259827880859,14.342859824829102,13.65723982788086,14.342859824829102C12.016209827880859,14.342859824829102,10.685879827880859,15.6732198248291,10.685879827880859,17.314289824829103C10.685879827880859,17.6929998248291,10.378879827880858,17.999999824829104,10.000178827880859,17.999999824829104C9.62147782788086,17.999999824829104,9.31447982788086,17.6929998248291,9.31447982788086,17.314289824829103C9.31447982788086,14.9157998248291,11.258799827880859,12.971429824829102,13.65723982788086,12.971429824829102Z" fill="#0E043E" fill-opacity="1"/></g><g><path d="M10.000535640487671,5.65678596496582C12.39895564048767,5.65678596496582,14.343295640487671,7.60116596496582,14.343295640487671,9.99964596496582C14.343295640487671,10.37835596496582,14.03629564048767,10.68535596496582,13.65759564048767,10.68535596496582C13.278895640487672,10.68535596496582,12.97189564048767,10.37835596496582,12.97189564048767,9.99964596496582C12.97189564048767,8.35858596496582,11.64155564048767,7.0282159649658205,10.000535640487671,7.0282159649658205C8.35950564048767,7.0282159649658205,7.02917564048767,8.35857596496582,7.02917564048767,9.99964596496582C7.02917564048767,10.37835596496582,6.722175640487671,10.68535596496582,6.3434746404876705,10.68535596496582C5.964773640487671,10.68535596496582,5.657775640487671,10.37835596496582,5.657775640487671,9.99964596496582C5.657775640487671,7.6011559649658205,7.602095640487671,5.65678596496582,10.000535640487671,5.65678596496582Z" fill="#0E043E" fill-opacity="1"/></g></g></g></svg>