<svg xmlns="http://www.w3.org/2000/svg" xmlns:xlink="http://www.w3.org/1999/xlink" fill="none" version="1.1" width="40" height="40" viewBox="0 0 40 40"><g><g><rect x="0" y="0" width="40" height="40" rx="0" fill="#FFFFFF" fill-opacity="0.009999999776482582"/></g><g><g><path d="M13,20.5L19.5,20.5L26,20.5C26,16.91015,23.0899,13,19.5,13C15.91015,13,13,16.91015,13,20.5Z" fill="#E8F453" fill-opacity="1"/></g><g><path d="M6,35.5L19,35.5C19,31.91015,16.0899,28,12.5,28C8.91015,28,6,31.91015,6,35.5Z" fill="#E8F453" fill-opacity="1"/></g><g><path d="M21,35.5L34,35.5C34,31.91015,31.0899,28,27.5,28C23.91015,28,21,31.91015,21,35.5Z" fill="#E8F453" fill-opacity="1"/></g><g><path d="M17.715103125,23.656987968750002Q17.715103125,23.78043796875,17.709103125,23.90372796875Q17.703003125000002,24.027027968749998,17.690903125,24.14987796875Q17.678803125,24.27272796875,17.660703124999998,24.39483796875Q17.642583125,24.51693796875,17.618503125,24.63801796875Q17.594413125000003,24.759087968750002,17.564423124999998,24.87882796875Q17.534433125,24.99857796875,17.498593125,25.11670796875Q17.462763125000002,25.23483796875,17.421173125,25.35106796875Q17.379593125,25.46728796875,17.332353124999997,25.58133796875Q17.285113125000002,25.69538796875,17.232333125,25.80697796875Q17.179553124999998,25.91856796875,17.121363125000002,26.02743796875Q17.063173125,26.13630796875,16.999713125,26.24218796875Q16.936253125,26.34807796875,16.867673125,26.45071796875Q16.799093125,26.55335796875,16.725553124999998,26.65250796875Q16.652023125,26.75165796875,16.573713124999998,26.84707796875Q16.495403125,26.94250796875,16.412503125,27.033967968749998Q16.329603125,27.12543796875,16.242323125,27.212727968750002Q16.155033125,27.300017968749998,16.063563125,27.38291796875Q15.972103125,27.465817968750002,15.876683125,27.54412796875Q15.781263125,27.62243796875,15.682113125,27.69597796875Q15.582963125,27.76950796875,15.480323125,27.83809796875Q15.377683125,27.90667796875,15.271803125,27.970137968750002Q15.165923124999999,28.03359796875,15.057063124999999,28.09179796875Q14.948193125,28.14998796875,14.836603125,28.202767968750003Q14.725013125,28.255537968749998,14.610973125000001,28.30278796875Q14.496923125,28.350017968750002,14.380703125,28.39160796875Q14.264473125,28.43319796875,14.146343125,28.469027968749998Q14.028223125,28.50486796875,13.908473125,28.53485796875Q13.788733125,28.564857968749997,13.667663125,28.588937968750002Q13.546593125000001,28.61301796875,13.424493125,28.63111796875Q13.302383125,28.64921796875,13.179533124999999,28.661317968749998Q13.056693124999999,28.67341796875,12.933393125,28.679517968749998Q12.810103125000001,28.68551796875,12.686663124999999,28.68551796875Q12.563223125,28.68551796875,12.439923125,28.679517968749998Q12.316633125,28.67341796875,12.193783125,28.661317968749998Q12.070943125,28.64921796875,11.948833125,28.63111796875Q11.826723125000001,28.61301796875,11.705653125000001,28.588937968750002Q11.584583125,28.564857968749997,11.464843125,28.53485796875Q11.345103125,28.50486796875,11.226973125,28.469027968749998Q11.108853125,28.43319796875,10.992623125,28.39160796875Q10.876403125,28.350017968750002,10.762353125,28.30278796875Q10.648313125,28.255537968749998,10.536723125,28.202767968750003Q10.425133125,28.14998796875,10.316263124999999,28.09179796875Q10.207393125,28.03359796875,10.101513125,27.970137968750002Q9.995633125,27.90667796875,9.893003125,27.83809796875Q9.790363124999999,27.76950796875,9.691213125,27.69597796875Q9.592063125,27.62243796875,9.496643125,27.54412796875Q9.401223125,27.465817968750002,9.309753125,27.38291796875Q9.218293125,27.300017968749998,9.131003125,27.212727968750002Q9.043713125,27.12543796875,8.960823125,27.033967968749998Q8.877923125,26.94250796875,8.799613125,26.84707796875Q8.721303125,26.75165796875,8.647766125,26.65250796875Q8.574232125,26.55335796875,8.505651125,26.45071796875Q8.437070125,26.34807796875,8.373609125,26.24218796875Q8.310147125,26.13630796875,8.251957125,26.02743796875Q8.193767125,25.91856796875,8.140989125,25.80697796875Q8.088211125,25.69538796875,8.040972125,25.58133796875Q7.993733125,25.46728796875,7.952146125,25.35106796875Q7.910560125,25.23483796875,7.874727125,25.11670796875Q7.838894125,24.99857796875,7.808900125,24.87882796875Q7.778906125,24.759087968750002,7.754823525,24.63801796875Q7.730741225,24.51693796875,7.712628625,24.39483796875Q7.694515925,24.27272796875,7.682416525,24.14987796875Q7.670317125,24.027027968749998,7.664260125,23.90372796875Q7.658203125,23.78043796875,7.658203125,23.656987968750002Q7.658203125,23.53354796875,7.664260125,23.41024796875Q7.670317125,23.286957968750002,7.682416525,23.16410796875Q7.694515925,23.04125796875,7.712628625,22.91914796875Q7.730741225,22.79703796875,7.754823525,22.67596796875Q7.778906125,22.554887968750002,7.808900125,22.43514796875Q7.838893125,22.31539796875,7.874727125,22.19726796875Q7.910560125,22.07914796875,7.952146125,21.96291796875Q7.993733125,21.84668796875,8.040972125,21.73263796875Q8.088211125,21.61858796875,8.140989125,21.50699796875Q8.193767125,21.39540796875,8.251957125,21.28653796875Q8.310147125,21.17766796875,8.373609125,21.07178796875Q8.437070125,20.96590796875,8.505651125,20.86326796875Q8.574232125,20.76062796875,8.647766125,20.66147796875Q8.721303125,20.56231796875,8.799613125,20.46689796875Q8.877923125,20.37147796875,8.960823125,20.28000796875Q9.043713125,20.18853796875,9.131003125,20.101247968750002Q9.218293125,20.01396796875,9.309753125,19.93106796875Q9.401223125,19.84816796875,9.496643125,19.76984796875Q9.592063125,19.69153796875,9.691213125,19.61800296875Q9.790363124999999,19.54446696875,9.893003125,19.47588496875Q9.995633125,19.40730296875,10.101513125,19.34383996875Q10.207393125,19.28037696875,10.316263124999999,19.22218496875Q10.425133125,19.16399396875,10.536723125,19.11121496875Q10.648313125,19.05843496875,10.762353125,19.01119496875Q10.876403125,18.96395496875,10.992623125,18.92236796875Q11.108853125,18.88078096875,11.226973125,18.84494696875Q11.345103125,18.80911296875,11.464843125,18.77911796875Q11.584583125,18.74912296875,11.705653125000001,18.72504056875Q11.826723125000001,18.70095776875,11.948833125,18.68284466875Q12.070943125,18.66473156875,12.193783125,18.65263186875Q12.316633125,18.64053226875,12.439923125,18.63447509875Q12.563223125,18.62841796875,12.686663124999999,18.62841796875Q12.810103125000001,18.62841796875,12.933393125,18.63447509875Q13.056693124999999,18.64053226875,13.179533124999999,18.65263186875Q13.302383125,18.66473156875,13.424493125,18.68284466875Q13.546593125000001,18.70095776875,13.667663125,18.72504056875Q13.788733125,18.74912296875,13.908473125,18.77911796875Q14.028223125,18.80911296875,14.146343125,18.84494696875Q14.264473125,18.88078096875,14.380703125,18.92236796875Q14.496923125,18.96395496875,14.610973125000001,19.01119496875Q14.725013125,19.05843496875,14.836603125,19.11121496875Q14.948193125,19.16399396875,15.057063124999999,19.22218496875Q15.165923124999999,19.28037696875,15.271803125,19.34383996875Q15.377683125,19.40730296875,15.480323125,19.47588496875Q15.582963125,19.54446696875,15.682113125,19.61800296875Q15.781263125,19.69153796875,15.876683125,19.76984796875Q15.972103125,19.84816796875,16.063563125,19.93106796875Q16.155033125,20.01396796875,16.242323125,20.101247968750002Q16.329603125,20.18853796875,16.412503125,20.28000796875Q16.495403125,20.37147796875,16.573713124999998,20.46689796875Q16.652023125,20.56231796875,16.725553124999998,20.66146796875Q16.799093125,20.76062796875,16.867673125,20.86326796875Q16.936253125,20.96590796875,16.999713125,21.07178796875Q17.063173125,21.17766796875,17.121363125000002,21.28653796875Q17.179553124999998,21.39540796875,17.232333125,21.50699796875Q17.285113125000002,21.61858796875,17.332353124999997,21.73263796875Q17.379593125,21.84668796875,17.421173125,21.96291796875Q17.462763125000002,22.07914796875,17.498593125,22.19726796875Q17.534433125,22.31539796875,17.564423124999998,22.43514796875Q17.594413125000003,22.554887968750002,17.618503125,22.67596796875Q17.642583125,22.79703796875,17.660703124999998,22.91914796875Q17.678803125,23.04125796875,17.690903125,23.16410796875Q17.703003125000002,23.286957968750002,17.709103125,23.41024796875Q17.715103125,23.53354796875,17.715103125,23.656987968750002Z" fill="#0E043E" fill-opacity="1"/></g><g><path d="M14.971720625,23.65680375Q14.971720625,23.76909375,14.960710625,23.88084375Q14.949700625,23.99259375,14.927800625,24.10272375Q14.905890625,24.21286375,14.873300624999999,24.32031375Q14.840700625,24.42777375,14.797730625,24.53151375Q14.754760625,24.63525375,14.701830625,24.73428375Q14.648900625,24.83331375,14.586510624999999,24.92668375Q14.524130625,25.02004375,14.452890625,25.10685375Q14.381660625,25.19365375,14.302260625,25.27305375Q14.222860625,25.35245375,14.136060624999999,25.423683750000002Q14.049260625,25.494923749999998,13.955900625,25.55731375Q13.862540625,25.61969375,13.763510625,25.67262375Q13.664480625,25.72556375,13.560740625000001,25.76853375Q13.457000625,25.81150375,13.349550625,25.844103750000002Q13.242090625,25.87669375,13.131960625,25.89860375Q13.021830625,25.920513749999998,12.910090625,25.93151375Q12.798340625,25.94252375,12.686050625,25.94252375Q12.573770625,25.94252375,12.462020625000001,25.93151375Q12.350270625,25.920513749999998,12.240140625,25.89860375Q12.130010625,25.87669375,12.022560625,25.844103750000002Q11.915110625,25.81150375,11.811370625,25.76853375Q11.707630625,25.72556375,11.608600625,25.67262375Q11.509570625,25.61969375,11.416210625,25.55731375Q11.322843625,25.494923749999998,11.236044625,25.423693749999998Q11.149244625,25.35245375,11.069845625,25.27305375Q10.990446625,25.19365375,10.919212625,25.10685375Q10.847977625,25.02004375,10.785594625,24.92668375Q10.723210625,24.83331375,10.670278625,24.73428375Q10.617346625,24.63525375,10.574376625,24.53151375Q10.531405625,24.42777375,10.498810525,24.32031375Q10.466215225,24.21286375,10.444309025,24.10272375Q10.422402825,23.99259375,10.411396725,23.88084375Q10.400390625,23.76909375,10.400390625,23.65680375Q10.400390625,23.54451375,10.411396725,23.43277375Q10.422402825,23.32102375,10.444309025,23.21088375Q10.466215225,23.10075375,10.498810525,22.99330375Q10.531405625,22.88584375,10.574376625,22.78210375Q10.617346625,22.67836375,10.670278625,22.57933375Q10.723210625,22.48030375,10.785594625,22.38693375Q10.847977625,22.29356775,10.919212625,22.20676675Q10.990446625,22.11996475,11.069845625,22.04056375Q11.149244625,21.96116275,11.236044625,21.88992675Q11.322843625,21.818690750000002,11.416210625,21.75630575Q11.509570625,21.69392075,11.608600625,21.64098775Q11.707630625,21.58805475,11.811370625,21.54508375Q11.915110625,21.50211175,12.022560625,21.46951585Q12.130010625,21.43691975,12.240140625,21.41501315Q12.350270625,21.39310645,12.462020625000001,21.38210005Q12.573770625,21.37109375,12.686050625,21.37109375Q12.798340625,21.37109375,12.910090625,21.38210005Q13.021830625,21.39310645,13.131960625,21.41501315Q13.242090625,21.43691975,13.349550625,21.46951585Q13.457000625,21.50211175,13.560740625000001,21.54508375Q13.664480625,21.58805475,13.763510625,21.64098775Q13.862540625,21.69392075,13.955900625,21.75630575Q14.049260625,21.818690750000002,14.136060624999999,21.88992675Q14.222860625,21.96116275,14.302260625,22.04056375Q14.381660625,22.11996475,14.452890625,22.20676675Q14.524130625,22.29356775,14.586510624999999,22.38693375Q14.648900625,22.48030375,14.701830625,22.57933375Q14.754760625,22.67836375,14.797730625,22.78210375Q14.840700625,22.88584375,14.873300624999999,22.99330375Q14.905890625,23.10075375,14.927800625,23.21088375Q14.949700625,23.32102375,14.960710625,23.43277375Q14.971720625,23.54451375,14.971720625,23.65680375Z" fill="#E8F453" fill-opacity="1"/></g><g><path d="M32.344009375,23.656987968750002Q32.344009375,23.78043796875,32.338009375,23.90372796875Q32.331909375,24.027027968749998,32.319809375,24.14987796875Q32.307709375,24.27272796875,32.289609375,24.39483796875Q32.271489375,24.51693796875,32.247409375000004,24.63801796875Q32.223319375,24.759087968750002,32.193329375,24.87882796875Q32.163339375,24.99857796875,32.127499375,25.11670796875Q32.091669375,25.23483796875,32.050079374999996,25.35106796875Q32.008499375,25.46728796875,31.961259374999997,25.58133796875Q31.914019375000002,25.69538796875,31.861239375,25.80697796875Q31.808459374999998,25.91856796875,31.750269375000002,26.02743796875Q31.692079375,26.13630796875,31.628619375,26.24218796875Q31.565159375,26.34807796875,31.496579375,26.45071796875Q31.427999375,26.55335796875,31.354459374999998,26.65250796875Q31.280929375,26.75165796875,31.202619374999998,26.84707796875Q31.124309375,26.94250796875,31.041409375,27.033967968749998Q30.958509375,27.12543796875,30.871229375,27.212727968750002Q30.783939375,27.300017968749998,30.692469375,27.38291796875Q30.601009375,27.465817968750002,30.505589375,27.54412796875Q30.410169375000002,27.62243796875,30.311019375,27.69597796875Q30.211869375,27.76950796875,30.109229374999998,27.83809796875Q30.006589375,27.90667796875,29.900709374999998,27.970137968750002Q29.794829375,28.03359796875,29.685969375,28.09179796875Q29.577099375,28.14998796875,29.465509375,28.202767968750003Q29.353919375,28.255537968749998,29.239879375,28.30278796875Q29.125829375000002,28.350017968750002,29.009609375,28.39160796875Q28.893379375000002,28.43319796875,28.775249375,28.469027968749998Q28.657129375,28.50486796875,28.537379375,28.53485796875Q28.417639375,28.564857968749997,28.296569375,28.588937968750002Q28.175499375,28.61301796875,28.053399374999998,28.63111796875Q27.931289375,28.64921796875,27.808439375,28.661317968749998Q27.685599375,28.67341796875,27.562299375000002,28.679517968749998Q27.439009375,28.68551796875,27.315569375,28.68551796875Q27.192129375,28.68551796875,27.068829375,28.679517968749998Q26.945539375,28.67341796875,26.822689375,28.661317968749998Q26.699849375,28.64921796875,26.577739375,28.63111796875Q26.455629375,28.61301796875,26.334559375,28.588937968750002Q26.213489375,28.564857968749997,26.093749375,28.53485796875Q25.974009375,28.50486796875,25.855879375,28.469027968749998Q25.737759375,28.43319796875,25.621529375,28.39160796875Q25.505309375,28.350017968750002,25.391259375,28.30278796875Q25.277219375,28.255537968749998,25.165629375,28.202767968750003Q25.054039375,28.14998796875,24.945169375,28.09179796875Q24.836299375,28.03359796875,24.730419375,27.970137968750002Q24.624539375,27.90667796875,24.521909375,27.83809796875Q24.419269375,27.76950796875,24.320119375,27.69597796875Q24.220969375,27.62243796875,24.125549375,27.54412796875Q24.030129375,27.465817968750002,23.938659375,27.38291796875Q23.847199375,27.300017968749998,23.759909375,27.212727968750002Q23.672619375,27.12543796875,23.589729375,27.033967968749998Q23.506829375,26.94250796875,23.428519375,26.84707796875Q23.350209375,26.75165796875,23.276672375,26.65250796875Q23.203138375,26.55335796875,23.134557375,26.45071796875Q23.065976374999998,26.34807796875,23.002515375,26.24218796875Q22.939053375,26.13630796875,22.880863375,26.02743796875Q22.822673375,25.91856796875,22.769895375,25.80697796875Q22.717117375,25.69538796875,22.669878375,25.58133796875Q22.622639375,25.46728796875,22.581052375,25.35106796875Q22.539466375,25.23483796875,22.503633375,25.11670796875Q22.467800375,24.99857796875,22.437806375,24.87882796875Q22.407812375,24.759087968750002,22.383729775,24.63801796875Q22.359647475,24.51693796875,22.341534875,24.39483796875Q22.323422175,24.27272796875,22.311322775,24.14987796875Q22.299223375,24.027027968749998,22.293166375,23.90372796875Q22.287109375,23.78043796875,22.287109375,23.656987968750002Q22.287109375,23.53354796875,22.293166375,23.41024796875Q22.299223375,23.286957968750002,22.311322775,23.16410796875Q22.323422175,23.04125796875,22.341534875,22.91914796875Q22.359647475,22.79703796875,22.383729775,22.67596796875Q22.407812375,22.554887968750002,22.437806375,22.43514796875Q22.467799375,22.31539796875,22.503633375,22.19726796875Q22.539466375,22.07914796875,22.581052375,21.96291796875Q22.622639375,21.84668796875,22.669878375,21.73263796875Q22.717117375,21.61858796875,22.769895375,21.50699796875Q22.822673375,21.39540796875,22.880863375,21.28653796875Q22.939053375,21.17766796875,23.002515375,21.07178796875Q23.065976374999998,20.96590796875,23.134557375,20.86326796875Q23.203138375,20.76062796875,23.276672375,20.66147796875Q23.350209375,20.56231796875,23.428519375,20.46689796875Q23.506829375,20.37147796875,23.589729375,20.28000796875Q23.672619375,20.18853796875,23.759909375,20.101247968750002Q23.847199375,20.01396796875,23.938659375,19.93106796875Q24.030129375,19.84816796875,24.125549375,19.76984796875Q24.220969375,19.69153796875,24.320119375,19.61800296875Q24.419269375,19.54446696875,24.521909375,19.47588496875Q24.624539375,19.40730296875,24.730419375,19.34383996875Q24.836299375,19.28037696875,24.945169375,19.22218496875Q25.054039375,19.16399396875,25.165629375,19.11121496875Q25.277219375,19.05843496875,25.391259375,19.01119496875Q25.505309375,18.96395496875,25.621529375,18.92236796875Q25.737759375,18.88078096875,25.855879375,18.84494696875Q25.974009375,18.80911296875,26.093749375,18.77911796875Q26.213489375,18.74912296875,26.334559375,18.72504056875Q26.455629375,18.70095776875,26.577739375,18.68284466875Q26.699849375,18.66473156875,26.822689375,18.65263186875Q26.945539375,18.64053226875,27.068829375,18.63447509875Q27.192129375,18.62841796875,27.315569375,18.62841796875Q27.439009375,18.62841796875,27.562299375000002,18.63447509875Q27.685599375,18.64053226875,27.808439375,18.65263186875Q27.931289375,18.66473156875,28.053399374999998,18.68284466875Q28.175499375,18.70095776875,28.296569375,18.72504056875Q28.417639375,18.74912296875,28.537379375,18.77911796875Q28.657129375,18.80911296875,28.775249375,18.84494696875Q28.893379375000002,18.88078096875,29.009609375,18.92236796875Q29.125829375000002,18.96395496875,29.239879375,19.01119496875Q29.353919375,19.05843496875,29.465509375,19.11121496875Q29.577099375,19.16399396875,29.685969375,19.22218496875Q29.794829375,19.28037696875,29.900709374999998,19.34383996875Q30.006589375,19.40730296875,30.109229374999998,19.47588496875Q30.211869375,19.54446696875,30.311019375,19.61800296875Q30.410169375000002,19.69153796875,30.505589375,19.76984796875Q30.601009375,19.84816796875,30.692469375,19.93106796875Q30.783939375,20.01396796875,30.871229375,20.101247968750002Q30.958509375,20.18853796875,31.041409375,20.28000796875Q31.124309375,20.37147796875,31.202619374999998,20.46689796875Q31.280929375,20.56231796875,31.354459374999998,20.66146796875Q31.427999375,20.76062796875,31.496579375,20.86326796875Q31.565159375,20.96590796875,31.628619375,21.07178796875Q31.692079375,21.17766796875,31.750269375000002,21.28653796875Q31.808459374999998,21.39540796875,31.861239375,21.50699796875Q31.914019375000002,21.61858796875,31.961259374999997,21.73263796875Q32.008499375,21.84668796875,32.050079374999996,21.96291796875Q32.091669375,22.07914796875,32.127499375,22.19726796875Q32.163339375,22.31539796875,32.193329375,22.43514796875Q32.223319375,22.554887968750002,32.247409375000004,22.67596796875Q32.271489375,22.79703796875,32.289609375,22.91914796875Q32.307709375,23.04125796875,32.319809375,23.16410796875Q32.331909375,23.286957968750002,32.338009375,23.41024796875Q32.344009375,23.53354796875,32.344009375,23.656987968750002Z" fill="#0E043E" fill-opacity="1"/></g><g><path d="M29.600626875,23.65680375Q29.600626875,23.76909375,29.589616875,23.88084375Q29.578606875,23.99259375,29.556706875,24.10272375Q29.534796874999998,24.21286375,29.502206875,24.32031375Q29.469606875,24.42777375,29.426636875,24.53151375Q29.383666875,24.63525375,29.330736875,24.73428375Q29.277806875,24.83331375,29.215416875,24.92668375Q29.153036874999998,25.02004375,29.081796875000002,25.10685375Q29.010566875,25.19365375,28.931166875,25.27305375Q28.851766875,25.35245375,28.764966875,25.423683750000002Q28.678166875,25.494923749999998,28.584806874999998,25.55731375Q28.491446875,25.61969375,28.392416875,25.67262375Q28.293386875,25.72556375,28.189646875,25.76853375Q28.085906875,25.81150375,27.978456875,25.844103750000002Q27.870996875,25.87669375,27.760866875,25.89860375Q27.650736875,25.920513749999998,27.538996875,25.93151375Q27.427246875,25.94252375,27.314956875,25.94252375Q27.202676875,25.94252375,27.090926875,25.93151375Q26.979176875,25.920513749999998,26.869046875,25.89860375Q26.758916875,25.87669375,26.651466875,25.844103750000002Q26.544016875,25.81150375,26.440276875,25.76853375Q26.336536875,25.72556375,26.237506875,25.67262375Q26.138476875,25.61969375,26.045116875,25.55731375Q25.951749875,25.494923749999998,25.864950875,25.423693749999998Q25.778150875,25.35245375,25.698751875,25.27305375Q25.619352875,25.19365375,25.548118875,25.10685375Q25.476883875,25.02004375,25.414500875,24.92668375Q25.352116875,24.83331375,25.299184875,24.73428375Q25.246252875,24.63525375,25.203282875,24.53151375Q25.160311875,24.42777375,25.127716775,24.32031375Q25.095121475,24.21286375,25.073215275,24.10272375Q25.051309075,23.99259375,25.040302975,23.88084375Q25.029296875,23.76909375,25.029296875,23.65680375Q25.029296875,23.54451375,25.040302975,23.43277375Q25.051309075,23.32102375,25.073215275,23.21088375Q25.095121475,23.10075375,25.127716775,22.99330375Q25.160311875,22.88584375,25.203282875,22.78210375Q25.246252875,22.67836375,25.299184875,22.57933375Q25.352116875,22.48030375,25.414500875,22.38693375Q25.476883875,22.29356775,25.548118875,22.20676675Q25.619352875,22.11996475,25.698751875,22.04056375Q25.778150875,21.96116275,25.864950875,21.88992675Q25.951749875,21.818690750000002,26.045116875,21.75630575Q26.138476875,21.69392075,26.237506875,21.64098775Q26.336536875,21.58805475,26.440276875,21.54508375Q26.544016875,21.50211175,26.651466875,21.46951585Q26.758916875,21.43691975,26.869046875,21.41501315Q26.979176875,21.39310645,27.090926875,21.38210005Q27.202676875,21.37109375,27.314956875,21.37109375Q27.427246875,21.37109375,27.538996875,21.38210005Q27.650736875,21.39310645,27.760866875,21.41501315Q27.870996875,21.43691975,27.978456875,21.46951585Q28.085906875,21.50211175,28.189646875,21.54508375Q28.293386875,21.58805475,28.392416875,21.64098775Q28.491446875,21.69392075,28.584806874999998,21.75630575Q28.678166875,21.818690750000002,28.764966875,21.88992675Q28.851766875,21.96116275,28.931166875,22.04056375Q29.010566875,22.11996475,29.081796875000002,22.20676675Q29.153036874999998,22.29356775,29.215416875,22.38693375Q29.277806875,22.48030375,29.330736875,22.57933375Q29.383666875,22.67836375,29.426636875,22.78210375Q29.469606875,22.88584375,29.502206875,22.99330375Q29.534796874999998,23.10075375,29.556706875,23.21088375Q29.578606875,23.32102375,29.589616875,23.43277375Q29.600626875,23.54451375,29.600626875,23.65680375Z" fill="#E8F453" fill-opacity="1"/></g><g><path d="M25.027603125,9.02857Q25.027603125,9.15202,25.021603125,9.275310000000001Q25.015503125000002,9.39861,25.003403125,9.521460000000001Q24.991303125,9.64431,24.973203124999998,9.76642Q24.955083125,9.88852,24.931003125,10.009599999999999Q24.906913125000003,10.13067,24.876923124999998,10.250409999999999Q24.846933125,10.37016,24.811093125,10.48829Q24.775263125000002,10.60642,24.733673125,10.72265Q24.692093125,10.83887,24.644853124999997,10.952919999999999Q24.597613125000002,11.066970000000001,24.544833125,11.178560000000001Q24.492053124999998,11.29015,24.433863125000002,11.39902Q24.375673125,11.50789,24.312213125,11.613769999999999Q24.248753125,11.719660000000001,24.180173125,11.8223Q24.111593125,11.92494,24.038053124999998,12.02409Q23.964523125,12.12324,23.886213124999998,12.21866Q23.807903125,12.31409,23.725003125,12.40555Q23.642103125,12.49702,23.554823125,12.58431Q23.467533125,12.6716,23.376063125,12.7545Q23.284603125,12.8374,23.189183125,12.91571Q23.093763125000002,12.99402,22.994613125,13.06756Q22.895463125,13.14109,22.792823124999998,13.20968Q22.690183125,13.27826,22.584303124999998,13.34172Q22.478423125,13.40518,22.369563125,13.46338Q22.260693125,13.52157,22.149103125,13.57435Q22.037513125,13.62712,21.923473125,13.67437Q21.809423125000002,13.7216,21.693203125,13.76319Q21.576973125000002,13.80478,21.458843125,13.84061Q21.340723125,13.87645,21.220973125,13.90644Q21.101233125,13.93644,20.980163125,13.96052Q20.859093125,13.9846,20.736993124999998,14.0027Q20.614883125,14.0208,20.492033125,14.0329Q20.369193125,14.045,20.245893125000002,14.0511Q20.122603125,14.0571,19.999163125,14.0571Q19.875723125,14.0571,19.752423125,14.0511Q19.629133125,14.045,19.506283125,14.0329Q19.383443125,14.0208,19.261333125,14.0027Q19.139223125,13.9846,19.018153125,13.96052Q18.897083125,13.93644,18.777343125,13.90644Q18.657603125,13.87645,18.539473125,13.84061Q18.421353125,13.80478,18.305123125,13.76319Q18.188903125,13.7216,18.074853125,13.67437Q17.960813125,13.62712,17.849223125,13.57435Q17.737633125,13.52157,17.628763125,13.46338Q17.519893125,13.40518,17.414013125,13.34172Q17.308133125,13.27826,17.205503125,13.20968Q17.102863125,13.14109,17.003713125,13.06756Q16.904563125,12.99402,16.809143125,12.91571Q16.713723125,12.8374,16.622253125,12.7545Q16.530793125,12.6716,16.443503125,12.58431Q16.356213125,12.49702,16.273323125,12.40555Q16.190423125,12.31409,16.112113125,12.21866Q16.033803125,12.12324,15.960266125,12.02409Q15.886732125,11.92494,15.818151125,11.8223Q15.749570125,11.719660000000001,15.686109125,11.613769999999999Q15.622647125,11.50789,15.564457125,11.39902Q15.506267125,11.29015,15.453489125,11.178560000000001Q15.400711125,11.066970000000001,15.353472125,10.952919999999999Q15.306233125,10.83887,15.264646125,10.72265Q15.223060125,10.60642,15.187227125,10.48829Q15.151394125,10.37016,15.121400125,10.250409999999999Q15.091406125,10.13067,15.067323525,10.009599999999999Q15.043241225,9.88852,15.025128625,9.76642Q15.007015925,9.64431,14.994916525,9.521460000000001Q14.982817125,9.39861,14.976760125,9.275310000000001Q14.970703125,9.15202,14.970703125,9.02857Q14.970703125,8.90513,14.976760125,8.78183Q14.982817125,8.65854,14.994916525,8.535689999999999Q15.007015925,8.41284,15.025128625,8.29073Q15.043241225,8.16862,15.067323525,8.047550000000001Q15.091406125,7.92647,15.121400125,7.80673Q15.151393125,7.68698,15.187227125,7.568849999999999Q15.223060125,7.45073,15.264646125,7.3345Q15.306233125,7.21827,15.353472125,7.10422Q15.400711125,6.99017,15.453489125,6.8785799999999995Q15.506267125,6.76699,15.564457125,6.65812Q15.622647125,6.54925,15.686109125,6.44337Q15.749570125,6.33749,15.818151125,6.23485Q15.886732125,6.132210000000001,15.960266125,6.03306Q16.033803125,5.9338999999999995,16.112113125,5.83848Q16.190423125,5.74306,16.273323125,5.65159Q16.356213125,5.5601199999999995,16.443503125,5.47283Q16.530793125,5.38555,16.622253125,5.30265Q16.713723125,5.2197499999999994,16.809143125,5.14143Q16.904563125,5.06312,17.003713125,4.989585Q17.102863125,4.916049,17.205503125,4.847467Q17.308133125,4.778885,17.414013125,4.715422Q17.519893125,4.651959,17.628763125,4.593767Q17.737633125,4.535576,17.849223125,4.482797Q17.960813125,4.430017,18.074853125,4.382777Q18.188903125,4.335537,18.305123125,4.29395Q18.421353125,4.252363,18.539473125,4.216529Q18.657603125,4.180695,18.777343125,4.1507Q18.897083125,4.120705,19.018153125,4.0966226Q19.139223125,4.0725398,19.261333125,4.0544267Q19.383443125,4.0363136,19.506283125,4.0242139Q19.629133125,4.0121143,19.752423125,4.00605713Q19.875723125,4,19.999163125,4Q20.122603125,4,20.245893125000002,4.00605713Q20.369193125,4.0121143,20.492033125,4.0242139Q20.614883125,4.0363136,20.736993124999998,4.0544267Q20.859093125,4.0725398,20.980163125,4.0966226Q21.101233125,4.120705,21.220973125,4.1507Q21.340723125,4.180695,21.458843125,4.216529Q21.576973125000002,4.252363,21.693203125,4.29395Q21.809423125000002,4.335537,21.923473125,4.382777Q22.037513125,4.430017,22.149103125,4.482797Q22.260693125,4.535576,22.369563125,4.593767Q22.478423125,4.651959,22.584303124999998,4.715422Q22.690183125,4.778885,22.792823124999998,4.847467Q22.895463125,4.916049,22.994613125,4.989585Q23.093763125000002,5.06312,23.189183125,5.14143Q23.284603125,5.2197499999999994,23.376063125,5.30265Q23.467533125,5.38555,23.554823125,5.47283Q23.642103125,5.5601199999999995,23.725003125,5.65159Q23.807903125,5.74306,23.886213124999998,5.83848Q23.964523125,5.9338999999999995,24.038053124999998,6.033049999999999Q24.111593125,6.132210000000001,24.180173125,6.23485Q24.248753125,6.33749,24.312213125,6.44337Q24.375673125,6.54925,24.433863125000002,6.65812Q24.492053124999998,6.76699,24.544833125,6.8785799999999995Q24.597613125000002,6.99017,24.644853124999997,7.10422Q24.692093125,7.21827,24.733673125,7.3345Q24.775263125000002,7.45073,24.811093125,7.568849999999999Q24.846933125,7.68698,24.876923124999998,7.80673Q24.906913125000003,7.92647,24.931003125,8.047550000000001Q24.955083125,8.16862,24.973203124999998,8.29073Q24.991303125,8.41284,25.003403125,8.535689999999999Q25.015503125000002,8.65854,25.021603125,8.78183Q25.027603125,8.90513,25.027603125,9.02857Z" fill="#0E043E" fill-opacity="1"/></g><g><path d="M22.284220625,9.02838578125Q22.284220625,9.14067578125,22.273210625,9.25242578125Q22.262200625,9.364175781250001,22.240300625,9.47430578125Q22.218390624999998,9.58444578125,22.185800625,9.69189578125Q22.153200625,9.79935578125,22.110230625,9.90309578125Q22.067260625,10.00683578125,22.014330625,10.10586578125Q21.961400625,10.20489578125,21.899010625,10.29826578125Q21.836630624999998,10.39162578125,21.765390625000002,10.478435781249999Q21.694160625,10.56523578125,21.614760625,10.644635781249999Q21.535360625,10.72403578125,21.448560625,10.79526578125Q21.361760625,10.86650578125,21.268400624999998,10.928895781249999Q21.175040625,10.99127578125,21.076010625,11.04420578125Q20.976980625,11.09714578125,20.873240625,11.14011578125Q20.769500625,11.18308578125,20.662050625,11.21568578125Q20.554590625,11.248275781250001,20.444460625,11.27018578125Q20.334330625,11.29209578125,20.222590625,11.30309578125Q20.110840625,11.31410578125,19.998550625,11.31410578125Q19.886270625,11.31410578125,19.774520625,11.30309578125Q19.662770625,11.29209578125,19.552640625,11.27018578125Q19.442510625,11.248275781250001,19.335060625,11.21568578125Q19.227610625,11.18308578125,19.123870625,11.14011578125Q19.020130625,11.09714578125,18.921100625,11.04420578125Q18.822070625,10.99127578125,18.728710625,10.928895781249999Q18.635343625,10.86650578125,18.548544625,10.79527578125Q18.461744625,10.72403578125,18.382345625,10.644635781249999Q18.302946625,10.56523578125,18.231712625,10.478435781249999Q18.160477625,10.39162578125,18.098094625,10.29826578125Q18.035710625,10.20489578125,17.982778625,10.10586578125Q17.929846625,10.00683578125,17.886876625,9.90309578125Q17.843905625,9.79935578125,17.811310525,9.69189578125Q17.778715225,9.58444578125,17.756809025,9.47430578125Q17.734902825,9.364175781250001,17.723896725,9.25242578125Q17.712890625,9.14067578125,17.712890625,9.02838578125Q17.712890625,8.91609578125,17.723896725,8.804355781249999Q17.734902825,8.69260578125,17.756809025,8.58246578125Q17.778715225,8.472335781249999,17.811310525,8.364885781249999Q17.843905625,8.25742578125,17.886876625,8.153685781250001Q17.929846625,8.049945781249999,17.982778625,7.95091578125Q18.035710625,7.85188578125,18.098094625,7.75851578125Q18.160477625,7.66514978125,18.231712625,7.57834878125Q18.302946625,7.49154678125,18.382345625,7.4121457812500005Q18.461744625,7.33274478125,18.548544625,7.26150878125Q18.635343625,7.19027278125,18.728710625,7.12788778125Q18.822070625,7.06550278125,18.921100625,7.01256978125Q19.020130625,6.95963678125,19.123870625,6.91666578125Q19.227610625,6.87369378125,19.335060625,6.84109788125Q19.442510625,6.80850178125,19.552640625,6.78659518125Q19.662770625,6.76468848125,19.774520625,6.75368208125Q19.886270625,6.74267578125,19.998550625,6.74267578125Q20.110840625,6.74267578125,20.222590625,6.75368208125Q20.334330625,6.76468848125,20.444460625,6.78659518125Q20.554590625,6.80850178125,20.662050625,6.84109788125Q20.769500625,6.87369378125,20.873240625,6.91666578125Q20.976980625,6.95963678125,21.076010625,7.01256978125Q21.175040625,7.06550278125,21.268400624999998,7.12788778125Q21.361760625,7.19027278125,21.448560625,7.26150878125Q21.535360625,7.33274478125,21.614760625,7.4121457812500005Q21.694160625,7.49154678125,21.765390625000002,7.57834878125Q21.836630624999998,7.66514978125,21.899010625,7.75851578125Q21.961400625,7.85188578125,22.014330625,7.95091578125Q22.067260625,8.049945781249999,22.110230625,8.153685781250001Q22.153200625,8.25742578125,22.185800625,8.364885781249999Q22.218390624999998,8.472335781249999,22.240300625,8.58246578125Q22.262200625,8.69260578125,22.273210625,8.804355781249999Q22.284220625,8.91609578125,22.284220625,9.02838578125Z" fill="#E8F453" fill-opacity="1"/></g><g><path d="M12.68552,25.94287109375C17.4824,25.94287109375,21.371,29.83163109375,21.371,34.62858109375C21.371,35.38600109375,20.757,35.99997109375,19.9996,35.99997109375C19.2422,35.99997109375,18.6282,35.38600109375,18.6282,34.62858109375C18.6282,31.34647109375,15.9676,28.68573109375,12.68552,28.68573109375C9.403459999999999,28.68573109375,6.7428,31.34646109375,6.7428,34.62858109375C6.7428,35.38600109375,6.1288,35.99997109375,5.3713999999999995,35.99997109375C4.613996,35.99997109375,4,35.38600109375,4,34.62858109375C4,29.83162109375,7.88865,25.94287109375,12.68552,25.94287109375Z" fill="#0E043E" fill-opacity="1"/></g><g><path d="M27.31442625,25.94287109375C32.11130625,25.94287109375,35.999906249999995,29.83163109375,35.999906249999995,34.62858109375C35.999906249999995,35.38600109375,35.385906250000005,35.99997109375,34.62850625,35.99997109375C33.87110625,35.99997109375,33.25710625,35.38600109375,33.25710625,34.62858109375C33.25710625,31.34647109375,30.596506249999997,28.68573109375,27.31442625,28.68573109375C24.03236625,28.68573109375,21.37170625,31.34646109375,21.37170625,34.62858109375C21.37170625,35.38600109375,20.75770625,35.99997109375,20.00030625,35.99997109375C19.24290225,35.99997109375,18.62890625,35.38600109375,18.62890625,34.62858109375C18.62890625,29.83162109375,22.51755625,25.94287109375,27.31442625,25.94287109375Z" fill="#0E043E" fill-opacity="1"/></g><g><path d="M20.00192625,11.3134765625C24.79880625,11.3134765625,28.68740625,15.2022365625,28.68740625,19.9991865625C28.68740625,20.7566065625,28.07340625,21.3705765625,27.31600625,21.3705765625C26.55860625,21.3705765625,25.94460625,20.7566065625,25.94460625,19.9991865625C25.94460625,16.7170765625,23.284006249999997,14.0563365625,20.00192625,14.0563365625C16.71986625,14.0563365625,14.059206249999999,16.7170665625,14.059206249999999,19.9991865625C14.059206249999999,20.7566065625,13.44520625,21.3705765625,12.68780625,21.3705765625C11.93040225,21.3705765625,11.31640625,20.7566065625,11.31640625,19.9991865625C11.31640625,15.2022265625,15.20505625,11.3134765625,20.00192625,11.3134765625Z" fill="#0E043E" fill-opacity="1"/></g></g></g></svg>