<svg xmlns="http://www.w3.org/2000/svg" xmlns:xlink="http://www.w3.org/1999/xlink" fill="none" version="1.1" width="16"
  height="16" viewBox="0 0 16 16">
  <g transform="matrix(1,-5.400848479553133e-8,5.400848479553133e-8,-1,-8.641357567285013e-7,32)">
    <g>
      <path d="M12,22L8,26L4,22L12,22Z" fill="#D8D8D8" fill-opacity="1" />
      <path d="M12,22L8,26L4,22L12,22Z" fill="#2CB079" fill-opacity="1" />
      <path
        d="M12,21.25L4,21.25Q3.850816,21.25,3.712987,21.30709Q3.575159,21.364181,3.46967,21.46967Q3.417437,21.521903000000002,3.376398,21.583322Q3.335359,21.644742,3.30709,21.712987Q3.278822,21.781233,3.264411,21.853682Q3.25,21.9261315,3.25,22Q3.25,22.0738685,3.264411,22.146318Q3.278822,22.218767,3.30709,22.287013Q3.335359,22.355258,3.376398,22.416678Q3.417437,22.478096999999998,3.46967,22.53033L7.46967,26.53033Q7.5219000000000005,26.58256,7.5833200000000005,26.6236Q7.6447400000000005,26.66464,7.71299,26.69291Q7.78123,26.72118,7.853680000000001,26.735590000000002Q7.926130000000001,26.75,8,26.75Q8.07387,26.75,8.14632,26.735590000000002Q8.21877,26.72118,8.28701,26.69291Q8.355260000000001,26.66464,8.41668,26.6236Q8.478100000000001,26.58256,8.53033,26.53033L12.53033,22.53033Q12.63582,22.424841,12.69291,22.287013Q12.75,22.149184,12.75,22Q12.75,21.9261315,12.73559,21.853682Q12.72118,21.781233,12.69291,21.712987Q12.66464,21.644742,12.6236,21.583322Q12.58256,21.521903000000002,12.53033,21.46967Q12.4781,21.417437,12.41668,21.376398000000002Q12.35526,21.335359,12.28701,21.30709Q12.21877,21.278822,12.14632,21.264411Q12.07387,21.25,12,21.25ZM5.81066,22.75L8,24.93934L10.18934,22.75L5.81066,22.75Z"
        fill-rule="evenodd" fill="#2CB079" fill-opacity="1" />
    </g>
  </g>
</svg>