<svg xmlns="http://www.w3.org/2000/svg" xmlns:xlink="http://www.w3.org/1999/xlink" fill="none" version="1.1" width="20" height="20" viewBox="0 0 20 20"><defs><clipPath id="master_svg0_1112_9029"><rect x="0" y="0" width="20" height="20" rx="0"/></clipPath></defs><g clip-path="url(#master_svg0_1112_9029)"><g><path d="M2.5,18.25L10,18.25Q10.07387,18.25,10.14632,18.235599999999998Q10.21877,18.2212,10.28701,18.1929Q10.355260000000001,18.1646,10.41668,18.1236Q10.478100000000001,18.0826,10.53033,18.0303Q10.58256,17.978099999999998,10.6236,17.9167Q10.66464,17.8553,10.69291,17.787Q10.72118,17.7188,10.73559,17.6463Q10.75,17.573900000000002,10.75,17.5Q10.75,17.426099999999998,10.73559,17.3537Q10.72118,17.2812,10.69291,17.213Q10.66464,17.1447,10.6236,17.0833Q10.58256,17.021900000000002,10.53033,16.9697Q10.478100000000001,16.9174,10.41668,16.8764Q10.355260000000001,16.8354,10.28701,16.8071Q10.21877,16.7788,10.14632,16.764400000000002Q10.07387,16.75,10,16.75L3.25,16.75L3.25,3.25L9.99654,3.25Q10.070409999999999,3.25,10.142859999999999,3.235589Q10.215309999999999,3.221178,10.28355,3.19291Q10.3518,3.164641,10.413219999999999,3.123602Q10.47464,3.082563,10.52687,3.03033Q10.5791,2.978097,10.62014,2.916678Q10.66118,2.855258,10.68945,2.787013Q10.71772,2.718767,10.73213,2.646318Q10.74654,2.5738685,10.74654,2.5Q10.74654,2.4261315,10.73213,2.353682Q10.71772,2.281233,10.68945,2.212987Q10.66118,2.144742,10.62014,2.083322Q10.5791,2.021903,10.52687,1.96967Q10.47464,1.917437,10.413219999999999,1.876398Q10.3518,1.835359,10.28355,1.80709Q10.215309999999999,1.778822,10.142859999999999,1.764411Q10.070409999999999,1.75,9.99654,1.75L2.5,1.75Q2.4261315,1.75,2.353682,1.764411Q2.281233,1.778822,2.212987,1.80709Q2.144742,1.835359,2.083322,1.876398Q2.021903,1.917437,1.96967,1.96967Q1.917437,2.021903,1.876398,2.083322Q1.835359,2.144742,1.80709,2.212987Q1.778822,2.281233,1.764411,2.353682Q1.75,2.4261315,1.75,2.5L1.75,17.5Q1.75,17.573900000000002,1.764411,17.6463Q1.778822,17.7188,1.80709,17.787Q1.835359,17.8553,1.876398,17.9167Q1.917437,17.978099999999998,1.96967,18.0303Q2.021903,18.0826,2.083322,18.1236Q2.144742,18.1646,2.212987,18.1929Q2.281233,18.2212,2.353682,18.235599999999998Q2.4261315,18.25,2.5,18.25Z" fill-rule="evenodd" fill="#333333" fill-opacity="1"/></g><g><path d="M14.280484,5.719824L14.28033,5.71967Q14.174841,5.614181,14.037013,5.55709Q13.899184,5.5,13.75,5.5Q13.600816,5.5,13.462987,5.55709Q13.325159,5.614181,13.21967,5.71967Q13.114181,5.825159,13.05709,5.962987Q13,6.100816,13,6.25Q13,6.399184,13.05709,6.537013Q13.114181,6.674841,13.21967,6.78033L13.219824,6.7804839999999995L16.43934,10L13.21967,13.21967Q13.114181,13.32516,13.05709,13.46299Q13,13.600819999999999,13,13.75Q13,13.76802,13.000866,13.78603Q13.007583,13.925699999999999,13.064186,14.05358Q13.120789,14.18145,13.21967,14.28033Q13.325159,14.38582,13.462987,14.44291Q13.600816,14.5,13.75,14.5Q13.899184,14.5,14.037013,14.44291Q14.174841,14.38582,14.28033,14.28033L14.280792,14.27987L18.03033,10.53033Q18.08256,10.478100000000001,18.1236,10.41668Q18.16464,10.355260000000001,18.19291,10.28701Q18.22118,10.21877,18.235590000000002,10.14632Q18.25,10.07387,18.25,10Q18.25,9.92613,18.235590000000002,9.85368Q18.22118,9.78123,18.19291,9.71299Q18.16464,9.64474,18.1236,9.58332Q18.08256,9.5219,18.03033,9.46967L14.280484,5.719824Z" fill-rule="evenodd" fill="#333333" fill-opacity="1"/></g><g><path d="M6.66650390625,10.74658203125L17.49980390625,10.74658203125Q17.57370390625,10.74658203125,17.646103906249998,10.732171031250001Q17.71860390625,10.71776003125,17.78680390625,10.68949203125Q17.85510390625,10.66122303125,17.91650390625,10.62018403125Q17.97790390625,10.57914503125,18.03020390625,10.52691203125Q18.08240390625,10.47467903125,18.123403906249997,10.41326003125Q18.164503906249998,10.35184003125,18.19270390625,10.28359503125Q18.22100390625,10.21534903125,18.23540390625,10.14290003125Q18.24980390625,10.07045053125,18.24980390625,9.99658203125Q18.24980390625,9.92271353125,18.23540390625,9.85026403125Q18.22100390625,9.77781503125,18.19270390625,9.70956903125Q18.164503906249998,9.64132403125,18.123403906249997,9.57990403125Q18.08240390625,9.51848503125,18.03020390625,9.46625203125Q17.97790390625,9.41401903125,17.91650390625,9.37298003125Q17.85510390625,9.33194103125,17.78680390625,9.30367203125Q17.71860390625,9.27540403125,17.646103906249998,9.260993031249999Q17.57370390625,9.24658203125,17.49980390625,9.24658203125L6.66650390625,9.24658203125Q6.59263540625,9.24658203125,6.52018590625,9.260993031249999Q6.44773690625,9.27540403125,6.37949090625,9.30367203125Q6.31124590625,9.33194103125,6.24982590625,9.37298003125Q6.18840690625,9.41401903125,6.13617390625,9.46625203125Q6.08394090625,9.51848503125,6.04290190625,9.57990403125Q6.00186290625,9.64132403125,5.97359390625,9.70956903125Q5.94532590625,9.77781503125,5.93091490625,9.85026403125Q5.91650390625,9.92271353125,5.91650390625,9.99658203125Q5.91650390625,10.07045053125,5.93091490625,10.14290003125Q5.94532590625,10.21534903125,5.97359390625,10.28359503125Q6.00186290625,10.35184003125,6.04290190625,10.41326003125Q6.08394090625,10.47467903125,6.13617390625,10.52691203125Q6.18840690625,10.57914503125,6.24982590625,10.62018403125Q6.31124590625,10.66122303125,6.37949090625,10.68949203125Q6.44773690625,10.71776003125,6.52018590625,10.732171031250001Q6.59263540625,10.74658203125,6.66650390625,10.74658203125Z" fill-rule="evenodd" fill="#333333" fill-opacity="1"/></g></g></svg>