<svg xmlns="http://www.w3.org/2000/svg" xmlns:xlink="http://www.w3.org/1999/xlink" fill="none" version="1.1" width="89.41796875" height="68.92022705078125" viewBox="0 0 89.41796875 68.92022705078125"><defs><linearGradient x1="1" y1="0.5" x2="0" y2="0.5" id="master_svg0_442_3792"><stop offset="0%" stop-color="#DBFDF0" stop-opacity="1"/><stop offset="100%" stop-color="#E8F453" stop-opacity="1"/></linearGradient></defs><g><g><g><path d="M21.9228,55.1733C7.24791,54.9817,-2.38209,42.275,0.514571,28.105C1.98958,20.8833,6.83124,14.8017,13.6446,12.2434C18.3612,10.4734,22.6578,10.5567,27.4478,10.6117C27.541,10.6128,27.6325,10.5842,27.7095,10.53L42.7145,0.023365C42.759,-0.0089709,42.8195,-0.00762304,42.8623,0.0266609C42.9052,0.0609449,42.9197,0.119673,42.8978,0.17003Q38.7745,10.2067,34.6812,20.1967C34.5545,20.505,34.1328,20.6567,33.7845,20.655Q28.3228,20.6117,22.8612,20.6367Q20.8095,20.645,19.6712,20.88C10.2579,22.8233,6.49124,34.5567,13.2429,41.4667C15.8929,44.1783,19.0262,45.22,22.7878,45.225Q28.5995,45.2333,34.4045,45.2267C34.538,45.2265,34.6583,45.1457,34.7095,45.0217Q41.6595,28.1167,48.6062,11.22C48.8262,10.685,48.9978,10.6234,49.5478,10.615C55.0512,10.5334,61.5228,10.475,67.7561,10.6667C76.2045,10.9284,83.6545,15.7917,87.2613,23.4083C93.2678,36.09,86.178,50.835,72.7978,54.4833C69.4911,55.385,65.9162,55.195,62.4212,55.1967C61.9245,55.1967,61.8478,55.5633,61.5911,55.7783Q53.7995,62.295,45.8828,68.8983C45.8325,68.9397,45.7568,68.92,45.7345,68.86L45.6628,68.6783Q45.6295,68.5933,45.6662,68.5067Q50.4045,57.04,55.1345,45.5683Q55.2728,45.235,55.7662,45.2333Q60.8662,45.2267,65.9662,45.2283Q67.6762,45.2283,68.7028,45.0833C82.5795,43.13,82.9462,23.24,69.2145,20.8333Q68.1728,20.65,66.5178,20.6483Q61.0128,20.64,55.5095,20.6467Q55.4195,20.6467,55.3645,20.72Q55.2428,20.885,55.1345,21.1467Q48.3578,37.62,41.5862,54.0967Q41.3995,54.55,41.1995,54.9733C41.1403,55.0968,41.017,55.1762,40.8812,55.1783Q31.3978,55.295,21.9228,55.1733Z" fill="url(#master_svg0_442_3792)" fill-opacity="1"/></g></g></g></svg>