<svg xmlns="http://www.w3.org/2000/svg" xmlns:xlink="http://www.w3.org/1999/xlink" fill="none" version="1.1" width="90" height="12" viewBox="0 0 90 12"><defs><linearGradient x1="0" y1="9.937664913195476e-9" x2="0.03722222149372101" y2="1.9627799987792969" id="master_svg0_698_8127"><stop offset="0%" stop-color="#2DC1B1" stop-opacity="1"/><stop offset="100%" stop-color="#139D8D" stop-opacity="1"/></linearGradient></defs><g><path d="M1.89412,2.60312L1.89412,12L0,12L0,1.07174C0,0.189372,1.04113,-0.313609,1.76929,0.216948L10.7664,6.77246C11.0438,6.97457,11.2069,7.29114,11.2069,7.62725L11.2069,12L9.3128,12L9.3128,8.00855L1.89412,2.60312ZM21.9403,2.60312L21.9403,12L23.8345,12L23.8345,1.07174C23.8345,0.189372,22.7933,-0.313609,22.0651,0.216948L13.068,6.77246C12.7906,6.97457,12.6275,7.29114,12.6275,7.62725L12.6275,12L14.5217,12L14.5217,8.00855L21.9403,2.60312ZM31.8439,2.54132C31.8439,1.81753,32.45,1.23078,33.1975,1.23078C33.681,1.23078,34.1276,1.48038,34.3694,1.88561L37.2713,6.74761L40.2388,1.84828C40.4705,1.46578,40.8942,1.23078,41.3522,1.23078C42.0651,1.23078,42.6429,1.79028,42.6429,2.48045L42.6429,10.7692L40.8849,10.7692L40.8849,3.65116L38.5011,7.40257C38.231,7.82743,37.7527,8.08626,37.2375,8.08626C36.7212,8.08626,36.2419,7.82627,35.9722,7.39986L33.6019,3.65116L33.6019,10.7692L31.8439,10.7692L31.8439,2.54132ZM49.443,2.09633C49.6583,1.57368,50.1807,1.23078,50.7619,1.23078C51.3433,1.23078,51.8659,1.57405,52.081,2.09711L55.6454,10.7692L53.8387,10.7692L52.7294,8.32289L48.6833,8.32289L47.5742,10.7692L45.872,10.7692L49.443,2.09633ZM52.1155,6.76114L50.7063,3.19818L49.2902,6.76114L52.1155,6.76114ZM64.6898,1.45763L60.4022,5.63208L60.4022,2.08183C60.4022,1.61182,60.0087,1.23078,59.5232,1.23078C59.0378,1.23078,58.6443,1.61182,58.6443,2.08183L58.6443,10.7692L60.4022,10.7692L60.4022,6.18647L65.146,10.7692L67.4271,10.7692L62.4114,5.82814L65.814,2.54497C66.3159,2.06074,65.9616,1.23078,65.2532,1.23078C65.0416,1.23078,64.8389,1.31243,64.6898,1.45763ZM71.8934,10.7692C71.0157,10.7692,70.3043,10.0805,70.3043,9.23078L70.3043,2.76925C70.3043,1.91958,71.0157,1.23078,71.8934,1.23078L76.4495,1.23078C76.8968,1.23078,77.2594,1.58191,77.2594,2.01504C77.2594,2.44817,76.8968,2.7993,76.4495,2.7993L72.0692,2.7993L72.0692,5.10473L76.0658,5.10473C76.5132,5.10473,76.8758,5.45586,76.8758,5.88899C76.8758,6.32212,76.5132,6.67325,76.0658,6.67325L72.0692,6.67325L72.0692,9.2694L76.4849,9.2694C76.9126,9.2694,77.2594,9.60515,77.2594,10.0193C77.2594,10.4335,76.9126,10.7692,76.4849,10.7692L71.8934,10.7692ZM89.0582,4.86134C89.1373,4.5819,89.1768,4.28893,89.1768,3.98244C89.1768,3.62636,89.1327,3.30636,89.0443,3.0224C88.9559,2.73394,88.8419,2.49731,88.7025,2.31252C88.5675,2.12321,88.3955,1.9587,88.1863,1.81897C87.9815,1.67926,87.7816,1.57333,87.5863,1.50122C87.3955,1.4291,87.1747,1.37276,86.9236,1.33219C86.6771,1.28712,86.4655,1.26008,86.2888,1.25107C86.1166,1.23755,85.926,1.23078,85.7167,1.23078L83.0852,1.23078C82.2076,1.23078,81.4962,1.91958,81.4962,2.76925L81.4962,10.7692L83.2541,10.7692L83.2541,7.1127L84.9353,7.1127L87.7118,10.7692L90,10.7692L87.0072,6.82198C87.3979,6.7093,87.7351,6.55154,88.0188,6.34872C88.3071,6.1459,88.5327,5.91604,88.6954,5.65912C88.8629,5.40221,88.9838,5.13629,89.0582,4.86134ZM83.2541,5.54419L83.2541,2.79253L85.2005,2.79253C86.6282,2.79253,87.3421,3.241,87.3421,4.13794C87.3421,4.37682,87.2933,4.58416,87.1956,4.75993C87.1026,4.93571,86.9817,5.07318,86.8329,5.17235C86.6887,5.2715,86.5027,5.35038,86.2748,5.40898C86.0468,5.46306,85.826,5.49912,85.612,5.51714C85.3981,5.53517,85.1516,5.54419,84.8726,5.54419L83.2541,5.54419Z" fill-rule="evenodd" fill="url(#master_svg0_698_8127)" fill-opacity="1"/></g></svg>