<svg xmlns="http://www.w3.org/2000/svg" xmlns:xlink="http://www.w3.org/1999/xlink" fill="none" version="1.1" width="21.25" height="17.5" viewBox="0 0 21.25 17.5"><defs><clipPath id="master_svg0_1112_00760"><rect x="21.25" y="0" width="21.25" height="17.5" rx="0"/></clipPath></defs><g transform="matrix(-1,0,0,1,42.5,0)" clip-path="url(#master_svg0_1112_00760)"><g><path d="M27.3037109375,16.041597L30.0502109375,16.71875L30.0502109375,15.833299L30.2745109375,15.625L31.8438609375,15.625L31.8438609375,17.39566L30.1622309375,17.39566L28.0883869375,16.562466L27.3042355005,16.041597L27.3037109375,16.041597Z" fill="#CDBDB2" fill-opacity="1"/></g><g><path d="M36.271119375,16.041597L33.580769375,16.71875L33.580769375,15.833299L33.356459375,15.625L31.787109375,15.625L31.787109375,17.39566L33.468749375,17.39566L35.542329375,16.562466L36.271119375,16.041597Z" fill="#CDBDB2" fill-opacity="1"/></g><g><path d="M30.27362240625,14.1148051875L30.04931640625,15.8336921875L30.32950140625,15.6253921875L33.24416640625,15.6253921875L33.58048640625,15.8336921875L33.35618640625,14.1148051875L32.90783640625,13.8544921875L30.66582840625,13.9065066875L30.27362240625,14.1148051875Z" fill="#393939" fill-opacity="1"/></g><g><path d="M28.76025390625,2.5L30.10556390625,5.41667L30.72207390625,13.9061L32.90794390625,13.9061L33.58059390625,5.41667L34.81361390625,2.500000166893L28.76025390625,2.5Z" fill="#F89C35" fill-opacity="1"/></g><g><path d="M22.87550234375,8.90635L21.30615234375,13.125070000000001L25.22953234375,12.91677L27.75172234375,12.91677L27.75172234375,11.09385L27.639442343749998,7.34375L27.07907234375,7.76059L22.87550234375,8.90635Z" fill="#F89D35" fill-opacity="1"/></g><g><path d="M25.845703125,9.37451171875L30.441733125,9.47878271875L29.937243125000002,11.66628171875L27.751383125,11.14541171875L25.845703125,9.37451171875Z" fill="#D87C30" fill-opacity="1"/></g><g><path d="M25.845703125,9.427734375L27.751383125,11.094364375L27.751383125,12.760994375L25.845703125,9.427734375Z" fill="#EA8D3A" fill-opacity="1"/></g><g><path d="M27.751465564304,11.146484375L29.99320484375,11.667352375L30.72200484375,13.906864375L30.21751484375,14.167424375L27.75146484375,12.813114375L27.751465564304,11.146484375Z" fill="#F89D35" fill-opacity="1"/></g><g><path d="M27.7523219375,12.8125L27.3037109375,16.04174L30.2745109375,14.11455L27.7523219375,12.8125Z" fill="#EB8F35" fill-opacity="1"/></g><g><path d="M30.4424689375,9.4794921875L30.7226539375,13.9065021875L29.8818359375,11.6409821875L30.4424689375,9.4794921875Z" fill="#EA8E3A" fill-opacity="1"/></g><g><path d="M25.17333984375,12.8647575L27.75166984375,12.8125L27.30305984375,16.04174L25.17333984375,12.8647575Z" fill="#D87C30" fill-opacity="1"/></g><g><path d="M22.53917234375,17.448534375L27.30337234375,16.042214375L25.17339234375,12.865234375L21.30615234375,13.125547375L22.53917234375,17.448534375Z" fill="#EB8F35" fill-opacity="1"/></g><g><path d="M30.105413125,5.4169921875L27.695243125,7.2919221875L25.845703125,9.3751521875L30.441733125,9.5314321875L30.105413125,5.4169921875Z" fill="#E8821E" fill-opacity="1"/></g><g><path d="M27.3037109375,16.0414478125L30.2745109375,14.1142578125L30.0502109375,15.781137812499999L30.0502109375,16.7185978125L28.0325069375,16.3540178125L27.3039732195,16.0414478125L27.3037109375,16.0414478125ZM36.2717409375,16.0414478125L33.3570709375,14.1142578125L33.5813809375,15.781137812499999L33.5813809375,16.7185978125L35.5988209375,16.3540178125L36.272000937499996,16.0414478125L36.2717409375,16.0414478125Z" fill="#DFCEC3" fill-opacity="1"/></g><g><path d="M29.2087384375,10.4169921875L29.8252484375,11.6150121875L27.6396484375,11.0941451875L29.2087384375,10.4169921875Z" fill="#393939" fill-opacity="1"/></g><g><path d="M22.48291015625,0.0517578125L30.10563015625,5.4164778125L28.81646015625,2.4998178125L22.48291015625,0.0517578125Z" fill="#E88F35" fill-opacity="1"/></g><g><path d="M22.48310109375,0.0517578125L21.47412109375,2.9164078125L22.03475409375,6.0413778125L21.64228509375,6.2496778125L22.20291709375,6.7185278125L21.75430609375,7.0831078125L22.37081909375,7.6039778125L21.97861209375,7.9163078125L22.87557109375,8.9580478125L27.07914109375,7.7602678125Q30.16170109375,5.4684978125,30.105821093750002,5.4164778125Q30.04968109375,5.3639778125,22.48310109375,0.0517578125Z" fill="#8E5A30" fill-opacity="1"/></g><g><path d="M40.698485625,8.90635L42.268095625,13.125070000000001L38.344455625,12.91677L35.822265625,12.91677L35.822265625,11.09385L35.934549625,7.34375L36.494919625,7.76059L40.698485625,8.90635Z" fill="#F89D35" fill-opacity="1"/></g><g><path d="M37.72835421875,9.37451171875L33.13232421875,9.47878271875L33.63681421875,11.66628171875L35.82267421875,11.14541171875L37.72835421875,9.37451171875Z" fill="#D87C30" fill-opacity="1"/></g><g><path d="M37.727945625,9.427734375L35.822265625,11.094364375L35.822265625,12.760994375L37.727945625,9.427734375Z" fill="#EA8D3A" fill-opacity="1"/></g><g><path d="M35.82259078125,11.146484375L33.58084678125,11.667352375L32.85205078125,13.906864375L33.35654178125,14.167424375L35.82259078125,12.813114375L35.82259078125,11.146484375Z" fill="#F89D35" fill-opacity="1"/></g><g><path d="M35.8224953125,12.8125L36.2711053125,16.04174L33.3564453125,14.1668L35.8224953125,12.8125Z" fill="#EB8F35" fill-opacity="1"/></g><g><path d="M33.13223578125,9.4794921875L32.85205078125,13.9065021875L33.69286878125,11.6409821875L33.13223578125,9.4794921875Z" fill="#EA8E3A" fill-opacity="1"/></g><g><path d="M38.400595625,12.8647575L35.822265625,12.8125L36.270876625,16.04174L38.400595625,12.8647575Z" fill="#D87C30" fill-opacity="1"/></g><g><path d="M41.0347078125,17.448534375L36.2705078125,16.042214375L38.4004878125,12.865234375L42.2679878125,13.125547375L41.0349678125,17.448534375L41.0347078125,17.448534375Z" fill="#EB8F35" fill-opacity="1"/></g><g><path d="M33.46865221875,5.4169921875L35.87882421875,7.2919221875L37.72835421875,9.3751521875L33.13232421875,9.5314321875L33.46865221875,5.4169921875Z" fill="#E8821E" fill-opacity="1"/></g><g><path d="M34.3655354375,10.4169921875L33.7490234375,11.6150121875L35.9351534375,11.0941451875L34.3655354375,10.4169921875Z" fill="#393939" fill-opacity="1"/></g><g><path d="M41.09147,0.0517578125L33.46875,5.4164778125L34.75792,2.4998178125L41.09147,0.0517578125Z" fill="#E88F35" fill-opacity="1"/></g><g><path d="M41.09125515625,0.0517578125L42.10023515625,2.9164078125L41.53960515625,6.0413778125L41.93207515625,6.2496778125L41.37144515625,6.7185278125L41.82005515625,7.0831078125L41.20354515625,7.6039778125L41.595745156250004,7.9163078125L40.69905515625,8.9580478125L36.494965156250004,7.7605078125Q33.41240055625,5.4687378125,33.46827952025,5.4167278125Q33.52468305625,5.3639778125,41.09125515625,0.0517578125Z" fill="#8E5A30" fill-opacity="1"/></g></g></svg>