<svg xmlns="http://www.w3.org/2000/svg" xmlns:xlink="http://www.w3.org/1999/xlink" fill="none" version="1.1" width="16" height="16" viewBox="0 0 16 16"><defs><mask id="master_svg0_2255_03621" style="mask-type:alpha" maskUnits="userSpaceOnUse"><g><rect x="0" y="0" width="16" height="16" rx="0" fill="#FFFFFF" fill-opacity="1"/></g></mask></defs><g mask="url(#master_svg0_2255_03621)"><g><g><path d="M7.09581,14.7405C5.709849999999999,13.8974,4.32238,13.0568,2.937383,12.2121C2.7867319999999998,12.1201,2.652638,12.0245,2.530995,11.8975Q2.0002281,11.3442,2.00009124,10.53146Q1.999817624,7.99075,2.000364856,5.45005C2.000501716,4.82056,2.292636,4.2118,2.801099,3.87438Q2.90167,3.80759,3.20366,3.62434Q5.15596,2.43978,7.1084,1.255368C7.64792,0.9280271,8.287189999999999,0.914064,8.83671,1.221108Q8.83808,1.221971,9.073830000000001,1.364913Q11.0873,2.5861799999999997,13.0997,3.80989C13.6165,4.124280000000001,13.9421,4.65257,13.9929,5.28192Q13.9999,5.36915,13.9999,5.56967Q14.0006,8.05942,13.9973,10.54945Q13.9963,11.3145,13.5121,11.8535C13.346,12.0385,13.1608,12.153,12.9274,12.295Q10.96114,13.4905,8.99379,14.684Q8.82385,14.787,8.75379,14.822C8.22083,15.0876,7.6081,15.0523,7.09581,14.7405Z" fill="#0E043E" fill-opacity="1"/><path d="M6.93984,14.9968Q7.90134,15.582,8.88759,15.0905L8.8878,15.0904Q8.96888,15.0499,9.149519999999999,14.9404L13.0833,12.5513Q13.5356,12.2763,13.7352,12.054Q14.2962,11.4297,14.2973,10.54961L14.2999,5.56967Q14.2999,5.35718,14.2919,5.2578Q14.2008,4.12861,13.2554,3.55348L9.2294,1.108398L8.9877,0.9618227L8.983039999999999,0.9592172Q7.96017,0.38768100000000005,6.95279,0.99888009L3.04802,3.36787Q2.7408010000000003,3.55429,2.63522,3.62441Q1.7006269999999999,4.24461,1.7003650000000001,5.45003L1.700091,10.53151Q1.700248,11.4648,2.314373,12.1051Q2.494654,12.2932,2.781466,12.4684L5.08122,13.8674L6.93984,14.9968ZM8.838059999999999,14.4275Q8.679079999999999,14.524,8.61998,14.5535L8.61978,14.5536Q7.93016,14.8971,7.25178,14.4843L5.392799999999999,13.3546L3.0933,11.9558Q2.8739179999999998,11.8218,2.747617,11.69Q2.300208,11.2236,2.300091,10.53141L2.300365,5.45007Q2.300557,4.56659,2.966978,4.12435Q3.0625400000000003,4.06088,3.35929,3.88082L7.26401,1.511855Q7.97038,1.0832822,8.685880000000001,1.480496L8.91827,1.6214279999999999L12.9439,4.06631Q13.6274,4.48207,13.6939,5.30604Q13.6999,5.38113,13.6999,5.56967L13.6973,10.5493Q13.6965,11.1994,13.2889,11.653Q13.1483,11.8096,12.7715,12.0386L8.838059999999999,14.4275Z" fill-rule="evenodd" fill="#0E043E" fill-opacity="1"/></g><g><path d="M7.740571125,3.0212755625L7.740571125,7.7930465625Q7.740571125,7.8015465625,7.748644125,7.8015465625Q8.748878125000001,7.8049965625,9.316408125,7.8117665625Q9.388518125000001,7.8117665625,9.428708125,7.8303265625C9.536808125,7.8798365625,9.581618125,8.0052565625,9.532228125,8.1176765625Q9.476948125,8.2431965625,9.320308125,8.2431665625Q8.320352125,8.2438865625,7.7476861249999995,8.235836562500001Q7.740708125,8.235836562500001,7.740708125,8.2431765625Q7.740297125,10.6508765625,7.740708125,13.0576765625C7.740708125,13.2878765625,7.419565625,13.3480765625,7.343487725,13.1240765625Q7.330078125,13.0844765625,7.330078125,12.9970765625Q7.330078125,7.8643065625,7.330078125,2.7313625625Q7.330078125,2.6149075625,7.347318925,2.5715785625C7.387273325,2.4708139625,7.504126125,2.4100673625,7.603740125,2.4518127625Q7.638494125,2.4663515625,7.724972125,2.5150064625Q8.859298125,3.1516935625,9.499998125,3.4999965625C9.785288125000001,3.6606465625,9.583778125,4.0370065625,9.316408125,3.8867165625Q8.284839125,3.3070345625,7.746591125,3.0173895625Q7.740571125,3.0140785625,7.740571125,3.0212755625Z" fill="#FFFFFF" fill-opacity="1"/><path d="M8.040571125,3.5192765625Q8.500918125,3.7725765625000003,9.169408125,4.1482365625Q9.378258125,4.2656265625,9.589488124999999,4.1979965625Q9.787678125,4.1345465625,9.883278125,3.9451265625Q9.976938125,3.7595465624999997,9.916058125,3.5612765625Q9.852468125,3.3541815625,9.643288125,3.2364295625Q9.004368125,2.8890905625,7.8720761249999995,2.2535485625Q7.770380125,2.1963305625,7.719692125,2.1751265625Q7.521386125,2.0920215625,7.322550145,2.1881765625Q7.141999125,2.2754905625,7.068575125,2.4606640625Q7.030078125,2.5574125625,7.030078125,2.7313625625L7.030078125,12.9970765625Q7.030078125,13.1338765625,7.059426125,13.2205765625Q7.198934125,13.6312765625,7.6226671249999995,13.5566765625Q8.040708125,13.4829765625,8.040708125,13.0576765625L8.040708125,8.539146562500001Q8.556358125,8.5437165625,9.320248124999999,8.5431665625Q9.672618125,8.5432465625,9.806888125,8.2383565625Q9.892098125,8.0444165625,9.821848124999999,7.8489565625Q9.749358125,7.6472365625,9.554448125,7.5579465625Q9.454418125,7.5117665625,9.318358125,7.5117765625L8.040571125,7.5034465625L8.040571125,3.5192765625ZM7.756166125,7.5015865625L7.748644125,7.5015465625L7.756166125,7.5015865625Z" fill-rule="evenodd" fill="#FFFFFF" fill-opacity="1"/></g><g><path d="M3.7521353125,6.7267737499999996Q3.7504933125,8.38694375,3.7487143124999998,10.04912375C3.7484403125,10.291103750000001,3.4404342125,10.35444375,3.3562833125,10.13347375Q3.34082135644,10.09317375,3.34082135644,10.01097375Q3.34082135644,7.83676375,3.34082135644,5.66255375Q3.3406846005,5.5557437499999995,3.3602513125,5.50651375C3.4304456125,5.3297437500000004,3.6701733125000002,5.33910375,3.7374943125,5.51529375Q4.7159703125,8.07183375,5.6928103125,10.62664375C5.6932103125,10.62787375,5.6944103125000005,10.62860375,5.6956203125,10.628353749999999C5.6968303124999995,10.62809375,5.6976803125,10.62693375,5.6976003125000005,10.62564375Q5.6977303125,7.32977375,5.6981403125,4.03204375C5.6981403125,3.73651545,6.1082203125,3.72327215,6.1082203125,4.05752175Q6.1080903125,7.86541375,6.1083603125,11.673303749999999Q6.1083603125,11.78975375,6.0882503125,11.84071375C6.0223003125000005,12.00827375,5.780510312500001,12.01172375,5.7149703125,11.84071375Q4.7362203125,9.28273375,3.7581553125,6.7256237500000005C3.7575673125,6.72422375,3.7561443125,6.72343375,3.7547133125,6.72370375C3.7532833125,6.72397375,3.7522173125,6.725243750000001,3.7521353125,6.7267737499999996Z" fill="#FFFFFF" fill-opacity="1"/><path d="M5.6882803125,10.93132375L5.8083503125,11.24517375L5.8083303125,10.90827375Q5.7843503125,10.916263749999999,5.7573203125,10.92193375Q5.7211203125,10.92954375,5.6882803125,10.93132375ZM5.3977303125,9.015643749999999L4.0177353125,5.40822375Q3.8956043125,5.08857375,3.5587653125,5.07867375Q3.2114123125,5.06846375,3.0814633125,5.3957137500000005Q3.0406113125,5.49850375,3.0408213125,5.66255375L3.0408213125,10.01097375Q3.0408213125,10.148743750000001,3.0759263125,10.240243750000001Q3.2304653125,10.64603375,3.6458483125,10.55844375Q4.0482343125,10.473603749999999,4.0487143125,10.04943375L4.0504853125,8.32938375L5.4348403125,11.94807375Q5.5580703125,12.26961375,5.9031403125,12.26767375Q6.2433503125000005,12.26576375,6.367300312499999,11.95086375Q6.4083603125,11.84682375,6.4083603125,11.67329375L6.4081803125,6.5946437499999995L6.4082203125,4.05752175Q6.4082203125,3.82119835,6.2633503125,3.66615175Q6.119130312499999,3.51180375,5.9076603125,3.50864975Q5.7001003125,3.50555275,5.5525203125,3.64980575Q5.3981403125,3.8006991,5.3981403125,4.03201875L5.3977303125,9.015643749999999ZM3.6408213125,6.44412375Q3.6676113125,6.43494375,3.6981973125,6.429073750000001L3.6984903125,6.42901375Q3.7321413125,6.42259375,3.7629483125,6.42148375L3.6408213125,6.10223375L3.6408213125,6.44412375Z" fill-rule="evenodd" fill="#FFFFFF" fill-opacity="1"/></g><g><path d="M11.7090159375,5.249437578125Q11.7077859375,8.207157578124999,11.7088859375,11.164887578125C11.7088859375,11.462147578125,11.2982519375,11.481287578125,11.2981149375,11.144737578125Q11.2979779375,8.086677578125,11.2981149375,5.028617578125C11.2981209375,5.024029578125,11.2956819375,5.019847578125,11.2918199375,5.017821578125Q10.9308599375,4.824641578125,10.5715429375,4.6317495781249995C10.4296498375,4.555600578125,10.3974941375,4.3712015781249995,10.5209157375,4.264967178125C10.6465259375,4.156861078125,10.7795259375,4.260216578125,10.9062309375,4.327584578125Q11.7432259375,4.772388578125,12.5785759375,5.220497578125Q12.653015937500001,5.260517578125,12.6813359375,5.297947578125C12.7561859375,5.396987578125,12.7301859375,5.538917578125,12.6316659375,5.611607578125C12.5483359375,5.673077578125,12.4633659375,5.643137578125,12.3714159375,5.593767578125Q12.044255937500001,5.417997578125,11.7158559375,5.244977578125Q11.7090159375,5.241377578125,11.7090159375,5.249437578125Z" fill="#FFFFFF" fill-opacity="1"/><path d="M12.0089659375,5.739977578125Q12.119285937499999,5.798857578125,12.2294959375,5.8580675781250005Q12.5613459375,6.036267578125,12.8097859375,5.853007578125Q12.9822659375,5.7257475781250005,13.0174559375,5.513807578125Q13.0540459375,5.293537578125,12.9205559375,5.116909578125Q12.8527259375,5.027282578125,12.7198759375,4.955861578125L11.0470689375,4.062698578125Q11.0334529375,4.055459578125,11.0023349375,4.037836578125Q10.5937649375,3.806461578125,10.3252069375,4.037594578125Q10.1080559375,4.224505798125,10.1500639375,4.504198578125Q10.1895689375,4.767228578125,10.4298172375,4.896161578125L10.9981149375,5.200761578125L10.9981149375,11.144857578125Q10.9982119375,11.382617578125,11.1439819375,11.537367578125Q11.2898529375,11.692227578125,11.5031759375,11.692487578125Q11.7100959375,11.692747578125001,11.8564059375,11.547047578125Q12.0088859375,11.395207578125,12.0088859375,11.164797578125L12.0085259375,9.922557578125L12.0089659375,5.739977578125ZM11.1462949375,5.280187578125Q11.1493529375,5.281857578125,11.1524709375,5.283497578125L11.1462949375,5.280187578125Z" fill-rule="evenodd" fill="#FFFFFF" fill-opacity="1"/></g></g></g></svg>