<svg xmlns="http://www.w3.org/2000/svg" xmlns:xlink="http://www.w3.org/1999/xlink" fill="none" version="1.1" width="200" height="200" viewBox="0 0 200 200"><defs><clipPath id="master_svg0_402_10099"><rect x="0" y="0" width="200" height="200" rx="0"/></clipPath></defs><g clip-path="url(#master_svg0_402_10099)"><g><g transform="matrix(0.968205988407135,-0.25015437602996826,0.26773950457572937,0.9634913802146912,-12.739374357965062,8.309994210187142)"><path d="M117.98493671875,163.18325439453125C103.69743671875,163.18325439453125,43.14443671875,163.18325439453125,28.85697671875,163.18325439453125C27.20012671875,163.18325439453125,25.82763671875,161.86925439453125,25.82763671875,160.21225439453124C25.82763671875,145.86885439453124,25.82763671875,83.89725439453125,25.82763671875,69.55385439453124C25.82763671875,67.89825439453125,27.18491671875,66.60635439453125,28.81712671875,66.32895439453125C32.19251671875,65.75545439453126,35.32915671875,64.22535439453125,37.78773671875,61.91025439453125C40.19883671875,59.63995439453125,41.80813671875,56.75568439453125,42.44403671875,53.64752439453125C42.77573671875,52.02566439453125,44.05023671875,50.64825439453125,45.70573671875,50.64825439453125C56.04833671875,50.64825439453125,90.54953671875,50.64825439453125,101.04013671875,50.64825439453125C102.69963671875,50.64825439453125,104.05913671875,52.00801439453125,104.38723671875,53.63478439453125C104.60183671875,54.69871439453125,104.93223671875,55.74168439453125,105.37513671875,56.74685439453125C106.22543671875,58.67704439453125,107.47323671875,60.42955439453125,109.04663671875,61.90325439453125C109.05143671875,61.90775439453125,109.05563671875,61.91175439453125,109.06043671875,61.91625439453125C110.62543671875,63.39815439453125,112.48663671875,64.57355439453124,114.53673671875,65.37445439453126C115.66593671875,65.81555439453125,116.84013671875,66.13835439453125,118.03793671875,66.33865439453125C119.67453671875,66.61235439453125,121.01423671875,67.89455439453126,121.01423671875,69.55385439453124C121.01423671875,83.89725439453125,121.01423671875,145.86885439453124,121.01423671875,160.21225439453124C121.01423671875,161.86925439453125,119.64173671875,163.18325439453125,117.98493671875,163.18325439453125" fill="#E8F453" fill-opacity="1"/><path d="M117.98493671875,163.18325439453125L28.85697671875,163.18325439453125C27.20012671875,163.18325439453125,25.82763671875,161.86925439453125,25.82763671875,160.21225439453124L25.82763671875,69.55385439453124C25.82763671875,67.89825439453125,27.18491671875,66.60635439453125,28.81712671875,66.32895439453125C32.19251671875,65.75545439453126,35.32915671875,64.22535439453125,37.78773671875,61.91025439453125C40.19883671875,59.63995439453125,41.80813671875,56.75568439453125,42.44403671875,53.64752439453125C42.77573671875,52.02566439453125,44.05023671875,50.64825439453125,45.70573671875,50.64825439453125L101.04013671875,50.64825439453125C102.69963671875,50.64825439453125,104.05913671875,52.00801439453125,104.38723671875,53.63478439453125C104.60183671875,54.69871439453125,104.93223671875,55.74168439453125,105.37513671875,56.74685439453125C106.22543671875,58.67704439453125,107.47323671875,60.42955439453125,109.04663671875,61.90325439453125C109.05143671875,61.90775439453125,109.05563671875,61.91175439453125,109.06043671875,61.91625439453125C110.62543671875,63.39815439453125,112.48663671875,64.57355439453124,114.53673671875,65.37445439453126C115.66593671875,65.81555439453125,116.84013671875,66.13835439453125,118.03793671875,66.33865439453125C119.67453671875,66.61235439453125,121.01423671875,67.89455439453126,121.01423671875,69.55385439453124L121.01423671875,160.21225439453124C121.01423671875,161.86925439453125,119.64173671875,163.18325439453125,117.98493671875,163.18325439453125ZM117.98493671875,161.18325439453125Q118.42033671875,161.18325439453125,118.72563671875,160.88625439453125Q119.01423671875,160.60525439453124,119.01423671875,160.21225439453124L119.01423671875,114.88305439453126L119.01423671875,69.55385439453124Q119.01423671875,69.14225439453125,118.69683671875,68.81145439453125Q118.31403671875,68.41265439453124,117.70803671875,68.31125439453125Q115.69703671875,67.97495439453125,113.80893671875,67.23735439453125Q110.33973671875,65.88205439453125,107.68693671875,63.37005439453125L107.68453671875,63.36775439453125L107.67933671875,63.36295439453125Q104.99783671875,60.85115439453125,103.54483671875,57.55318439453125Q102.79303671875,55.84671439453125,102.42673671875,54.03015439453125Q102.30223671875,53.41272439453125,101.85613671875,53.00081439453125Q101.47433671875,52.64825439453125,101.04013671875,52.64825439453125L73.42093671875,52.64825439453125L45.70573671875,52.64825439453125Q45.309936718749995,52.64825439453125,44.96713671875,52.97899439453125Q44.53733671875,53.39369439453125,44.40343671875,54.04836439453125Q43.29373671875,59.47281439453125,39.15883671875,63.36635439453125Q34.96804671875,67.31245439453124,29.15216671875,68.30075439453125Q28.54328671875,68.40415439453125,28.15138671875,68.81145439453125Q27.82763671875,69.14785439453125,27.82763671875,69.55385439453124L27.82763671875,160.21225439453124Q27.82763671875,160.60525439453124,28.11622671875,160.88625439453125Q28.42158671875,161.18325439453125,28.85697671875,161.18325439453125L117.98493671875,161.18325439453125Z" fill-rule="evenodd" fill="#000000" fill-opacity="1"/></g><g><path d="M145.83603671875,158.83697509765625C131.72673671875,158.83697509765625,71.92853671875,158.83697509765625,57.81921671875,158.83697509765625C56.16235671875,158.83697509765625,54.82763671875,157.48397509765624,54.82763671875,155.82697509765626C54.82763671875,141.29677509765625,54.82763671875,78.51877509765626,54.82763671875,63.988675097656255C54.82763671875,62.33307509765625,56.19805671875,61.00217509765625,57.82822671875,60.71327509765625C61.14313671875,60.12567509765625,64.22245671875,58.57937509765625,66.63863671875,56.24557509765625C69.03143671875,53.93434509765625,70.62463671875,50.99503509765625,71.24603671874999,47.82865509765625C71.56493671875,46.20416509765625,72.89723671875001,44.83697509765625,74.55273671875,44.83697509765625C84.88073671875,44.83697509765625,118.77453671875,44.83697509765625,129.10253671875,44.83697509765625C130.76193671875,44.83697509765625,132.08363671875,46.18647509765625,132.39883671875,47.81572509765625C132.61033671875,48.90966509765625,132.93983671875,49.98200509765625,133.38343671875,51.01494509765625C134.22323671875,52.97025509765625,135.45543671874998,54.74557509765625,137.00913671875,56.23847509765625C137.01393671875002,56.24307509765625,137.01813671875,56.24707509765625,137.02283671875,56.251675097656246C138.56833671875,57.75287509765625,140.40633671875,58.94347509765625,142.43083671875002,59.75487509765625C143.53083671874998,60.19567509765625,144.67393671874999,60.51967509765625,145.84003671875,60.72317509765625C147.47473671875,61.00847509765625,148.82763671875,62.32927509765625,148.82763671875,63.988675097656255C148.82763671875,78.51877509765626,148.82763671875,141.29677509765625,148.82763671875,155.82697509765626C148.82763671875,157.48397509765624,147.49293671875,158.83697509765625,145.83603671875,158.83697509765625" fill="#FFFFFF" fill-opacity="1"/><path d="M145.83603671875,158.83697509765625L57.81921671875,158.83697509765625C56.16235671875,158.83697509765625,54.82763671875,157.48397509765624,54.82763671875,155.82697509765626L54.82763671875,63.988675097656255C54.82763671875,62.33307509765625,56.19805671875,61.00217509765625,57.82822671875,60.71327509765625C61.14313671875,60.12567509765625,64.22245671875,58.57937509765625,66.63863671875,56.24557509765625C69.03143671875,53.93434509765625,70.62463671875,50.99503509765625,71.24603671874999,47.82865509765625C71.56493671875,46.20416509765625,72.89723671875001,44.83697509765625,74.55273671875,44.83697509765625L129.10253671875,44.83697509765625C130.76193671875,44.83697509765625,132.08363671875,46.18647509765625,132.39883671875,47.81572509765625C132.61033671875,48.90966509765625,132.93983671875,49.98200509765625,133.38343671875,51.01494509765625C134.22323671875,52.97025509765625,135.45543671874998,54.74557509765625,137.00913671875,56.23847509765625C137.01393671875002,56.24307509765625,137.01813671875,56.24707509765625,137.02283671875,56.251675097656246C138.56833671875,57.75287509765625,140.40633671875,58.94347509765625,142.43083671875002,59.75487509765625C143.53083671874998,60.19567509765625,144.67393671874999,60.51967509765625,145.84003671875,60.72317509765625C147.47473671875,61.00847509765625,148.82763671875,62.32927509765625,148.82763671875,63.988675097656255L148.82763671875,155.82697509765626C148.82763671875,157.48397509765624,147.49293671875,158.83697509765625,145.83603671875,158.83697509765625ZM145.83603671875,156.83697509765625Q146.24353671875,156.83697509765625,146.53293671875,156.54497509765625Q146.82763671875,156.24797509765625,146.82763671875,155.82697509765626L146.82763671875,109.90777509765626L146.82763671875,63.988675097656255Q146.82763671875,63.56767509765625,146.49423671875002,63.21537509765625Q146.09993671875,62.79877509765625,145.49623671875,62.69347509765625Q143.53173671874998,62.35057509765625,141.68683671875,61.61127509765625Q138.25383671875,60.23547509765625,135.63053671875,57.68747509765625L135.62933671874998,57.68627509765625L135.62343671874999,57.68067509765625Q132.97783671874998,55.13857509765625,131.54573671875,51.80418509765625Q130.79513671875,50.05640509765625,130.43523671875,48.19552509765625Q130.31533671875002,47.57604509765625,129.88713671875,47.17462509765625Q129.52683671875002,46.83697509765625,129.10253671875,46.83697509765625L101.82763671875,46.83697509765625L74.55273671875,46.83697509765625Q74.13403671875,46.83697509765625,73.76763671875,47.18117509765625Q73.33073671875,47.59174509765625,73.20863671875,48.21384509765625Q72.12693671875,53.724945097656246,68.02813671875,57.68407509765625Q63.90410671875,61.667575097656254,58.17727671875,62.682575097656255Q57.57076671875,62.79007509765625,57.16739671875,63.21517509765625Q56.82763671875,63.57317509765625,56.82763671875,63.988675097656255L56.82763671875,155.82697509765626Q56.82763671875,156.24797509765625,57.12233671875,156.54497509765625Q57.41175671875,156.83697509765625,57.81921671875,156.83697509765625L145.83603671875,156.83697509765625Z" fill-rule="evenodd" fill="#000000" fill-opacity="1"/></g><g><path d="M72.2724609375,128.84324462890626L75.1324609375,128.84324462890626L75.1324609375,121.46324462890625Q75.1324609375,120.46324462890625,75.0524609375,118.96324462890625L75.0924609375,118.96324462890625Q75.6524609375,120.18324462890625,76.1124609375,120.94324462890626L80.9924609375,128.84324462890626L83.7924609375,128.84324462890626L83.7924609375,114.54324562890625L80.9324609375,114.54324562890625L80.9324609375,122.04324462890625Q80.9324609375,123.04324462890625,81.0124609375,124.52324462890626L80.9724609375,124.52324462890626Q80.4324609375,123.30324462890624,79.9724609375,122.52324462890626L75.2124609375,114.54324562890625L72.2724609375,114.54324562890625L72.2724609375,128.84324462890626ZM92.2724609375,129.16324462890626C96.4924609375,129.16324462890626,99.1524609375,126.00324462890624,99.1524609375,121.72324462890624C99.1524609375,117.44324462890626,96.4924609375,114.26324462890625,92.2724609375,114.26324462890625C88.0524609375,114.26324462890625,85.3724609375,117.44324462890626,85.3724609375,121.72324462890624C85.3724609375,126.00324462890624,88.0524609375,129.16324462890626,92.2724609375,129.16324462890626ZM92.2924609375,126.78324462890625C89.6724609375,126.78324462890625,88.3324609375,124.56324462890625,88.3324609375,121.72324462890624C88.3324609375,118.86324462890624,89.6724609375,116.64324462890625,92.2924609375,116.64324462890625C94.9124609375,116.64324462890625,96.1924609375,118.86324462890624,96.1924609375,121.72324462890624C96.1924609375,124.56324462890625,94.9124609375,126.78324462890625,92.2924609375,126.78324462890625ZM102.5126609375,124.66324462890626L103.8325609375,124.66324462890626L104.5922609375,117.70324462890625L104.5922609375,114.54327362890625L101.7524609375,114.54327362890625L101.7524609375,117.70324462890625L102.5126609375,124.66324462890626ZM101.5522609375,127.32324462890625C101.5522609375,128.26324462890625,102.2723609375,128.92324462890625,103.1723609375,128.92324462890625C104.07236093750001,128.92324462890625,104.79246093750001,128.26324462890625,104.79246093750001,127.32324462890625C104.79246093750001,126.40324462890625,104.07236093750001,125.74324462890625,103.1723609375,125.74324462890625C102.2723609375,125.74324462890625,101.5522609375,126.40324462890625,101.5522609375,127.32324462890625Z" fill="#0B0739" fill-opacity="1"/></g><g><path d="M101.07856328125,90.16314697265625C101.07856328125,90.16314697265625,74.26611328125,90.16314697265625,74.26611328125,90.16314697265625C72.55748328125,90.16314697265625,71.17236328125,91.50629697265624,71.17236328125,93.16314697265625C71.17236328125,94.81999697265626,72.55748328125,96.16314697265625,74.26611328125,96.16314697265625C74.26611328125,96.16314697265625,101.07856328125,96.16314697265625,101.07856328125,96.16314697265625C102.78726328125,96.16314697265625,104.17236328125,94.81999697265626,104.17236328125,93.16314697265625C104.17236328125,91.50629697265624,102.78726328125,90.16314697265625,101.07856328125,90.16314697265625Z" fill="#0B0739" fill-opacity="1"/><path d="M101.07856328125,90.16314697265625L74.26611328125,90.16314697265625C72.55748328125,90.16314697265625,71.17236328125,91.50629697265624,71.17236328125,93.16314697265625C71.17236328125,94.81999697265626,72.55748328125,96.16314697265625,74.26611328125,96.16314697265625L101.07856328125,96.16314697265625C102.78726328125,96.16314697265625,104.17236328125,94.81999697265626,104.17236328125,93.16314697265625C104.17236328125,91.50629697265624,102.78726328125,90.16314697265625,101.07856328125,90.16314697265625ZM101.07856328125,91.16314697265625L74.26611328125,91.16314697265625Q73.38987328125,91.16314697265625,72.77465328125,91.75972697265625Q72.17236328125,92.34376697265625,72.17236328125,93.16314697265625Q72.17236328125,93.98252697265625,72.77465328125,94.56656697265625Q73.38987328125,95.16314697265625,74.26611328125,95.16314697265625L101.07856328125,95.16314697265625Q101.95486328125,95.16314697265625,102.57006328125,94.56656697265625Q103.17236328125,93.98254697265625,103.17236328125,93.16314697265625Q103.17236328125,92.34374697265625,102.57006328125,91.75972697265625Q101.95486328125,91.16314697265625,101.07856328125,91.16314697265625Z" fill-rule="evenodd" fill="#FFFFFF" fill-opacity="1"/></g><g><path d="M120.99236328125,75.16314697265625C120.99236328125,75.16314697265625,74.35236328125,75.16314697265625,74.35236328125,75.16314697265625C72.59610328125,75.16314697265625,71.17236328125,76.50629697265624,71.17236328125,78.16314697265625C71.17236328125,79.81999697265626,72.59610328125,81.16314697265625,74.35236328125,81.16314697265625C74.35236328125,81.16314697265625,120.99236328125,81.16314697265625,120.99236328125,81.16314697265625C122.74866328125,81.16314697265625,124.17236328125,79.81999697265626,124.17236328125,78.16314697265625C124.17236328125,76.50629697265624,122.74866328125,75.16314697265625,120.99236328125,75.16314697265625Z" fill="#0B0739" fill-opacity="1"/><path d="M120.99236328125,75.16314697265625L74.35236328125,75.16314697265625C72.59610328125,75.16314697265625,71.17236328125,76.50629697265624,71.17236328125,78.16314697265625C71.17236328125,79.81999697265626,72.59610328125,81.16314697265625,74.35236328125,81.16314697265625L120.99236328125,81.16314697265625C122.74866328125,81.16314697265625,124.17236328125,79.81999697265626,124.17236328125,78.16314697265625C124.17236328125,76.50629697265624,122.74866328125,75.16314697265625,120.99236328125,75.16314697265625ZM120.99236328125,76.16314697265625L74.35236328125,76.16314697265625Q73.43242328125,76.16314697265625,72.78998328125,76.76921697265625Q72.17236328125,77.35188697265625,72.17236328125,78.16314697265625Q72.17236328125,78.97440697265625,72.78998328125,79.55707697265625Q73.43242328125,80.16314697265625,74.35236328125,80.16314697265625L120.99236328125,80.16314697265625Q121.91236328125001,80.16314697265625,122.55476328124999,79.55707697265625Q123.17236328125,78.97441697265624,123.17236328125,78.16314697265625Q123.17236328125,77.35187697265626,122.55476328124999,76.76921697265625Q121.91236328125001,76.16314697265625,120.99236328125,76.16314697265625Z" fill-rule="evenodd" fill="#FFFFFF" fill-opacity="1"/></g><g><g><path d="M136.01036328125,94.92836697265625C135.97996328125,95.69365697265624,136.21526328125,96.35071697265624,137.04256328125,95.70137697265625C141.61166328125,92.12233097265624,148.81456328125,93.59878697265626,149.70256328125,100.07663697265625Q149.77086328125,100.58682697265625,150.18826328125,100.29308697265625C154.53726328125,97.23194697265625,157.91476328125,96.30433697265624,161.81606328125,100.79553697265625Q163.10626328125,102.29514697265626,164.03226328125,105.91284697265625Q165.58056328125,111.97334697265624,167.14406328125,118.01824697265624C168.85186328125,124.60434697265626,172.16866328125002,134.58394697265624,173.80806328124999,142.95574697265624Q174.99206328125,149.03164697265623,172.32806328125,157.23324697265625Q169.32236328125,163.97394697265625,163.25046328125,168.34924697265626C156.58656328125,173.14964697265626,148.35916328125,174.40964697265625,140.64776328125,171.90504697265624Q136.92116328125,170.69144697265625,130.34826328125,166.06104697265624C124.88356328125,162.20374697265623,119.47956328125,158.28454697265624,113.96172328125,154.51224697265624Q110.50832328125,152.14684697265625,107.44200328125,149.28664697265626C101.71922328125,143.94514697265623,107.92775328125,135.64294697265626,113.82510328125,136.43144697265626C115.87436328125,136.70204697265626,117.52896328125,138.30214697265626,119.15316328125,139.48484697265624Q120.20816328125,140.25014697265624,119.88186328125,138.97464697265625C117.96156328125,131.53054697265625,116.25386328125,124.34154697265626,114.04521328125,117.09064697265624C113.15719328125,114.17644697265625,111.94281328125,110.45824697265626,113.36212328125,107.57484697265625Q116.01856328125,102.14054697265625,122.54586328125,103.16864697265625Q123.03926328125,103.24594697265626,122.81916328125,102.79764697265625C118.31076328125,93.42872697265625,130.04466328125,86.57208697265625,136.01036328125,94.92836697265625ZM124.99746328124999,147.57834697265625Q120.93686328125,144.70274697265626,117.01286328125,141.63384697265624C110.18954328125,136.29234697265625,105.19539258125,145.08154697265624,111.41151328125,148.90794697265625C118.13616328125,153.05124697265626,124.26116328124999,158.06814697265625,130.72016328125,162.46654697265626C140.01026328125,168.78984697265625,147.70636328125,173.25014697265624,158.87876328125,167.46024697265625C168.07006328125,162.69844697265626,173.20846328125,150.74764697265624,170.07386328125,140.68304697265626C167.22756328125,131.54604697265626,165.04926328125,122.10754697265625,162.69646328125,112.82364697265625Q162.38526328125,111.57904697265624,161.50486328125,109.33734697265625C160.73066328125,107.35064697265625,160.52576328125,104.49054697265625,159.44036328125,102.96774697265624C156.82946328125,99.29589697265625,150.91696328125,101.47574697265625,151.56966328125,106.23754697265625Q152.16926328124998,110.55094697265625,154.05156328125,116.27124697265626C155.41776328125,120.43004697265624,156.23746328125,124.21784697265625,157.28486328125,128.26074697265625C157.34966328125,128.50034697265625,157.23026328125,128.75324697265626,157.00406328125,128.85594697265626L154.61316328125,129.90724697265625Q154.21856328125,130.07734697265624,154.11226328125,129.65214697265625Q150.74236328125,116.19394697265625,147.38006328125,102.72804697265624C146.71216328125,100.06117697265626,144.27576328125,95.33806697265625,140.84516328125,97.10053697265624C139.63076328124998,97.71894697265625,138.89456328125,99.24178697265626,138.11276328125,100.42449697265624Q137.90786328125,100.73369697265625,137.99896328124998,101.09701697265625L144.45796328125,126.39774697265625Q144.57176328125,126.86154697265624,144.11636328125002,126.97754697265626L141.95326328125,127.53404697265626C141.70306328125,127.59644697265625,141.45186328124998,127.43524697265624,141.39916328125,127.17844697265625C139.46376328125,117.68584697265625,136.68586328125,110.37314697265626,134.00666328124998,99.00988697265625C132.22296328125,91.45753897265625,123.88176328125,93.95437697265625,125.22516328125,99.47368697265625Q126.80386328125,105.96704697265625,128.42046328125,112.45254697265625C129.79426328125,117.99504697265625,132.36726328125,125.76384697265625,133.74096328125,132.62824697265626Q133.83206328125,133.08434697265625,133.39186328125,133.20024697265626L131.31226328125,133.71044697265626C131.05376328124999,133.77424697265624,130.79056328125,133.61814697265623,130.71266328125,133.35484697265625Q127.41856328125,121.80604697265625,124.64066328125,110.09484697265626C123.26696328125,104.28184697265625,114.92563328125,106.15254697265625,116.17036328125,111.78774697265625C117.76426328125,119.00774697265625,120.58766328125,129.64444697265625,123.28966328125,138.91284697265624Q124.50406328125,143.07164697265625,125.33896328125,147.35414697265625Q125.43766328125,147.89524697265625,124.99746328124999,147.57834697265625Z" fill="#0B0739" fill-opacity="1"/></g><g><path d="M125.33899726486206,147.3541256603241Q124.50419726486206,143.0716256603241,123.28979726486206,138.9128256603241C120.58779726486206,129.6443256603241,117.76431726486206,119.0077256603241,116.17044726486206,111.7877256603241C114.92570726486206,106.1525256603241,123.26699726486206,104.2818256603241,124.64079726486206,110.09482566032409Q127.41869726486206,121.8060256603241,130.71269726486207,133.35482566032408C130.79059726486207,133.6181256603241,131.05379726486206,133.7742256603241,131.31229726486205,133.7104256603241L133.39189726486205,133.2002256603241Q133.83209726486206,133.08422566032408,133.74109726486205,132.6282256603241C132.36729726486206,125.7638256603241,129.79429726486205,117.9950256603241,128.42049726486206,112.4525256603241Q126.80389726486206,105.9669256603241,125.22519726486206,99.4736456603241C123.88179726486206,93.9543276603241,132.22309726486208,91.4574956603241,134.00669726486205,99.0098356603241C136.68589726486206,110.37312566032409,139.46379726486205,117.6858256603241,141.39929726486207,127.1784256603241C141.45199726486206,127.4352256603241,141.70309726486207,127.59642566032409,141.95329726486204,127.53402566032409L144.11639726486206,126.97742566032409Q144.57179726486206,126.8615256603241,144.45799726486206,126.3977256603241L137.99899726486206,101.09697566032409Q137.90789726486207,100.7336556603241,138.11279726486205,100.4244556603241C138.89459726486206,99.2417456603241,139.63079726486205,97.7189056603241,140.84519726486207,97.1004956603241C144.27579726486206,95.33802566032409,146.71219726486206,100.0611356603241,147.38009726486206,102.7280356603241Q150.74239726486206,116.1939256603241,154.11229726486206,129.6521256603241Q154.21859726486207,130.0772256603241,154.61329726486207,129.9072256603241L157.00409726486205,128.8559256603241C157.23039726486206,128.7532256603241,157.34969726486207,128.5002256603241,157.28489726486205,128.26062566032408C156.23749726486204,124.2178256603241,155.41779726486206,120.4300256603241,154.05159726486207,116.27122566032409Q152.16929726486205,110.5509256603241,151.56969726486204,106.2375256603241C150.91699726486206,101.4757556603241,156.82949726486206,99.2958556603241,159.44039726486207,102.9676656603241C160.52579726486206,104.4905256603241,160.73069726486204,107.3506256603241,161.50489726486205,109.3373256603241Q162.38529726486206,111.57902566032409,162.69649726486205,112.8236256603241C165.04939726486205,122.1075256603241,167.22769726486206,131.5460256603241,170.07389726486207,140.6830256603241C173.20849726486205,150.7476256603241,168.07019726486206,162.6984256603241,158.87879726486204,167.4602256603241C147.70649726486207,173.2500256603241,140.01029726486206,168.78982566032408,130.72029726486207,162.4665256603241C124.26129726486207,158.06812566032409,118.13622726486206,153.0512256603241,111.41157726486206,148.9078256603241C105.19545726486206,145.0814256603241,110.18960726486206,136.29232566032408,117.01292726486206,141.6338256603241Q120.93689726486207,144.7026256603241,124.99749726486206,147.57832566032408Q125.43769726486207,147.8952256603241,125.33899726486206,147.3541256603241Z" fill="#DBFDEF" fill-opacity="1"/></g></g></g></g></svg>