<svg xmlns="http://www.w3.org/2000/svg" xmlns:xlink="http://www.w3.org/1999/xlink" fill="none" version="1.1" width="32" height="32" viewBox="0 0 32 32"><defs><mask id="master_svg0_854_8104"><g><rect x="0" y="0" width="32" height="31.999998092651367" rx="0" fill="#FFFFFF" fill-opacity="1"/></g></mask></defs><g mask="url(#master_svg0_854_8104)"><g><g><path d="M6.35106,24.39918634481877C4.90186,24.38678634481877,4.00293408,24.54088634481877,4.00117417,22.75978634481877Q3.999411573,20.78408634481877,4.00029287,18.80748634481877C4.00029287,17.09768634481877,4.990785,17.16198634481877,6.34402,17.204186344818773Q6.392440000000001,17.20598634481877,6.39332,17.15758634481877Q6.434699999999999,11.102776344818771,6.41974,5.051536344818771Q6.41885,4.708162344818771,6.77015,4.365674344818771C7.36444,3.7863453448187707,8.32412,3.928096344818771,8.67454,4.6694263448187705Q8.79692,4.927393344818771,8.797799999999999,5.463576344818771Q8.80044,11.31056634481877,8.797799999999999,17.15488634481877C8.797789999999999,17.181486344818772,8.81962,17.20298634481877,8.846219999999999,17.202486344818773C10.19065,17.179586344818773,11.19259,17.07568634481877,11.196110000000001,18.75908634481877Q11.199629999999999,20.75058634481877,11.19875,22.74308634481877Q11.19787,23.37428634481877,11.109829999999999,23.62168634481877C10.759409999999999,24.61048634481877,9.65886,24.38678634481877,8.8515,24.400886344818772Q8.80132,24.40178634481877,8.80132,24.45108634481877Q8.79428,25.41428634481877,8.798680000000001,26.370486344818772Q8.80132,27.00698634481877,8.6807,27.29228634481877C8.17093,28.49498634481877,6.40653,28.06348634481877,6.4038900000000005,26.74908634481877Q6.400370000000001,25.59738634481877,6.3986,24.446686344818772Q6.39773,24.39998634481877,6.35106,24.39918634481877ZM8.80261,19.67718634481877C8.80274,19.64118634481877,8.773679999999999,19.61188634481877,8.73769,19.61178634481877L6.47498,19.60388634481877C6.439,19.603786344818772,6.40973,19.63278634481877,6.4096,19.66878634481877L6.40171,21.929786344818773C6.401590000000001,21.96568634481877,6.43065,21.99498634481877,6.46664,21.99508634481877L8.72934,22.002986344818773C8.765329999999999,22.003186344818772,8.794599999999999,21.974086344818772,8.794730000000001,21.93808634481877L8.80261,19.67718634481877Z" fill="#000000" fill-opacity="1"/><path d="M6.14907,24.64838634481877Q6.08877,24.64828634481877,6.0168,24.64828634481877Q4.819129,24.64908634481877,4.413095,24.40958634481877Q3.752419,24.019986344818772,3.751174,22.75998634481877L3.750293,18.807586344818773Q3.750293,17.51748634481877,4.531442,17.13538634481877Q4.966065,16.92278634481877,6.1447400000000005,16.948386344818772Q6.18444,10.99998634481877,6.16974,5.052156344818771Q6.16858,4.603010344818771,6.59563,4.186668344818771Q7.1325,3.6633213448187707,7.85222,3.775274344818771Q8.58207,3.8888003448187707,8.900559999999999,4.562588344818771Q9.04683,4.870904344818771,9.047799999999999,5.463166344818771L9.047799999999999,16.94858634481877Q10.25868,16.92588634481877,10.69461,17.14478634481877Q11.44352,17.52078634481877,11.446110000000001,18.75858634481877L11.44875,22.74288634481877Q11.44781,23.417686344818772,11.34536,23.70558634481877Q11.10741,24.37688634481877,10.418980000000001,24.573286344818772Q10.04814,24.67908634481877,9.25408,24.65648634481877Q9.13884,24.65318634481877,9.04998,24.65168634481877Q9.044740000000001,25.51408634481877,9.048670000000001,26.36928634481877Q9.05153,27.05718634481877,8.91096,27.38958634481877Q8.69048,27.90978634481877,8.213989999999999,28.12708634481877Q7.78005,28.32498634481877,7.2935,28.207586344818772Q6.81145,28.091386344818773,6.49777,27.71858634481877Q6.15502,27.311186344818772,6.1538900000000005,26.74958634481877L6.14907,24.64838634481877ZM6.6538900000000005,26.748586344818772L6.6486,24.44608634481877L6.64856,24.441986344818773Q6.64315,24.15458634481877,6.35576,24.14918634481877Q6.23698,24.14818634481877,6.01649,24.14828634481877Q4.955439,24.14898634481877,4.667091,23.978886344818772Q4.252137,23.73418634481877,4.251174,22.75948634481877L4.250293,18.80738634481877Q4.250293,17.82948634481877,4.751131,17.58448634481877Q5.09801,17.41488634481877,6.2599,17.45168634481877Q6.31084,17.45328634481877,6.3362099999999995,17.45408634481877Q6.4639299999999995,17.45878634481877,6.5524000000000004,17.374986344818772Q6.6409400000000005,17.29118634481877,6.64328,17.16208634481877Q6.684699999999999,11.10337634481877,6.66974,5.050916344818771Q6.66913,4.813315344818771,6.94467,4.544679344818771Q7.302569999999999,4.195789344818771,7.775370000000001,4.269332344818771Q8.2433,4.342118344818771,8.448509999999999,4.776263344818771Q8.54701,4.983882344818771,8.547799999999999,5.463986344818771L8.547799999999999,17.15488634481877Q8.54778,17.27978634481877,8.636890000000001,17.367286344818773Q8.726009999999999,17.45468634481877,8.85086,17.45238634481877Q8.914629999999999,17.45128634481877,9.03998,17.44878634481877Q10.14174,17.426586344818773,10.47023,17.591586344818772Q10.94416,17.82958634481877,10.946110000000001,18.75958634481877L10.94875,22.74318634481877Q10.94793,23.330986344818772,10.8743,23.53788634481877Q10.72228,23.96688634481877,10.281839999999999,24.09248634481877Q9.98522,24.177086344818772,9.26829,24.15668634481877Q8.98325,24.14858634481877,8.84714,24.150986344818772Q8.55132,24.15618634481877,8.55132,24.45108634481877Q8.544270000000001,25.41388634481877,8.548680000000001,26.37158634481877Q8.551110000000001,26.95678634481877,8.45044,27.19488634481877Q8.15148,27.90018634481877,7.41073,27.72158634481877Q6.65548,27.53938634481877,6.6538900000000005,26.748586344818772ZM8.72847,22.252986344818773Q9.04362,22.25408634481877,9.04472,21.938986344818773L9.05261,19.67798634481877Q9.05308,19.547486344818772,8.9611,19.45488634481877Q8.869119999999999,19.36218634481877,8.73857,19.36178634481877L6.47586,19.35388634481877Q6.345330000000001,19.353386344818773,6.2527,19.445386344818772Q6.16006,19.53738634481877,6.1596,19.66788634481877L6.15171,21.92888634481877Q6.15061,22.243986344818772,6.46575,22.24508634481877L8.72847,22.252986344818773ZM8.54537,21.75238634481877L8.55197,19.861086344818773L6.65896,19.85448634481877L6.65236,21.74578634481877L8.54537,21.75238634481877Z" fill-rule="evenodd" fill="#FFFFFF" fill-opacity="1"/></g><g><path d="M14.75833666809082,14.8024C13.37252766809082,14.7918,12.41108851809082,14.9397,12.40932861809082,13.21672Q12.40668740809082,11.15385,12.40932861809082,9.09011C12.41108851809082,7.434,13.48874666809082,7.61449,14.75569666809082,7.60217Q14.804996668090821,7.60217,14.804996668090821,7.55286Q14.812926668090821,6.39508,14.80763666809082,5.25052C14.80411666809082,4.389449,15.63613666809082,3.761696,16.45229666809082,4.087458C17.13639666809082,4.360394,17.20066666809082,4.93532,17.20330666809082,5.65992Q17.20683666809082,6.605510000000001,17.20683666809082,7.5511Q17.20683666809082,7.60128,17.257896668090822,7.60217C18.63754666809082,7.61801,19.61042666809082,7.44281,19.60778666809082,9.19664Q19.60426666809082,11.36075,19.606906668090822,13.52487C19.60866666809082,14.9441,18.226376668090822,14.8182,17.25437666809082,14.7997Q17.20683666809082,14.798,17.20683666809082,14.8464Q17.20594666809082,20.5921,17.20683666809082,26.3361Q17.20683666809082,26.9938,17.09325666809082,27.2764C16.60020666809082,28.5064,14.80411666809082,28.0644,14.805876668090821,26.7314Q14.812926668090821,20.7911,14.804996668090821,14.8499Q14.804996668090821,14.8024,14.75833666809082,14.8024ZM17.20883666809082,10.05276C17.20888666809082,10.02601,17.187246668090822,10.00428,17.160496668090822,10.00424L14.85903666809082,10.00023C14.83229666809082,10.00018,14.810576668090821,10.02182,14.81052666809082,10.04857L14.80651666809082,12.34827C14.80646666809082,12.37501,14.82810666809082,12.39674,14.85485666809082,12.39678L17.15631666809082,12.40079C17.18305666809082,12.40085,17.204776668090823,12.37921,17.20482666809082,12.35246L17.20883666809082,10.05276Z" fill="#000000" fill-opacity="1"/><path d="M14.55501666809082,15.0518Q14.50193666809082,15.0518,14.44079666809082,15.0518Q13.261992668090821,15.0535,12.84918066809082,14.8239Q12.160578668090821,14.4408,12.15932866809082,13.21697L12.15932866809082,9.09011Q12.16056166809082,7.9296299999999995,12.87486466809082,7.56041Q13.28821666809082,7.3467400000000005,14.399256668090821,7.35219Q14.48555666809082,7.35261,14.55626666809082,7.35272Q14.562456668090821,6.295999999999999,14.55764666809082,5.25167Q14.55444666809082,4.470836,15.176096668090821,4.0213379Q15.810946668090821,3.5622949999999998,16.544966668090822,3.85527Q17.11471666809082,4.0825796,17.31707666809082,4.61558Q17.45078666809082,4.967776,17.45330666809082,5.65901L17.45646666809082,7.3533Q17.53037666809082,7.35344,17.62117666809082,7.35335Q18.776766668090822,7.35213,19.18337666809082,7.58411Q19.85962666809082,7.969939999999999,19.85778666809082,9.197009999999999L19.85584666809082,12.14017L19.856906668090822,13.52468Q19.85821666809082,14.5795,18.965386668090822,14.908Q18.50275666809082,15.0783,17.45683666809082,15.0545L17.45683666809082,26.3361Q17.45683666809082,27.0422,17.32522666809082,27.3696Q17.112166668090822,27.9011,16.63314666809082,28.1242Q16.19768666809082,28.327,15.705276668090821,28.208Q15.21852666809082,28.0904,14.90164666809082,27.7125Q14.555126668090821,27.2994,14.555876668090821,26.7311L14.55501666809082,15.0518ZM15.054996668090821,14.8499L15.054996668090821,14.8499Q15.05498666809082,14.5524,14.75833666809082,14.5524Q14.65031666809082,14.5516,14.44010666809082,14.5518Q13.39136866809082,14.5533,13.09222266809082,14.3869Q12.66027866809082,14.1466,12.65932866809082,13.21646L12.65932866809082,9.09011Q12.66023866809082,8.23419,13.10445766809082,8.00458Q13.408646668090821,7.84734,14.39680666809082,7.852180000000001Q14.635086668090821,7.85335,14.75812666809082,7.85215Q14.90534666809082,7.85216,14.97956666809082,7.77855Q15.054996668090821,7.70373,15.054996668090821,7.55286Q15.062926668090821,6.39537,15.05763666809082,5.24936Q15.05549666809082,4.72556,15.46906666809082,4.426514Q15.881046668090821,4.128628,16.35961666809082,4.319646Q16.72528666809082,4.465534,16.84962666809082,4.793051Q16.951126668090822,5.06038,16.95330666809082,5.66083L16.95683666809082,7.55156Q16.95683666809082,7.84701,17.25358666809082,7.85213Q17.38120666809082,7.8536,17.62170666809082,7.85335Q18.64441666809082,7.85227,18.93559666809082,8.0184Q19.35919666809082,8.26008,19.35778666809082,9.196259999999999L19.35584666809082,12.13984L19.356906668090822,13.52506Q19.35777666809082,14.2308,18.79269666809082,14.4388Q18.41348666809082,14.5784,17.44091666809082,14.554Q17.318626668090822,14.5509,17.259126668090822,14.5498Q17.13230666809082,14.545,17.04360666809082,14.6321Q16.95683666809082,14.7173,16.95683666809082,14.8464L16.95683666809082,26.3361Q16.95682666809082,26.9454,16.86128666809082,27.1832Q16.57263666809082,27.9033,15.82274666809082,27.722Q15.05481666809082,27.5364,15.055876668090821,26.7318L15.054996668090821,14.8499ZM17.36702666809082,12.56378Q17.45460666809082,12.47653,17.45482666809082,12.35291L17.45883666809082,10.05319Q17.45907666809082,9.9296,17.37179666809082,9.84202Q17.28451666809082,9.75443,17.160876668090822,9.75424L14.85947666809082,9.75023Q14.56106666809082,9.749690000000001,14.56052666809082,10.048110000000001L14.55651666809082,12.34783Q14.55628666809082,12.47144,14.64354666809082,12.559Q14.730806668090821,12.64657,14.85442666809082,12.64678L17.15587666809082,12.65079Q17.27945666809082,12.65103,17.36702666809082,12.56378ZM16.95517666809082,12.15044L16.95848666809082,10.25389L15.06017666809082,10.25058L15.05686666809082,12.14713L16.95517666809082,12.15044ZM17.256486668090822,15.0498L17.24962666809082,15.0497L17.256486668090822,15.0498ZM14.74956666809082,7.3522099999999995L14.75326666809082,7.352180000000001L14.74956666809082,7.3522099999999995ZM14.55501666809082,7.5500799999999995L14.554996668090821,7.55286L14.55501666809082,7.5500799999999995Z" fill-rule="evenodd" fill="#FFFFFF" fill-opacity="1"/></g><g><rect x="14.2578125" y="9.439453125" width="3.5" height="3.500493049621582" rx="0.5" fill="#FFFFFF" fill-opacity="1"/></g><g><path d="M23.166514997558593,24.399200393240154C21.885474997558592,24.389500393240155,20.819266847558595,24.570800393240155,20.817506947558595,22.905900393240152Q20.814865737558595,20.803400393240153,20.817506947558595,18.700100393240156C20.818385557558592,17.025500393240154,21.936544997558595,17.206000393240153,23.170034997558595,17.198100393240153Q23.215814997558596,17.198100393240153,23.215814997558596,17.152300393240154Q23.215814997558596,11.339620393240153,23.215814997558596,5.529610393240153Q23.215814997558596,4.938841393240153,23.337314997558593,4.680870393240154C23.778414997558592,3.742325393240154,25.121964997558592,3.803075393240154,25.508474997558594,4.735460393240154Q25.613244997558596,4.986382393240154,25.614124997558594,5.700420393240154Q25.616774997558593,11.428550393240155,25.614124997558594,17.17600039324015C25.614084997558592,17.197700393240154,25.632534997558594,17.214900393240153,25.654634997558595,17.213900393240152C26.835294997558595,17.148700393240155,28.008924997558594,17.071300393240154,28.011554997558594,18.658700393240153Q28.015964997558594,20.758500393240155,28.014204997558593,22.859300393240154C28.013324997558595,24.570000393240154,26.984974997558595,24.381500393240152,25.669594997558594,24.400000393240155Q25.622934997558595,24.400900393240153,25.622054997558593,24.448500393240153C25.610604997558593,25.284900393240154,25.636134997558592,26.117800393240152,25.585954997558595,26.948000393240154C25.524324997558594,27.945600393240152,24.241524997558592,28.311800393240155,23.582084997558592,27.659400393240155C23.273924997558595,27.354800393240154,23.214054997558595,27.032500393240152,23.215814997558596,26.572100393240152Q23.219344997558593,25.509400393240153,23.214054997558595,24.446700393240153Q23.214054997558595,24.400000393240155,23.166514997558593,24.399200393240154ZM25.614124997558594,19.645700393240155C25.614124997558594,19.620400393240153,25.593624997558592,19.599900393240155,25.568344997558594,19.599900393240155L23.261594997558593,19.599900393240155C23.236314997558594,19.599900393240155,23.215814997558596,19.620400393240153,23.215814997558596,19.645700393240155L23.215814997558596,21.952400393240154C23.215814997558596,21.977700393240156,23.236314997558594,21.998200393240154,23.261594997558593,21.998200393240154L25.568344997558594,21.998200393240154C25.593624997558592,21.998200393240154,25.614124997558594,21.977700393240156,25.614124997558594,21.952400393240154L25.614124997558594,19.645700393240155Z" fill="#000000" fill-opacity="1"/><path d="M22.964584997558593,24.649000393240154Q22.895014997558594,24.649200393240154,22.810574997558593,24.649800393240152Q21.693235997558595,24.657300393240153,21.280115997558593,24.442700393240155Q20.568740997558592,24.073300393240153,20.567506997558592,22.906200393240155L20.567506997558592,18.700100393240156Q20.568122997558593,17.526900393240155,21.300986997558592,17.153100393240152Q21.721946997558593,16.938300393240155,22.831644997558595,16.947000393240153Q22.904614997558593,16.947600393240155,22.965814997558596,16.947900393240154L22.965814997558596,5.529610393240153Q22.965814997558596,4.882914393240154,23.111144997558593,4.574347393240154Q23.509954997558594,3.7258003932401538,24.451564997558595,3.756701393240154Q25.386084997558594,3.7873683932401536,25.739414997558594,4.639725393240154Q25.863184997558594,4.936137393240154,25.864124997558594,5.700110393240154L25.864124997558594,16.953400393240152Q26.930724997558592,16.91100039324015,27.377464997558594,17.088300393240154Q28.259524997558593,17.438300393240155,28.261554997558594,18.658300393240154L28.264204997558593,22.859100393240155Q28.26359499755859,24.048800393240153,27.574884997558595,24.427000393240153Q27.168384997558594,24.650200393240155,26.048844997558593,24.648600393240155Q25.950104997558594,24.648400393240152,25.87010499755859,24.648600393240155Q25.868444997558594,24.894500393240154,25.868754997558593,25.270500393240155Q25.869674997558594,26.397600393240154,25.835494997558595,26.963100393240154Q25.779654997558595,27.867000393240154,24.886084997558594,28.160000393240153Q24.019734997558594,28.444100393240152,23.406254997558595,27.837100393240153Q22.962654997558595,27.398600393240155,22.965814997558596,26.571100393240155L22.967224997558596,25.665800393240154L22.964584997558593,24.649000393240154ZM23.464054997558595,24.446700393240153L23.464054997558595,24.446000393240155Q23.463734997558593,24.154600393240155,23.171134997558593,24.149200393240154Q23.045264997558593,24.148200393240153,22.807234997558595,24.149800393240152Q21.813759997558595,24.156500393240155,21.510559997558595,23.999000393240152Q21.068419997558593,23.769400393240154,21.067506997558592,22.905700393240153L21.067506997558592,18.700100393240156Q21.067961997558594,17.833300393240155,21.528205997558594,17.59850039324015Q21.840264997558595,17.439300393240153,22.827714997558594,17.447000393240153Q23.055114997558594,17.448800393240155,23.171644997558595,17.448000393240154Q23.317924997558592,17.448000393240154,23.391474997558593,17.374900393240154Q23.465814997558596,17.30100039324015,23.465814997558596,17.152300393240154L23.465814997558596,5.529610393240153Q23.465814997558596,4.994768393240154,23.563484997558593,4.787394393240154Q23.822484997558593,4.236326393240153,24.435164997558594,4.2564323932401535Q25.047604997558594,4.2765303932401535,25.277534997558593,4.8311953932401535Q25.363304997558593,5.036630393240154,25.364124997558594,5.700730393240153L25.364124997558594,17.17600039324015Q25.363854997558594,17.300600393240153,25.455364997558593,17.386100393240156Q25.544264997558592,17.469200393240154,25.666024997558594,17.463600393240156Q25.685134997558592,17.46260039324015,25.696354997558593,17.462000393240153Q26.808634997558592,17.400500393240154,27.193064997558594,17.553000393240154Q27.760094997558593,17.778000393240156,27.761554997558594,18.659100393240152L27.764204997558593,22.859400393240154Q27.763744997558593,23.752900393240154,27.334204997558594,23.988700393240155Q27.040484997558593,24.150000393240155,26.049574997558594,24.148600393240155Q25.797654997558595,24.148200393240153,25.666084997558592,24.150100393240155Q25.377444997558595,24.155500393240153,25.372094997558595,24.443800393240153Q25.368294997558593,24.721400393240152,25.368754997558593,25.271000393240154Q25.369664997558594,26.382700393240153,25.33641499755859,26.932900393240153Q25.301524997558595,27.497600393240155,24.730304997558594,27.684900393240152Q24.154224997558593,27.873800393240153,23.757904997558594,27.481700393240153Q23.463454997558593,27.190600393240153,23.465814997558596,26.573000393240154L23.467224997558596,25.666600393240152L23.464054997558595,24.446700393240153ZM25.777484997558595,22.161600393240153Q25.864124997558594,22.074900393240153,25.864124997558594,21.952400393240154L25.864124997558594,19.645700393240155Q25.864124997558594,19.523100393240156,25.777484997558595,19.436500393240152Q25.690844997558592,19.349900393240155,25.568324997558594,19.349900393240155L23.261594997558593,19.349900393240155Q23.139094997558594,19.349900393240155,23.052454997558595,19.436500393240152Q22.965814997558596,19.523200393240153,22.965814997558596,19.645700393240155L22.965814997558596,21.952400393240154Q22.965814997558596,22.248200393240154,23.261594997558593,22.248200393240154L25.568344997558594,22.248200393240154Q25.690854997558596,22.248200393240154,25.777484997558595,22.161600393240153ZM25.364124997558594,21.748200393240154L25.364124997558594,19.849900393240155L23.465814997558596,19.849900393240155L23.465814997558596,21.748200393240154L25.364124997558594,21.748200393240154Z" fill-rule="evenodd" fill="#FFFFFF" fill-opacity="1"/></g><g><rect x="22.666015625" y="19.005126953125" width="3.5" height="3.500493049621582" rx="0.5" fill="#FFFFFF" fill-opacity="1"/></g><g><rect x="5.849609375" y="19" width="3.5" height="3.500493049621582" rx="0.5" fill="#FFFFFF" fill-opacity="1"/></g></g></g></svg>