<svg xmlns="http://www.w3.org/2000/svg" xmlns:xlink="http://www.w3.org/1999/xlink" fill="none" version="1.1" width="24" height="24" viewBox="0 0 24 24"><g><g><rect x="0" y="0" width="24" height="24" rx="12" fill="#AB9FF2" fill-opacity="1"/></g><g><path d="M10.4328032421875,15.402690517578124C9.5389532421875,16.772330517578126,8.0411632421875,18.505630517578126,6.0481532421874995,18.505630517578126C5.1059982421875,18.505630517578126,4.2000732421875,18.117730517578124,4.2000732421875,16.432930517578125C4.2000732421875,12.142200517578125,10.058343242187501,5.500032663348125,15.4938732421875,5.500032663348125C18.5860732421875,5.500032663348125,19.8181732421875,7.645410517578124,19.8181732421875,10.081670517578125C19.8181732421875,13.208830517578125,17.7888732421875,16.784430517578123,15.7716732421875,16.784430517578123C15.1314732421875,16.784430517578123,14.8174732421875,16.432930517578125,14.8174732421875,15.875430517578126C14.8174732421875,15.729930517578126,14.8415732421875,15.572430517578125,14.8898732421875,15.402690517578124C14.2013732421875,16.578430517578127,12.8727332421875,17.669230517578125,11.628593242187499,17.669230517578125C10.7226932421875,17.669230517578125,10.2636932421875,17.099630517578127,10.2636932421875,16.299630517578123C10.2636932421875,16.008730517578122,10.3240832421875,15.705730517578125,10.4328032421875,15.402690517578124ZM15.1149732421875,9.997160517578125C15.1149732421875,10.707080517578124,14.6961732421875,11.062030517578126,14.2275732421875,11.062030517578126C13.7519632421875,11.062030517578126,13.3402332421875,10.707080517578124,13.3402332421875,9.997160517578125C13.3402332421875,9.287250517578125,13.7519632421875,8.932290517578124,14.2275732421875,8.932290517578124C14.6961732421875,8.932290517578124,15.1149732421875,9.287250517578125,15.1149732421875,9.997160517578125ZM17.7768732421875,9.997200517578126C17.7768732421875,10.707110517578126,17.3580732421875,11.062070517578125,16.889573242187502,11.062070517578125C16.4138732421875,11.062070517578125,16.0021732421875,10.707110517578126,16.0021732421875,9.997200517578126C16.0021732421875,9.287310517578124,16.4138732421875,8.932350517578126,16.889573242187502,8.932350517578126C17.3580732421875,8.932350517578126,17.7768732421875,9.287310517578124,17.7768732421875,9.997200517578126Z" fill-rule="evenodd" fill="#FFFDF8" fill-opacity="1"/></g></g></svg>