<svg xmlns="http://www.w3.org/2000/svg" xmlns:xlink="http://www.w3.org/1999/xlink" fill="none" version="1.1" width="40" height="40" viewBox="0 0 40 40"><g><g><g><g></g><g transform="matrix(0,1,-1,0,23.333984375,-15.833984375)"><path d="M25.833984375,3.75L29.167314375,3.75C32.619084375,3.75,35.417284375,6.548220000000001,35.417284375,10L35.417284375,13.33333C35.417284375,16.7851,32.619084375,19.5833,29.167314375,19.5833L25.833984375,19.5833C22.382204375,19.5833,19.583984375,16.7851,19.583984375,13.33333L19.583984375,10C19.583984375,6.548220000000001,22.382204375,3.75,25.833984375,3.75ZM28.917314375,6.50098L25.583984375,6.50098C23.512914375,6.50098,21.833984375,8.17991,21.833984375,10.25098L21.833984375,13.58431C21.833984375,15.6554,23.512914375,17.3343,25.583984375,17.3343L28.917314375,17.3343C30.988384375000003,17.3343,32.667284375,15.6554,32.667284375,13.58431L32.667284375,10.25098C32.667284375,8.17991,30.988384375000003,6.50098,28.917314375,6.50098Z" fill-rule="evenodd" fill="#0E043E" fill-opacity="1"/></g><g transform="matrix(0,1,-1,0,22.8330078125,-10.8330078125)"><path d="M20.5830078125,6L23.9163378125,6C25.987407812500003,5.999999999999999,27.6663078125,7.67893,27.6663078125,9.75L27.6663078125,13.08333C27.6663078125,15.1544,25.987407812500003,16.8333,23.9163378125,16.8333L20.5830078125,16.8333C18.5119378125,16.8333,16.8330078125,15.1544,16.8330078125,13.08333L16.8330078125,9.75C16.8330078125,7.67893,18.5119378125,6.000000000000001,20.5830078125,6Z" fill="#E8F453" fill-opacity="1"/></g><g transform="matrix(0,1,-1,0,56.6669921875,-15.8330078125)"><path d="M42.5,20.4169921875L45.833330000000004,20.4169921875C49.2851,20.4169921875,52.0833,23.2152121875,52.0833,26.6669921875L52.0833,30.0003221875C52.0833,33.4520921875,49.2851,36.2502921875,45.833330000000004,36.2502921875L42.5,36.2502921875C39.04822,36.2502921875,36.25,33.4520921875,36.25,30.0003221875L36.25,26.6669921875C36.25,23.2152121875,39.04822,20.4169921875,42.5,20.4169921875ZM45.91634,22.8339821875L42.58301,22.8339821875C40.51194,22.8339821875,38.83301,24.5129121875,38.83301,26.5839821875L38.83301,29.917322187499998C38.83301,31.9883921875,40.51194,33.667292187499996,42.58301,33.667292187499996L45.91634,33.667292187499996C47.9874,33.667292187499996,49.6663,31.9883921875,49.6663,29.917322187499998L49.6663,26.5839821875C49.6663,24.5129121875,47.9874,22.8339821875,45.91634,22.8339821875Z" fill-rule="evenodd" fill="#0E043E" fill-opacity="1"/></g><g transform="matrix(0,1,-1,0,39.9990234375,4.1669921875)"><path d="M24.166015625,34.5830078125Q24.319445625,34.5830078125,24.472685625,34.5755078125Q24.625935625,34.567907812499996,24.778625625,34.5529078125Q24.931315625,34.5379078125,25.083085625,34.5154078125Q25.234845625,34.492807812500004,25.385325625,34.4629078125Q25.535815624999998,34.4330078125,25.684645625,34.3957078125Q25.833475625,34.3584078125,25.980295625,34.3139078125Q26.127115625000002,34.2693078125,26.271575625,34.2177078125Q26.416035625,34.1660078125,26.557785625,34.1072078125Q26.699535625,34.0485078125,26.838235625,33.9829078125Q26.976935625,33.9173078125,27.112245625,33.8450078125Q27.247555625,33.7727078125,27.379155625,33.6938078125Q27.510755625,33.6149078125,27.638325625,33.5297078125Q27.765905625000002,33.4444078125,27.889135625,33.353007812499996Q28.012415625,33.2616078125,28.131015625,33.1643078125Q28.249615625,33.0670078125,28.363215625000002,32.9639078125Q28.476915625,32.8609078125,28.585415625,32.752407812499996Q28.693915625000002,32.643907812500004,28.796915625,32.5302078125Q28.900015625,32.416607812500004,28.997315625,32.2980078125Q29.094615625,32.1794078125,29.186015625,32.0561278125Q29.277415625,31.932897812500002,29.362715625,31.8053178125Q29.447915625,31.6777478125,29.526815624999998,31.5461478125Q29.605715625000002,31.4145478125,29.678015625,31.2792378125Q29.750315625,31.1439278125,29.815915625000002,31.0052278125Q29.881515625,30.8665278125,29.940215625,30.7247778125Q29.999015625,30.5830278125,30.050615625,30.4385678125Q30.102315625,30.294107812500002,30.146915625,30.1472878125Q30.191415624999998,30.0004678125,30.228715625,29.8516378125Q30.266015625,29.702807812499998,30.295915625,29.5523178125Q30.325815625,29.4018378125,30.348415625,29.2500778125Q30.370915625000002,29.0983078125,30.385915625000003,28.9456178125Q30.400915625,28.7929278125,30.408515625,28.6396778125Q30.416015625,28.4864378125,30.416015625,28.3330078125Q30.416015625,28.1795778125,30.408515625,28.0263378125Q30.400915625,27.8730878125,30.385915625000003,27.7203978125Q30.370915625000002,27.5677078125,30.348415625,27.4159378125Q30.325815625,27.2641778125,30.295915625,27.1136978125Q30.266015625,26.963217812499998,30.228715625,26.8143778125Q30.191415624999998,26.6655478125,30.146915625,26.5187278125Q30.102315625,26.371907812499998,30.050715625000002,26.2274478125Q29.999015625,26.0829878125,29.940215625,25.9412378125Q29.881515625,25.7994878125,29.815915625000002,25.6607878125Q29.750315625,25.5220878125,29.678015625,25.3867778125Q29.605715625000002,25.2514678125,29.526815624999998,25.1198678125Q29.447915625,24.9882678125,29.362715625,24.8606978125Q29.277415625,24.7331178125,29.186015625,24.6098878125Q29.094615625,24.4866478125,28.997315625,24.3680478125Q28.900015625,24.2494478125,28.796915625,24.1357678125Q28.693915625000002,24.0220778125,28.585415625,23.9135878125Q28.476915625,23.8050978125,28.363215625000002,23.7020678125Q28.249615625,23.5990278125,28.131015625,23.5016878125Q28.012415625,23.4043578125,27.889135625,23.3129578125Q27.765905625000002,23.2215678125,27.638325625,23.1363178125Q27.510755625,23.0510818125,27.379155625,22.9722038125Q27.247555625,22.8933258125,27.112245625,22.8209998125Q26.976935625,22.7486738125,26.838235625,22.6830748125Q26.699535625,22.6174758125,26.557785625,22.5587608125Q26.416035625,22.5000458125,26.271575625,22.4483578125Q26.127115625000002,22.3966688125,25.980295625,22.3521308125Q25.833475625,22.3075928125,25.684645625,22.2703128125Q25.535815624999998,22.2330318125,25.385325625,22.2030998125Q25.234845625,22.1731673125,25.083085625,22.1506546125Q24.931315625,22.1281419125,24.778625625,22.1131033125Q24.625935625,22.0980646125,24.472685625,22.0905362125Q24.319445625,22.0830078125,24.166015625,22.0830078125Q24.012585625,22.0830078125,23.859345625,22.0905362125Q23.706095625,22.0980646125,23.553405625,22.1131033125Q23.400715625,22.1281419125,23.248945625,22.1506546125Q23.097185625,22.1731673125,22.946705625,22.2030998125Q22.796225624999998,22.2330318125,22.647385625,22.2703128125Q22.498555625,22.3075928125,22.351735625,22.3521308125Q22.204915624999998,22.3966688125,22.060455625,22.4483578125Q21.915995625,22.5000458125,21.774245625,22.5587608125Q21.632495625,22.6174758125,21.493795625,22.6830748125Q21.355095625,22.7486738125,21.219785625,22.8209998125Q21.084475625,22.8933258125,20.952875625,22.9722038125Q20.821275625,23.0510818125,20.693705625,23.1363178125Q20.566125625,23.2215678125,20.442895625,23.3129578125Q20.319655625,23.4043578125,20.201055625,23.5016878125Q20.082455625,23.5990278125,19.968775625,23.7020678125Q19.855085625,23.8050978125,19.746595625,23.9135878125Q19.638105625,24.0220778125,19.535075625,24.1357678125Q19.432035625,24.2494478125,19.334695625,24.3680478125Q19.237365625,24.4866478125,19.145965625,24.6098878125Q19.054575625,24.7331178125,18.969325625,24.8606978125Q18.884089625,24.9882678125,18.805211625,25.1198678125Q18.726333625,25.2514678125,18.654007625,25.3867778125Q18.581681625,25.5220878125,18.516082625,25.6607878125Q18.450483625,25.7994878125,18.391768625,25.9412378125Q18.333053625,26.0829878125,18.281365625,26.2274478125Q18.229676625,26.371907812499998,18.185138625,26.5187278125Q18.140600625,26.6655478125,18.103320625,26.8143778125Q18.066039625,26.963217812499998,18.036107625,27.1136978125Q18.006175125,27.2641778125,17.983662425,27.4159378125Q17.961149725,27.5677078125,17.946111125,27.7203978125Q17.931072425,27.8730878125,17.923544025,28.0263378125Q17.916015625,28.1795778125,17.916015625,28.3330078125Q17.916015625,28.4864378125,17.923544025,28.6396778125Q17.931072425,28.7929278125,17.946111125,28.9456178125Q17.961149725,29.0983078125,17.983662425,29.2500778125Q18.006175125,29.4018378125,18.036107625,29.5523178125Q18.066039625,29.702807812499998,18.103320625,29.8516378125Q18.140600625,30.0004678125,18.185138625,30.1472878125Q18.229676625,30.294107812500002,18.281365625,30.4385678125Q18.333053625,30.5830278125,18.391768625,30.7247778125Q18.450483625,30.8665278125,18.516082625,31.0052278125Q18.581681625,31.1439278125,18.654007625,31.2792378125Q18.726333625,31.4145478125,18.805211625,31.5461478125Q18.884089625,31.6777478125,18.969325625,31.8053178125Q19.054575625,31.932897812500002,19.145965625,32.0561278125Q19.237365625,32.1794078125,19.334695625,32.2980078125Q19.432035625,32.416607812500004,19.535075625,32.5302078125Q19.638105625,32.643907812500004,19.746595625,32.752407812499996Q19.855085625,32.8609078125,19.968775625,32.9639078125Q20.082455625,33.0670078125,20.201055625,33.1643078125Q20.319655625,33.2616078125,20.442895625,33.353007812499996Q20.566125625,33.4444078125,20.693705625,33.5297078125Q20.821275625,33.6149078125,20.952875625,33.6938078125Q21.084475625,33.7727078125,21.219785625,33.8450078125Q21.355095625,33.9173078125,21.493795625,33.9829078125Q21.632495625,34.0485078125,21.774245625,34.1072078125Q21.915995625,34.1660078125,22.060455625,34.2176078125Q22.204915624999998,34.2693078125,22.351735625,34.3139078125Q22.498555625,34.3584078125,22.647385625,34.3957078125Q22.796225624999998,34.4330078125,22.946705625,34.4629078125Q23.097185625,34.492807812500004,23.248945625,34.5154078125Q23.400715625,34.5379078125,23.553405625,34.5529078125Q23.706095625,34.567907812499996,23.859345625,34.5755078125Q24.012585625,34.5830078125,24.166015625,34.5830078125ZM24.583005625,31.9990278125Q24.767235624999998,31.9990278125,24.950575625,31.980967812499998Q25.133905625,31.9629078125,25.314595625,31.9269678125Q25.495285625,31.8910278125,25.671575625,31.8375478125Q25.847865625,31.7840678125,26.018065625,31.7135678125Q26.188275625,31.6430678125,26.350745625000002,31.556227812499998Q26.513215625,31.469387812500003,26.666395625,31.3670378125Q26.819575625,31.2646878125,26.961985625,31.147807812499998Q27.104385625,31.0309378125,27.234655625000002,30.9006778125Q27.364925624999998,30.7704078125,27.481795625,30.6279978125Q27.598665625000002,30.4855878125,27.701015625,30.3324078125Q27.803365624999998,30.179227812500002,27.890215625,30.0167578125Q27.977015625,29.8542878125,28.047515625000003,29.6840878125Q28.118015624999998,29.513887812500002,28.171515624999998,29.3375878125Q28.225015624999997,29.1612978125,28.260915625000003,28.9806078125Q28.296915625,28.799927812500002,28.314915624999998,28.6165878125Q28.333015625,28.4332478125,28.333015625,28.2490278125Q28.333015625,28.0647978125,28.314915624999998,27.8814578125Q28.296915625,27.6981178125,28.260915625000003,27.5174378125Q28.225015624999997,27.3367478125,28.171515624999998,27.1604578125Q28.118015624999998,26.9841578125,28.047515625000003,26.8139578125Q27.977015625,26.6437578125,27.890215625,26.4812878125Q27.803365624999998,26.3188178125,27.701015625,26.1656378125Q27.598665625000002,26.0124578125,27.481795625,25.8700478125Q27.364925624999998,25.7276378125,27.234655625000002,25.5973678125Q27.104385625,25.4671078125,26.961985625,25.3502378125Q26.819575625,25.2333578125,26.666395625,25.131007812500002Q26.513215625,25.0286578125,26.350745625000002,24.9418178125Q26.188275625,24.8549778125,26.018065625,24.7844778125Q25.847865625,24.7139778125,25.671575625,24.6604978125Q25.495285625,24.6070178125,25.314595625,24.5710778125Q25.133905625,24.5351378125,24.950575625,24.5170778125Q24.767235624999998,24.4990278125,24.583005625,24.4990278125Q24.398785625000002,24.4990278125,24.215445625,24.5170778125Q24.032105625,24.5351378125,23.851415625,24.5710778125Q23.670735625,24.6070178125,23.494435625,24.6604978125Q23.318145625,24.7139778125,23.147945625,24.7844778125Q22.977745625,24.8549778125,22.815265625000002,24.9418178125Q22.652795625,25.0286578125,22.499615625,25.131007812500002Q22.346445625,25.2333578125,22.204035625,25.3502378125Q22.061625624999998,25.4671078125,21.931355625000002,25.5973678125Q21.801085625,25.7276378125,21.684215625,25.8700478125Q21.567345625,26.0124578125,21.464995625,26.1656378125Q21.362645625,26.3188178125,21.275805625,26.4812878125Q21.188955625,26.6437578125,21.118455625,26.8139578125Q21.047955625,26.9841578125,20.994485625,27.1604578125Q20.941005625,27.3367478125,20.905065625,27.5174378125Q20.869125625,27.6981178125,20.851065625,27.8814578125Q20.833005625,28.0647978125,20.833005625,28.2490278125Q20.833005625,28.4332478125,20.851065625,28.6165878125Q20.869125625,28.799927812500002,20.905065625,28.9806078125Q20.941005625,29.1612978125,20.994485625,29.3375878125Q21.047955625,29.513887812500002,21.118455625,29.6840878125Q21.188955625,29.8542878125,21.275805625,30.0167578125Q21.362645625,30.179227812500002,21.464995625,30.3324078125Q21.567345625,30.4855878125,21.684215625,30.6279978125Q21.801085625,30.7704078125,21.931355625000002,30.9006778125Q22.061625624999998,31.0309378125,22.204035625,31.147807812499998Q22.346445625,31.2646878125,22.499615625,31.3670378125Q22.652795625,31.469387812500003,22.815265625000002,31.556227812499998Q22.977745625,31.6430678125,23.147945625,31.7135678125Q23.318145625,31.7840678125,23.494435625,31.8375478125Q23.670735625,31.8910278125,23.851415625,31.9269678125Q24.032105625,31.9629078125,24.215445625,31.980967812499998Q24.398785625000002,31.9990278125,24.583005625,31.9990278125Z" fill-rule="evenodd" fill="#0E043E" fill-opacity="1"/></g><g transform="matrix(0,1,-1,0,40.5,9.5)"><path d="M23,28.75Q23,28.93423,22.98194,29.11756Q22.96388,29.3009,22.92794,29.48159Q22.892,29.66227,22.83853,29.83857Q22.78505,30.01486,22.71455,30.18506Q22.64405,30.35526,22.5572,30.51774Q22.47036,30.68021,22.368009999999998,30.83339Q22.26566,30.98657,22.148789999999998,31.12897Q22.03192,31.27138,21.90165,31.40165Q21.77138,31.53192,21.62897,31.648789999999998Q21.48657,31.76566,21.33339,31.868009999999998Q21.18021,31.97036,21.01774,32.0572Q20.85526,32.14405,20.68506,32.21455Q20.51486,32.28505,20.33857,32.33853Q20.16227,32.392,19.98159,32.42794Q19.8009,32.46388,19.61756,32.48194Q19.43423,32.5,19.25,32.5Q19.06577,32.5,18.88244,32.48194Q18.6991,32.46388,18.51841,32.42794Q18.33773,32.392,18.16143,32.33853Q17.98514,32.28505,17.81494,32.21455Q17.64473,32.14405,17.48226,32.0572Q17.31979,31.97036,17.16661,31.868009999999998Q17.01343,31.76566,16.87103,31.648789999999998Q16.72862,31.53192,16.59835,31.40165Q16.468082,31.27138,16.351211,31.12897Q16.234339,30.98657,16.131989,30.83339Q16.029639,30.68021,15.942795,30.51774Q15.855952,30.35526,15.785452,30.18506Q15.714952,30.01486,15.661474,29.83857Q15.607996,29.66227,15.5720552,29.48159Q15.5361145,29.3009,15.5180573,29.11756Q15.5,28.93423,15.5,28.75Q15.5,28.56577,15.5180573,28.38244Q15.5361145,28.1991,15.5720552,28.01841Q15.607996,27.83773,15.661474,27.66143Q15.714952,27.48514,15.785452,27.31494Q15.855952,27.14473,15.942795,26.98226Q16.029639,26.81979,16.131989,26.66661Q16.234339,26.51343,16.351211,26.37103Q16.468082,26.22862,16.59835,26.09835Q16.72862,25.968082,16.87102,25.851211Q17.01343,25.734339,17.16661,25.631989Q17.31979,25.529639,17.48226,25.442795Q17.64473,25.355952,17.81494,25.285452Q17.98514,25.214952,18.16143,25.161474Q18.33773,25.107996,18.51841,25.0720552Q18.6991,25.0361145,18.88244,25.0180573Q19.06577,25,19.25,25Q19.43423,25,19.61756,25.0180573Q19.8009,25.0361145,19.98159,25.0720552Q20.16227,25.107996,20.33857,25.161474Q20.51486,25.214952,20.68506,25.285452Q20.85526,25.355952,21.01774,25.442795Q21.18021,25.529639,21.33339,25.631989Q21.48657,25.734339,21.62897,25.851211Q21.77138,25.968082,21.90165,26.09835Q22.03192,26.22862,22.148789999999998,26.37102Q22.26566,26.51343,22.368009999999998,26.66661Q22.47036,26.81979,22.5572,26.98226Q22.64405,27.14473,22.71455,27.31494Q22.78505,27.48514,22.83853,27.66143Q22.892,27.83773,22.92794,28.01841Q22.96388,28.1991,22.98194,28.38244Q23,28.56577,23,28.75Z" fill="#E8F453" fill-opacity="1"/></g><g transform="matrix(0,1,-1,0,40.0009765625,-29.1669921875)"><path d="M40.833984375,17.9169921875Q40.987414375,17.9169921875,41.140654375,17.9094921875Q41.293904375,17.9018921875,41.446594375000004,17.886892187500003Q41.599284374999996,17.871892187500002,41.751054375,17.8493921875Q41.902814375,17.8267921875,42.053294375,17.7968921875Q42.203784375,17.7669921875,42.352614375,17.7296921875Q42.501444375,17.692392187499998,42.648264375,17.6478921875Q42.795084375,17.6032921875,42.939544375,17.551692187500002Q43.084004375,17.4999921875,43.225754375,17.4411921875Q43.367504374999996,17.3824921875,43.506204374999996,17.316892187500002Q43.644904374999996,17.2512921875,43.780214375,17.1789921875Q43.915524375000004,17.106692187500002,44.047124374999996,17.027792187499998Q44.178724375,16.9488921875,44.306294375,16.8636921875Q44.433874375,16.7783921875,44.557104375,16.6869921875Q44.680384375,16.5955921875,44.798984375,16.4982921875Q44.917584375000004,16.4009921875,45.031184375,16.2978921875Q45.144884375000004,16.194892187500002,45.253384374999996,16.0863921875Q45.361884375,15.9778921875,45.464884375,15.8641921875Q45.567984375,15.7505921875,45.665284375,15.6319921875Q45.762584375,15.5133921875,45.853984374999996,15.3901121875Q45.945384375,15.2668821875,46.030684375,15.1393021875Q46.115884375,15.0117321875,46.194784375,14.8801321875Q46.273684375,14.7485321875,46.345984375,14.6132221875Q46.418284375,14.4779121875,46.483884375,14.3392121875Q46.549484375,14.2005121875,46.608184375,14.0587621875Q46.666984375,13.9170121875,46.718584375,13.7725521875Q46.770284375,13.6280921875,46.814884375,13.4812721875Q46.859384375,13.3344521875,46.896684375,13.1856221875Q46.933984375,13.0367921875,46.963884375,12.8863021875Q46.993784375000004,12.7358221875,47.016384375,12.584062187499999Q47.038884375,12.4322921875,47.053884375,12.2796021875Q47.068884374999996,12.1269121875,47.076484375,11.9736621875Q47.083984375,11.8204221875,47.083984375,11.6669921875Q47.083984375,11.5135621875,47.076484375,11.3603221875Q47.068884374999996,11.2070721875,47.053884375,11.0543821875Q47.038884375,10.9016921875,47.016384375,10.749922187500001Q46.993784375000004,10.5981621875,46.963884375,10.4476821875Q46.933984375,10.2972021875,46.896684375,10.1483621875Q46.859384375,9.9995321875,46.814884375,9.8527121875Q46.770284375,9.7058921875,46.718684375,9.5614321875Q46.666984375,9.4169721875,46.608184375,9.275222187499999Q46.549484375,9.1334721875,46.483884375,8.9947721875Q46.418284375,8.8560721875,46.345984375,8.7207621875Q46.273684375,8.5854521875,46.194784375,8.4538521875Q46.115884375,8.3222521875,46.030684375,8.1946821875Q45.945384375,8.0671021875,45.853984374999996,7.9438721875Q45.762584375,7.8206321875,45.665284375,7.7020321875Q45.567984375,7.5834321875,45.464884375,7.4697521875Q45.361884375,7.3560621875,45.253384374999996,7.2475721875Q45.144884375000004,7.1390821875,45.031184375,7.0360521875Q44.917584375000004,6.9330121875,44.798984375,6.8356721875Q44.680384375,6.7383421875,44.557104375,6.6469421875000005Q44.433874375,6.5555521875,44.306294375,6.4703021875Q44.178724375,6.3850661875,44.047124374999996,6.3061881875Q43.915524375000004,6.2273101875,43.780214375,6.1549841875Q43.644904374999996,6.0826581875,43.506204374999996,6.0170591875Q43.367504374999996,5.9514601875,43.225754375,5.8927451875Q43.084004375,5.8340301875,42.939544375,5.7823421875Q42.795084375,5.7306531875,42.648264375,5.6861151875000004Q42.501444375,5.6415771875,42.352614375,5.6042971875Q42.203784375,5.5670161875,42.053294375,5.5370841875Q41.902814375,5.5071516875,41.751054375,5.4846389875Q41.599284374999996,5.4621262875,41.446594375000004,5.4470876875Q41.293904375,5.4320489875,41.140654375,5.4245205875Q40.987414375,5.4169921875,40.833984375,5.4169921875Q40.680554375,5.4169921875,40.527314375,5.4245205875Q40.374064375,5.4320489875,40.221374374999996,5.4470876875Q40.068684375000004,5.4621262875,39.916914375,5.4846389875Q39.765154375,5.5071516875,39.614674375,5.5370841875Q39.464194375,5.5670161875,39.315354375,5.6042971875Q39.166524375,5.6415771875,39.019704375,5.6861151875000004Q38.872884375,5.7306531875,38.728424375,5.7823421875Q38.583964375,5.8340301875,38.442214375,5.8927451875Q38.300464375,5.9514601875,38.161764375,6.0170591875Q38.023064375,6.0826581875,37.887754375,6.1549841875Q37.752444375,6.2273101875,37.620844375,6.3061881875Q37.489244375,6.3850661875,37.361674375,6.4703021875Q37.234094375,6.5555521875,37.110864375,6.6469421875000005Q36.987624375,6.7383421875,36.869024375,6.8356721875Q36.750424375,6.9330121875,36.636744375,7.0360521875Q36.523054375,7.1390821875,36.414564375,7.2475721875Q36.306074375,7.3560621875,36.203044375,7.4697521875Q36.100004375,7.5834321875,36.002664375,7.7020321875Q35.905334375,7.8206321875,35.813934375,7.9438721875Q35.722544375,8.0671021875,35.637294375,8.1946821875Q35.552058375,8.3222521875,35.473180375,8.4538521875Q35.394302375,8.5854521875,35.321976375,8.7207621875Q35.249650375,8.8560721875,35.184051375,8.9947721875Q35.118452375,9.1334721875,35.059737375,9.275222187499999Q35.001022375,9.4169721875,34.949334375,9.5614321875Q34.897645375,9.7058921875,34.853107375,9.8527121875Q34.808569375,9.9995321875,34.771289375,10.1483621875Q34.734008375,10.2972021875,34.704076375,10.4476821875Q34.674143875,10.5981621875,34.651631175,10.749922187500001Q34.629118475,10.9016921875,34.614079875,11.0543821875Q34.599041175,11.2070721875,34.591512775,11.3603221875Q34.583984375,11.5135621875,34.583984375,11.6669921875Q34.583984375,11.8204221875,34.591512775,11.9736621875Q34.599041175,12.1269121875,34.614079875,12.2796021875Q34.629118475,12.4322921875,34.651631175,12.584062187499999Q34.674143875,12.7358221875,34.704076375,12.8863021875Q34.734008375,13.0367921875,34.771289375,13.1856221875Q34.808569375,13.3344521875,34.853107375,13.4812721875Q34.897645375,13.6280921875,34.949334375,13.7725521875Q35.001022375,13.9170121875,35.059737375,14.0587621875Q35.118452375,14.2005121875,35.184051375,14.3392121875Q35.249650375,14.4779121875,35.321976375,14.6132221875Q35.394302375,14.7485321875,35.473180375,14.8801321875Q35.552058375,15.0117321875,35.637294375,15.1393021875Q35.722544375,15.2668821875,35.813934375,15.3901121875Q35.905334375,15.5133921875,36.002664375,15.6319921875Q36.100004375,15.7505921875,36.203044375,15.8641921875Q36.306074375,15.9778921875,36.414564375,16.0863921875Q36.523054375,16.194892187500002,36.636744375,16.2978921875Q36.750424375,16.4009921875,36.869024375,16.4982921875Q36.987624375,16.5955921875,37.110864375,16.6869921875Q37.234094375,16.7783921875,37.361674375,16.8636921875Q37.489244375,16.9488921875,37.620844375,17.027792187499998Q37.752444375,17.106692187500002,37.887754375,17.1789921875Q38.023064375,17.2512921875,38.161764375,17.316892187500002Q38.300464375,17.3824921875,38.442214375,17.4411921875Q38.583964375,17.4999921875,38.728424375,17.5515921875Q38.872884375,17.6032921875,39.019704375,17.6478921875Q39.166524375,17.692392187499998,39.315354375,17.7296921875Q39.464194375,17.7669921875,39.614674375,17.7968921875Q39.765154375,17.8267921875,39.916914375,17.8493921875Q40.068684375000004,17.871892187500002,40.221374374999996,17.886892187500003Q40.374064375,17.9018921875,40.527314375,17.9094921875Q40.680554375,17.9169921875,40.833984375,17.9169921875ZM40.916994375,15.0009721875Q41.101214375,15.0009721875,41.284554375,14.9829221875Q41.467894375,14.9648621875,41.648584375,14.9289221875Q41.829264375,14.8929821875,42.005554375,14.8395021875Q42.181854375,14.7860221875,42.352054375,14.7155221875Q42.522254375,14.6450221875,42.684734375,14.5581821875Q42.847204375000004,14.4713421875,43.000384374999996,14.3689821875Q43.153554375,14.2666321875,43.295964375,14.1497621875Q43.438374375,14.0328921875,43.568644375,13.9026221875Q43.698914375,13.7723621875,43.815784375,13.6299521875Q43.932654375,13.4875421875,44.035004375,13.3343621875Q44.137354375,13.1811821875,44.224194374999996,13.0187121875Q44.311034375,12.856242187500001,44.381534375,12.6860421875Q44.452034375,12.5158321875,44.505514375000004,12.339542187500001Q44.558994375,12.1632521875,44.594984374999996,11.982562187500001Q44.630884375,11.8018821875,44.648884375,11.618542187500001Q44.666984375,11.4352021875,44.666984375,11.2509721875Q44.666984375,11.0667521875,44.648884375,10.8834121875Q44.630884375,10.7000721875,44.594984374999996,10.5193921875Q44.558994375,10.338702187500001,44.505514375000004,10.1624121875Q44.452034375,9.9861121875,44.381534375,9.8159121875Q44.311034375,9.6457121875,44.224194374999996,9.4832421875Q44.137354375,9.3207621875,44.035004375,9.1675921875Q43.932654375,9.0144121875,43.815784375,8.8720021875Q43.698914375,8.7295921875,43.568644375,8.5993221875Q43.438374375,8.4690621875,43.295964375,8.3521821875Q43.153554375,8.2353121875,43.000384374999996,8.1329621875Q42.847204375000004,8.030612187500001,42.684734375,7.9437721875000005Q42.522254375,7.8569321875,42.352054375,7.7864321875Q42.181854375,7.7159321875,42.005554375,7.6624521875Q41.829264375,7.6089721875,41.648584375,7.5730321875Q41.467894375,7.5370921875,41.284554375,7.519032187500001Q41.101214375,7.5009721875,40.916994375,7.5009721875Q40.732764375,7.5009721875,40.549424375,7.519032187500001Q40.366084375,7.5370921875,40.185404375,7.5730321875Q40.004714375,7.6089721875,39.828424375,7.6624521875Q39.652134375,7.7159321875,39.481924375,7.7864321875Q39.311724375,7.8569321875,39.149254375,7.9437721875000005Q38.986784375,8.030612187500001,38.833604375,8.1329621875Q38.680424375,8.2353121875,38.538014375,8.3521821875Q38.395604375,8.4690621875,38.265344375,8.5993221875Q38.135074375,8.7295921875,38.018204374999996,8.8720021875Q37.901334375,9.0144121875,37.798984375,9.1675921875Q37.696634375,9.3207621875,37.609784375,9.4832421875Q37.522944375,9.6457121875,37.452444375,9.8159121875Q37.381944375,9.9861121875,37.328464375,10.1624121875Q37.274984375,10.338702187500001,37.239044375,10.5193921875Q37.203104375,10.7000721875,37.185054375,10.8834121875Q37.166994375,11.0667521875,37.166994375,11.2509721875Q37.166994375,11.4352021875,37.185054375,11.618542187500001Q37.203104375,11.8018821875,37.239044375,11.982562187500001Q37.274984375,12.1632521875,37.328464375,12.339542187500001Q37.381944375,12.5158321875,37.452444375,12.6860421875Q37.522944375,12.856242187500001,37.609784375,13.0187121875Q37.696634375,13.1811821875,37.798984375,13.3343621875Q37.901334375,13.4875421875,38.018204374999996,13.6299521875Q38.135074375,13.7723621875,38.265344375,13.9026221875Q38.395604375,14.0328921875,38.538014375,14.1497621875Q38.680424375,14.2666321875,38.833604375,14.3689821875Q38.986784375,14.4713421875,39.149254375,14.5581821875Q39.311724375,14.6450221875,39.481924375,14.7155221875Q39.652134375,14.7860221875,39.828424375,14.8395021875Q40.004714375,14.8929821875,40.185404375,14.9289221875Q40.366084375,14.9648621875,40.549424375,14.9829221875Q40.732764375,15.0009721875,40.916994375,15.0009721875Z" fill-rule="evenodd" fill="#0E043E" fill-opacity="1"/></g><g transform="matrix(0,1,-1,0,40.5,-24.5)"><path d="M40,11.75Q40,11.93423,39.98194,12.117560000000001Q39.96388,12.3009,39.92794,12.48159Q39.892,12.66227,39.83853,12.83857Q39.78505,13.014859999999999,39.71455,13.18506Q39.64405,13.355260000000001,39.5572,13.51774Q39.47036,13.680209999999999,39.36801,13.83339Q39.26566,13.98657,39.14879,14.128969999999999Q39.03192,14.27138,38.901650000000004,14.40165Q38.77138,14.53192,38.62897,14.64879Q38.48657,14.76566,38.33339,14.86801Q38.18021,14.97036,38.01774,15.0572Q37.85526,15.14405,37.68506,15.21455Q37.51486,15.28505,37.33857,15.33853Q37.16227,15.392,36.98159,15.42794Q36.8009,15.46388,36.61756,15.48194Q36.43423,15.5,36.25,15.5Q36.06577,15.5,35.88244,15.48194Q35.6991,15.46388,35.51841,15.42794Q35.33773,15.392,35.16143,15.33853Q34.98514,15.28505,34.81494,15.21455Q34.64473,15.14405,34.48226,15.0572Q34.31979,14.97036,34.16661,14.86801Q34.01343,14.76566,33.87103,14.64879Q33.72862,14.53192,33.598349999999996,14.40165Q33.468082,14.27138,33.351211,14.128969999999999Q33.234339,13.98657,33.131989,13.83339Q33.029639,13.680209999999999,32.942795,13.51774Q32.855952,13.355260000000001,32.785452,13.18506Q32.714952,13.014859999999999,32.661474,12.83857Q32.607996,12.66227,32.5720552,12.48159Q32.5361145,12.3009,32.5180573,12.117560000000001Q32.5,11.93423,32.5,11.75Q32.5,11.56577,32.5180573,11.382439999999999Q32.5361145,11.1991,32.5720552,11.01841Q32.607996,10.83773,32.661474,10.66143Q32.714952,10.48514,32.785452,10.31494Q32.855952,10.14473,32.942795,9.98226Q33.029639,9.81979,33.131989,9.66661Q33.234339,9.51343,33.351211,9.37103Q33.468082,9.22862,33.598349999999996,9.09835Q33.72862,8.968082,33.87102,8.851211Q34.01343,8.734339,34.16661,8.631989Q34.31979,8.529639,34.48226,8.442795Q34.64473,8.355952,34.81494,8.285452Q34.98514,8.214952,35.16143,8.161474Q35.33773,8.107996,35.51841,8.0720552Q35.6991,8.0361145,35.88244,8.0180573Q36.06577,8,36.25,8Q36.43423,8,36.61756,8.0180573Q36.8009,8.0361145,36.98159,8.0720552Q37.16227,8.107996,37.33857,8.161474Q37.51486,8.214952,37.68506,8.285452Q37.85526,8.355952,38.01774,8.442795Q38.18021,8.529639,38.33339,8.631989Q38.48657,8.734339,38.62897,8.851211Q38.77138,8.968082,38.901650000000004,9.09835Q39.03192,9.22862,39.14879,9.37102Q39.26566,9.51343,39.36801,9.66661Q39.47036,9.81979,39.5572,9.98226Q39.64405,10.14473,39.71455,10.31494Q39.78505,10.48514,39.83853,10.66143Q39.892,10.83773,39.92794,11.01841Q39.96388,11.1991,39.98194,11.382439999999999Q40,11.56577,40,11.75Z" fill="#E8F453" fill-opacity="1"/></g><g><path d="M12.916015625,18.3330078125L12.916015625,23.3330078125L10.416015625,23.3330078125L10.416015625,18.3330078125L12.916015625,18.3330078125Z" fill="#0E043E" fill-opacity="1"/></g><g><path d="M21.666015625,27.0830078125L21.666015625,29.5830078125L16.666015625,29.5830078125L16.666015625,27.0830078125L21.666015625,27.0830078125Z" fill="#0E043E" fill-opacity="1"/></g><g><path d="M29.583984375,16.6669921875L29.583984375,21.6669921875L27.083984375,21.6669921875L27.083984375,16.6669921875L29.583984375,16.6669921875Z" fill="#0E043E" fill-opacity="1"/></g></g></g><g transform="matrix(0,1,-1,0,56.8330078125,-10.8330078125)"><path d="M37.5830078125,23L40.916337812500004,23C42.9874078125,23,44.6663078125,24.67893,44.6663078125,26.75L44.6663078125,30.08333C44.6663078125,32.1544,42.9874078125,33.8333,40.916337812500004,33.8333L37.5830078125,33.8333C35.5119378125,33.8333,33.8330078125,32.1544,33.8330078125,30.08333L33.8330078125,26.75C33.8330078125,24.67893,35.5119378125,23,37.5830078125,23Z" fill="#E8F453" fill-opacity="1"/></g></g></svg>