<svg xmlns="http://www.w3.org/2000/svg" xmlns:xlink="http://www.w3.org/1999/xlink" fill="none" version="1.1" width="20" height="20" viewBox="0 0 20 20"><g><g><g><g></g><g transform="matrix(0,1,-1,0,11.6669921875,-7.9169921875)"><path d="M12.9169921875,1.875L14.5836621875,1.875C16.3095521875,1.875,17.7086621875,3.2741100000000003,17.7086621875,5L17.7086621875,6.66667C17.7086621875,8.39256,16.3095521875,9.79167,14.5836621875,9.79167L12.9169921875,9.79167C11.1911021875,9.79167,9.7919921875,8.39256,9.7919921875,6.66667L9.7919921875,5C9.7919921875,3.2741100000000003,11.1911021875,1.875,12.9169921875,1.875ZM14.5836621875,3.125L12.9169921875,3.125C11.8814621875,3.125,11.0419921875,3.96447,11.0419921875,5L11.0419921875,6.66667C11.0419921875,7.7022,11.8814621875,8.54167,12.9169921875,8.54167L14.5836621875,8.54167C15.619192187500001,8.54167,16.4586621875,7.7022,16.4586621875,6.66667L16.4586621875,5C16.4586621875,3.96447,15.619192187500001,3.125,14.5836621875,3.125Z" fill-rule="evenodd" fill="#0E043E" fill-opacity="1"/></g><g transform="matrix(0,1,-1,0,28.33349609375,-7.91650390625)"><path d="M21.25,10.20849609375L22.91667,10.20849609375C24.64256,10.20849609375,26.04167,11.60760609375,26.04167,13.33349609375L26.04167,15.00016609375C26.04167,16.72605609375,24.64256,18.12516609375,22.91667,18.12516609375L21.25,18.12516609375C19.52411,18.12516609375,18.125,16.72605609375,18.125,15.00016609375L18.125,13.33349609375C18.125,11.60760609375,19.52411,10.20849609375,21.25,10.20849609375ZM22.91667,11.45849609375L21.25,11.45849609375C20.21447,11.45849609375,19.375,12.29796609375,19.375,13.33349609375L19.375,15.00016609375C19.375,16.03569609375,20.21447,16.87516609375,21.25,16.87516609375L22.91667,16.87516609375C23.9522,16.87516609375,24.79167,16.03569609375,24.79167,15.00016609375L24.79167,13.33349609375C24.79167,12.29796609375,23.9522,11.45849609375,22.91667,11.45849609375Z" fill-rule="evenodd" fill="#0E043E" fill-opacity="1"/></g><g transform="matrix(0,1,-1,0,19.99951171875,2.08349609375)"><path d="M12.0830078125,17.29150390625Q12.2365278125,17.29150390625,12.3893078125,17.27645390625Q12.5420978125,17.26140390625,12.6926678125,17.23145390625Q12.8432378125,17.20150390625,12.9901478125,17.15694390625Q13.1370578125,17.11237390625,13.278887812499999,17.05362390625Q13.420727812500001,16.99487390625,13.5561178125,16.92250390625Q13.691517812499999,16.85013390625,13.8191678125,16.76484390625Q13.946807812500001,16.67955390625,14.065487812499999,16.58216390625Q14.1841578125,16.484763906250002,14.292717812500001,16.37621390625Q14.4012678125,16.26765390625,14.498667812499999,16.14898390625Q14.5960578125,16.03030390625,14.6813478125,15.90266390625Q14.7666378125,15.775013906249999,14.8390078125,15.63961390625Q14.9113778125,15.504223906250001,14.9701278125,15.362383906249999Q15.0288778125,15.22055390625,15.0734478125,15.07364390625Q15.1180078125,14.92673390625,15.1479578125,14.77616390625Q15.177907812499999,14.62559390625,15.192957812500001,14.47280390625Q15.2080078125,14.32002390625,15.2080078125,14.16650390625Q15.2080078125,14.01298390625,15.192957812500001,13.86020390625Q15.177907812499999,13.70741390625,15.1479578125,13.55684390625Q15.1180078125,13.40627390625,15.0734478125,13.25936390625Q15.0288778125,13.11245390625,14.9701278125,12.97061390625Q14.9113778125,12.828783906249999,14.8390078125,12.69339390625Q14.7666378125,12.55799390625,14.6813478125,12.43034390625Q14.5960578125,12.30269390625,14.498667812499999,12.18402390625Q14.4012678125,12.06535390625,14.292717812500001,11.95679490625Q14.1841578125,11.84823890625,14.065487812499999,11.75084590625Q13.946807812500001,11.65345290625,13.8191678125,11.56816090625Q13.691517812499999,11.48286990625,13.5561178125,11.41049990625Q13.420727812500001,11.33813090625,13.278887812499999,11.27937990625Q13.1370578125,11.22062990625,12.9901478125,11.17606490625Q12.8432378125,11.13150040625,12.6926678125,11.10154990625Q12.5420978125,11.07159940625,12.3893078125,11.05655160625Q12.2365278125,11.04150390625,12.0830078125,11.04150390625Q11.9294878125,11.04150390625,11.7767078125,11.05655160625Q11.6239178125,11.07159940625,11.4733478125,11.10154990625Q11.3227778125,11.13150040625,11.1758678125,11.17606490625Q11.0289578125,11.22062990625,10.8871178125,11.27937990625Q10.745287812499999,11.33813090625,10.6098978125,11.41049990625Q10.4744978125,11.48286990625,10.3468478125,11.56816090625Q10.2191978125,11.65345290625,10.1005278125,11.75084590625Q9.9818578125,11.84823890625,9.8732988125,11.95679490625Q9.7647428125,12.06535390625,9.6673498125,12.18402390625Q9.5699568125,12.30269390625,9.4846648125,12.43034390625Q9.3993738125,12.55799390625,9.3270038125,12.69339390625Q9.2546348125,12.828783906249999,9.1958838125,12.97061390625Q9.1371338125,13.11245390625,9.0925688125,13.25936390625Q9.0480043125,13.40627390625,9.0180538125,13.55684390625Q8.9881033125,13.70741390625,8.9730555125,13.86020390625Q8.9580078125,14.01298390625,8.9580078125,14.16650390625Q8.9580078125,14.32002390625,8.9730555125,14.47280390625Q8.9881033125,14.62559390625,9.0180538125,14.77616390625Q9.0480043125,14.92673390625,9.0925688125,15.07364390625Q9.1371338125,15.22055390625,9.1958838125,15.362383906249999Q9.2546348125,15.504223906250001,9.3270038125,15.63961390625Q9.3993738125,15.775013906249999,9.4846648125,15.90266390625Q9.5699568125,16.03030390625,9.6673498125,16.14898390625Q9.7647428125,16.26765390625,9.8732988125,16.37621390625Q9.9818578125,16.484763906250002,10.1005278125,16.58216390625Q10.2191978125,16.67955390625,10.3468478125,16.76484390625Q10.4744978125,16.85013390625,10.6098978125,16.92250390625Q10.745287812499999,16.99487390625,10.8871178125,17.05362390625Q11.0289578125,17.11237390625,11.1758678125,17.15694390625Q11.3227778125,17.20150390625,11.4733478125,17.23145390625Q11.6239178125,17.26140390625,11.7767078125,17.27645390625Q11.9294878125,17.29150390625,12.0830078125,17.29150390625ZM12.0830078125,16.04150390625Q12.1751178125,16.04150390625,12.2667878125,16.03247390625Q12.3584578125,16.02344390625,12.4487978125,16.00547390625Q12.5391478125,15.98750390625,12.6272878125,15.960763906250001Q12.7154378125,15.934023906250001,12.8005378125,15.89877390625Q12.8856378125,15.86352390625,12.9668778125,15.82010390625Q13.0481178125,15.77668390625,13.1246978125,15.725503906250001Q13.2012878125,15.67433390625,13.2724978125,15.615893906250001Q13.3436978125,15.55746390625,13.4088278125,15.49232390625Q13.4739678125,15.42719390625,13.532397812500001,15.35599390625Q13.5908378125,15.28478390625,13.642007812500001,15.20819390625Q13.6931878125,15.13161390625,13.7366078125,15.05037390625Q13.7800278125,14.96913390625,13.8152778125,14.88403390625Q13.850527812500001,14.79893390625,13.877267812500001,14.71078390625Q13.9040078125,14.62264390625,13.9219778125,14.53229390625Q13.9399478125,14.44195390625,13.9489778125,14.35028390625Q13.9580078125,14.25861390625,13.9580078125,14.16650390625Q13.9580078125,14.07439390625,13.9489778125,13.98272390625Q13.9399478125,13.89105390625,13.9219778125,13.80071390625Q13.9040078125,13.71036390625,13.877267812500001,13.62222390625Q13.850527812500001,13.53407390625,13.8152778125,13.44897390625Q13.7800278125,13.36387390625,13.7366078125,13.28263390625Q13.6931878125,13.20139390625,13.642007812500001,13.12481390625Q13.5908378125,13.04822390625,13.532397812500001,12.97701390625Q13.4739678125,12.90581390625,13.4088278125,12.84067390625Q13.3436978125,12.77554390625,13.2724978125,12.71711390625Q13.2012878125,12.65867390625,13.1246978125,12.60749390625Q13.0481178125,12.55632390625,12.9668778125,12.51290390625Q12.8856378125,12.46948390625,12.8005378125,12.43423390625Q12.7154378125,12.39898390625,12.6272878125,12.37224390625Q12.5391478125,12.34550390625,12.4487978125,12.32753390625Q12.3584578125,12.30956390625,12.2667878125,12.30053390625Q12.1751178125,12.29150390625,12.0830078125,12.29150390625Q11.9908978125,12.29150390625,11.8992278125,12.30053390625Q11.8075578125,12.30956390625,11.7172178125,12.32753390625Q11.6268678125,12.34550390625,11.5387278125,12.37224390625Q11.4505778125,12.39898390625,11.3654778125,12.43423390625Q11.2803778125,12.46948390625,11.1991378125,12.51290390625Q11.1178978125,12.55632390625,11.0413178125,12.60749390625Q10.9647278125,12.65867390625,10.8935178125,12.71711390625Q10.8223178125,12.77554390625,10.7571778125,12.84067390625Q10.6920478125,12.90581390625,10.6336178125,12.97701390625Q10.5751778125,13.04822390625,10.5239978125,13.12481390625Q10.4728278125,13.20139390625,10.4294078125,13.28263390625Q10.3859878125,13.36387390625,10.3507378125,13.44897390625Q10.3154878125,13.53407390625,10.2887478125,13.62222390625Q10.2620078125,13.71036390625,10.2440378125,13.80071390625Q10.2260678125,13.89105390625,10.2170378125,13.98272390625Q10.2080078125,14.07439390625,10.2080078125,14.16650390625Q10.2080078125,14.25861390625,10.2170378125,14.35028390625Q10.2260678125,14.44195390625,10.2440378125,14.53229390625Q10.2620078125,14.62264390625,10.2887478125,14.71078390625Q10.3154878125,14.79893390625,10.3507378125,14.88403390625Q10.3859878125,14.96913390625,10.4294078125,15.05037390625Q10.4728278125,15.13161390625,10.5239978125,15.20819390625Q10.5751778125,15.28478390625,10.6336178125,15.35599390625Q10.6920478125,15.42719390625,10.7571778125,15.49232390625Q10.8223178125,15.55746390625,10.8935178125,15.615893906250001Q10.9647278125,15.67433390625,11.0413178125,15.725503906250001Q11.1178978125,15.77668390625,11.1991378125,15.82010390625Q11.2803778125,15.86352390625,11.3654778125,15.89877390625Q11.4505778125,15.934023906250001,11.5387278125,15.960763906250001Q11.6268678125,15.98750390625,11.7172178125,16.00547390625Q11.8075578125,16.02344390625,11.8992278125,16.03247390625Q11.9908978125,16.04150390625,12.0830078125,16.04150390625Z" fill-rule="evenodd" fill="#0E043E" fill-opacity="1"/></g><g transform="matrix(0,1,-1,0,20.00048828125,-14.58349609375)"><path d="M20.4169921875,8.95849609375Q20.5705121875,8.95849609375,20.7232921875,8.943446093750001Q20.8760821875,8.928396093749999,21.026652187499998,8.89844609375Q21.1772221875,8.86849609375,21.3241321875,8.82393609375Q21.4710421875,8.77936609375,21.6128721875,8.72061609375Q21.7547121875,8.66186609375,21.8901021875,8.58949609375Q22.0255021875,8.51712609375,22.153152187499998,8.43183609375Q22.2807921875,8.34654609375,22.3994721875,8.249156093749999Q22.5181421875,8.15175609375,22.6267021875,8.043206093750001Q22.735252187500002,7.93464609375,22.8326521875,7.81597609375Q22.9300421875,7.69729609375,23.0153321875,7.56965609375Q23.1006221875,7.44200609375,23.1729921875,7.30660609375Q23.2453621875,7.17121609375,23.3041121875,7.02937609375Q23.3628621875,6.88754609375,23.4074321875,6.74063609375Q23.4519921875,6.59372609375,23.4819421875,6.44315609375Q23.5118921875,6.29258609375,23.5269421875,6.13979609375Q23.5419921875,5.98701609375,23.5419921875,5.83349609375Q23.5419921875,5.67997609375,23.5269421875,5.52719609375Q23.5118921875,5.37440609375,23.4819421875,5.22383609375Q23.4519921875,5.07326609375,23.4074321875,4.92635609375Q23.3628621875,4.77944609375,23.3041121875,4.63760609375Q23.2453621875,4.49577609375,23.1729921875,4.36038609375Q23.1006221875,4.22498609375,23.0153321875,4.09733609375Q22.9300421875,3.96968609375,22.8326521875,3.85101609375Q22.735252187500002,3.73234609375,22.6267021875,3.62378709375Q22.5181421875,3.5152310937499998,22.3994721875,3.41783809375Q22.2807921875,3.32044509375,22.153152187499998,3.23515309375Q22.0255021875,3.14986209375,21.8901021875,3.07749209375Q21.7547121875,3.00512309375,21.6128721875,2.94637209375Q21.4710421875,2.88762209375,21.3241321875,2.84305709375Q21.1772221875,2.79849259375,21.026652187499998,2.76854209375Q20.8760821875,2.73859159375,20.7232921875,2.72354379375Q20.5705121875,2.70849609375,20.4169921875,2.70849609375Q20.2634721875,2.70849609375,20.1106921875,2.72354379375Q19.9579021875,2.73859159375,19.807332187500002,2.76854209375Q19.6567621875,2.79849259375,19.5098521875,2.84305709375Q19.3629421875,2.88762209375,19.2211021875,2.94637209375Q19.0792721875,3.00512309375,18.9438821875,3.07749209375Q18.8084821875,3.14986209375,18.680832187500002,3.23515309375Q18.5531821875,3.32044509375,18.4345121875,3.41783809375Q18.3158421875,3.5152310937499998,18.2072831875,3.62378709375Q18.0987271875,3.73234609375,18.0013341875,3.85101609375Q17.9039411875,3.96968609375,17.8186491875,4.09733609375Q17.7333581875,4.22498609375,17.6609881875,4.36038609375Q17.5886191875,4.49577609375,17.5298681875,4.63760609375Q17.4711181875,4.77944609375,17.4265531875,4.92635609375Q17.3819886875,5.07326609375,17.3520381875,5.22383609375Q17.3220876875,5.37440609375,17.3070398875,5.52719609375Q17.2919921875,5.67997609375,17.2919921875,5.83349609375Q17.2919921875,5.98701609375,17.3070398875,6.13979609375Q17.3220876875,6.29258609375,17.3520381875,6.44315609375Q17.3819886875,6.59372609375,17.4265531875,6.74063609375Q17.4711181875,6.88754609375,17.5298681875,7.02937609375Q17.5886191875,7.17121609375,17.6609881875,7.30660609375Q17.7333581875,7.44200609375,17.8186491875,7.56965609375Q17.9039411875,7.69729609375,18.0013341875,7.81597609375Q18.0987271875,7.93464609375,18.2072831875,8.043206093750001Q18.3158421875,8.15175609375,18.4345121875,8.249156093749999Q18.5531821875,8.34654609375,18.680832187500002,8.43183609375Q18.8084821875,8.51712609375,18.9438821875,8.58949609375Q19.0792721875,8.66186609375,19.2211021875,8.72061609375Q19.3629421875,8.77936609375,19.5098521875,8.82393609375Q19.6567621875,8.86849609375,19.807332187500002,8.89844609375Q19.9579021875,8.928396093749999,20.1106921875,8.943446093750001Q20.2634721875,8.95849609375,20.4169921875,8.95849609375ZM20.4169921875,7.70849609375Q20.509102187499998,7.70849609375,20.6007721875,7.69946609375Q20.6924421875,7.69043609375,20.7827821875,7.67246609375Q20.8731321875,7.65449609375,20.9612721875,7.62775609375Q21.0494221875,7.60101609375,21.1345221875,7.56576609375Q21.2196221875,7.53051609375,21.3008621875,7.48709609375Q21.3821021875,7.44367609375,21.4586821875,7.39249609375Q21.5352721875,7.34132609375,21.6064821875,7.28288609375Q21.6776821875,7.22445609375,21.7428121875,7.15931609375Q21.8079521875,7.09418609375,21.8663821875,7.02298609375Q21.9248221875,6.95177609375,21.9759921875,6.87518609375Q22.0271721875,6.79860609375,22.0705921875,6.71736609375Q22.114012187500002,6.636126093750001,22.1492621875,6.55102609375Q22.1845121875,6.465926093749999,22.2112521875,6.3777760937500005Q22.237992187499998,6.2896360937499995,22.2559621875,6.1992860937500005Q22.2739321875,6.10894609375,22.2829621875,6.0172760937500005Q22.2919921875,5.92560609375,22.2919921875,5.83349609375Q22.2919921875,5.74138609375,22.2829621875,5.6497160937499995Q22.2739321875,5.55804609375,22.2559621875,5.4677060937499995Q22.237992187499998,5.3773560937500005,22.2112521875,5.2892160937499995Q22.1845121875,5.201066093750001,22.1492621875,5.11596609375Q22.114012187500002,5.030866093749999,22.0705921875,4.94962609375Q22.0271721875,4.86838609375,21.9759921875,4.79180609375Q21.9248221875,4.71521609375,21.8663821875,4.64400609375Q21.8079521875,4.57280609375,21.7428121875,4.50766609375Q21.6776821875,4.44253609375,21.6064821875,4.38410609375Q21.5352721875,4.32566609375,21.4586821875,4.27448609375Q21.3821021875,4.22331609375,21.3008621875,4.17989609375Q21.2196221875,4.13647609375,21.1345221875,4.10122609375Q21.0494221875,4.06597609375,20.9612721875,4.0392360937500005Q20.8731321875,4.01249609375,20.7827821875,3.9945260937500002Q20.6924421875,3.97655609375,20.6007721875,3.96752609375Q20.509102187499998,3.95849609375,20.4169921875,3.95849609375Q20.324882187500002,3.95849609375,20.2332121875,3.96752609375Q20.1415421875,3.97655609375,20.0512021875,3.9945260937500002Q19.9608521875,4.01249609375,19.8727121875,4.0392360937500005Q19.7845621875,4.06597609375,19.6994621875,4.10122609375Q19.6143621875,4.13647609375,19.5331221875,4.17989609375Q19.4518821875,4.22331609375,19.3753021875,4.27448609375Q19.2987121875,4.32566609375,19.2275021875,4.38410609375Q19.1563021875,4.44253609375,19.0911621875,4.50766609375Q19.0260321875,4.57280609375,18.9676021875,4.64400609375Q18.9091621875,4.71521609375,18.8579821875,4.79180609375Q18.8068121875,4.86838609375,18.7633921875,4.94962609375Q18.7199721875,5.030866093749999,18.6847221875,5.11596609375Q18.6494721875,5.201066093750001,18.6227321875,5.2892160937499995Q18.5959921875,5.3773560937500005,18.5780221875,5.4677060937499995Q18.5600521875,5.55804609375,18.5510221875,5.6497160937499995Q18.5419921875,5.74138609375,18.5419921875,5.83349609375Q18.5419921875,5.92560609375,18.5510221875,6.0172760937500005Q18.5600521875,6.10894609375,18.5780221875,6.1992860937500005Q18.5959921875,6.2896360937499995,18.6227321875,6.3777760937500005Q18.6494721875,6.465926093749999,18.6847221875,6.55102609375Q18.7199721875,6.636126093750001,18.7633921875,6.71736609375Q18.8068121875,6.79860609375,18.8579821875,6.87518609375Q18.9091621875,6.95177609375,18.9676021875,7.02298609375Q19.0260321875,7.09418609375,19.0911621875,7.15931609375Q19.1563021875,7.22445609375,19.2275021875,7.28288609375Q19.2987121875,7.34132609375,19.3753021875,7.39249609375Q19.4518821875,7.44367609375,19.5331221875,7.48709609375Q19.6143621875,7.53051609375,19.6994621875,7.56576609375Q19.7845621875,7.60101609375,19.8727121875,7.62775609375Q19.9608521875,7.65449609375,20.0512021875,7.67246609375Q20.1415421875,7.69043609375,20.2332121875,7.69946609375Q20.324882187500002,7.70849609375,20.4169921875,7.70849609375Z" fill-rule="evenodd" fill="#0E043E" fill-opacity="1"/></g><g><path d="M6.4580078125,9.16650390625L6.4580078125,11.66650390625L5.2080078125,11.66650390625L5.2080078125,9.16650390625L6.4580078125,9.16650390625Z" fill="#0E043E" fill-opacity="1"/></g><g><path d="M10.8330078125,13.54150390625L10.8330078125,14.79150390625L8.3330078125,14.79150390625L8.3330078125,13.54150390625L10.8330078125,13.54150390625Z" fill="#0E043E" fill-opacity="1"/></g><g><path d="M14.7919921875,8.33349609375L14.7919921875,10.83349609375L13.5419921875,10.83349609375L13.5419921875,8.33349609375L14.7919921875,8.33349609375Z" fill="#0E043E" fill-opacity="1"/></g></g></g></g></svg>