<svg xmlns="http://www.w3.org/2000/svg" xmlns:xlink="http://www.w3.org/1999/xlink" fill="none" version="1.1" width="14"
  height="14" viewBox="0 0 14 14">
  <g>
    <g transform="matrix(0,1,-1,0,7.0556640625,-5.5556640625)">
      <rect x="6.3056640625" y="0.75" width="5.55555534362793" height="5.55555534362793" rx="2.777777671813965"
        fill-opacity="0" stroke-opacity="1" stroke="#0E043E" fill="none" stroke-width="1.5" />
    </g>
    <g transform="matrix(0,1,-1,0,20.9443359375,-5.5556640625)">
      <rect x="13.25" y="7.6943359375" width="5.55555534362793" height="5.55555534362793" rx="2.777777671813965"
        fill-opacity="0" stroke-opacity="1" stroke="#0E043E" fill="none" stroke-width="1.5" />
    </g>
    <g transform="matrix(0,1,-1,0,14.000270366668701,2.7775063514709473)">
      <rect x="5.611382007598877" y="8.388888359069824" width="4.166666507720947" height="4.166666507720947"
        rx="2.0833332538604736" fill-opacity="0" stroke-opacity="1" stroke="#0E043E" fill="none" stroke-width="1.5" />
    </g>
    <g transform="matrix(0,1,-1,0,14,-11.111328125)">
      <rect x="12.5556640625" y="1.4443359375" width="4.166666507720947" height="4.166666507720947"
        rx="2.0833332538604736" fill-opacity="0" stroke-opacity="1" stroke="#0E043E" fill="none" stroke-width="1.5" />
    </g>
    <g transform="matrix(0,1,-1,0,9.31298828125,3.29833984375)">
      <line x1="3.00732421875" y1="5.5556640625" x2="5.090657472610474" y2="5.5556640625" fill-opacity="0"
        stroke-opacity="1" stroke="#0E043E" fill="none" stroke-width="1.5" />
    </g>
    <g>
      <line x1="5.611382007598877" y1="10.2431640625" x2="7.694715261459351" y2="10.2431640625" fill-opacity="0"
        stroke-opacity="1" stroke="#0E043E" fill="none" stroke-width="1.5" />
    </g>
    <g transform="matrix(0,1,-1,0,15.56228256225586,-4.340061187744141)">
      <line x1="9.951171875" y1="4.861110687255859" x2="12.034505128860474" y2="4.861110687255859" fill-opacity="0"
        stroke-opacity="1" stroke="#0E043E" fill="none" stroke-width="1.5" />
    </g>
  </g>
</svg>