<svg xmlns="http://www.w3.org/2000/svg" xmlns:xlink="http://www.w3.org/1999/xlink" fill="none" version="1.1" width="28" height="28" viewBox="0 0 28 28"><defs><mask id="master_svg0_854_80753" style="mask-type:alpha" maskUnits="userSpaceOnUse"><g><rect x="0" y="0" width="28" height="28" rx="0" fill="#FFFFFF" fill-opacity="1"/></g></mask></defs><g mask="url(#master_svg0_854_80753)"><g><g><path d="M13.278187034992676,3.625161C13.280515134992676,3.0586343,13.960466054992676,2.773189,14.329681054992676,3.218379C14.449261054992675,3.362411,14.468461054992677,3.502079,14.469341054992675,3.704306Q14.471371054992677,4.23184,14.470211054992676,4.75967C14.468461054992677,5.43211,13.558372054992676,5.63259,13.320957654992675,5.0049600000000005Q13.277606344992677,4.8909,13.277023875992676,4.63717Q13.276150172992676,4.13087,13.278187034992676,3.625161Z" fill="#000000" fill-opacity="1"/><path d="M13.178187054992677,3.625046L13.177023954992675,4.63705L13.177024154992676,4.6373999999999995Q13.177648454992676,4.90937,13.227425154992675,5.0403400000000005Q13.435665054992675,5.59084,14.005117054992676,5.46758Q14.568691054992676,5.34558,14.570211054992676,4.75959L14.569341054992677,3.703875Q14.567801054992676,3.348645,14.406651054992675,3.154542Q14.085378054992676,2.767155,13.629229054992676,2.9495221Q13.180224954992676,3.129032,13.178187054992677,3.625046ZM13.414489054992675,4.9695800000000006Q13.377591054992676,4.87249,13.377024054992676,4.6372800000000005L13.377024054992676,4.63711L13.378187054992676,3.625276Q13.379669054992675,3.264687,13.703474054992675,3.13523Q14.024398054992675,3.00692594,14.252709054992676,3.282216Q14.368121054992676,3.421222,14.369341054992676,3.7047369999999997L14.370211054992676,4.75975Q14.369111054992675,5.18415,13.962804054992676,5.2721Q13.561764054992675,5.35891,13.414489054992675,4.9695800000000006Z" fill-rule="evenodd" fill="#000000" fill-opacity="1"/></g><g><path d="M6.487811321875,5.548501661079407C6.243994921875,5.0675216610794065,6.645796921875,4.533001661079407,7.175035921875,4.672669461079407C7.371136921875,4.724462861079407,7.485184921875,4.8629666610794064,7.580034921875,5.055299661079407Q7.789234921875,5.479249661079407,7.996684921875,5.904073661079407Q8.112764921875,6.141793661079407,8.125864921875,6.266913661079407C8.150304921875,6.497073661079407,7.997554921875,6.8311136610794065,7.725224921875,6.867773661079407Q7.622514921875,6.8817436610794065,7.401686921875,6.8529336610794065C7.1712539218749995,6.822673661079406,7.050799921875,6.654783661079406,6.940820921875,6.439173661079407Q6.714170921875,5.993983661079406,6.487811321875,5.548501661079407Z" fill="#000000" fill-opacity="1"/><path d="M6.398677921875,5.593835661079407L6.8516879218749995,6.4845036610794065L6.851740921875,6.484613661079407Q7.068761921875,6.910073661079407,7.388750921875,6.952093661079407Q7.622794921875,6.982623661079407,7.738564921875,6.966883661079407Q7.978624921875,6.934563661079407,8.122884921875,6.690843661079407Q8.248844921875,6.478053661079407,8.225314921875,6.256503661079407Q8.210384921875,6.113803661079407,8.086444921875,5.860003661079407L7.669724921875,5.0110706610794065Q7.493284921875,4.653295711079407,7.2005529218749995,4.575979761079407Q6.741764921875,4.454904661079407,6.462377921875,4.816725661079407Q6.186111921875,5.174504661079407,6.398677921875,5.593835661079407ZM7.029954921875,6.393833661079407L7.029901921875,6.393733661079406L6.576944921875,5.5031666610794066Q6.421618521875,5.196752661079406,6.620677921875,4.938959661079407Q6.818991921875,4.682131961079406,7.149518921875,4.769359661079407Q7.3541849218749995,4.823414661079407,7.490354921875,5.099529661079407L7.906914921875,5.948133661079407Q8.015154921875,6.169793661079407,8.026404921875,6.277323661079407Q8.042964921875,6.433233661079407,7.950774921875,6.5889736610794065Q7.855884921875,6.7492836610794065,7.711884921875,6.768673661079407Q7.622244921875,6.780863661079406,7.414621921875,6.753773661079407Q7.199150921875,6.725483661079407,7.029954921875,6.393833661079407Z" fill-rule="evenodd" fill="#000000" fill-opacity="1"/></g><g><path d="M20.178659260742187,5.04192036894989C20.49637626074219,4.39188436894989,21.41461226074219,4.65696176894989,21.328492260742188,5.32969336894989Q21.31278226074219,5.45132036894989,21.201352260742187,5.67013336894989Q20.98546226074219,6.09495336894989,20.765792260742188,6.51657336894989C20.603737260742186,6.8279233689498895,20.374759260742188,6.87302336894989,20.048603260742187,6.87709336894989C19.759981260742187,6.880583368949891,19.597630660742187,6.50377336894989,19.62119755074219,6.27477336894989Q19.63341696074219,6.15751336894989,19.733214260742187,5.95296336894989Q19.956081260742188,5.49758536894989,20.178659260742187,5.04192036894989Z" fill="#000000" fill-opacity="1"/><path d="M20.08882326074219,4.997995368949891L19.64337796074219,5.90903336894989L19.643340160742188,5.90911336894989Q19.535788460742186,6.12956336894989,19.52172296074219,6.26454336894989Q19.498271260742186,6.49241336894989,19.632168460742186,6.714713368949891Q19.79208026074219,6.980203368949891,20.049853260742186,6.97708336894989Q20.642682260742188,6.96968336894989,20.854482260742188,6.562783368949891Q21.074382260742187,6.14071336894989,21.29046226074219,5.71551336894989Q21.40974226074219,5.48128636894989,21.427682260742188,5.34239136894989Q21.503982260742188,4.74637766894989,20.93084226074219,4.59316146894989Q20.36113226074219,4.44086336894989,20.08882326074219,4.997995368949891ZM19.823051260742186,5.99688336894989L19.823089260742186,5.99680336894989L20.268496260742186,5.08584536894989Q20.46852426074219,4.67659473894989,20.879192260742187,4.78637636894989Q21.283402260742186,4.89443236894989,21.229302260742188,5.31699536894989Q21.215822260742186,5.42135436894989,21.11224226074219,5.62475136894989Q20.896552260742187,6.04919336894989,20.677112260742188,6.47037336894989Q20.520529260742187,6.7711933689498895,20.047355260742187,6.77710336894989Q19.904266260742187,6.77883336894989,19.803491260742188,6.61152336894989Q19.704058960742188,6.44644336894989,19.720672260742187,6.28501336894989Q19.731043260742187,6.18548336894989,19.823051260742186,5.99688336894989Z" fill-rule="evenodd" fill="#000000" fill-opacity="1"/></g><g><path d="M17.92088253479004,13.713242645721436Q17.51151253479004,11.647322645721434,17.09458253479004,9.583162645721435C17.01224253479004,9.175212645721436,16.850182534790036,8.964842645721436,16.41231253479004,8.964842645721436Q13.883072534790038,8.964542645721435,11.35384253479004,8.964252645721436C10.979102534790039,8.964252645721436,10.75419253479004,9.127782645721435,10.67738253479004,9.515362645721435Q10.209822534790039,11.868462645721436,9.746342534790038,14.222742645721436C9.68117253479004,14.554152645721436,9.61076253479004,14.799152645721435,9.28547853479004,14.893722645721436C8.788825534790039,15.038342645721436,8.423392334790039,14.648142645721435,8.522315334790038,14.151162645721435Q8.972706534790039,11.888832645721436,9.42920753479004,9.627672645721436Q9.530172534790038,9.129242645721435,9.55111253479004,9.058822645721435C9.735582534790039,8.440211645721435,10.249982534790039,7.952539645721435,10.888032534790039,7.813162545721435Q11.07598253479004,7.7718442737214355,11.453932534790038,7.7718442737214355Q13.842342534790038,7.771553459721436,16.23046253479004,7.7712626457214355Q16.625572534790038,7.7712626457214355,16.80974253479004,7.807343145721435C17.54497253479004,7.950793645721435,18.09225253479004,8.530995645721436,18.24006253479004,9.266872645721435Q18.724782534790037,11.676712645721436,19.21208253479004,14.085982645721437C19.281082534790038,14.427582645721436,19.21798253479004,14.755512645721435,18.85538253479004,14.878592645721437Q18.72708253479004,14.922242645721436,18.42597253479004,14.922242645721436Q14.989852534790039,14.922242645721436,11.55314253479004,14.922242645721436Q11.122542534790039,14.922242645721436,10.963682534790038,14.569872645721436C10.822572534790039,14.255912645721436,10.969212534790039,13.890152645721436,11.291002534790039,13.768522645721436Q11.396032534790038,13.728952645721435,11.62064253479004,13.728952645721435Q14.764362534790038,13.730702645721436,17.90837253479004,13.728662645721435Q17.92379253479004,13.728372645721436,17.92088253479004,13.713242645721436Z" fill="#000000" fill-opacity="1"/><path d="M17.80198253479004,13.628672645721435L16.99653253479004,9.602772645721435Q16.88795253479004,9.064842645721436,16.41231253479004,9.064842645721436L11.353832534790039,9.064252645721435Q10.86873253479004,9.064252645721435,10.775472534790039,9.534802645721436L9.844442534790039,14.242142645721437Q9.720712534790039,14.871332645721434,9.313394534790039,14.989742645721435Q8.888526534790039,15.113462645721436,8.60971553479004,14.833622645721436Q8.33866253479004,14.561562645721436,8.42423933479004,14.131632645721435L9.331158534790038,9.608022645721435Q9.433044534790039,9.105012645721436,9.455267534790039,9.030302645721436Q9.776312534790039,7.953647645721436,10.866692534790038,7.715466245721435Q11.065122534790039,7.671844245721435,11.453932534790038,7.671844245721435L16.23045253479004,7.671262645721436Q16.63528253479004,7.671262645721436,16.82897253479004,7.709208645721436Q17.40642253479004,7.8218736457214355,17.81698253479004,8.245338645721436Q18.220462534790038,8.661495645721436,18.33810253479004,9.247172645721436L19.310182534790037,14.066202645721436Q19.45438253479004,14.780832645721436,18.88758253479004,14.973282645721437Q18.74368253479004,15.022242645721436,18.42597253479004,15.022242645721436L11.55314253479004,15.022242645721436Q11.057932534790039,15.022242645721436,10.872512534790038,14.610972645721436Q10.74885253479004,14.335832645721435,10.861102534790039,14.059452645721436Q10.974002534790039,13.781442645721436,11.255642534790038,13.674982645721435Q11.377822534790038,13.628952645721435,11.62064253479004,13.628952645721435L17.80198253479004,13.628672645721435ZM11.62064253479004,13.828952645721436L17.90838253479004,13.828662645721437L17.91026253479004,13.828642645721436Q17.96445253479004,13.827622645721435,17.99687253479004,13.787662645721436Q18.02933253479004,13.747652645721436,18.019082534790037,13.694362645721435L17.19264253479004,9.563542645721435Q17.05162253479004,8.864842645721435,16.41231253479004,8.864842645721435L11.35385253479004,8.864252645721436Q10.704472534790039,8.864252645721436,10.579292534790039,9.495922645721436L9.64824253479004,14.203332645721435Q9.547962534790038,14.713272645721435,9.25756253479004,14.797702645721436Q8.946493534790038,14.888272645721436,8.75139653479004,14.692462645721434Q8.555641034790039,14.495982645721435,8.62039153479004,14.170682645721435L9.527252534790039,9.647332645721436Q9.627292534790039,9.153472645721436,9.646962534790038,9.087332645721435Q9.934262534790038,8.123862645721436,10.90937253479004,7.910858645721436Q11.086852534790038,7.871844645721436,11.453932534790038,7.871844645721436L16.23047253479004,7.871262645721435Q16.61587253479004,7.871262645721435,16.79052253479004,7.905477645721436Q17.306512534790038,8.006153645721435,17.67339253479004,8.384555645721436Q18.03595253479004,8.758509645721436,18.14201253479004,9.286562645721435L19.11408253479004,14.105752645721434Q19.22358253479004,14.647992645721436,18.82328253479004,14.783902645721437Q18.71058253479004,14.822242645721435,18.42597253479004,14.822242645721435L11.55314253479004,14.822242645721435Q11.18715253479004,14.822242645721435,11.054842534790039,14.528772645721435Q10.966342534790039,14.331852645721437,11.046402534790039,14.134702645721436Q11.12643253479004,13.937632645721436,11.32635253479004,13.862072645721437Q11.41424253479004,13.828952645721436,11.62064253479004,13.828952645721436Z" fill-rule="evenodd" fill="#000000" fill-opacity="1"/></g><g transform="matrix(0.7933220267295837,-0.608802318572998,0.6087205410003662,0.7933847308158875,-1.2253049573246244,16.965009444305736)"><rect x="24.37441635131836" y="10.288727760314941" width="2.396921157836914" height="1.189465880393982" rx="0.594732940196991" fill="#000000" fill-opacity="1"/><rect x="24.37441635131836" y="10.288727760314941" width="2.396921157836914" height="1.189465880393982" rx="0.594732940196991" fill-opacity="0" stroke-opacity="1" stroke="#000000" fill="none" stroke-width="0.20000000298023224"/></g><g><path d="M1.0920234,10.011466486877442C0.791181,9.549108486877442,1.2811409999999999,8.95581348687744,1.794378,9.143200786877442Q1.883408,9.175789686877442,2.06845,9.316038486877442Q2.4565799999999998,9.60992248687744,2.84354,9.90584348687744C3.47433,10.38769748687744,2.82492,11.341507486877441,2.17087,10.86954748687744Q1.879626,10.65946748687744,1.3954849999999999,10.292547486877442Q1.157196,10.111857486877442,1.0920234,10.011466486877442Z" fill="#000000" fill-opacity="1"/><path d="M1.00814947,10.065920486877442Q1.0828429,10.180967486877442,1.335062,10.372227486877442L1.335084,10.372247486877441Q1.820173,10.739877486877441,2.11235,10.950637486877442Q2.3800600000000003,11.143817486877442,2.6615200000000003,11.083627486877441Q2.91458,11.029517486877442,3.07135,10.802137486877442Q3.22668,10.57684748687744,3.19584,10.31440748687744Q3.1616,10.02296548687744,2.9040999999999997,9.82626348687744L2.12886,9.236342486877442Q1.931862,9.087036986877441,1.828674,9.049265686877442Q1.37578,8.883910486877442,1.0604341,9.270467486877441Q0.743422,9.65906648687744,1.00814947,10.065920486877442ZM2.22938,10.78845748687744Q1.939102,10.579067486877442,1.455908,10.21286748687744L1.455886,10.212847486877441Q1.231548,10.042731486877441,1.175897,9.957013486877441Q0.99068353,9.672362486877441,1.215408,9.396891486877442Q1.440824,9.12057188687744,1.760081,9.237135486877442Q1.834954,9.264542486877442,2.00805,9.39573448687744L2.78299,9.98542348687744Q3.18159,10.289907486877441,2.90669,10.688617486877442Q2.79504,10.850557486877442,2.6197,10.888047486877442Q2.42508,10.929667486877442,2.22938,10.78845748687744Z" fill-rule="evenodd" fill="#000000" fill-opacity="1"/></g><g transform="matrix(0.980955183506012,-0.19421429932117462,0.19425439834594727,0.980955183506012,-1.7162582002877684,3.0702806513301795)"><rect x="14.800061225891113" y="10.286112785339355" width="1.1853159666061401" height="2.391256809234619" rx="0.5926579833030701" fill="#000000" fill-opacity="1"/><rect x="14.800061225891113" y="10.286112785339355" width="1.1853159666061401" height="2.391256809234619" rx="0.5926579833030701" fill-opacity="0" stroke-opacity="1" stroke="#000000" fill="none" stroke-width="0.20000000298023224"/></g><g><path d="M11.964260548477172,22.059825791931154Q11.541500548477172,19.94531579193115,11.116430548477172,17.826445791931153C11.046600548477173,17.478735791931154,10.826060548477173,17.303855791931152,10.456840548477173,17.302985791931153Q7.925580548477173,17.29629579193115,5.394890548477173,17.30501579193115C5.046620548477173,17.306185791931153,4.794950548477173,17.47262579193115,4.7230805484771725,17.831975791931153Q4.438530548477173,19.25978579193115,3.779530548477173,22.607725791931152Q3.727740548477173,22.87135579193115,3.6625705484771727,22.980175791931153C3.384131548477173,23.446315791931152,2.627078548477173,23.320035791931154,2.552013268477173,22.763105791931153Q2.5345560484771728,22.635085791931154,2.5866364484771727,22.374945791931154Q3.055357548477173,20.027955791931152,3.528733548477173,17.682125791931153Q3.5915805484771726,17.369905791931153,3.662860548477173,17.204925791931153C3.896200548477173,16.66545879193115,4.380930548477172,16.269734791931153,4.951480548477173,16.153053791931153Q5.137980548477173,16.114936309931153,5.530470548477172,16.115227567891154Q8.039920548477173,16.11551882593115,10.549370548477173,16.115227567891154C11.272380548477173,16.114936309931153,11.928760548477173,16.603771791931152,12.180430548477172,17.271555791931153Q12.238330548477172,17.425195791931152,12.321540548477174,17.835465791931153Q12.788830548477172,20.137355791931153,13.255230548477172,22.439255791931153C13.364630548477173,22.978725791931154,13.096930548477173,23.262715791931154,12.565930548477173,23.263585791931153Q9.098110548477173,23.27027579193115,5.629980548477173,23.262415791931154C5.431840548477172,23.26183579193115,5.249700548477173,23.226045791931153,5.1237205484771735,23.090745791931152C4.727160548477173,22.664765791931153,5.036730548477173,22.07320579193115,5.596520548477173,22.07320579193115Q8.771370548477172,22.072625791931152,11.953490548477173,22.072915791931152C11.960370548477172,22.072855791931154,11.965530548477172,22.066585791931153,11.964260548477172,22.059825791931154Z" fill="#000000" fill-opacity="1"/><path d="M11.844880548477173,21.972925791931154L11.018380548477174,17.846085791931152Q10.929620548477173,17.40409579193115,10.456610548477173,17.40298579193115L5.3949305484771735,17.405015791931152Q4.910120548477173,17.40663579193115,4.821140548477173,17.851585791931154L3.8776405484771725,22.627115791931153Q3.822500548477173,22.90775579193115,3.748360548477173,23.031555791931154Q3.502236548477173,23.443595791931152,3.0129455484771728,23.35364579193115Q2.518450948477173,23.262735791931153,2.4529094484771727,22.77646579193115Q2.433201548477173,22.631935791931152,2.488582348477173,22.355315791931154L3.430689548477173,17.662435791931152Q3.495616548477173,17.339885791931152,3.571060548477173,17.16526579193115Q3.9658505484771727,16.25254879193115,4.931440548477173,16.055081691931154Q5.127900548477173,16.01492879193115,5.530550548477173,16.01522759193115L8.039920548477173,16.015373191931154L10.549360548477173,16.01522759193115Q11.118010548477173,16.014998791931152,11.600040548477173,16.361679791931152Q12.072430548477174,16.70143379193115,12.274010548477174,17.236295791931152Q12.334740548477173,17.39743579193115,12.419550548477172,17.815585791931152L13.353230548477173,22.419375791931152Q13.443930548477173,22.866805791931153,13.226430548477174,23.118745791931154Q13.015630548477173,23.362845791931154,12.566130548477172,23.36358579193115L5.629960548477173,23.362415791931152Q5.238970548477173,23.361275791931153,5.050540548477173,23.15888579193115Q4.709980548477173,22.79307579193115,4.911550548477173,22.378505791931154Q5.108620548477173,21.973205791931154,5.596520548477173,21.973205791931154L11.844880548477173,21.972925791931154ZM5.596520548477173,22.173205791931153L11.953500548477173,22.172915791931153L11.954390548477173,22.172915791931153Q12.006250548477173,22.172445791931153,12.039180548477173,22.132385791931153Q12.072100548477174,22.092335791931152,12.062540548477173,22.04138579193115L11.214480548477173,17.806805791931154Q11.093520548477173,17.204485791931152,10.457080548477172,17.20298579193115L5.394850548477173,17.205015791931153Q4.746050548477173,17.207185791931153,4.625030548477173,17.812365791931153L3.6814305484771728,22.588345791931154Q3.632980548477173,22.83494579193115,3.576780548477173,22.92879579193115Q3.401773548477173,23.22177579193115,3.049108548477173,23.156935791931154Q2.697282548477173,23.09225579193115,2.6511175484771727,22.749745791931154Q2.6359104484771727,22.638225791931152,2.684690548477173,22.394585791931153L3.626780548477173,17.701805791931154Q3.687540548477173,17.399935791931153,3.754660548477173,17.24458579193115Q4.108040548477173,16.427611791931152,4.971520548477173,16.251025791931152Q5.148060548477172,16.21494379193115,5.530400548477173,16.215227791931152L8.039910548477174,16.215372791931152L10.549370548477173,16.215227791931152Q11.053600548477172,16.215024491931153,11.483260548477173,16.524047791931153Q11.906590548477173,16.828515791931153,12.086860548477173,17.306825791931153Q12.141920548477174,17.452935791931154,12.223540548477173,17.855345791931153L13.157230548477173,22.459135791931153Q13.228430548477172,22.81037579193115,13.075030548477173,22.988035791931154Q12.923930548477173,23.162995791931152,12.565730548477173,23.16358579193115L5.629990548477172,23.162415791931153Q5.326260548477173,23.16152579193115,5.196910548477173,23.022595791931153Q4.949820548477173,22.757185791931153,5.091420548477172,22.46595579193115Q5.233760548477173,22.173215791931153,5.596520548477173,22.173205791931153Z" fill-rule="evenodd" fill="#000000" fill-opacity="1"/></g><g><path d="M15.17053083392334,23.252820643310546C14.73788783392334,23.334880643310548,14.40649473392334,22.96971064331055,14.48970613392334,22.546630643310547Q14.97355683392334,20.091100643310547,15.46962683392334,17.63761064331055C15.62121383392334,16.888058643310547,16.11117383392334,16.321241643310547,16.87433383392334,16.155386443310547Q17.05705383392334,16.11552315931055,17.39659383392334,16.11552315931055Q19.81380383392334,16.115231901310548,22.23131383392334,16.114940643310547Q22.61827383392334,16.114940643310547,22.80972383392334,16.156549743310546C23.49665383392334,16.305238643310545,24.03288383392334,16.84703264331055,24.17544383392334,17.543330643310547Q24.663343833923342,19.925830643310547,25.146643833923342,22.309190643310547Q25.20974383392334,22.620240643310545,25.19234383392334,22.757880643310546C25.14724383392334,23.11170064331055,24.86234383392334,23.261840643310546,24.52744383392334,23.262430643310548Q21.10970383392334,23.269120643310547,17.69219383392334,23.263300643310547C17.53974383392334,23.263010643310547,17.36749383392334,23.272320643310547,17.23278383392334,23.214410643310547C16.72566383392334,22.995310643310546,16.755043833923338,22.290860643310545,17.27002383392334,22.109300643310547Q17.37564383392334,22.072050643310547,17.55225383392334,22.072340643310547Q20.71255383392334,22.07380064331055,23.86965383392334,22.072630643310546C23.87701383392334,22.072560643310545,23.88254383392334,22.065910643310545,23.88129383392334,22.05867064331055Q23.46203383392334,19.959000643310546,23.03986383392334,17.854960643310548C22.96654383392334,17.489210643310546,22.764623833923338,17.30240064331055,22.36718383392334,17.30211064331055Q18.81992383392334,17.298910643310546,17.31425383392334,17.301530643310546Q16.75272383392334,17.30240064331055,16.64361383392334,17.847690643310546Q16.17140383392334,20.204290643310546,15.705003833923339,22.56205064331055C15.62994383392334,22.940610643310546,15.55953383392334,23.179210643310547,15.17053083392334,23.252820643310546Z" fill="#000000" fill-opacity="1"/><path d="M15.80308383392334,22.581550643310546L15.80309383392334,22.581500643310548L16.51967383392334,18.97685064331055L16.74167383392334,17.867310643310546Q16.834713833923338,17.402280643310547,17.31424383392334,17.401530643310547L22.36711383392334,17.402110643310547Q22.84716383392334,17.402470643310547,22.94181383392334,17.874590643310547L23.76208383392334,21.972630643310545L17.55241383392334,21.972340643310545Q17.35860383392334,21.972020643310547,17.23677383392334,22.014990643310547Q16.78549383392334,22.174090643310546,16.768183833923338,22.644100643310548Q16.75084383392334,23.115130643310547,17.19329383392334,23.306290643310547Q17.33048383392334,23.36526064331055,17.63525383392334,23.363480643310545Q17.67347383392334,23.363260643310547,17.69221383392334,23.363300643310545L24.527643833923342,23.362430643310546Q25.21624383392334,23.361220643310546,25.291543833923342,22.770460643310546Q25.31104383392334,22.61649064331055,25.24464383392334,22.289230643310546L24.27341383392334,17.523270643310546Q24.16066383392334,16.972613643310545,23.76792383392334,16.574369643310547Q23.37581383392334,16.176765843310548,22.83096383392334,16.058831043310548Q22.62902383392334,16.014940643310545,22.23130383392334,16.014940643310545L17.39659383392334,16.015523143310546Q17.04627383392334,16.015523143310546,16.85310383392334,16.05766764331055Q15.63352383392334,16.322713643310546,15.371561833923339,17.618030643310547L14.39158613392334,22.52733064331055Q14.31865083392334,22.898160643310547,14.56398433392334,23.157830643310547Q14.81381983392334,23.422260643310548,15.18912483392334,23.351080643310546Q15.49861383392334,23.292510643310546,15.63930383392334,23.076340643310548Q15.73374383392334,22.93125064331055,15.80308383392334,22.581550643310546ZM16.32356383392334,18.937610643310546L15.60692383392334,22.54255064331055L15.60691383392334,22.542600643310546Q15.54507383392334,22.854480643310545,15.47168283392334,22.967240643310546Q15.37754983392334,23.111870643310546,15.15193583392334,23.154570643310546Q14.884053833923339,23.205370643310545,14.70936183392334,23.020470643310546Q14.53477073392334,22.835680643310546,14.587826833923339,22.565930643310548L15.56769383392334,17.657180643310546Q15.80365383392334,16.490407643310547,16.89557383392334,16.253105643310548Q17.06783383392334,16.215523643310547,17.39659383392334,16.215523643310547L22.23132383392334,16.21494064331055Q22.60753383392334,16.21494064331055,22.78848383392334,16.254268643310546Q23.27525383392334,16.359631643310546,23.62552383392334,16.714804643310547Q23.97662383392334,17.070826643310546,24.077473833923342,17.563390643310548L25.04864383392334,22.329160643310548Q25.108543833923342,22.624000643310545,25.093143833923342,22.745290643310547Q25.04004383392334,23.16153064331055,24.52734383392334,23.162430643310547L17.69218383392334,23.163300643310546Q17.67306383392334,23.163260643310547,17.63409383392334,23.163490643310546Q17.37109383392334,23.165020643310548,17.27227383392334,23.122540643310547Q16.95574383392334,22.985780643310548,16.96805383392334,22.651460643310546Q16.98034383392334,22.317460643310547,17.303283833923338,22.203610643310547Q17.39268383392334,22.172080643310547,17.55208383392334,22.172340643310548L23.86965383392334,22.172630643310548Q23.92239383392334,22.172120643310546,23.95553383392334,22.132350643310545Q23.98865383392334,22.092600643310547,23.97982383392334,22.041600643310545L23.979603833923342,22.040320643310547L23.137923833923338,17.83534064331055Q23.01107383392334,17.202590643310547,22.36726383392334,17.202110643310547L17.31426383392334,17.201530643310548Q16.67072383392334,17.202530643310546,16.54555383392334,17.828070643310546L16.32356383392334,18.937610643310546Z" fill-rule="evenodd" fill="#000000" fill-opacity="1"/></g><g><path d="M10.372276640625,20.439104106445313C10.207606640625,20.986134106445313,9.429602640625,21.03967410644531,9.218081640625,20.494974106445312Q9.202370640625,20.454234106445313,9.148544640625,20.18973410644531Q9.058058640625,19.745424106445313,8.970773240625,19.29993910644531Q8.933241340625,19.106732106445314,8.951570450625,18.994708106445312C9.061549640625,18.32750510644531,10.007716640625,18.317028106445314,10.144466640625,18.986560106445314Q10.268996640625,19.598184106445313,10.389156640625,20.210684106445314Q10.409526640625,20.314564106445314,10.372276640625,20.439104106445313Z" fill="#000000" fill-opacity="1"/><path d="M10.468086640625,20.467754106445312Q10.512406640625,20.319554106445313,10.487286640625,20.191444106445314L10.487256640625,20.191264106445313L10.367126640625,19.584654106445313L10.242446640625,18.966549106445314Q10.123516640625,18.384256106445314,9.537110640625,18.389362006445314Q8.949160070625,18.394481206445313,8.852882740625,18.978561106445312Q8.831664640625,19.10824010644531,8.872711240625,19.31953110644531L9.050552640625,20.209684106445312Q9.106050640625,20.482394106445312,9.124862640625,20.531164106445313Q9.308911640625,21.00512410644531,9.818400640625,20.976274106445313Q10.323616640625,20.947674106445312,10.468086640625,20.467754106445312ZM10.291026640625,20.229924106445313L10.291056640625,20.230114106445313Q10.306606640625,20.309694106445313,10.276476640625,20.41045410644531Q10.172476640625,20.755904106445314,9.807094640625,20.776594106445312Q9.442730640625,20.797224106445313,9.311299640625,20.45877410644531Q9.298689640625,20.426074106445313,9.246535640625,20.169794106445313L9.068835640625,19.280348106445313Q9.034817740625,19.105224106445313,9.050258640625,19.010855106445312Q9.119134640625,18.59300910644531,9.538851640625,18.589354106445313Q9.960526640625,18.58568300644531,10.046486640625,19.006571106445314L10.171076640625,19.624204106445312L10.291026640625,20.229924106445313Z" fill-rule="evenodd" fill="#000000" fill-opacity="1"/></g><g transform="matrix(0.9802711606025696,-0.1976369172334671,0.19767777621746063,0.9802711606025696,-3.2720550463293705,4.469100990447714)"><rect x="20.75359344482422" y="18.62373924255371" width="1.2085908651351929" height="2.4052248001098633" rx="0.6042954325675964" fill="#000000" fill-opacity="1"/><rect x="20.75359344482422" y="18.62373924255371" width="1.2085908651351929" height="2.4052248001098633" rx="0.6042954325675964" fill-opacity="0" stroke-opacity="1" stroke="#000000" fill="none" stroke-width="0.20000000298023224"/></g></g></g></svg>