<svg xmlns="http://www.w3.org/2000/svg" xmlns:xlink="http://www.w3.org/1999/xlink" fill="none" version="1.1" width="28" height="28" viewBox="0 0 28 28"><defs><mask id="master_svg0_2325_06744" style="mask-type:alpha" maskUnits="userSpaceOnUse"><g><rect x="0" y="0" width="28" height="28" rx="0" fill="#FFFFFF" fill-opacity="1"/></g></mask></defs><g mask="url(#master_svg0_2325_06744)"><g><g><path d="M13.2777931675,3.625161C13.2801212675,3.0586343,13.9600721875,2.773189,14.3292871875,3.218379C14.4488671875,3.362411,14.4680671875,3.502079,14.4689471875,3.704306Q14.4709771875,4.23184,14.4698171875,4.75967C14.4680671875,5.43211,13.5579781875,5.63259,13.3205637875,5.0049600000000005Q13.2772124775,4.8909,13.2766300085,4.63717Q13.2757563055,4.13087,13.2777931675,3.625161Z" fill="#000000" fill-opacity="1"/><path d="M13.1777931875,3.625046L13.1766300875,4.63705L13.1766302875,4.6373999999999995Q13.1772545875,4.90937,13.2270312875,5.0403400000000005Q13.4352711875,5.59084,14.0047231875,5.46758Q14.5682971875,5.34558,14.5698171875,4.75959L14.568947187500001,3.703875Q14.5674071875,3.348645,14.4062571875,3.154542Q14.0849841875,2.767155,13.6288351875,2.9495221Q13.1798310875,3.129032,13.1777931875,3.625046ZM13.4140951875,4.9695800000000006Q13.3771971875,4.87249,13.3766301875,4.6372800000000005L13.3766301875,4.63711L13.3777931875,3.625276Q13.3792751875,3.264687,13.7030801875,3.13523Q14.0240041875,3.00692594,14.2523151875,3.282216Q14.3677271875,3.421222,14.3689471875,3.7047369999999997L14.3698171875,4.75975Q14.3687171875,5.18415,13.9624101875,5.2721Q13.5613701875,5.35891,13.4140951875,4.9695800000000006Z" fill-rule="evenodd" fill="#000000" fill-opacity="1"/></g><g><path d="M6.4880554625,5.548501661079407C6.2442390625,5.0675216610794065,6.6460410625,4.533001661079407,7.1752800625,4.672669461079407C7.3713810625,4.724462861079407,7.4854290625,4.8629666610794064,7.5802790625,5.055299661079407Q7.7894790625,5.479249661079407,7.9969290625,5.904073661079407Q8.1130090625,6.141793661079407,8.1261090625,6.266913661079407C8.1505490625,6.497073661079407,7.9977990625,6.8311136610794065,7.7254690625,6.867773661079407Q7.6227590625,6.8817436610794065,7.4019310625,6.8529336610794065C7.1714980624999995,6.822673661079406,7.0510440625,6.654783661079406,6.9410650625,6.439173661079407Q6.7144150625,5.993983661079406,6.4880554625,5.548501661079407Z" fill="#000000" fill-opacity="1"/><path d="M6.3989220625,5.593835661079407L6.8519320624999995,6.4845036610794065L6.8519850625,6.484613661079407Q7.0690060625,6.910073661079407,7.3889950625,6.952093661079407Q7.6230390625,6.982623661079407,7.7388090625,6.966883661079407Q7.9788690625,6.934563661079407,8.1231290625,6.690843661079407Q8.2490890625,6.478053661079407,8.2255590625,6.256503661079407Q8.2106290625,6.113803661079407,8.0866890625,5.860003661079407L7.6699690625,5.0110706610794065Q7.4935290625,4.653295711079407,7.2007970624999995,4.575979761079407Q6.7420090625,4.454904661079407,6.4626220625,4.816725661079407Q6.1863560625,5.174504661079407,6.3989220625,5.593835661079407ZM7.0301990625,6.393833661079407L7.0301460625,6.393733661079406L6.5771890625,5.5031666610794066Q6.4218626625,5.196752661079406,6.6209220625,4.938959661079407Q6.8192360625,4.682131961079406,7.1497630625,4.769359661079407Q7.3544290624999995,4.823414661079407,7.4905990625,5.099529661079407L7.9071590625,5.948133661079407Q8.0153990625,6.169793661079407,8.0266490625,6.277323661079407Q8.0432090625,6.433233661079407,7.9510190625,6.5889736610794065Q7.8561290625,6.7492836610794065,7.7121290625,6.768673661079407Q7.6224890625,6.780863661079406,7.4148660625,6.753773661079407Q7.1993950625,6.725483661079407,7.0301990625,6.393833661079407Z" fill-rule="evenodd" fill="#000000" fill-opacity="1"/></g><g><path d="M20.178857625,5.04192036894989C20.496574625,4.39188436894989,21.414810625,4.65696176894989,21.328690625,5.32969336894989Q21.312980625,5.45132036894989,21.201550625,5.67013336894989Q20.985660625,6.09495336894989,20.765990625,6.51657336894989C20.603935625,6.8279233689498895,20.374957625,6.87302336894989,20.048801625,6.87709336894989C19.760179625,6.880583368949891,19.597829025,6.50377336894989,19.621395915,6.27477336894989Q19.633615325,6.15751336894989,19.733412625,5.95296336894989Q19.956279625,5.49758536894989,20.178857625,5.04192036894989Z" fill="#000000" fill-opacity="1"/><path d="M20.089021625,4.997995368949891L19.643576325,5.90903336894989L19.643538525,5.90911336894989Q19.535986825,6.12956336894989,19.521921325,6.26454336894989Q19.498469625,6.49241336894989,19.632366825,6.714713368949891Q19.792278625,6.980203368949891,20.050051625,6.97708336894989Q20.642880625,6.96968336894989,20.854680625,6.562783368949891Q21.074580625,6.14071336894989,21.290660625,5.71551336894989Q21.409940625,5.48128636894989,21.427880625,5.34239136894989Q21.504180625,4.74637766894989,20.931040625,4.59316146894989Q20.361330625,4.44086336894989,20.089021625,4.997995368949891ZM19.823249625,5.99688336894989L19.823287625,5.99680336894989L20.268694625,5.08584536894989Q20.468722625,4.67659473894989,20.879390625,4.78637636894989Q21.283600625,4.89443236894989,21.229500625,5.31699536894989Q21.216020625,5.42135436894989,21.112440625,5.62475136894989Q20.896750625,6.04919336894989,20.677310625,6.47037336894989Q20.520727625,6.7711933689498895,20.047553625,6.77710336894989Q19.904464625,6.77883336894989,19.803689625,6.61152336894989Q19.704257325,6.44644336894989,19.720870625,6.28501336894989Q19.731241625,6.18548336894989,19.823249625,5.99688336894989Z" fill-rule="evenodd" fill="#000000" fill-opacity="1"/></g><g><path d="M17.920659375,13.713242645721436Q17.511289375,11.647322645721434,17.094359375,9.583162645721435C17.012019375,9.175212645721436,16.849959374999997,8.964842645721436,16.412089375,8.964842645721436Q13.882849375,8.964542645721435,11.353619375000001,8.964252645721436C10.978879375,8.964252645721436,10.753969375,9.127782645721435,10.677159375,9.515362645721435Q10.209599375,11.868462645721436,9.746119375,14.222742645721436C9.680949375,14.554152645721436,9.610539375,14.799152645721435,9.285255375,14.893722645721436C8.788602375,15.038342645721436,8.423169175,14.648142645721435,8.522092175,14.151162645721435Q8.972483375,11.888832645721436,9.428984375,9.627672645721436Q9.529949375,9.129242645721435,9.550889375,9.058822645721435C9.735359375,8.440211645721435,10.249759375,7.952539645721435,10.887809375,7.813162545721435Q11.075759375,7.7718442737214355,11.453709374999999,7.7718442737214355Q13.842119375,7.771553459721436,16.230239375,7.7712626457214355Q16.625349375,7.7712626457214355,16.809519375,7.807343145721435C17.544749375000002,7.950793645721435,18.092029375,8.530995645721436,18.239839375000003,9.266872645721435Q18.724559375,11.676712645721436,19.211859375,14.085982645721437C19.280859375,14.427582645721436,19.217759375,14.755512645721435,18.855159375,14.878592645721437Q18.726859375,14.922242645721436,18.425749375000002,14.922242645721436Q14.989629375,14.922242645721436,11.552919375,14.922242645721436Q11.122319375,14.922242645721436,10.963459375,14.569872645721436C10.822349375,14.255912645721436,10.968989375,13.890152645721436,11.290779375,13.768522645721436Q11.395809374999999,13.728952645721435,11.620419375,13.728952645721435Q14.764139375,13.730702645721436,17.908149375,13.728662645721435Q17.923569375,13.728372645721436,17.920659375,13.713242645721436Z" fill="#000000" fill-opacity="1"/><path d="M17.801759375,13.628672645721435L16.996309375,9.602772645721435Q16.887729375,9.064842645721436,16.412089375,9.064842645721436L11.353609375,9.064252645721435Q10.868509375,9.064252645721435,10.775249375,9.534802645721436L9.844219375,14.242142645721437Q9.720489375,14.871332645721434,9.313171375,14.989742645721435Q8.888303375,15.113462645721436,8.609492375,14.833622645721436Q8.338439375,14.561562645721436,8.424016175,14.131632645721435L9.330935375,9.608022645721435Q9.432821375,9.105012645721436,9.455044375,9.030302645721436Q9.776089375,7.953647645721436,10.866469375,7.715466245721435Q11.064899375,7.671844245721435,11.453709374999999,7.671844245721435L16.230229375,7.671262645721436Q16.635059375,7.671262645721436,16.828749375,7.709208645721436Q17.406199375,7.8218736457214355,17.816759375,8.245338645721436Q18.220239375,8.661495645721436,18.337879375,9.247172645721436L19.309959375,14.066202645721436Q19.454159375,14.780832645721436,18.887359375000003,14.973282645721437Q18.743459375,15.022242645721436,18.425749375000002,15.022242645721436L11.552919375,15.022242645721436Q11.057709375,15.022242645721436,10.872289375,14.610972645721436Q10.748629375,14.335832645721435,10.860879375,14.059452645721436Q10.973779375,13.781442645721436,11.255419374999999,13.674982645721435Q11.377599374999999,13.628952645721435,11.620419375,13.628952645721435L17.801759375,13.628672645721435ZM11.620419375,13.828952645721436L17.908159375,13.828662645721437L17.910039375,13.828642645721436Q17.964229375000002,13.827622645721435,17.996649375,13.787662645721436Q18.029109375,13.747652645721436,18.018859374999998,13.694362645721435L17.192419375,9.563542645721435Q17.051399375000003,8.864842645721435,16.412089375,8.864842645721435L11.353629375,8.864252645721436Q10.704249375,8.864252645721436,10.579069375,9.495922645721436L9.648019375,14.203332645721435Q9.547739374999999,14.713272645721435,9.257339375,14.797702645721436Q8.946270375,14.888272645721436,8.751173375,14.692462645721434Q8.555417875,14.495982645721435,8.620168375,14.170682645721435L9.527029375,9.647332645721436Q9.627069375,9.153472645721436,9.646739375,9.087332645721435Q9.934039375,8.123862645721436,10.909149375,7.910858645721436Q11.086629375,7.871844645721436,11.453709374999999,7.871844645721436L16.230249375,7.871262645721435Q16.615649375,7.871262645721435,16.790299375,7.905477645721436Q17.306289375,8.006153645721435,17.673169375,8.384555645721436Q18.035729375000003,8.758509645721436,18.141789375000002,9.286562645721435L19.113859375,14.105752645721434Q19.223359375,14.647992645721436,18.823059375,14.783902645721437Q18.710359375,14.822242645721435,18.425749375000002,14.822242645721435L11.552919375,14.822242645721435Q11.186929375,14.822242645721435,11.054619375,14.528772645721435Q10.966119375,14.331852645721437,11.046179375,14.134702645721436Q11.126209375,13.937632645721436,11.326129375,13.862072645721437Q11.414019375,13.828952645721436,11.620419375,13.828952645721436Z" fill-rule="evenodd" fill="#000000" fill-opacity="1"/></g><g transform="matrix(0.7933220267295837,-0.608802318572998,0.6087205410003662,0.7933847308158875,-1.2253861639562729,16.96477023746212)"><rect x="24.3740234375" y="10.288727760314941" width="2.396921157836914" height="1.189465880393982" rx="0.594732940196991" fill="#000000" fill-opacity="1"/><rect x="24.3740234375" y="10.288727760314941" width="2.396921157836914" height="1.189465880393982" rx="0.594732940196991" fill-opacity="0" stroke-opacity="1" stroke="#000000" fill="none" stroke-width="0.20000000298023224"/></g><g><path d="M1.0920234,10.011466486877442C0.791181,9.549108486877442,1.2811409999999999,8.95581348687744,1.794378,9.143200786877442Q1.883408,9.175789686877442,2.06845,9.316038486877442Q2.4565799999999998,9.60992248687744,2.84354,9.90584348687744C3.47433,10.38769748687744,2.82492,11.341507486877441,2.17087,10.86954748687744Q1.879626,10.65946748687744,1.3954849999999999,10.292547486877442Q1.157196,10.111857486877442,1.0920234,10.011466486877442Z" fill="#000000" fill-opacity="1"/><path d="M1.00814947,10.065920486877442Q1.0828429,10.180967486877442,1.335062,10.372227486877442L1.335084,10.372247486877441Q1.820173,10.739877486877441,2.11235,10.950637486877442Q2.3800600000000003,11.143817486877442,2.6615200000000003,11.083627486877441Q2.91458,11.029517486877442,3.07135,10.802137486877442Q3.22668,10.57684748687744,3.19584,10.31440748687744Q3.1616,10.02296548687744,2.9040999999999997,9.82626348687744L2.12886,9.236342486877442Q1.931862,9.087036986877441,1.828674,9.049265686877442Q1.37578,8.883910486877442,1.0604341,9.270467486877441Q0.743422,9.65906648687744,1.00814947,10.065920486877442ZM2.22938,10.78845748687744Q1.939102,10.579067486877442,1.455908,10.21286748687744L1.455886,10.212847486877441Q1.231548,10.042731486877441,1.175897,9.957013486877441Q0.99068353,9.672362486877441,1.215408,9.396891486877442Q1.440824,9.12057188687744,1.760081,9.237135486877442Q1.834954,9.264542486877442,2.00805,9.39573448687744L2.78299,9.98542348687744Q3.18159,10.289907486877441,2.90669,10.688617486877442Q2.79504,10.850557486877442,2.6197,10.888047486877442Q2.42508,10.929667486877442,2.22938,10.78845748687744Z" fill-rule="evenodd" fill="#000000" fill-opacity="1"/></g><g transform="matrix(0.980955183506012,-0.19421429932117462,0.19425439834594727,0.980955183506012,-1.7162630860143508,3.0702308279063004)"><rect x="14.7998046875" y="10.286112785339355" width="1.1853159666061401" height="2.391256809234619" rx="0.5926579833030701" fill="#000000" fill-opacity="1"/><rect x="14.7998046875" y="10.286112785339355" width="1.1853159666061401" height="2.391256809234619" rx="0.5926579833030701" fill-opacity="0" stroke-opacity="1" stroke="#000000" fill="none" stroke-width="0.20000000298023224"/></g><g><path d="M11.9644815625,22.059825791931154Q11.5417215625,19.94531579193115,11.1166515625,17.826445791931153C11.0468215625,17.478735791931154,10.8262815625,17.303855791931152,10.4570615625,17.302985791931153Q7.9258015625,17.29629579193115,5.3951115625,17.30501579193115C5.0468415625,17.306185791931153,4.7951715625,17.47262579193115,4.7233015625,17.831975791931153Q4.4387515625,19.25978579193115,3.7797515625,22.607725791931152Q3.7279615625,22.87135579193115,3.6627915625,22.980175791931153C3.3843525625,23.446315791931152,2.6272995625,23.320035791931154,2.5522342825,22.763105791931153Q2.5347770625,22.635085791931154,2.5868574625,22.374945791931154Q3.0555785625,20.027955791931152,3.5289545625,17.682125791931153Q3.5918015624999997,17.369905791931153,3.6630815625,17.204925791931153C3.8964215625,16.66545879193115,4.3811515624999995,16.269734791931153,4.9517015625,16.153053791931153Q5.1382015625,16.114936309931153,5.5306915624999995,16.115227567891154Q8.0401415625,16.11551882593115,10.5495915625,16.115227567891154C11.2726015625,16.114936309931153,11.9289815625,16.603771791931152,12.1806515625,17.271555791931153Q12.2385515625,17.425195791931152,12.3217615625,17.835465791931153Q12.7890515625,20.137355791931153,13.2554515625,22.439255791931153C13.3648515625,22.978725791931154,13.0971515625,23.262715791931154,12.5661515625,23.263585791931153Q9.0983315625,23.27027579193115,5.6302015625,23.262415791931154C5.4320615624999995,23.26183579193115,5.2499215625,23.226045791931153,5.123941562500001,23.090745791931152C4.7273815625,22.664765791931153,5.0369515625000005,22.07320579193115,5.5967415625,22.07320579193115Q8.7715915625,22.072625791931152,11.9537115625,22.072915791931152C11.9605915625,22.072855791931154,11.9657515625,22.066585791931153,11.9644815625,22.059825791931154Z" fill="#000000" fill-opacity="1"/><path d="M11.8451015625,21.972925791931154L11.0186015625,17.846085791931152Q10.9298415625,17.40409579193115,10.4568315625,17.40298579193115L5.395151562500001,17.405015791931152Q4.9103415625,17.40663579193115,4.8213615625,17.851585791931154L3.8778615624999997,22.627115791931153Q3.8227215625,22.90775579193115,3.7485815625,23.031555791931154Q3.5024575625,23.443595791931152,3.0131665625,23.35364579193115Q2.5186719625,23.262735791931153,2.4531304625,22.77646579193115Q2.4334225625,22.631935791931152,2.4888033625,22.355315791931154L3.4309105625000003,17.662435791931152Q3.4958375625,17.339885791931152,3.5712815625000003,17.16526579193115Q3.9660715625,16.25254879193115,4.9316615625,16.055081691931154Q5.1281215625000005,16.01492879193115,5.5307715625,16.01522759193115L8.0401415625,16.015373191931154L10.5495815625,16.01522759193115Q11.1182315625,16.014998791931152,11.6002615625,16.361679791931152Q12.0726515625,16.70143379193115,12.2742315625,17.236295791931152Q12.3349615625,17.39743579193115,12.4197715625,17.815585791931152L13.3534515625,22.419375791931152Q13.4441515625,22.866805791931153,13.2266515625,23.118745791931154Q13.0158515625,23.362845791931154,12.5663515625,23.36358579193115L5.6301815625,23.362415791931152Q5.2391915625,23.361275791931153,5.0507615625,23.15888579193115Q4.7102015625,22.79307579193115,4.9117715625,22.378505791931154Q5.1088415625,21.973205791931154,5.5967415625,21.973205791931154L11.8451015625,21.972925791931154ZM5.5967415625,22.173205791931153L11.9537215625,22.172915791931153L11.9546115625,22.172915791931153Q12.0064715625,22.172445791931153,12.0394015625,22.132385791931153Q12.0723215625,22.092335791931152,12.0627615625,22.04138579193115L11.2147015625,17.806805791931154Q11.0937415625,17.204485791931152,10.4573015625,17.20298579193115L5.3950715625,17.205015791931153Q4.7462715625000005,17.207185791931153,4.6252515625,17.812365791931153L3.6816515625,22.588345791931154Q3.6332015625,22.83494579193115,3.5770015625,22.92879579193115Q3.4019945625,23.22177579193115,3.0493295625,23.156935791931154Q2.6975035625,23.09225579193115,2.6513385625,22.749745791931154Q2.6361314625,22.638225791931152,2.6849115625,22.394585791931153L3.6270015625000003,17.701805791931154Q3.6877615625,17.399935791931153,3.7548815625,17.24458579193115Q4.1082615625,16.427611791931152,4.9717415625,16.251025791931152Q5.148281562499999,16.21494379193115,5.5306215625,16.215227791931152L8.040131562500001,16.215372791931152L10.5495915625,16.215227791931152Q11.0538215625,16.215024491931153,11.4834815625,16.524047791931153Q11.9068115625,16.828515791931153,12.0870815625,17.306825791931153Q12.1421415625,17.452935791931154,12.2237615625,17.855345791931153L13.1574515625,22.459135791931153Q13.2286515625,22.81037579193115,13.0752515625,22.988035791931154Q12.9241515625,23.162995791931152,12.5659515625,23.16358579193115L5.6302115624999995,23.162415791931153Q5.3264815625,23.16152579193115,5.1971315625,23.022595791931153Q4.9500415625,22.757185791931153,5.0916415624999996,22.46595579193115Q5.2339815625,22.173215791931153,5.5967415625,22.173205791931153Z" fill-rule="evenodd" fill="#000000" fill-opacity="1"/></g><g><path d="M15.1702495,23.252820643310546C14.7376065,23.334880643310548,14.4062134,22.96971064331055,14.4894248,22.546630643310547Q14.9732755,20.091100643310547,15.4693455,17.63761064331055C15.6209325,16.888058643310547,16.1108925,16.321241643310547,16.8740525,16.155386443310547Q17.0567725,16.11552315931055,17.3963125,16.11552315931055Q19.8135225,16.115231901310548,22.2310325,16.114940643310547Q22.6179925,16.114940643310547,22.8094425,16.156549743310546C23.4963725,16.305238643310545,24.0326025,16.84703264331055,24.1751625,17.543330643310547Q24.663062500000002,19.925830643310547,25.146362500000002,22.309190643310547Q25.2094625,22.620240643310545,25.1920625,22.757880643310546C25.1469625,23.11170064331055,24.8620625,23.261840643310546,24.5271625,23.262430643310548Q21.1094225,23.269120643310547,17.6919125,23.263300643310547C17.5394625,23.263010643310547,17.3672125,23.272320643310547,17.2325025,23.214410643310547C16.7253825,22.995310643310546,16.7547625,22.290860643310545,17.2697425,22.109300643310547Q17.3753625,22.072050643310547,17.5519725,22.072340643310547Q20.7122725,22.07380064331055,23.8693725,22.072630643310546C23.8767325,22.072560643310545,23.8822625,22.065910643310545,23.8810125,22.05867064331055Q23.4617525,19.959000643310546,23.0395825,17.854960643310548C22.9662625,17.489210643310546,22.764342499999998,17.30240064331055,22.366902500000002,17.30211064331055Q18.8196425,17.298910643310546,17.3139725,17.301530643310546Q16.7524425,17.30240064331055,16.6433325,17.847690643310546Q16.1711225,20.204290643310546,15.704722499999999,22.56205064331055C15.6296625,22.940610643310546,15.5592525,23.179210643310547,15.1702495,23.252820643310546Z" fill="#000000" fill-opacity="1"/><path d="M15.8028025,22.581550643310546L15.8028125,22.581500643310548L16.5193925,18.97685064331055L16.7413925,17.867310643310546Q16.8344325,17.402280643310547,17.3139625,17.401530643310547L22.3668325,17.402110643310547Q22.8468825,17.402470643310547,22.9415325,17.874590643310547L23.7618025,21.972630643310545L17.5521325,21.972340643310545Q17.3583225,21.972020643310547,17.2364925,22.014990643310547Q16.7852125,22.174090643310546,16.767902499999998,22.644100643310548Q16.7505625,23.115130643310547,17.193012500000002,23.306290643310547Q17.3302025,23.36526064331055,17.6349725,23.363480643310545Q17.6731925,23.363260643310547,17.6919325,23.363300643310545L24.527362500000002,23.362430643310546Q25.2159625,23.361220643310546,25.291262500000002,22.770460643310546Q25.3107625,22.61649064331055,25.2443625,22.289230643310546L24.2731325,17.523270643310546Q24.1603825,16.972613643310545,23.7676425,16.574369643310547Q23.3755325,16.176765843310548,22.8306825,16.058831043310548Q22.6287425,16.014940643310545,22.2310225,16.014940643310545L17.3963125,16.015523143310546Q17.0459925,16.015523143310546,16.8528225,16.05766764331055Q15.6332425,16.322713643310546,15.3712805,17.618030643310547L14.3913048,22.52733064331055Q14.3183695,22.898160643310547,14.563703,23.157830643310547Q14.8135385,23.422260643310548,15.1888435,23.351080643310546Q15.4983325,23.292510643310546,15.6390225,23.076340643310548Q15.7334625,22.93125064331055,15.8028025,22.581550643310546ZM16.3232825,18.937610643310546L15.6066425,22.54255064331055L15.6066325,22.542600643310546Q15.5447925,22.854480643310545,15.4714015,22.967240643310546Q15.3772685,23.111870643310546,15.1516545,23.154570643310546Q14.8837725,23.205370643310545,14.7090805,23.020470643310546Q14.5344894,22.835680643310546,14.5875455,22.565930643310548L15.5674125,17.657180643310546Q15.8033725,16.490407643310547,16.8952925,16.253105643310548Q17.0675525,16.215523643310547,17.3963125,16.215523643310547L22.2310425,16.21494064331055Q22.6072525,16.21494064331055,22.7882025,16.254268643310546Q23.2749725,16.359631643310546,23.6252425,16.714804643310547Q23.9763425,17.070826643310546,24.077192500000002,17.563390643310548L25.0483625,22.329160643310548Q25.108262500000002,22.624000643310545,25.092862500000003,22.745290643310547Q25.039762500000002,23.16153064331055,24.5270625,23.162430643310547L17.6919025,23.163300643310546Q17.6727825,23.163260643310547,17.6338125,23.163490643310546Q17.3708125,23.165020643310548,17.2719925,23.122540643310547Q16.9554625,22.985780643310548,16.9677725,22.651460643310546Q16.9800625,22.317460643310547,17.303002499999998,22.203610643310547Q17.3924025,22.172080643310547,17.5518025,22.172340643310548L23.8693725,22.172630643310548Q23.9221125,22.172120643310546,23.9552525,22.132350643310545Q23.9883725,22.092600643310547,23.9795425,22.041600643310545L23.979322500000002,22.040320643310547L23.1376425,17.83534064331055Q23.0107925,17.202590643310547,22.3669825,17.202110643310547L17.3139825,17.201530643310548Q16.6704425,17.202530643310546,16.5452725,17.828070643310546L16.3232825,18.937610643310546Z" fill-rule="evenodd" fill="#000000" fill-opacity="1"/></g><g><path d="M10.3720325,20.439104106445313C10.2073625,20.986134106445313,9.4293585,21.03967410644531,9.2178375,20.494974106445312Q9.2021265,20.454234106445313,9.1483005,20.18973410644531Q9.0578145,19.745424106445313,8.9705291,19.29993910644531Q8.9329972,19.106732106445314,8.95132631,18.994708106445312C9.0613055,18.32750510644531,10.0074725,18.317028106445314,10.1442225,18.986560106445314Q10.2687525,19.598184106445313,10.3889125,20.210684106445314Q10.4092825,20.314564106445314,10.3720325,20.439104106445313Z" fill="#000000" fill-opacity="1"/><path d="M10.4678425,20.467754106445312Q10.5121625,20.319554106445313,10.4870425,20.191444106445314L10.4870125,20.191264106445313L10.3668825,19.584654106445313L10.2422025,18.966549106445314Q10.1232725,18.384256106445314,9.5368665,18.389362006445314Q8.94891593,18.394481206445313,8.8526386,18.978561106445312Q8.8314205,19.10824010644531,8.8724671,19.31953110644531L9.0503085,20.209684106445312Q9.1058065,20.482394106445312,9.1246185,20.531164106445313Q9.3086675,21.00512410644531,9.8181565,20.976274106445313Q10.3233725,20.947674106445312,10.4678425,20.467754106445312ZM10.2907825,20.229924106445313L10.2908125,20.230114106445313Q10.3063625,20.309694106445313,10.2762325,20.41045410644531Q10.1722325,20.755904106445314,9.8068505,20.776594106445312Q9.4424865,20.797224106445313,9.3110555,20.45877410644531Q9.2984455,20.426074106445313,9.2462915,20.169794106445313L9.0685915,19.280348106445313Q9.0345736,19.105224106445313,9.0500145,19.010855106445312Q9.1188905,18.59300910644531,9.5386075,18.589354106445313Q9.9602825,18.58568300644531,10.0462425,19.006571106445314L10.1708325,19.624204106445312L10.2907825,20.229924106445313Z" fill-rule="evenodd" fill="#000000" fill-opacity="1"/></g><g transform="matrix(0.9802711606025696,-0.1976369172334671,0.19767777621746063,0.9802711606025696,-3.272048875046295,4.46916281229835)"><rect x="20.75390625" y="18.62373924255371" width="1.2085908651351929" height="2.4052248001098633" rx="0.6042954325675964" fill="#000000" fill-opacity="1"/><rect x="20.75390625" y="18.62373924255371" width="1.2085908651351929" height="2.4052248001098633" rx="0.6042954325675964" fill-opacity="0" stroke-opacity="1" stroke="#000000" fill="none" stroke-width="0.20000000298023224"/></g></g></g></svg>