<svg xmlns="http://www.w3.org/2000/svg" xmlns:xlink="http://www.w3.org/1999/xlink" fill="none" version="1.1" width="28" height="28" viewBox="0 0 28 28"><defs><mask id="master_svg0_2325_06751" style="mask-type:alpha" maskUnits="userSpaceOnUse"><g><rect x="0" y="0" width="28" height="28" rx="0" fill="#FFFFFF" fill-opacity="1"/></g></mask></defs><g style="opacity:0.4000000059604645;" mask="url(#master_svg0_2325_06751)"><g><path d="M16.5,4L22,4C22.5523,4,23,4.447715,23,5L23,12.8125L23.1875,13L25.25,13C25.6642,13,26,13.33579,26,13.75C26,14.1642,25.6642,14.5,25.25,14.5L23,14.5L23,22.5C23,23.0523,22.5523,23.5,22,23.5L16.5,23.5C15.9477,23.5,15.5,23.0523,15.5,22.5L15.5,14.5L12.5,14.5L12.5,19.5C12.5,20.0523,12.0523,20.5,11.5,20.5L6,20.5C5.44772,20.5,5,20.0523,5,19.5L5,14.5L2.75,14.5C2.335786,14.5,2,14.1642,2,13.75C2,13.33579,2.335786,13,2.75,13L5,13L5,8C5,7.44772,5.44772,7,6,7L11.5,7C12.0523,7,12.5,7.44772,12.5,8L12.5,13L15.5,13L15.5,5C15.5,4.447715,15.9477,4,16.5,4M17,6.5L17,13L21.5,13L21.5,6.5C21.5,5.94772,21.0523,5.5,20.5,5.5L18,5.5C17.447699999999998,5.5,17,5.94772,17,6.5M6.5,9.5L6.5,13L11,13L11,9.5C11,8.94772,10.55229,8.5,10,8.5L7.5,8.5C6.94772,8.5,6.5,8.94772,6.5,9.5M6.5,14.5L6.5,18C6.5,18.552300000000002,6.94772,19,7.5,19L10,19C10.55229,19,11,18.552300000000002,11,18L11,14.5L6.5,14.5ZM17,14.5L17,21C17,21.5523,17.447699999999998,22,18,22L20.5,22C21.0523,22,21.5,21.5523,21.5,21L21.5,14.5L17,14.5Z" fill="#000000" fill-opacity="1"/></g></g></svg>