<svg xmlns="http://www.w3.org/2000/svg" xmlns:xlink="http://www.w3.org/1999/xlink" fill="none" version="1.1" width="16.66650390625" height="16.666748046875" viewBox="0 0 16.66650390625 16.666748046875"><g><path d="M8.33333,16.6667Q8.5379,16.6667,8.74223,16.6566Q8.94656,16.6466,9.15014,16.6265Q9.35373,16.6065,9.55609,16.5765Q9.75844,16.5464,9.95909,16.5065Q10.1597,16.4666,10.3582,16.4169Q10.5566,16.3672,10.7524,16.3078Q10.9481,16.2484,11.1407,16.1795Q11.3334,16.1106,11.5224,16.0323Q11.7114,15.954,11.8963,15.8666Q12.0812,15.7791,12.2616,15.6827Q12.4421,15.5862,12.6175,15.4811Q12.793,15.3759,12.9631,15.2622Q13.1332,15.1486,13.2975,15.0267Q13.4618,14.9049,13.6199,14.7751Q13.7781,14.6453,13.9297,14.5079Q14.0812,14.3705,14.2259,14.2259Q14.3705,14.0812,14.5079,13.9297Q14.6453,13.7781,14.7751,13.6199Q14.9049,13.4618,15.0267,13.2975Q15.1486,13.1332,15.2622,12.9631Q15.3759,12.793,15.4811,12.6175Q15.5862,12.4421,15.6827,12.2616Q15.7791,12.0812,15.8666,11.8963Q15.954,11.7114,16.0323,11.5224Q16.1106,11.3334,16.1795,11.1407Q16.2484,10.9481,16.3078,10.7524Q16.3672,10.5566,16.4169,10.3582Q16.4666,10.1597,16.5065,9.95908Q16.5464,9.75844,16.5765,9.55609Q16.6065,9.35373,16.6265,9.15014Q16.6466,8.94656,16.6566,8.74223Q16.6667,8.5379,16.6667,8.33333Q16.6667,8.12876,16.6566,7.92444Q16.6466,7.72011,16.6265,7.51652Q16.6065,7.31294,16.5765,7.11058Q16.5464,6.90822,16.5065,6.70758Q16.4666,6.50694,16.4169,6.3085Q16.3672,6.11006,16.3078,5.91429Q16.2484,5.71853,16.1795,5.52592Q16.1106,5.3333,16.0323,5.1443Q15.954,4.9553,15.8666,4.77037Q15.7791,4.58544,15.6827,4.40503Q15.5862,4.22461,15.4811,4.04914Q15.3759,3.87368,15.2622,3.70358Q15.1486,3.53349,15.0267,3.36917Q14.9049,3.20486,14.7751,3.04672Q14.6453,2.88859,14.5079,2.73701Q14.3705,2.58543,14.2259,2.44078Q14.0812,2.29612,13.9297,2.15874Q13.7781,2.02136,13.6199,1.89158Q13.4618,1.7618,13.2975,1.63994Q13.1332,1.51807,12.9631,1.40442Q12.793,1.29077,12.6175,1.18559Q12.4421,1.08042,12.2616,0.983989Q12.0812,0.887555,11.8963,0.800089Q11.7114,0.712623,11.5224,0.634337Q11.3334,0.556051,11.1407,0.487133Q10.9481,0.418215,10.7524,0.358831Q10.5566,0.299446,10.3582,0.24974Q10.1597,0.200033,9.95908,0.160123Q9.75844,0.120213,9.55609,0.0901957Q9.35373,0.0601788,9.15014,0.0401273Q8.94656,0.0200757,8.74223,0.0100379Q8.5379,0,8.33333,0Q8.12876,0,7.92444,0.0100379Q7.72011,0.0200757,7.51652,0.0401273Q7.31294,0.0601788,7.11058,0.0901957Q6.90822,0.120213,6.70758,0.160123Q6.50694,0.200033,6.3085,0.24974Q6.11006,0.299446,5.91429,0.358831Q5.71853,0.418215,5.52592,0.487133Q5.3333,0.556051,5.1443,0.634337Q4.9553,0.712623,4.77037,0.800089Q4.58544,0.887555,4.40503,0.983989Q4.22461,1.08042,4.04914,1.18559Q3.87368,1.29077,3.70358,1.40442Q3.53349,1.51807,3.36917,1.63994Q3.20486,1.7618,3.04672,1.89158Q2.88859,2.02136,2.73701,2.15874Q2.58543,2.29612,2.44078,2.44078Q2.29612,2.58543,2.15874,2.73701Q2.02136,2.88859,1.89158,3.04672Q1.7618,3.20486,1.63994,3.36917Q1.51807,3.53349,1.40442,3.70358Q1.29077,3.87368,1.18559,4.04914Q1.08042,4.22461,0.983989,4.40503Q0.887555,4.58544,0.800089,4.77037Q0.712623,4.9553,0.634337,5.1443Q0.556051,5.3333,0.487133,5.52592Q0.418215,5.71853,0.358831,5.91429Q0.299446,6.11006,0.24974,6.3085Q0.200033,6.50694,0.160123,6.70758Q0.120213,6.90822,0.0901957,7.11058Q0.0601788,7.31294,0.0401273,7.51652Q0.0200757,7.72011,0.0100379,7.92444Q0,8.12876,0,8.33333Q0,8.5379,0.0100379,8.74223Q0.0200757,8.94656,0.0401273,9.15014Q0.0601788,9.35373,0.0901957,9.55609Q0.120213,9.75844,0.160123,9.95909Q0.200033,10.1597,0.24974,10.3582Q0.299446,10.5566,0.358831,10.7524Q0.418215,10.9481,0.487133,11.1407Q0.556051,11.3334,0.634337,11.5224Q0.712623,11.7114,0.800089,11.8963Q0.887555,12.0812,0.983989,12.2616Q1.08042,12.4421,1.18559,12.6175Q1.29077,12.793,1.40442,12.9631Q1.51807,13.1332,1.63994,13.2975Q1.7618,13.4618,1.89158,13.6199Q2.02136,13.7781,2.15874,13.9297Q2.29612,14.0812,2.44078,14.2259Q2.58543,14.3705,2.73701,14.5079Q2.88859,14.6453,3.04672,14.7751Q3.20486,14.9049,3.36917,15.0267Q3.53349,15.1486,3.70358,15.2622Q3.87368,15.3759,4.04914,15.4811Q4.22461,15.5862,4.40503,15.6827Q4.58544,15.7791,4.77037,15.8666Q4.9553,15.954,5.1443,16.0323Q5.3333,16.1106,5.52592,16.1795Q5.71853,16.2484,5.91429,16.3078Q6.11006,16.3672,6.3085,16.4169Q6.50694,16.4666,6.70758,16.5065Q6.90822,16.5464,7.11058,16.5765Q7.31294,16.6065,7.51652,16.6265Q7.72011,16.6466,7.92444,16.6566Q8.12876,16.6667,8.33333,16.6667ZM14.9998,8.33341Q14.9998,8.49707,14.9918,8.66053Q14.9838,8.82399,14.9677,8.98686Q14.9517,9.14973,14.9277,9.31162Q14.9037,9.4735,14.8717,9.63402Q14.8398,9.79453,14.8,9.95328Q14.7603,10.112,14.7128,10.2686Q14.6653,10.4253,14.6101,10.5793Q14.555,10.7334,14.4924,10.8846Q14.4297,11.0358,14.3598,11.1838Q14.2898,11.3317,14.2126,11.4761Q14.1355,11.6204,14.0514,11.7608Q13.9672,11.9011,13.8763,12.0372Q13.7854,12.1733,13.6879,12.3047Q13.5904,12.4362,13.4866,12.5627Q13.3827,12.6892,13.2728,12.8105Q13.1629,12.9317,13.0472,13.0475Q12.9315,13.1632,12.8102,13.2731Q12.689,13.383,12.5625,13.4868Q12.436,13.5906,12.3045,13.6881Q12.173,13.7856,12.037,13.8765Q11.9009,13.9675,11.7605,14.0516Q11.6201,14.1357,11.4758,14.2129Q11.3315,14.29,11.1835,14.36Q11.0356,14.43,10.8844,14.4926Q10.7332,14.5552,10.5791,14.6104Q10.425,14.6655,10.2684,14.713Q10.1118,14.7605,9.95304,14.8003Q9.79428,14.8401,9.63377,14.872Q9.47326,14.9039,9.31137,14.9279Q9.14949,14.9519,8.98662,14.968Q8.82375,14.984,8.66029,14.9921Q8.49683,15.0001,8.33317,15.0001Q8.16951,15.0001,8.00605,14.9921Q7.84259,14.984,7.67972,14.968Q7.51685,14.9519,7.35497,14.9279Q7.19308,14.9039,7.03257,14.872Q6.87205,14.8401,6.7133,14.8003Q6.55455,14.7605,6.39794,14.713Q6.24133,14.6655,6.08724,14.6104Q5.93315,14.5552,5.78195,14.4926Q5.63075,14.43,5.4828,14.36Q5.33486,14.29,5.19053,14.2129Q5.04619,14.1357,4.90582,14.0516Q4.76544,13.9675,4.62937,13.8765Q4.49329,13.7856,4.36184,13.6881Q4.23039,13.5906,4.10388,13.4868Q3.97737,13.383,3.85611,13.2731Q3.73485,13.1632,3.61912,13.0475Q3.5034,12.9317,3.3935,12.8105Q3.28359,12.6892,3.17977,12.5627Q3.07594,12.4362,2.97845,12.3047Q2.88096,12.1733,2.79004,12.0372Q2.69912,11.9011,2.61498,11.7608Q2.53084,11.6204,2.4537,11.4761Q2.37655,11.3317,2.30657,11.1838Q2.2366,11.0358,2.17397,10.8846Q2.11134,10.7334,2.05621,10.5793Q2.00108,10.4253,1.95357,10.2686Q1.90606,10.112,1.8663,9.95328Q1.82653,9.79453,1.7946,9.63402Q1.76267,9.4735,1.73866,9.31162Q1.71465,9.14973,1.69861,8.98686Q1.68256,8.82399,1.67453,8.66053Q1.6665,8.49707,1.6665,8.33341Q1.6665,8.16976,1.67453,8.0063Q1.68256,7.84284,1.69861,7.67997Q1.71465,7.5171,1.73866,7.35521Q1.76267,7.19332,1.7946,7.03281Q1.82653,6.8723,1.8663,6.71355Q1.90606,6.55479,1.95357,6.39818Q2.00108,6.24157,2.05621,6.08748Q2.11134,5.93339,2.17397,5.78219Q2.2366,5.63099,2.30657,5.48305Q2.37655,5.3351,2.4537,5.19077Q2.53084,5.04644,2.61498,4.90606Q2.69912,4.76569,2.79004,4.62961Q2.88096,4.49354,2.97845,4.36209Q3.07594,4.23063,3.17977,4.10413Q3.28359,3.97762,3.3935,3.85635Q3.5034,3.73509,3.61912,3.61937Q3.73485,3.50365,3.85611,3.39374Q3.97737,3.28383,4.10388,3.18001Q4.23039,3.07619,4.36184,2.9787Q4.49329,2.88121,4.62937,2.79028Q4.76544,2.69936,4.90582,2.61522Q5.04619,2.53109,5.19053,2.45394Q5.33486,2.37679,5.4828,2.30682Q5.63075,2.23685,5.78195,2.17422Q5.93315,2.11159,6.08724,2.05645Q6.24133,2.00132,6.39794,1.95381Q6.55455,1.90631,6.7133,1.86654Q6.87205,1.82677,7.03257,1.79485Q7.19308,1.76292,7.35497,1.7389Q7.51685,1.71489,7.67972,1.69885Q7.84259,1.68281,8.00605,1.67478Q8.16951,1.66675,8.33317,1.66675Q8.49683,1.66675,8.66029,1.67478Q8.82375,1.68281,8.98662,1.69885Q9.14949,1.71489,9.31137,1.7389Q9.47326,1.76292,9.63377,1.79485Q9.79428,1.82677,9.95304,1.86654Q10.1118,1.90631,10.2684,1.95381Q10.425,2.00132,10.5791,2.05645Q10.7332,2.11159,10.8844,2.17422Q11.0356,2.23685,11.1835,2.30682Q11.3315,2.37679,11.4758,2.45394Q11.6201,2.53109,11.7605,2.61522Q11.9009,2.69936,12.037,2.79028Q12.173,2.88121,12.3045,2.9787Q12.4359,3.07619,12.5625,3.18001Q12.689,3.28383,12.8102,3.39374Q12.9315,3.50365,13.0472,3.61937Q13.1629,3.73509,13.2728,3.85635Q13.3827,3.97762,13.4866,4.10413Q13.5904,4.23063,13.6879,4.36209Q13.7854,4.49354,13.8763,4.62961Q13.9672,4.76569,14.0514,4.90606Q14.1355,5.04644,14.2126,5.19077Q14.2898,5.3351,14.3598,5.48305Q14.4297,5.63099,14.4924,5.78219Q14.555,5.93339,14.6101,6.08748Q14.6653,6.24157,14.7128,6.39818Q14.7603,6.55479,14.8,6.71355Q14.8398,6.8723,14.8717,7.03281Q14.9037,7.19332,14.9277,7.35521Q14.9517,7.5171,14.9677,7.67997Q14.9838,7.84284,14.9918,8.0063Q14.9998,8.16976,14.9998,8.33341ZM9.16682,9.99999L9.16682,9.46249C10.5365,9.05424,11.4088,7.71384,11.2274,6.29617C11.0459,4.87849,9.86417,3.80098,8.43581,3.75084C7.00745,3.7007,5.75306,4.69269,5.47266,6.09416L7.10766,6.42166C7.23671,5.77597,7.84453,5.34111,8.49731,5.42745C9.15008,5.51378,9.62395,6.09171,9.58071,6.74874C9.53747,7.40578,8.99195,7.91662,8.33349,7.91666C7.87325,7.91666,7.50016,8.28975,7.50016,8.74999L7.50016,9.99999L9.16682,9.99999ZM9.16667,12.4999L9.16667,10.8333L7.5,10.8333L7.5,12.4999L9.16667,12.4999Z" fill-rule="evenodd" fill="#0E043E" fill-opacity="1"/></g></svg>