<svg xmlns="http://www.w3.org/2000/svg" xmlns:xlink="http://www.w3.org/1999/xlink" fill="none" version="1.1" width="16" height="16" viewBox="0 0 16 16"><defs><mask id="master_svg0_2255_03632" style="mask-type:alpha" maskUnits="userSpaceOnUse"><g><rect x="0" y="0" width="16" height="16" rx="0" fill="#FFFFFF" fill-opacity="1"/></g></mask></defs><g transform="matrix(1,-5.400848479553133e-8,5.400848479553133e-8,1,0,0)" mask="url(#master_svg0_2255_03632)"><g><path d="M12,6L8,10L4,6L12,6Z" fill="#D8D8D8" fill-opacity="1"/><path d="M12,6L8,10L4,6L12,6Z" fill="#EF5A4F" fill-opacity="1"/><path d="M12,5.25L4,5.25Q3.850816,5.25,3.712987,5.30709Q3.575159,5.364181,3.46967,5.46967Q3.417437,5.521903,3.376398,5.583322Q3.335359,5.644742,3.30709,5.712987Q3.278822,5.781233,3.264411,5.853682Q3.25,5.9261315,3.25,6Q3.25,6.0738685,3.264411,6.146318Q3.278822,6.218767,3.30709,6.287013Q3.335359,6.355258,3.376398,6.416678Q3.417437,6.478097,3.46967,6.53033L7.46967,10.53033Q7.5219000000000005,10.58256,7.5833200000000005,10.6236Q7.6447400000000005,10.66464,7.71299,10.692910000000001Q7.78123,10.72118,7.853680000000001,10.73559Q7.926130000000001,10.75,8,10.75Q8.07387,10.75,8.14632,10.73559Q8.21877,10.72118,8.28701,10.692910000000001Q8.355260000000001,10.66464,8.41668,10.6236Q8.478100000000001,10.58256,8.53033,10.53033L12.53033,6.53033Q12.63582,6.424841,12.69291,6.287013Q12.75,6.149184,12.75,6Q12.75,5.9261315,12.73559,5.853682Q12.72118,5.781233,12.69291,5.712987Q12.66464,5.644742,12.6236,5.583322Q12.58256,5.521903,12.53033,5.46967Q12.4781,5.417437,12.41668,5.376398Q12.35526,5.335359,12.28701,5.30709Q12.21877,5.278822,12.14632,5.264411Q12.07387,5.25,12,5.25ZM5.81066,6.75L8,8.93934L10.18934,6.75L5.81066,6.75Z" fill-rule="evenodd" fill="#EF5A4F" fill-opacity="1"/></g></g></svg>