<svg xmlns="http://www.w3.org/2000/svg" xmlns:xlink="http://www.w3.org/1999/xlink" fill="none" version="1.1" width="24" height="24" viewBox="0 0 24 24"><defs><mask id="master_svg0_7_1115"><g><rect x="0" y="0" width="24" height="24" rx="0" fill="#FFFFFF" fill-opacity="1"/></g></mask></defs><g mask="url(#master_svg0_7_1115)"><g><g><path d="M10.81007,20.5307Q11.33876,20.1385,12,20.1385Q12.6612,20.1385,13.1899,20.5307Q13.7099,20.9166,13.9056,21.5286Q13.9352,21.6212,13.9821,21.7064Q14.029,21.7915,14.0914,21.8661Q14.1538,21.9406,14.2294,22.0017Q14.305,22.0629,14.391,22.1083Q14.477,22.1537,14.5701,22.1817Q14.6632,22.2097,14.7599,22.2192Q14.8567,22.2288,14.9535,22.2195Q15.0503,22.2102,15.1434,22.1825Q17.9127,21.358,19.9266,19.2653Q19.9903,19.1991,20.041,19.1223Q20.0916,19.0456,20.1273,18.9608Q20.1631,18.8761,20.1828,18.7863Q20.2025,18.6965,20.2055,18.6046Q20.2085,18.5127,20.1947,18.4218Q20.1809,18.3309,20.1508,18.244Q20.1206,18.1572,20.0751,18.0773Q20.0296,17.9973,19.9704,17.9271Q19.5,17.3696,19.5,16.6385Q19.5,15.8101,20.0858,15.2243Q20.6716,14.6385,21.5,14.6385Q21.5999,14.6385,21.6992,14.6482Q21.7907,14.6572,21.8823,14.6494Q21.9739,14.6415,22.0626,14.6171Q22.1512,14.5927,22.2339,14.5525Q22.3166,14.5124,22.3906,14.4578Q22.4646,14.4032,22.5274,14.336Q22.5902,14.2689,22.6397,14.1914Q22.6892,14.1139,22.7238,14.0287Q22.7583,13.9435,22.7767,13.8534Q23,12.7617,23,11.63848Q23,9.94265,22.4961,8.338519999999999Q22.4722,8.26241,22.4366,8.19107Q22.4009,8.119720000000001,22.3544,8.05492Q22.3079,7.99013,22.2517,7.93353Q22.1954,7.87693,22.131,7.82996Q22.0665,7.78299,21.9954,7.74683Q21.9243,7.71067,21.8484,7.68624Q21.7724,7.66181,21.6936,7.64972Q21.6148,7.63764,21.535,7.63821L21.5,7.63848Q20.6716,7.63848,20.0858,7.05269Q19.5,6.4669,19.5,5.6384799999999995Q19.5,5.17073,19.7046,4.75567Q19.7401,4.68377,19.7636,4.60715Q19.7871,4.530530000000001,19.7982,4.45113Q19.8092,4.37174,19.8075,4.2916Q19.8057,4.211460000000001,19.7912,4.13263Q19.7767,4.0538,19.7498,3.97828Q19.723,3.90276,19.6844,3.8324800000000003Q19.6459,3.76221,19.5966,3.69897Q19.5473,3.63574,19.4886,3.58115Q17.519399999999997,1.750055,14.9407,1.036244Q14.8581,1.013359,14.7727,1.004888Q14.6873,0.9964200000000001,14.6018,1.002607Q14.5162,1.008796,14.433,1.029466Q14.3497,1.050135,14.2712,1.084681Q14.1927,1.119226,14.1212,1.166639Q14.0497,1.214051,13.9874,1.2729439999999999Q13.925,1.3318379999999999,13.8736,1.4004919999999998Q13.8222,1.469147,13.7832,1.545556Q13.5306,2.0406783,13.0582,2.336078Q12.5746,2.638495,12,2.638495Q11.4254,2.638495,10.9418,2.336078Q10.46942,2.0406784,10.21683,1.545556Q10.17784,1.469147,10.12642,1.4004919999999998Q10.075,1.3318379999999999,10.01263,1.2729439999999999Q9.95026,1.214051,9.878779999999999,1.1666379999999998Q9.80729,1.119226,9.72878,1.084681Q9.650269999999999,1.050135,9.56701,1.029466Q9.48376,1.008796,9.398209999999999,1.002607Q9.31265,0.9964200000000001,9.22729,1.004888Q9.14193,1.013359,9.05927,1.036244Q6.48063,1.750054,4.51135,3.58115Q4.45265,3.6357299999999997,4.40339,3.69897Q4.35414,3.76221,4.315580000000001,3.8324800000000003Q4.27703,3.90276,4.25016,3.97828Q4.22329,4.0538,4.2087900000000005,4.13263Q4.1942900000000005,4.21147,4.19254,4.2916Q4.19079,4.37174,4.20182,4.45113Q4.2128499999999995,4.530530000000001,4.23639,4.60715Q4.259930000000001,4.68377,4.29538,4.75567Q4.5,5.17073,4.5,5.6384799999999995Q4.5,6.46691,3.9142099999999997,7.05269Q3.32843,7.63848,2.5071120000000002,7.6385L2.465007,7.63821Q2.385243,7.63764,2.306398,7.64972Q2.227553,7.66181,2.15162,7.68624Q2.0756878,7.71067,2.00458824,7.74683Q1.9334886,7.78298,1.86902,7.82996Q1.804551,7.87693,1.748344,7.93353Q1.692137,7.99012,1.645612,8.05492Q1.599088,8.119710000000001,1.563423,8.19106Q1.527757,8.26241,1.503854,8.33851Q1,9.94257,1,11.63848Q1,12.7618,1.223278,13.8534Q1.241702,13.9435,1.276243,14.0287Q1.310784,14.1139,1.360284,14.1914Q1.4097840000000001,14.2689,1.472583,14.336Q1.535381,14.4032,1.609373,14.4578Q1.683365,14.5124,1.7660689999999999,14.5525Q1.848773,14.5927,1.9374158,14.6171Q2.0260586,14.6415,2.117668,14.6494Q2.209277,14.6572,2.300781,14.6482Q2.400102,14.6385,2.5,14.6385Q3.32843,14.6385,3.9142099999999997,15.2243Q4.5,15.8101,4.5,16.6385Q4.5,17.3696,4.0296400000000006,17.9271Q3.97035,17.9973,3.92486,18.0772Q3.8793800000000003,18.1572,3.84922,18.244Q3.81907,18.3309,3.80527,18.4218Q3.79146,18.5127,3.79447,18.6046Q3.7974699999999997,18.6965,3.81719,18.7863Q3.8369,18.8761,3.8726599999999998,18.9608Q3.90842,19.0456,3.9590300000000003,19.1223Q4.00964,19.1991,4.0733999999999995,19.2653Q6.08734,21.358,8.85655,22.1825Q8.94974,22.2102,9.046520000000001,22.2195Q9.14331,22.2288,9.24006,22.2192Q9.33682,22.2097,9.429929999999999,22.1817Q9.52303,22.1537,9.609,22.1083Q9.69497,22.0629,9.770579999999999,22.0017Q9.84619,21.9406,9.90861,21.8661Q9.971029999999999,21.7915,10.01792,21.7064Q10.06481,21.6212,10.09441,21.5286Q10.29005,20.9166,10.81007,20.5307ZM14.3816,18.9246Q13.3222,18.1385,12,18.1385Q10.67783,18.1385,9.61835,18.9246Q9.00927,19.3765,8.622779999999999,19.9856Q7.22448,19.4246,6.0861,18.4251Q6.5,17.607799999999997,6.5,16.6385Q6.5,14.9816,5.32843,13.8101Q4.35952,12.8411,3.0587,12.6735Q3,12.1604,3,11.63848Q3,10.5847,3.23703,9.57566Q4.42812,9.36722,5.32843,8.46691Q6.5,7.29533,6.5,5.6384799999999995Q6.5,5.11114,6.36904,4.61592Q7.52289,3.68464,8.90914,3.1818Q9.31658,3.67861,9.88138,4.03181Q10.85153,4.63849,12,4.63849Q13.1485,4.63849,14.1186,4.03181Q14.6834,3.67861,15.0909,3.1818Q16.4771,3.68464,17.631,4.61592Q17.5,5.11114,17.5,5.6384799999999995Q17.5,7.29533,18.6716,8.46691Q19.5735,9.368870000000001,20.7631,9.57644Q21,10.58515,21,11.63848Q21,12.1604,20.9413,12.6735Q19.6405,12.8411,18.6716,13.8101Q17.5,14.9816,17.5,16.6385Q17.5,17.607799999999997,17.913899999999998,18.4251Q16.7755,19.4246,15.3772,19.9856Q14.9907,19.3765,14.3816,18.9246Z" fill-rule="evenodd" fill="#0E043E" fill-opacity="1"/></g><g><path d="M8.818018,8.456445734375Q7.5,9.774467734375,7.5,11.638427734375Q7.5,13.502387734374999,8.818018,14.820407734375Q10.13604,16.138427734375,12,16.138427734375Q13.863959999999999,16.138427734375,15.18198,14.820407734375Q16.5,13.502387734374999,16.5,11.638427734375Q16.5,9.774467734375,15.18198,8.456445734375Q13.863959999999999,7.138427734375,12,7.138427734375Q10.13604,7.138427734375,8.818018,8.456445734375ZM10.23223,13.406197734374999Q9.5,12.673967734375001,9.5,11.638427734375Q9.5,10.602887734374999,10.23223,9.870657734375Q10.964459999999999,9.138427734375,12,9.138427734375Q13.035540000000001,9.138427734375,13.767769999999999,9.870657734375Q14.5,10.602887734374999,14.5,11.638427734375Q14.5,12.673967734375001,13.767769999999999,13.406197734374999Q13.035540000000001,14.138427734375,12,14.138427734375Q10.964459999999999,14.138427734375,10.23223,13.406197734374999Z" fill-rule="evenodd" fill="#0E043E" fill-opacity="1"/></g></g></g></svg>