<svg xmlns="http://www.w3.org/2000/svg" xmlns:xlink="http://www.w3.org/1999/xlink" fill="none" version="1.1" width="16" height="16" viewBox="0 0 16 16"><g><g><path d="M7.45241,0.570175C7.38552,0.194452,7.02617,-0.055998,6.64979,0.0107772L6.65027,0.0107805C2.82566,0.688778,0.000461185,4.02122,0,7.94321C0,12.3926,3.61328,16,8.07001,16C11.9338,16,15.2343,13.2696,15.9831,9.53227C15.9855,9.52192,15.9876,9.51151,15.9894,9.50106C16.0557,9.12527,15.8042,8.76699,15.4278,8.70082C15.0513,8.63465,14.6924,8.88565,14.6261,9.26144C14.0056,12.3557,11.2708,14.6182,8.07046,14.6182C4.37782,14.6182,1.38467,11.6294,1.38467,7.9432C1.38467,4.69461,3.72539,1.93332,6.89203,1.37139C7.26841,1.30461,7.5193,0.945896,7.45241,0.570175ZM10.5807,2.09952C10.1988,2.11453,9.87691,1.81758,9.86187,1.43626C9.84684,1.05494,10.1443,0.733655,10.5263,0.718647L14.8381,0.549607C15.2201,0.534732,15.5418,0.831764,15.5567,1.21305C15.5576,1.23525,15.5574,1.25748,15.5561,1.27966L15.2986,5.74286C15.2742,6.12366,14.9452,6.41258,14.5637,6.38819C14.1858,6.36403,13.8975,6.04117,13.9167,5.66364L14.0718,2.9752L9.69114,7.35277C9.42572,7.62735,8.98757,7.63516,8.7125,7.3702C8.43744,7.10525,8.42962,6.66787,8.69504,6.39328C8.7006,6.38752,8.70627,6.38186,8.71203,6.3763L13.0898,2.0012L10.5807,2.09952Z" fill-rule="evenodd" fill="#0E043E" fill-opacity="1"/></g></g></svg>