<svg xmlns="http://www.w3.org/2000/svg" xmlns:xlink="http://www.w3.org/1999/xlink" fill="none" version="1.1" width="28" height="28" viewBox="0 0 28 28"><defs><mask id="master_svg0_854_80962" style="mask-type:alpha" maskUnits="userSpaceOnUse"><g><rect x="0" y="0" width="28" height="28" rx="0" fill="#FFFFFF" fill-opacity="1"/></g></mask></defs><g mask="url(#master_svg0_854_80962)"><g><g><path d="M10.439785748691559,5.61787Q10.145365748691558,5.3211200000000005,9.849045748691559,5.02649Q9.694955748691559,4.8731480000000005,9.649455748691558,4.784526C9.41874574869156,4.336342,9.90026574869156,3.83655,10.355335748691559,4.0514418Q10.440845748691558,4.0918398,10.584775748691559,4.2346070000000005Q11.33256574869156,4.974883,12.076555748691558,5.71854Q12.19550574869156,5.83741,12.23847574869156,5.92074C12.370545748691558,6.176880000000001,12.286945748691558,6.4051,12.094965748691559,6.5967199999999995Q11.31119574869156,7.37866,10.528045748691559,8.16124C10.005255748691559,8.68345,9.23734574869156,7.92012,9.763745748691559,7.3922Q10.098595748691558,7.05633,10.435345748691558,6.72214Q10.445715748691558,6.71178,10.430895748691558,6.71178C10.13711574869156,6.71072,9.814335748691558,6.69888,9.54319574869156,6.72637C8.00781574869156,6.88162,6.806435748691559,8.069659999999999,6.629905748691559,9.60055Q6.611495748691559,9.76024,6.611285748691559,10.02272C6.611285748691559,10.640740000000001,6.612975748691559,11.25834,6.604935748691559,11.87637C6.5971057486915585,12.46626,5.738398748691559,12.58915,5.5551015486915585,12.01787Q5.526315748691559,11.92755,5.526315748691559,11.75475Q5.526527292691559,10.84315,5.5267388356915585,9.931560000000001C5.527585658691559,7.71221,7.240755748691559,5.87485,9.432285748691559,5.64917C9.74850574869156,5.6166,10.10324574869156,5.6256900000000005,10.435765748691558,5.62781Q10.449945748691558,5.62781,10.439785748691559,5.61787Z" fill="#000000" fill-opacity="1"/><path d="M10.207485748691559,5.52601Q9.993315748691558,5.31095,9.77853574869156,5.0974Q9.613215748691559,4.932884,9.560495748691558,4.830205Q9.354775748691559,4.430575,9.673195748691558,4.0999605Q9.991785748691559,3.769178,10.398035748691559,3.9610165999999998Q10.49908574869156,4.00875455,10.655195748691558,4.163611L12.14707574869156,5.6476500000000005Q12.27723574869156,5.77771,12.32735574869156,5.8749199999999995Q12.542215748691559,6.291589999999999,12.16561574869156,6.6675L10.59870574869156,8.232009999999999Q10.382285748691558,8.44819,10.10940574869156,8.43552Q9.864635748691558,8.424150000000001,9.681735748691558,8.24123Q9.498595748691558,8.05807,9.487675748691558,7.81297Q9.475495748691559,7.53966,9.692935748691559,7.3215900000000005L10.205925748691559,6.80978Q9.75387574869156,6.80552,9.55328574869156,6.8258600000000005Q8.437375748691558,6.9387,7.647235748691559,7.71876Q6.857675748691559,8.498249999999999,6.729255748691559,9.612Q6.711495748691559,9.766020000000001,6.711285748691559,10.0228Q6.711285748691559,10.11435,6.711355748691559,10.29734Q6.711785748691559,11.350480000000001,6.704925748691559,11.87767Q6.697895748691559,12.40703,6.159539748691559,12.48161Q5.622733448691559,12.55597,5.459882748691559,12.04842Q5.426315748691559,11.943100000000001,5.426315748691559,11.75475L5.426738848691559,9.93153Q5.427386148691559,8.235240000000001,6.584345748691559,6.97511Q7.733405748691559,5.72359,9.42204574869156,5.54969Q9.67850574869156,5.52328,10.207485748691559,5.52601ZM10.293155748691559,5.72663Q10.388115748691558,5.7275100000000005,10.435125748691558,5.7278L10.435765748691558,5.72781Q10.510275748691559,5.72781,10.536565748691558,5.66282Q10.56269574869156,5.5982199999999995,10.509725748691558,5.54639Q10.21623574869156,5.25057,9.919555748691558,4.955578Q9.776695748691559,4.813413,9.738405748691559,4.738848Q9.59808574869156,4.466257,9.817255748691558,4.238701Q10.036225748691558,4.011342,10.312635748691559,4.141867Q10.38260574869156,4.174924,10.514355748691559,4.305604L12.00602574869156,5.78944Q12.113775748691559,5.89711,12.14959574869156,5.96657Q12.297455748691558,6.25331,12.02432574869156,6.52595L10.457395748691559,8.09048Q10.135415748691559,8.412099999999999,9.823165748691558,8.09981Q9.510845748691558,7.787459999999999,9.834555748691558,7.46281L10.505975748691558,6.79294Q10.55913574869156,6.73981,10.53132574869156,6.67495Q10.504225748691558,6.6117799999999995,10.430895748691558,6.6117799999999995Q10.369175748691559,6.61156,10.241525748691558,6.61013Q9.752195748691559,6.6046700000000005,9.533105748691558,6.6268899999999995Q8.34706574869156,6.74681,7.506725748691559,7.57643Q6.667055748691559,8.4054,6.530565748691559,9.589089999999999Q6.511500748691558,9.75445,6.511284748691558,10.022639999999999Q6.511284748691558,10.11416,6.511358748691559,10.297419999999999Q6.511785748691559,11.34929,6.504942748691559,11.875060000000001Q6.500196748691559,12.23251,6.132095748691559,12.2835Q5.761810748691559,12.33479,5.650320748691559,11.98731Q5.6263157486915585,11.911999999999999,5.6263157486915585,11.75475L5.626738748691559,9.93158Q5.627356748691559,8.31315,6.731665748691559,7.11037Q7.829395748691558,5.91476,9.442535748691558,5.74864Q9.70863574869156,5.72123,10.293155748691559,5.72663Z" fill-rule="evenodd" fill="#000000" fill-opacity="1"/></g><g><path d="M12.021926375,10.300166347160339C11.745671375,10.67325634716034,11.132801675,10.54291634716034,11.057248535,10.061626347160338Q11.041631575,9.961866347160338,11.080040875,9.78639634716034C11.955236375,5.786337347160339,16.504904375,3.8080263471603395,20.022574374999998,5.98163734716034C23.072334375,7.866086347160339,23.765834375,12.07452634716034,21.462534375,14.81736634716034Q20.138644375,16.39372634716034,18.108194375,16.839326347160338Q17.964474375,16.87072634716034,17.872464375,16.85832634716034C17.494694375,16.80682634716034,17.285554375,16.40402634716034,17.463884375,16.066826347160337C17.555684375,15.893026347160339,17.703414375,15.824226347160339,17.903904375,15.77992634716034Q19.272104374999998,15.47852634716034,20.272654375000002,14.51555634716034C22.016534375,12.83716634716034,22.250134375000002,10.07322634716034,20.790134375,8.12676634716034C19.391344375,6.261936347160339,16.882674375,5.6403893471603395,14.782794375,6.648736347160339C13.455544375,7.286096347160339,12.475664375000001,8.51040634716034,12.150664375,9.94415634716034C12.119854375,10.080396347160338,12.101064375,10.19302634716034,12.021926375,10.300166347160339Z" fill="#000000" fill-opacity="1"/><path d="M12.248184375,9.966266347160339L12.248204375,9.96621634716034Q12.486744375,8.913946347160339,13.169004375,8.06022634716034Q13.850634375,7.207296347160339,14.826084375,6.738876347160339Q16.367574375,5.9986653471603395,18.025434375,6.40739634716034Q19.681764375,6.815756347160339,20.710134375000003,8.18677634716034Q21.780834374999998,9.614206347160339,21.633134374999997,11.41350634716034Q21.485834375,13.209136347160339,20.203314374999998,14.443506347160339Q19.223054375,15.38702634716034,17.882334375,15.68232634716034Q17.510504375,15.76442634716034,17.375484375,16.02002634716034Q17.217384375,16.31902634716034,17.370814375000002,16.615626347160337Q17.523964375,16.91172634716034,17.859064375,16.95742634716034Q17.968584375,16.972226347160337,18.129634375000002,16.93702634716034Q20.193324375,16.484026347160338,21.539134375,14.88167634716034Q22.398834375,13.857826347160339,22.734834375,12.56989634716034Q23.057034375,11.33524634716034,22.848634375,10.061466347160339Q22.640434374999998,8.78849634716034,21.941834375,7.71689634716034Q21.213834374999998,6.6001863471603395,20.075134374999998,5.89656634716034Q18.768664375,5.089279887160339,17.270514375,4.9968217471603396Q15.846284375,4.90892534716034,14.520984375,5.47697934716034Q13.198804375,6.043694347160339,12.275544374999999,7.134096347160339Q11.307959375,8.276836347160339,10.982353675,9.76501634716034Q10.939934375,9.95880634716034,10.958458275,10.077136347160339Q11.025038975,10.501266347160339,11.441555375,10.59866634716034Q11.853934375,10.695096347160339,12.102364375,10.359576347160338Q12.186244375,10.246016347160339,12.239394375,10.00574634716034Q12.245184375000001,9.97955634716034,12.248184375,9.966266347160339ZM13.012764375,7.93536634716034Q12.301824375,8.824976347160339,12.053134374999999,9.92204634716034L12.053124375,9.92209634716034Q12.050005375,9.93589634716034,12.044109375,9.96254634716034Q12.000138375,10.16135634716034,11.941490375,10.24074634716034Q11.771442375,10.470406347160338,11.487093375,10.40391634716034Q11.201731375,10.33718634716034,11.156038375,10.04611634716034Q11.143328875,9.96493634716034,11.177728375,9.807776347160338Q11.492713375,8.368146347160339,12.428184375,7.263336347160339Q13.320964374999999,6.208936347160339,14.599774374999999,5.660804347160339Q15.881394375,5.111472447160339,17.258204375,5.196442347160339Q18.706234375,5.28580734716034,19.970004375000002,6.066705347160339Q22.220034374999997,7.456976347160339,22.651234375,10.093746347160339Q23.082834374999997,12.73234634716034,21.385934374999998,14.753056347160339Q20.083954374999998,16.30332634716034,18.086764375,16.74162634716034Q17.960374375,16.769326347160337,17.885864375,16.75922634716034Q17.653884375,16.72762634716034,17.548464375000002,16.52372634716034Q17.443084374999998,16.32002634716034,17.552284375,16.113526347160338Q17.644084375,15.93972634716034,17.925484375,15.877626347160339Q19.321124375,15.57012634716034,20.342004375000002,14.587606347160339Q21.678934375,13.300826347160339,21.832534375,11.429866347160338Q21.986334375,9.55491634716034,20.870134375,8.066766347160339Q19.798934375,6.638656347160339,18.073304375,6.21321634716034Q16.345734375,5.787291347160339,14.739504375,6.55858634716034Q13.722904375,7.046776347160339,13.012764375,7.93536634716034Z" fill-rule="evenodd" fill="#000000" fill-opacity="1"/></g><g><path d="M16.875,16.97697401046753C16.875,20.25616401046753,14.21669,22.91447401046753,10.9375,22.91447401046753C7.65831,22.91447401046753,5.000000321787,20.25616401046753,5,16.97697401046753C5,13.69778401046753,7.65831,11.039474654041529,10.9375,11.03947401046753C14.21669,11.039474654041529,16.875,13.69778401046753,16.875,16.97697401046753ZM15.7955,16.97697401046753C15.7955,14.29387401046753,13.62039,12.118794010467528,10.93729,12.118794010467528C8.25419,12.118794010467528,6.0791,14.29387401046753,6.0791,16.97697401046753C6.0791,19.66007401046753,8.25419,21.83517401046753,10.93729,21.83517401046753C13.62039,21.83517401046753,15.7955,19.66007401046753,15.7955,16.97697401046753Z" fill="#000000" fill-opacity="1"/><path d="M15.2067,12.70781401046753Q13.43831,10.93947461046753,10.9375,10.93947401046753Q8.436679999999999,10.93947551046753,6.66834,12.70781401046753Q4.9,14.47616401046753,4.9000005,16.97697401046753Q4.899998,19.47778401046753,6.66834,21.246174010467527Q8.436679999999999,23.01447401046753,10.9375,23.01447401046753Q13.43834,23.01447401046753,15.2067,21.246174010467527Q16.975,19.47776401046753,16.975,16.97697401046753Q16.975,14.476144010467529,15.2067,12.70781401046753ZM6.80976,12.84923401046753Q8.51953,11.13947251046753,10.9375,11.13947301046753Q13.35545,11.13947501046753,15.0652,12.84923401046753Q16.775,14.55899401046753,16.775,16.97697401046753Q16.775,19.39491401046753,15.0652,21.10467401046753Q13.3555,22.814474010467528,10.9375,22.814474010467528Q8.51952,22.814474010467528,6.80976,21.10467401046753Q5.0999985,19.39494401046753,5.1,16.97697401046753Q5.1,14.559004010467529,6.80976,12.84923401046753ZM7.4313199999999995,20.482944010467527Q8.88353,21.935174010467527,10.93729,21.935174010467527Q12.99104,21.935174010467527,14.44325,20.482944010467527Q15.8955,19.03073401046753,15.8955,16.97697401046753Q15.8955,14.923214010467529,14.44325,13.47100401046753Q12.99103,12.01879101046753,10.93729,12.01879101046753Q8.88354,12.018789010467529,7.4313199999999995,13.47100401046753Q5.979103,14.923224010467528,5.979106,16.97697401046753Q5.979105,19.03070401046753,7.4313199999999995,20.482944010467527ZM14.30183,20.341514010467527Q12.9082,21.73517401046753,10.93729,21.73517401046753Q8.966380000000001,21.73517401046753,7.57274,20.341514010467527Q6.17911,18.94786401046753,6.17911,16.97697401046753Q6.17911,15.00606401046753,7.57274,13.61243401046753Q8.966380000000001,12.21879401046753,10.93729,12.21879401046753Q12.908190000000001,12.21879401046753,14.30183,13.61243401046753Q15.6955,15.00606401046753,15.6955,16.97697401046753Q15.6955,18.94787401046753,14.30183,20.341514010467527Z" fill-rule="evenodd" fill="#000000" fill-opacity="1"/></g><g><path d="M17.203054735412596,23.726882155456543C16.720034735412597,23.24467215545654,16.240616735412598,22.758452155456542,15.752940735412597,22.281532155456542Q15.637159735412597,22.168172155456542,15.593980635412597,22.08674215545654C15.456822135412597,21.828722155456543,15.540430035412598,21.597562155456544,15.734738735412598,21.403412155456543Q16.517898735412597,20.62173215545654,17.300424735412598,19.839412155456543Q17.495154735412598,19.644622155456542,17.756984735412598,19.671912155456543C18.127394735412597,19.710402155456542,18.349644735412596,20.118792155456543,18.180954735412598,20.446192155456544Q18.130784735412597,20.543262155456542,17.9125547354126,20.761522155456543Q17.6513647354126,21.02272215545654,17.389324735412597,21.28370215545654Q17.381274735412596,21.291532155456544,17.392494735412598,21.291312155456545C17.6731647354126,21.287302155456544,17.990454735412598,21.300832155456543,18.2380947354126,21.279052155456544C19.7946847354126,21.141372155456544,21.024244735412598,19.948752155456543,21.199504735412596,18.395542155456543Q21.217284735412598,18.23735215545654,21.217494735412597,17.972982155456542Q21.218134735412598,17.109242155456542,21.218344735412597,16.245502155456542Q21.218344735412597,16.172960155456543,21.224904735412597,16.101051155456542C21.2782447354126,15.511407155456544,22.1134747354126,15.429347155456544,22.280054735412598,15.994459155456543Q22.301854735412597,16.068482155456543,22.3020647354126,16.215892155456544Q22.3029147354126,17.039662155456544,22.302494735412598,17.863432155456543Q22.3022747354126,18.158462155456544,22.2948747354126,18.286202155456543C22.170834735412598,20.454652155456543,20.461214735412597,22.19587215545654,18.294824735412597,22.36084215545654C18.0274947354126,22.381142155456544,17.695604735412598,22.373102155456543,17.396734735412597,22.373952155456543Q17.3797947354126,22.373952155456543,17.391864735412597,22.38601215545654Q17.699834735412598,22.695632155456543,18.007174735412597,23.002092155456545Q18.1369247354126,23.131522155456544,18.176924735412598,23.206602155456544C18.418014735412598,23.658142155456545,17.926744735412598,24.174182155456542,17.465524735412597,23.942812155456544Q17.3730247354126,23.896492155456542,17.203054735412596,23.726882155456543Z" fill="#000000" fill-opacity="1"/><path d="M17.420684735412596,24.032192155456542L17.420744735412597,24.03223215545654Q17.831784735412597,24.23838215545654,18.1567147354126,23.90007215545654Q18.480524735412597,23.562912155456544,18.265184735412596,23.159582155456544Q18.218144735412597,23.071292155456543,18.077924735412598,22.931422155456545L17.621464735412598,22.474382155456542Q18.0962947354126,22.47620215545654,18.302414735412597,22.460552155456543Q19.9647147354126,22.333972155456543,21.132084735412597,21.144882155456543Q22.2995347354126,19.95572215545654,22.394704735412596,18.291992155456544Q22.402274735412597,18.161392155456543,22.4024847354126,17.863462155456542L22.402614735412598,17.515352155456544L22.402064735412598,16.21574815545654Q22.4018347354126,16.053992155456545,22.375974735412598,15.966184155456544Q22.227524735412597,15.462580155456543,21.7000847354126,15.515216155456542Q21.172724735412597,15.567843955456542,21.125314735412598,16.091964155456544Q21.1183447354126,16.168407155456542,21.1183447354126,16.24545315545654L21.1174947354126,17.972902155456545Q21.117284735412596,18.231712155456542,21.1001347354126,18.384332155456544Q20.9728047354126,19.512792155456545,20.167074735412598,20.296432155456543Q19.362224735412596,21.07922215545654,18.229334735412596,21.179432155456542Q18.068554735412597,21.193582155456543,17.6807347354126,21.191182155456545Q17.6512947354126,21.191002155456545,17.6238947354126,21.190882155456542L17.983274735412596,20.832232155456545Q18.2124847354126,20.602982155456544,18.269844735412597,20.491992155456543Q18.420784735412596,20.199062155456545,18.258884735412597,19.902762155456543Q18.0971247354126,19.606722155456545,17.767344735412596,19.572452155456542Q17.458124735412596,19.540222155456544,17.229754735412598,19.768662155456543L15.664056735412597,21.332672155456542Q15.282528735412598,21.71389215545654,15.505634235412598,22.133592155456544Q15.556094435412598,22.228752155456544,15.683023735412597,22.353022155456543Q16.022784735412596,22.685292155456544,16.6945347354126,23.359122155456543Q16.985964735412598,23.651452155456543,17.1324147354126,23.797662155456543Q17.313754735412598,23.978632155456545,17.420684735412596,24.032192155456542ZM17.462134735412597,21.352312155456545L17.459964735412598,21.354482155456544Q17.4610747354126,21.353402155456543,17.462134735412597,21.352312155456545ZM18.012464735412596,23.761532155456543Q17.789644735412597,23.993532155456542,17.510364735412598,23.853432155456545L17.510294735412597,23.853392155456543Q17.4322347354126,23.81431215545654,17.273694735412597,23.65609215545654Q17.127484735412597,23.510132155456542,16.836174735412598,23.217912155456542Q16.163514735412598,22.54318215545654,15.822858735412598,22.210032155456542Q15.718225735412597,22.107592155456544,15.682326735412598,22.039892155456542Q15.528614285412598,21.750732155456543,15.805420735412598,21.474152155456544L17.371094735412598,19.910162155456543Q17.5321847354126,19.749032155456543,17.7466247354126,19.771372155456543Q17.971984735412597,19.79479215545654,18.083374735412598,19.998662155456543Q18.194374735412598,20.20180215545654,18.092054735412596,20.400382155456544Q18.049074735412596,20.483552155456543,17.841844735412597,20.690822155456544L17.318684735412596,21.212922155456543Q17.266834735412598,21.263352155456545,17.293794735412597,21.32801215545654Q17.3207747354126,21.392692155456544,17.394384735412597,21.391302155456543Q17.486064735412597,21.389992155456543,17.679504735412596,21.391182155456544Q18.076714735412597,21.393632155456544,18.246864735412597,21.378662155456542Q19.450694735412597,21.27218215545654,20.306524735412598,20.439802155456544Q21.163524735412597,19.606292155456543,21.298874735412596,18.406762155456544Q21.317274735412596,18.24299215545654,21.3174947354126,17.973062155456542L21.318344735412598,16.245551155456543Q21.318344735412598,16.17751015545654,21.3244947354126,16.110139155456544Q21.357024735412597,15.750445155456543,21.719944735412597,15.714227155456543Q22.082524735412598,15.678043255456544,22.1841347354126,16.022734155456543Q22.2018747354126,16.08297215545654,22.2020647354126,16.216036155456543L22.2026147354126,17.515432155456544L22.202494735412596,17.863392155456545Q22.202284735412597,18.155522155456545,22.195034735412598,18.280412155456542Q22.1041547354126,19.869242155456543,20.989374735412596,21.004772155456543Q19.8746147354126,22.140252155456544,18.287234735412596,22.261132155456544Q18.087414735412597,22.27630215545654,17.614424735412598,22.274352155456544Q17.467794735412596,22.273752155456542,17.396444735412597,22.27395215545654Q17.320794735412598,22.27395215545654,17.294324735412598,22.339522155456542Q17.2683147354126,22.40392215545654,17.321174735412598,22.456742155456542L17.936414735412598,23.07275215545654Q18.055704735412597,23.19175215545654,18.088674735412596,23.253632155456543Q18.2357347354126,23.529062155456543,18.012464735412596,23.761532155456543Z" fill-rule="evenodd" fill="#000000" fill-opacity="1"/></g><g><path d="M11.434325625,19.464059399108887C11.433505625,19.638649399108886,11.444115625,19.821619399108886,11.430015625,19.994939399108887C11.384305625,20.555939399108887,10.572515625,20.615729399108886,10.451375625,20.058789399108885Q10.436805625,19.991329399108885,10.436925625,19.827089399108885Q10.437155624999999,19.645519399108885,10.437505625,19.46382939910889Q10.437505625,19.457549399108885,10.431205625,19.457659399108888C9.885347625,19.464759399108885,9.390901625,19.184659399108888,9.116104625,18.720089399108886C8.963842125,18.462559399108887,9.070519625,18.13162939910889,9.344032625,18.013109399108885C9.566364625,17.916799399108886,9.813063625,17.989489399108887,9.952385625,18.187579399108888C9.979895625,18.226899399108888,10.005665625,18.270639399108887,10.036095625,18.303319399108887C10.154195625,18.429989399108887,10.283605625,18.465929399108887,10.458485625,18.466049399108886Q10.896505625,18.466399399108887,11.334525625,18.466399399108887Q11.492385625,18.466399399108887,11.561175625,18.448949399108887C11.805775624999999,18.386839399108887,11.969695625,18.132919399108886,11.922825625,17.884459399108888C11.886335625000001,17.69101939910889,11.748875625,17.540509399108885,11.556395625,17.490139399108887Q11.497865625,17.474789399108886,11.396085625,17.474789399108886C11.054945625,17.474669399108887,10.706475625,17.487229399108887,10.366265625,17.470369399108886C9.629205625,17.433609399108885,9.022602225,16.864349399108885,8.953932175,16.128519399108885C8.872321125,15.254849399108886,9.550159625,14.503555399108887,10.431445625,14.496692399108888Q10.437735625,14.496692399108888,10.437735625,14.490411399108886Q10.436105625,14.265103399108886,10.438315625,14.040027399108887Q10.439365625,13.934875399108886,10.455695625,13.873692399108887C10.587555625,13.379223399108886,11.302695625,13.383760399108887,11.418585625,13.890325399108887Q11.434325625,13.959069399108886,11.433975625,14.121798399108886Q11.433625625,14.306395399108887,11.434205625,14.490992399108887Q11.434205625,14.497273399108886,11.440505625,14.497157399108886C11.985205624999999,14.488550399108886,12.481515625,14.770969399108887,12.755025625,15.235079399108887C12.964415625,15.590429399108887,12.674695625,16.036979399108887,12.259295625,15.978699399108887C12.114495625,15.958349399108887,11.998485625,15.882159399108886,11.914895625,15.761769399108886C11.888195625,15.723379399108886,11.862785625,15.681389399108888,11.832705625,15.649289399108888C11.712385625,15.520989399108887,11.583905625,15.488889399108887,11.404715625,15.488769399108886Q10.925305625,15.488309399108887,10.445895625,15.488539399108888Q10.272765625,15.488649399108887,10.142655625,15.585779399108887C9.804785625,15.838189399108886,9.911579625,16.363479399108886,10.320215625,16.465839399108887Q10.380845625,16.480959399108887,10.491135625,16.480499399108886Q10.940815624999999,16.478519399108887,11.390255625,16.481659399108885Q11.540305625,16.482829399108887,11.622965624999999,16.493289399108885C12.168355625,16.563079399108886,12.630745625,16.930879399108886,12.826375625,17.437559399108885C13.203765624999999,18.415569399108886,12.477315625,19.443239399108887,11.440505625,19.457779399108887Q11.434325625,19.457889399108886,11.434325625,19.464059399108887Z" fill="#000000" fill-opacity="1"/><path d="M11.534785625,19.554319399108888Q11.535165625,19.587909399108888,11.535815625,19.629389399108888Q11.539735625,19.879489399108888,11.529685624999999,20.00304939910889Q11.488345625000001,20.510459399108885,10.975875625,20.54584939910889Q10.462685625,20.581289399108886,10.353665625,20.080049399108887Q10.336795625,20.001969399108887,10.336925625,19.827019399108885L10.337355625,19.556709399108886Q9.477877625,19.528129399108888,9.030034725,18.770999399108888Q8.892920725,18.53908939910889,8.975226525,18.283789399108887Q9.057610625,18.028239399108887,9.304270625000001,17.921349399108887Q9.751221625,17.727739399108888,10.034175625,18.130059399108887Q10.042685625,18.142209399108886,10.058505625,18.165949399108886Q10.092925625,18.217609399108888,10.109285625,18.235179399108887Q10.231165625,18.365899399108887,10.458555625,18.36604939910889L11.334565625,18.366399399108886Q11.479895625000001,18.366399399108886,11.536585625,18.352019399108887Q11.892225625,18.261709399108888,11.824555625,17.902999399108886Q11.777065625,17.651249399108885,11.531075625,17.586879399108888Q11.484965625000001,17.574789399108887,11.396085625,17.574789399108887Q11.294155625,17.57474939910889,11.088125625,17.576969399108886Q10.602315625,17.582189399108888,10.361315625,17.570239399108885Q9.770191625,17.540759399108886,9.340708625,17.134219399108886Q8.909237125,16.725789399108887,8.854364825,16.137809399108885Q8.789029625,15.438389399108887,9.257435625,14.920479399108887Q9.694757625,14.436940399108886,10.337235625,14.399737399108886Q10.336545625,14.219555399108886,10.338325625,14.039043399108888Q10.339505625,13.921275399108886,10.359075625,13.847915399108887Q10.478315625,13.400749399108888,10.944385625,13.406629199108886Q11.411865625,13.412526799108887,11.516065625,13.868024399108887Q11.534345625,13.947872399108887,11.533975625,14.122014399108886L11.533845625,14.260305399108887L11.534065625,14.397851399108887Q12.393185625000001,14.424139399108887,12.841175625,15.184309399108887Q13.030495625,15.505589399108887,12.824925625,15.817079399108888Q12.618375625,16.130059399108887,12.245405625,16.077729399108886Q11.987355625,16.041459399108888,11.832755625,15.818799399108887Q11.825745625,15.808719399108886,11.812265625,15.788649399108888Q11.776855625,15.735939399108887,11.759735625,15.717659399108886Q11.638995625,15.588919399108887,11.404645625,15.588769399108887L10.990685625,15.588499399108887L10.445905625,15.588539399108887Q10.306005625000001,15.588629399108887,10.202475625,15.665919399108887Q9.999935624999999,15.817229399108886,10.049505625,16.062249399108886Q10.099105625,16.307369399108886,10.344515625,16.368839399108886Q10.392915625,16.380909399108887,10.490715625,16.380499399108885Q10.940975625,16.378519399108885,11.390955625,16.381659399108887Q11.546995625000001,16.382869399108888,11.635525625,16.394089399108886Q12.577205625,16.514589399108885,12.919665625,17.401549399108887Q13.220515625,18.181189399108888,12.745955625,18.865929399108886Q12.301195625,19.507679399108888,11.534785625,19.554319399108888ZM12.581575625,18.752009399108886Q12.168835625,19.34755939910889,11.439105625,19.35778939910889L11.438625625,19.357799399108885Q11.334325625,19.359749399108885,11.334325625,19.464059399108887Q11.334065625000001,19.519589399108888,11.335835625,19.632529399108886Q11.339615625,19.872929399108887,11.330345625,19.98681939910889Q11.302975625,20.322789399108885,10.962095625,20.34632939910889Q10.621375625,20.369859399108886,10.549095625,20.037539399108887Q10.536815625,19.980689399108886,10.536925625,19.827159399108886L10.537505625,19.463989399108886Q10.537505625,19.418639399108887,10.505885625,19.387689399108886Q10.474375625,19.356839399108885,10.429345625,19.357679399108886Q9.615679625,19.368259399108886,9.202175625,18.669179399108888Q9.110892625,18.514789399108885,9.165579625,18.345159399108887Q9.220189625,18.175759399108887,9.383795625,18.104859399108886Q9.681304625,17.975989399108887,9.870589625000001,18.245109399108888Q9.877526625,18.255029399108885,9.892071625,18.276849399108887Q9.935489625,18.342019399108885,9.962905625,18.371459399108886Q10.144135625,18.56583939910889,10.458425625,18.566049399108888L11.334485625,18.56639939910889Q11.504875625,18.56639939910889,11.585755625000001,18.545879399108887Q11.807715625,18.489519399108886,11.935445625,18.290619399108888Q12.063565624999999,18.091099399108888,12.021095625000001,17.865919399108886Q11.950135625,17.489799399108886,11.581705625,17.393399399108887Q11.510765625,17.374789399108888,11.396085625,17.374789399108888Q11.293065625,17.374749399108886,11.085975625,17.376979399108887Q10.606205625,17.382139399108887,10.371225625,17.370489399108887Q9.853992625,17.344689399108887,9.478197625,16.988969399108885Q9.101379625,16.63227939910889,9.053499625,16.119229399108885Q8.996340525,15.507329399108887,9.405768625,15.054629399108887Q9.815598625,14.601489399108887,10.432225625000001,14.596689399108886Q10.475945625,14.596689399108886,10.506795625,14.565909399108886Q10.537735625,14.535039399108886,10.537735625,14.490411399108886Q10.536105625,14.265234399108886,10.538315625,14.041011399108887Q10.539235625,13.948475399108887,10.552315625,13.899469399108886Q10.631455625000001,13.602697199108887,10.941865625,13.606613399108888Q11.251995625,13.610525399108887,11.321105625,13.912626399108886Q11.334305624999999,13.970265399108886,11.333975625,14.121583399108887L11.333845625,14.260116399108886L11.334205625,14.491150399108887Q11.334205625,14.536169399108887,11.365815625,14.567129399108886Q11.397325625,14.597969399108887,11.442355625,14.597139399108887Q12.255425625,14.584289399108886,12.668875625,15.285849399108887Q12.794815625,15.499589399108887,12.657995625,15.706919399108887Q12.521045625,15.914439399108886,12.273185625,15.879669399108886Q12.101775625,15.855579399108887,11.997035625,15.704729399108887Q11.990875625000001,15.695869399108886,11.978285625,15.677129399108887Q11.933865625,15.610999399108888,11.905675625,15.580919399108886Q11.725675625000001,15.388979399108887,11.404775625,15.388769399108886L10.990815625,15.388499399108888L10.445895625,15.388539399108886Q10.239525625,15.388679399108886,10.082835625,15.505639399108887Q9.778793625,15.732779399108887,9.853482625,16.101909399108887Q9.928104625,16.470709399108888,10.295915625,16.562849399108888Q10.368765625,16.581019399108886,10.491555625,16.580499399108888Q10.940705625,16.578519399108888,11.389555625,16.581659399108887Q11.533615625,16.582779399108887,11.610395625,16.59249939910889Q12.433565625,16.697839399108886,12.733085625000001,17.473579399108885Q12.995785625,18.154349399108888,12.581575625,18.752009399108886Z" fill-rule="evenodd" fill="#000000" fill-opacity="1"/></g></g></g></svg>