<svg xmlns="http://www.w3.org/2000/svg" xmlns:xlink="http://www.w3.org/1999/xlink" fill="none" version="1.1" width="22" height="22" viewBox="0 0 22 22"><g><g><path d="M0.864845,6.718Q0,8.76272,0,11Q0,13.2373,0.864845,15.282Q1.699865,17.2562,3.22182,18.7782Q4.74378,20.3001,6.718,21.1352Q8.76272,22,11,22Q13.2373,22,15.282,21.1352Q17.2562,20.3001,18.7782,18.7782Q20.3001,17.2562,21.1352,15.282Q22,13.2373,22,11Q22,8.76272,21.1352,6.718Q20.3001,4.74378,18.7782,3.22182Q17.2562,1.699866,15.282,0.864845Q13.2373,0,11,0Q8.76272,0,6.718,0.864845Q4.74378,1.699866,3.22182,3.22182Q1.699867,4.74378,0.864845,6.718ZM2.70685,14.5029Q2,12.8317,2,11Q2,9.16829,2.70685,7.4971Q3.38992,5.88216,4.6360399999999995,4.6360399999999995Q5.88216,3.38991,7.4971,2.70685Q9.16829,2,11,2Q12.8317,2,14.5029,2.70685Q16.117800000000003,3.38991,17.364,4.6360399999999995Q18.6101,5.88217,19.2931,7.4971Q20,9.16829,20,11Q20,12.8317,19.2931,14.5029Q18.6101,16.117800000000003,17.364,17.364Q16.117800000000003,18.6101,14.5029,19.2931Q12.8317,20,11,20Q9.1683,20,7.4971,19.2931Q5.88216,18.6101,4.6360399999999995,17.364Q3.38991,16.117800000000003,2.70685,14.5029Z" fill-rule="evenodd" fill="#C0C4CC" fill-opacity="1"/></g><g><path d="M16.00048625,12.5L16.00137625,12.5Q16.09981625,12.49991,16.19633625,12.48063Q16.29286625,12.46135,16.38378625,12.42362Q16.47470625,12.38589,16.55651625,12.33116Q16.638336250000002,12.276430000000001,16.70790625,12.20679Q16.77748625,12.13716,16.83214625,12.05529Q16.88680625,11.97343,16.92445625,11.882480000000001Q16.962106249999998,11.79153,16.98129625,11.694980000000001Q17.00048625,11.59844,17.00048625,11.5L17.00048625,11.49911Q17.00039625,11.400680000000001,16.98112625,11.30415Q16.96184625,11.20762,16.92411625,11.1167Q16.88638625,11.025780000000001,16.83164625,10.94397Q16.77691625,10.86215,16.70727625,10.792580000000001Q16.63764625,10.72301,16.55578625,10.66834Q16.473916250000002,10.61369,16.38296625,10.576039999999999Q16.29201625,10.53839,16.19546625,10.51919Q16.098926249999998,10.5,16.00048625,10.5L15.99959625,10.5L15.99919625,10.5L11.50398625,10.50399L11.50439625,5.500081314L11.50439625,5.5Q11.50439625,5.4082936,11.48771425,5.318117Q11.47189925,5.232611,11.44156125,5.151118Q11.41122325,5.069625,11.36727525,4.994592Q11.323326250000001,4.919559,11.26708625,4.853238Q11.21084625,4.786917,11.14400225,4.731299Q11.07715925,4.675681,11.00171825,4.632435Q10.92627825,4.58919,10.84450525,4.559615Q10.76273225,4.53004,10.67708225,4.515023Q10.59143235,4.500007,10.504475845,4.5Q10.41268815,4.5,10.32251125,4.51668Q10.23700525,4.532496,10.15551225,4.562833Q10.07402025,4.593171,9.99898625,4.637119Q9.92395325,4.681068,9.85763225,4.737308Q9.79131125,4.793548,9.73569325,4.860392Q9.68007525,4.927236,9.63682925,5.002676Q9.59358425,5.078117,9.56400925,5.159889Q9.53443425,5.241662,9.51941825,5.327312Q9.50440125,5.4129621,9.50439425,5.499918686L9.50439425,5.499999999999463L9.50390625,11.5048L9.50390625,11.50577Q9.50399425,11.60426,9.52329525,11.70084Q9.54259525,11.79743,9.58036725,11.888390000000001Q9.61813925,11.97935,9.67293025,12.06119Q9.72772225,12.14303,9.79742825,12.212620000000001Q9.86713325,12.2822,9.94907525,12.336839999999999Q10.03101625,12.391490000000001,10.12204325,12.4291Q10.21307125,12.466709999999999,10.30968725,12.48584Q10.40630325,12.50497,10.504794586,12.50488L16.00048625,12.5Z" fill-rule="evenodd" fill="#C0C4CC" fill-opacity="1"/></g></g></svg>