<svg xmlns="http://www.w3.org/2000/svg" xmlns:xlink="http://www.w3.org/1999/xlink" fill="none" version="1.1" width="16" height="16" viewBox="0 0 16 16"><g><g></g><g><path d="M7.9996778125,14.666633373069763Q8.1633278125,14.666633373069763,8.326787812500001,14.658633373069764Q8.490257812500001,14.650633373069763,8.6531178125,14.634533373069763Q8.815987812500001,14.618533373069763,8.977877812500001,14.594533373069764Q9.1397678125,14.570533373069763,9.3002778125,14.538533373069763Q9.4607878125,14.506633373069763,9.6195378125,14.466833373069763Q9.7782978125,14.427133373069763,9.9349078125,14.379633373069764Q10.0915178125,14.332133373069762,10.2456078125,14.276933373069763Q10.3996978125,14.221833373069764,10.5508978125,14.159233373069764Q10.7020978125,14.096533373069763,10.8500378125,14.026633373069764Q10.9979878125,13.956633373069764,11.1423178125,13.879433373069762Q11.2866478125,13.802333373069763,11.4270078125,13.718233373069763Q11.5674078125,13.634033373069764,11.7035078125,13.543133373069763Q11.8395078125,13.452233373069763,11.9710078125,13.354733373069763Q12.1024078125,13.257233373069763,12.2290078125,13.153433373069763Q12.3555078125,13.049533373069764,12.4767078125,12.939633373069762Q12.5980078125,12.829733373069763,12.7137078125,12.714033373069762Q12.8294078125,12.598333373069764,12.9393078125,12.477033373069764Q13.0492078125,12.355833373069764,13.1531078125,12.229333373069764Q13.2569078125,12.102733373069762,13.3544078125,11.971333373069763Q13.4519078125,11.839833373069764,13.5428078125,11.703833373069763Q13.6337078125,11.567733373069764,13.7179078125,11.427333373069763Q13.8020078125,11.286973373069763,13.8791078125,11.142643373069763Q13.9563078125,10.998313373069763,14.0263078125,10.850363373069763Q14.0962078125,10.702423373069763,14.1589078125,10.551223373069764Q14.2215078125,10.400023373069763,14.2766078125,10.245933373069763Q14.3318078125,10.091843373069763,14.3793078125,9.935233373069764Q14.4268078125,9.778623373069763,14.4665078125,9.619863373069764Q14.5063078125,9.461113373069763,14.5382078125,9.300603373069762Q14.5702078125,9.140093373069764,14.5942078125,8.978203373069764Q14.6182078125,8.816313373069764,14.6342078125,8.653443373069763Q14.6503078125,8.490583373069764,14.6583078125,8.327113373069764Q14.6663078125,8.163653373069764,14.6663078125,8.000003373069763Q14.6663078125,7.836343373069763,14.6583078125,7.672883373069763Q14.6503078125,7.5094233730697635,14.6342078125,7.346553373069763Q14.6182078125,7.183683373069763,14.5942078125,7.021793373069763Q14.5702078125,6.859913373069763,14.5382078125,6.699393373069763Q14.5063078125,6.538883373069763,14.4665078125,6.380133373069763Q14.4268078125,6.221383373069763,14.3793078125,6.064763373069763Q14.3318078125,5.908153373069763,14.2766078125,5.754063373069763Q14.2215078125,5.599973373069763,14.1589078125,5.448773373069764Q14.0962078125,5.297573373069763,14.0263078125,5.149633373069763Q13.9563078125,5.001683373069763,13.8791078125,4.857353373069763Q13.8020078125,4.713023373069763,13.7179078125,4.572643373069763Q13.6337078125,4.432273373069763,13.5428078125,4.296193373069763Q13.4519078125,4.160123373069763,13.3544078125,4.028673373069763Q13.2569078125,3.897223373069763,13.1531078125,3.7707133730697633Q13.0492078125,3.644203373069763,12.9393078125,3.5229433730697632Q12.8294078125,3.4016733730697633,12.7137078125,3.285953373069763Q12.5980078125,3.170233373069763,12.4767078125,3.060323373069763Q12.3555078125,2.9504233730697633,12.2290078125,2.846593373069763Q12.1024078125,2.742773373069763,11.9710078125,2.645283373069763Q11.8395078125,2.547793373069763,11.7035078125,2.4568733730697634Q11.5674078125,2.365943373069763,11.4270078125,2.281809373069763Q11.2866478125,2.1976723730697634,11.1423178125,2.1205253730697633Q10.9979878125,2.043377373069763,10.8500378125,1.973404373069763Q10.7020978125,1.903432373069763,10.5508978125,1.8408033730697633Q10.3996978125,1.7781743730697632,10.2456078125,1.723039373069763Q10.0915178125,1.6679053730697633,9.9349078125,1.6203973730697632Q9.7782978125,1.5728903730697632,9.6195378125,1.5331253730697632Q9.4607878125,1.4933593730697632,9.3002778125,1.4614313730697632Q9.1397678125,1.429503473069763,8.977877812500001,1.4054899730697632Q8.815987812500001,1.3814764730697633,8.6531178125,1.3654351730697631Q8.490257812500001,1.3493939730697633,8.326787812500001,1.3413636630697632Q8.1633278125,1.3333333730697632,7.9996778125,1.3333333730697632Q7.8360178125,1.3333333730697632,7.6725578125,1.3413636630697632Q7.5090978125,1.3493939730697633,7.3462278125,1.3654351730697631Q7.1833578125,1.3814764730697633,7.0214678125,1.4054899730697632Q6.8595878125,1.429503473069763,6.6990678125,1.4614313730697632Q6.5385578125,1.4933593730697632,6.3798078125,1.5331253730697632Q6.2210578125,1.5728903730697632,6.0644378125,1.6203973730697632Q5.9078278125,1.6679053730697633,5.7537378125,1.723039373069763Q5.5996478125,1.7781743730697632,5.4484478125,1.8408033730697633Q5.2972478125,1.903432373069763,5.1493078125,1.973404373069763Q5.0013578125,2.043377373069763,4.8570278125,2.1205253730697633Q4.7126978125,2.1976723730697634,4.5723178125,2.281809373069763Q4.4319478125,2.365943373069763,4.2958678125,2.4568733730697634Q4.1597978125,2.547793373069763,4.0283478125,2.645283373069763Q3.8968978125,2.742773373069763,3.7703878125,2.846593373069763Q3.6438778125,2.9504233730697633,3.5226178125,3.060323373069763Q3.4013478125,3.170233373069763,3.2856278125,3.285953373069763Q3.1699078125,3.4016733730697633,3.0599978125,3.5229433730697632Q2.9500978125,3.644203373069763,2.8462678125,3.7707133730697633Q2.7424478125,3.897223373069763,2.6449578125,4.028673373069763Q2.5474678125,4.160123373069763,2.4565478125,4.296193373069763Q2.3656178125,4.432273373069763,2.2814838125,4.572643373069763Q2.1973468125,4.713023373069763,2.1201998125,4.857353373069763Q2.0430518125,5.001683373069763,1.9730788124999998,5.149633373069763Q1.9031068125,5.297573373069763,1.8404778125,5.448773373069764Q1.7778488125,5.599973373069763,1.7227138124999999,5.754063373069763Q1.6675798125,5.908153373069763,1.6200718125,6.064763373069763Q1.5725648125,6.221383373069763,1.5327998125,6.380133373069763Q1.4930338125,6.538883373069763,1.4611058125,6.699393373069763Q1.4291779125,6.859913373069763,1.4051644125,7.021793373069763Q1.3811509125,7.183683373069763,1.3651096125,7.346553373069763Q1.3490684125,7.5094233730697635,1.3410381025,7.672883373069763Q1.3330078125,7.836343373069763,1.3330078125,8.000003373069763Q1.3330078125,8.163653373069764,1.3410381025,8.327113373069764Q1.3490684125,8.490583373069764,1.3651096125,8.653443373069763Q1.3811509125,8.816313373069764,1.4051644125,8.978203373069764Q1.4291779125,9.140093373069764,1.4611058125,9.300603373069762Q1.4930338125,9.461113373069763,1.5327998125,9.619863373069764Q1.5725648125,9.778623373069763,1.6200718125,9.935233373069764Q1.6675798125,10.091843373069763,1.7227138124999999,10.245933373069763Q1.7778488125,10.400023373069763,1.8404778125,10.551223373069764Q1.9031068125,10.702423373069763,1.9730788124999998,10.850363373069763Q2.0430518125,10.998313373069763,2.1201998125,11.142643373069763Q2.1973468125,11.286973373069763,2.2814838125,11.427333373069763Q2.3656178125,11.567733373069764,2.4565478125,11.703833373069763Q2.5474678125,11.839833373069764,2.6449578125,11.971333373069763Q2.7424478125,12.102733373069762,2.8462678125,12.229333373069764Q2.9500978125,12.355833373069764,3.0599978125,12.477033373069764Q3.1699078125,12.598333373069764,3.2856278125,12.714033373069762Q3.4013478125,12.829733373069763,3.5226178125,12.939633373069762Q3.6438778125,13.049533373069764,3.7703878125,13.153433373069763Q3.8968978125,13.257233373069763,4.0283478125,13.354733373069763Q4.1597978125,13.452233373069763,4.2958678125,13.543133373069763Q4.4319478125,13.634033373069764,4.5723178125,13.718233373069763Q4.7126978125,13.802333373069763,4.8570278125,13.879433373069762Q5.0013578125,13.956633373069764,5.1493078125,14.026633373069764Q5.2972478125,14.096533373069763,5.4484478125,14.159233373069764Q5.5996478125,14.221833373069764,5.7537378125,14.276933373069763Q5.9078278125,14.332133373069762,6.0644378125,14.379633373069764Q6.2210578125,14.427133373069763,6.3798078125,14.466833373069763Q6.5385578125,14.506633373069763,6.6990678125,14.538533373069763Q6.8595878125,14.570533373069763,7.0214678125,14.594533373069764Q7.1833578125,14.618533373069763,7.3462278125,14.634533373069763Q7.5090978125,14.650633373069763,7.6725578125,14.658633373069764Q7.8360178125,14.666633373069763,7.9996778125,14.666633373069763ZM13.3327078125,8.000163373069764Q13.3327078125,8.131093373069763,13.3262078125,8.261853373069762Q13.3198078125,8.392623373069764,13.3070078125,8.522923373069762Q13.2942078125,8.653213373069764,13.2749078125,8.782723373069764Q13.2557078125,8.912233373069764,13.2302078125,9.040643373069763Q13.2047078125,9.169053373069763,13.1728078125,9.296053373069764Q13.1410078125,9.423063373069763,13.1030078125,9.548353373069764Q13.0650078125,9.673633373069762,13.0209078125,9.796913373069764Q12.9768078125,9.920183373069763,12.9267078125,10.041143373069763Q12.8766078125,10.162103373069764,12.8206078125,10.280453373069763Q12.7646078125,10.398813373069764,12.7029078125,10.514283373069762Q12.6412078125,10.629743373069763,12.5739078125,10.742043373069762Q12.5066078125,10.854343373069764,12.4338078125,10.963203373069764Q12.3611078125,11.072063373069764,12.2831078125,11.177223373069763Q12.2051078125,11.282383373069763,12.1221078125,11.383633373069763Q12.0390078125,11.484833373069764,11.9511078125,11.581833373069763Q11.8632078125,11.678833373069763,11.7706078125,11.771433373069764Q11.6780078125,11.863933373069763,11.5810078125,11.951933373069764Q11.4840078125,12.039833373069763,11.3828078125,12.122933373069763Q11.2815678125,12.205933373069763,11.1764078125,12.283933373069763Q11.0712478125,12.361933373069764,10.9623878125,12.434633373069763Q10.8535278125,12.507433373069762,10.7412278125,12.574733373069764Q10.6289278125,12.642033373069763,10.5134678125,12.703733373069763Q10.3979978125,12.765433373069763,10.2796378125,12.821433373069762Q10.1612878125,12.877433373069763,10.0403278125,12.927533373069764Q9.9193678125,12.977633373069763,9.7960978125,13.021733373069763Q9.6728178125,13.065833373069763,9.5475378125,13.103833373069763Q9.4222478125,13.141833373069764,9.2952378125,13.173633373069762Q9.1682378125,13.205433373069763,9.0398278125,13.231033373069764Q8.9114178125,13.256533373069763,8.7819078125,13.275733373069762Q8.6523978125,13.294933373069764,8.5221078125,13.307833373069764Q8.3918078125,13.320633373069763,8.2610478125,13.327033373069764Q8.130277812500001,13.333533373069763,7.9993478125,13.333533373069763Q7.8684178125,13.333533373069763,7.7376578125,13.327033373069764Q7.6068878125,13.320633373069763,7.4765878125,13.307833373069764Q7.3462978125,13.294933373069764,7.2167878125,13.275733373069762Q7.0872778125,13.256533373069763,6.9588678125,13.231033373069764Q6.8304578125,13.205433373069763,6.7034578125,13.173633373069762Q6.5764478125,13.141833373069764,6.4511678125,13.103833373069763Q6.3258778125,13.065833373069763,6.2026078125,13.021733373069763Q6.0793278125,12.977633373069763,5.9583678125,12.927533373069764Q5.8374078125,12.877433373069763,5.7190578125,12.821433373069762Q5.6006978125,12.765433373069763,5.4852378125,12.703733373069763Q5.3697678125,12.642033373069763,5.2574678125,12.574733373069764Q5.1451678125,12.507433373069762,5.0363078125000005,12.434633373069763Q4.9274478125000005,12.361933373069764,4.8222878125,12.283933373069763Q4.717127812499999,12.205933373069763,4.6159178125,12.122933373069763Q4.5147078125,12.039833373069763,4.4176978125,11.951933373069764Q4.3206878125,11.863933373069763,4.228107812499999,11.771433373069764Q4.1355378125,11.678833373069763,4.0476078125,11.581833373069763Q3.9596878125,11.484833373069764,3.8766278125,11.383633373069763Q3.7935678125,11.282383373069763,3.7155778125,11.177223373069763Q3.6375778125,11.072063373069764,3.5648478125,10.963203373069764Q3.4921078125,10.854343373069764,3.4247978125,10.742043373069762Q3.3574878125,10.629743373069763,3.2957678125000003,10.514273373069763Q3.2340478125,10.398813373069764,3.1780678125,10.280453373069763Q3.1220978125,10.162093373069764,3.0719878124999997,10.041143373069763Q3.0218878125,9.920183373069763,2.9777778125000003,9.796903373069764Q2.9336678125,9.673633373069762,2.8956678125,9.548343373069763Q2.8576578125000003,9.423063373069763,2.8258478125,9.296053373069764Q2.7940378125,9.169053373069763,2.7684978124999997,9.040643373069763Q2.7429478124999997,8.912233373069764,2.7237378125,8.782723373069764Q2.7045278125000003,8.653213373069764,2.6916978125,8.522923373069762Q2.6788678125,8.392623373069764,2.6724378125,8.261853373069762Q2.6660178125,8.131093373069763,2.6660178125,8.000163373069764Q2.6660178125,7.869233373069763,2.6724378125,7.7384733730697635Q2.6788678125,7.607703373069763,2.6916978125,7.477403373069763Q2.7045278125000003,7.347113373069763,2.7237378125,7.217603373069763Q2.7429478124999997,7.088093373069763,2.7684978124999997,6.959683373069764Q2.7940378125,6.831273373069763,2.8258478125,6.704263373069764Q2.8576578125000003,6.577263373069763,2.8956678125,6.451973373069763Q2.9336678125,6.326693373069763,2.9777778125000003,6.203413373069763Q3.0218878125,6.080143373069763,3.0719878124999997,5.959183373069763Q3.1220978125,5.838223373069763,3.1780678125,5.719873373069763Q3.2340478125,5.601513373069763,3.2957678125000003,5.486043373069763Q3.3574878125,5.370583373069763,3.4247978125,5.258283373069763Q3.4921078125,5.145983373069763,3.5648478125,5.037123373069763Q3.6375778125,4.928263373069763,3.7155778125,4.823103373069763Q3.7935678125,4.7179433730697635,3.8766278125,4.6167333730697635Q3.9596878125,4.5155233730697635,4.0476078125,4.4185133730697626Q4.1355378125,4.321503373069763,4.228107812499999,4.2289233730697635Q4.3206878125,4.136343373069764,4.4176978125,4.048423373069763Q4.5147078125,3.960503373069763,4.6159178125,3.877443373069763Q4.717127812499999,3.7943833730697634,4.8222878125,3.716393373069763Q4.9274478125000005,3.6383933730697633,5.0363078125000005,3.5656533730697633Q5.1451678125,3.4929233730697633,5.2574678125,3.4256133730697633Q5.3697678125,3.3583033730697633,5.4852378125,3.296583373069763Q5.6006978125,3.2348633730697633,5.7190578125,3.1788833730697634Q5.8374078125,3.1229033730697635,5.9583678125,3.072803373069763Q6.0793278125,3.0227033730697634,6.2025978125,2.978593373069763Q6.3258778125,2.9344833730697633,6.4511678125,2.8964833730697634Q6.5764478125,2.858473373069763,6.7034578125,2.8266633730697635Q6.8304578125,2.7948533730697633,6.9588678125,2.7693033730697634Q7.0872778125,2.743763373069763,7.2167878125,2.724553373069763Q7.3462978125,2.705343373069763,7.4765878125,2.6925133730697635Q7.6068878125,2.6796733730697633,7.7376578125,2.6732533730697634Q7.8684178125,2.666833373069763,7.9993478125,2.666833373069763Q8.130277812500001,2.666833373069763,8.2610378125,2.6732533730697634Q8.3918078125,2.6796733730697633,8.5221078125,2.6925133730697635Q8.6523978125,2.705343373069763,8.7819078125,2.724553373069763Q8.9114178125,2.743763373069763,9.0398278125,2.7693033730697634Q9.1682378125,2.7948533730697633,9.2952378125,2.8266633730697635Q9.4222478125,2.858473373069763,9.5475378125,2.8964833730697634Q9.6728178125,2.9344833730697633,9.7960978125,2.978593373069763Q9.9193678125,3.0227033730697634,10.0403278125,3.072803373069763Q10.1612878125,3.1229033730697635,10.2796378125,3.1788833730697634Q10.3979978125,3.2348633730697633,10.5134678125,3.296583373069763Q10.6289278125,3.3583033730697633,10.7412278125,3.4256133730697633Q10.8535278125,3.4929233730697633,10.9623878125,3.5656533730697633Q11.0712478125,3.6383933730697633,11.1764078125,3.716393373069763Q11.2815678125,3.7943833730697634,11.3828078125,3.877443373069763Q11.4840078125,3.960503373069763,11.5810078125,4.048423373069763Q11.6780078125,4.136343373069764,11.7706078125,4.2289233730697635Q11.8632078125,4.321503373069763,11.9511078125,4.4185133730697626Q12.0390078125,4.5155233730697635,12.1221078125,4.6167333730697635Q12.2051078125,4.7179433730697635,12.2831078125,4.823103373069763Q12.3611078125,4.928263373069763,12.4338078125,5.037123373069763Q12.5066078125,5.145983373069763,12.5739078125,5.258283373069763Q12.6412078125,5.370583373069763,12.7029078125,5.486043373069763Q12.7646078125,5.601513373069763,12.8206078125,5.719873373069763Q12.8766078125,5.838223373069763,12.9267078125,5.959183373069763Q12.9768078125,6.080143373069763,13.0209078125,6.203413373069763Q13.0650078125,6.326693373069763,13.1030078125,6.451973373069763Q13.1410078125,6.577263373069763,13.1728078125,6.704263373069764Q13.2047078125,6.831273373069763,13.2302078125,6.959683373069764Q13.2557078125,7.088093373069763,13.2749078125,7.217603373069763Q13.2942078125,7.347113373069763,13.3070078125,7.477403373069763Q13.3198078125,7.607703373069763,13.3263078125,7.7384733730697635Q13.3327078125,7.869233373069763,13.3327078125,8.000163373069764ZM8.6662678125,9.333133373069764L8.6662678125,8.903133373069764C9.7620278125,8.576523373069763,10.4598478125,7.5042133730697635,10.3146978125,6.370073373069763C10.1695378125,5.235933373069763,9.2241478125,4.373923373069763,8.0814578125,4.333813373069763C6.9387678125,4.293703373069763,5.9352578125,5.087293373069763,5.7109378125,6.208463373069764L7.0189378125,6.470463373069763C7.1221878125,5.9539133730697635,7.6084378125,5.606023373069763,8.1306578125,5.675093373069763C8.6528778125,5.744163373069763,9.0319778125,6.206503373069763,8.997387812500001,6.732133373069763C8.9627878125,7.257763373069763,8.5263678125,7.666433373069763,7.9996078125,7.666463373069763C7.6314178125,7.666463373069763,7.3329378125,7.964943373069763,7.3329378125,8.333133373069764L7.3329378125,9.333133373069764L8.6662678125,9.333133373069764ZM8.6663378125,11.333173373069764L8.6663378125,9.999833373069762L7.3330078125,9.999833373069762L7.3330078125,11.333173373069764L8.6663378125,11.333173373069764Z" fill-rule="evenodd" fill="#0E043E" fill-opacity="1"/></g></g></svg>