<svg xmlns="http://www.w3.org/2000/svg" xmlns:xlink="http://www.w3.org/1999/xlink" fill="none" version="1.1" width="116" height="48" viewBox="0 0 116 48"><g><path d="M0,36C0,42.6274,5.37258,48,12,48L116,48L99.0769,7.38462C97.2137,2.91285,92.8444,0,88,0L12,0C5.37258,0,0,5.37258,0,12L0,36Z" fill="#E8F453" fill-opacity="1"/><path d="M0,36C0,42.6274,5.37258,48,12,48L116,48L115.167,46L99.0769,7.38462C97.2137,2.91285,92.8444,0,88,0L12,0C5.37258,0,0,5.37258,0,12L0,36ZM12,46L113,46L97.2308,8.15385Q96.0662,5.35898,93.547,3.6795Q91.0278,2,88,2L12,2Q9.96418,2,8.10816,2.78503Q6.31395,3.54392,4.92893,4.92893Q3.54392,6.31395,2.78503,8.10816Q2,9.96418,2,12L2,36Q2,38.0358,2.78503,39.8918Q3.54391,41.686,4.92893,43.0711Q6.31394,44.4561,8.10816,45.215Q9.96419,46,12,46Z" fill-rule="evenodd" fill="#0E043E" fill-opacity="1"/></g></svg>