<svg xmlns="http://www.w3.org/2000/svg" xmlns:xlink="http://www.w3.org/1999/xlink" fill="none" version="1.1" width="13.5" height="7.5" viewBox="0 0 13.5 7.5"><g><path d="M12.75,0.75L6.75,6.75L0.75,0.75L12.75,0.75Z" fill="#D8D8D8" fill-opacity="1"/><path d="M12.75,0.75L6.75,6.75L0.75,0.75L12.75,0.75Z" fill="#0E043E" fill-opacity="1"/><path d="M12.75,0L0.75,0Q0.600816,0,0.462987,0.057089999999999974Q0.325159,0.11418099999999998,0.21967000000000003,0.21967000000000003Q0.16743699999999995,0.271903,0.126398,0.333322Q0.08535899999999996,0.394742,0.057089999999999974,0.462987Q0.028822000000000014,0.5312330000000001,0.014410999999999952,0.603682Q0,0.6761315,0,0.75Q0,0.8238685,0.014410999999999952,0.896318Q0.028822000000000014,0.9687669999999999,0.057089999999999974,1.037013Q0.08535899999999996,1.105258,0.126398,1.166678Q0.16743699999999995,1.228097,0.21967000000000003,1.28033L6.21967,7.28033Q6.2719,7.33256,6.33332,7.3736Q6.39474,7.41464,6.46299,7.44291Q6.53123,7.47118,6.60368,7.48559Q6.67613,7.5,6.75,7.5Q6.82387,7.5,6.89632,7.48559Q6.96877,7.47118,7.03701,7.44291Q7.10526,7.41464,7.16668,7.3736Q7.2281,7.33256,7.28033,7.28033L13.2803,1.28033Q13.3858,1.174841,13.4429,1.037013Q13.5,0.899184,13.5,0.75Q13.5,0.6761315,13.4856,0.603682Q13.4712,0.5312330000000001,13.4429,0.462987Q13.4146,0.394742,13.3736,0.333322Q13.3326,0.271903,13.2803,0.21967000000000003Q13.2281,0.16743699999999995,13.1667,0.126398Q13.1053,0.08535899999999996,13.037,0.057089999999999974Q12.9688,0.028822000000000014,12.8963,0.014410999999999952Q12.8239,0,12.75,0ZM2.56066,1.5L6.75,5.68934L10.9393,1.5L2.56066,1.5Z" fill-rule="evenodd" fill="#0E043E" fill-opacity="1"/></g></svg>