<svg xmlns="http://www.w3.org/2000/svg" xmlns:xlink="http://www.w3.org/1999/xlink" fill="none" version="1.1" width="32" height="32" viewBox="0 0 32 32"><defs><clipPath id="master_svg0_2268_01233"><rect x="0" y="0" width="32" height="32" rx="0"/></clipPath></defs><g clip-path="url(#master_svg0_2268_01233)"><g><path d="M29.54888203125,7.541327197265625C28.53098203125,7.991587197265625,27.45148203125,8.287297197265625,26.34628203125,8.418667197265625C27.51128203125,7.721907197265625,28.38318203125,6.625347197265625,28.79958203125,5.333331197265625C27.70628203125,5.983997197265625,26.50758203125,6.439997197265625,25.25828203125,6.686667197265625C23.53268203125,4.840424197265625,20.78128203125,4.385450197265625,18.55328203125,5.577936197265625C16.325282031249998,6.770417197265625,15.17778203125,9.312197197265625,15.75688203125,11.771997197265625C11.27294203125,11.547257197265626,7.09524203125,9.429327197265625,4.2635820312499995,5.945327197265625C3.7679720312500002,6.7965971972656245,3.5075220312499997,7.764297197265625,3.50891203125,8.749327197265625C3.50891203125,10.682667197265625,4.49291203125,12.390667197265625,5.98892203125,13.390667197265625C5.10359203125,13.362787197265625,4.23776203125,13.123707197265626,3.46358203125,12.693327197265624L3.46358203125,12.762667197265625C3.46413203125,15.417377197265624,5.33493203125,17.704177197265626,7.93692203125,18.230677197265624C7.11507203125,18.453377197265624,6.253322031250001,18.486177197265626,5.4169220312499995,18.326677197265624C6.14642203125,20.598877197265622,8.24018203125,22.155677197265625,10.62625203125,22.199977197265625C8.29017203125,24.034677197265626,5.32057203125,24.865477197265626,2.37158203125,24.509377197265625C4.92051203125,26.148577197265624,7.88771203125,27.018877197265624,10.91825203125,27.015977197265624C21.17558203125,27.015977197265624,26.78488203125,18.518677197265625,26.78488203125,11.149327197265624C26.78488203125,10.909327197265625,26.77828203125,10.666667197265625,26.76758203125,10.429327197265625C27.85938203125,9.640217197265624,28.80168203125,8.662687197265626,29.54888203125,7.541327197265625L29.54888203125,7.541327197265625Z" fill="#0E043E" fill-opacity="1"/></g></g></svg>