<svg xmlns="http://www.w3.org/2000/svg" xmlns:xlink="http://www.w3.org/1999/xlink" fill="none" version="1.1" width="193" height="68" viewBox="0 0 193 68"><g><path d="M12,68C5.37258,68,0,62.6274,0,56L0,12C0,5.37258,5.37258,0,12,0L181,0C187.627,0,193,5.37258,193,12L193,56C193,62.6274,187.627,68,181,68L12,68ZM14,60C10.6863,60,8,57.3137,8,54L8,14C8,10.6863,10.6863,8,14,8L179,8C182.314,8,185,10.6863,185,14L185,54C185,57.3137,182.314,60,179,60L14,60Z" fill-rule="evenodd" fill="#FFFFFF" fill-opacity="1"/><path d="M0,56C0,62.6274,5.37258,68,12,68L181,68C187.627,68,193,62.6274,193,56L193,12C193,5.37258,187.627,0,181,0L12,0C5.37258,0,0,5.37258,0,12L0,56ZM181,66L12,66Q9.96417,66,8.10816,65.215Q6.31394,64.4561,4.92893,63.0711Q3.54392,61.6861,2.78503,59.8918Q2,58.0358,2,56L2,12Q2,9.96418,2.78503,8.10816Q3.54392,6.31395,4.92893,4.92893Q6.31395,3.54392,8.10816,2.78503Q9.96418,2,12,2L181,2Q183.036,2,184.892,2.78503Q186.686,3.5439,188.071,4.92893Q189.456,6.31396,190.215,8.10816Q191,9.96421,191,12L191,56Q191,58.0358,190.215,59.8918Q189.456,61.686,188.071,63.0711Q186.686,64.4561,184.892,65.215Q183.036,66,181,66ZM8.34315,59.6569Q10.6863,62,14,62L179,62Q182.314,62,184.657,59.6569Q187,57.3137,187,54L187,14Q187,10.6863,184.657,8.34315Q182.314,6,179,6L14,6Q10.6863,6,8.34315,8.34315Q6,10.6863,6,14L6,54Q6,57.3137,8.34315,59.6569ZM8,54C8,57.3137,10.6863,60,14,60L179,60C182.314,60,185,57.3137,185,54L185,14C185,10.6863,182.314,8,179,8L14,8C10.6863,8,8,10.6863,8,14L8,54Z" fill-rule="evenodd" fill="#0E043E" fill-opacity="1"/></g></svg>