<svg xmlns="http://www.w3.org/2000/svg" xmlns:xlink="http://www.w3.org/1999/xlink" fill="none" version="1.1" width="59.22743606567383" height="46.10894012451172" viewBox="0 0 59.22743606567383 46.10894012451172"><defs><filter id="master_svg0_1667_9247" filterUnits="objectBoundingBox" color-interpolation-filters="sRGB" x="0" y="0" width="58.22743606567383" height="45.10894012451172"><feFlood flood-opacity="0" result="BackgroundImageFix"/><feColorMatrix in="SourceAlpha" type="matrix" values="0 0 0 0 0 0 0 0 0 0 0 0 0 0 0 0 0 0 127 0"/><feOffset dy="1" dx="1"/><feGaussianBlur stdDeviation="0"/><feColorMatrix type="matrix" values="0 0 0 0 0.054901961237192154 0 0 0 0 0.01568627543747425 0 0 0 0 0.24313725531101227 0 0 0 1 0"/><feBlend mode="normal" in2="BackgroundImageFix" result="effect1_dropShadow"/><feBlend mode="normal" in="SourceGraphic" in2="effect1_dropShadow" result="shape"/></filter><linearGradient x1="1" y1="0.5" x2="0" y2="0.5" id="master_svg1_442_3792"><stop offset="0%" stop-color="#DBFDF0" stop-opacity="1"/><stop offset="100%" stop-color="#E8F453" stop-opacity="1"/></linearGradient></defs><g filter="url(#master_svg0_1667_9247)"><path d="M14.5306,35.8109C5.13866,35.6883,-1.02454,27.556,0.829326,18.4872C1.77333,13.8653,4.872,9.97309,9.23253,8.33576C12.2511,7.20296,15.001,7.25629,18.0666,7.29149C18.1262,7.29218,18.1848,7.2739,18.2341,7.23922L27.8373,0.5149536C27.8658,0.49425863,27.9045,0.49512126,27.9319,0.517063C27.9593,0.5390047,27.9686,0.576591,27.9546,0.608819Q25.3157,7.03229,22.6959,13.4259C22.6149,13.6232,22.345,13.7203,22.1221,13.7192Q18.6266,13.6915,15.1311,13.7075Q13.8181,13.7128,13.0895,13.8632C7.06506,15.1069,4.6544,22.6163,8.97546,27.0387C10.6715,28.7741,12.6767,29.4408,15.0842,29.444Q18.8037,29.4493,22.5189,29.4451C22.6043,29.445,22.6813,29.3932,22.7141,29.3139Q27.1621,18.4947,31.6079,7.68082C31.7487,7.33842,31.8586,7.29896,32.2106,7.29362C35.7327,7.24135,39.8746,7.20402,43.8639,7.32669C49.2709,7.49416,54.0389,10.6067,56.3473,15.4813C60.1914,23.5976,55.6539,33.0344,47.0906,35.3693C44.9743,35.9464,42.6863,35.8248,40.4495,35.8259C40.1317,35.8259,40.0826,36.0605,39.9183,36.1981Q34.9317,40.3688,29.865,44.5949C29.8328,44.6214,29.7844,44.6088,29.7701,44.5704L29.7242,44.4541Q29.7029,44.3997,29.7263,44.3443Q32.7589,37.0056,35.7861,29.6637Q35.8746,29.4504,36.1903,29.4493Q39.4543,29.4451,42.7183,29.4461Q43.8128,29.4461,44.4698,29.3533C53.3509,28.1032,53.5855,15.3736,44.7973,13.8333Q44.1306,13.716,43.0714,13.7149Q39.5482,13.7096,36.0261,13.7139Q35.9685,13.7139,35.9333,13.7608Q35.8554,13.8664,35.7861,14.0339Q31.449,24.5768,27.1151,35.1219Q26.9957,35.412,26.8677,35.6829C26.8298,35.762,26.7509,35.8127,26.6639,35.8141Q20.5946,35.8888,14.5306,35.8109Z" fill="url(#master_svg1_442_3792)" fill-opacity="1"/><path d="M14.5242,36.3109Q20.5936,36.3888,26.6701,36.3141L26.6719,36.3141Q27.1232,36.3069,27.3198,35.8965Q27.4532,35.6141,27.5776,35.312L36.248,14.2251Q36.2504,14.2194,36.2527,14.2139L43.0709,14.2149Q44.0867,14.216,44.711,14.3258Q47.6552,14.8418,49.303,17.0329Q50.8124,19.04,50.7596,21.6922Q50.7068,24.3463,49.1157,26.302Q47.3768,28.4392,44.3999,28.8582Q43.7776,28.9461,42.7181,28.9461L36.1887,28.9493Q35.5403,28.9515,35.3239,29.473L29.2659,44.1494Q29.163,44.3926,29.2591,44.6376L29.3015,44.7448Q29.4031,45.0179,29.6855,45.091Q29.9617,45.1625,30.1855,44.9787L40.2394,36.5814Q40.3286,36.5067,40.4383,36.3664Q40.4584,36.3407,40.4701,36.3259Q40.8016,36.3259,41.4494,36.3308Q43.3815,36.3457,44.3432,36.2888Q45.972,36.1926,47.2222,35.8517Q50.4781,34.9639,53.0148,32.7984Q55.4562,30.7143,56.8242,27.8062Q58.198,24.8855,58.2269,21.689Q58.257,18.3454,56.7992,15.2673Q55.0078,11.4844,51.541,9.2202Q48.0756,6.9569,43.8793,6.82692Q39.3492,6.68763,32.203,6.79368Q31.7936,6.79988,31.5732,6.93185Q31.3107,7.08906,31.1455,7.4907L22.3251,28.945L15.0849,28.944Q11.532,28.9393,9.33309,26.6892Q7.86495,25.1867,7.4371,23.1847Q7.03394,21.2982,7.62976,19.4093Q8.224789999999999,17.523,9.64046,16.188499999999998Q11.1383,14.7766,13.1906,14.3529Q13.8702,14.2126,15.1334,14.2075Q18.6261,14.1915,22.1197,14.2192Q22.909,14.223,23.1585,13.6157L28.4134,0.807715Q28.589,0.4025729,28.2443,0.12667899999999999Q27.9001,-0.14877399999999996,27.5505,0.10537800000000003L18.0029,6.79072Q17.9614,6.79024,17.9072,6.78961Q14.9561,6.75535,13.5093,6.88443Q11.1053,7.09892,9.05677,7.86767Q5.69267,9.13085,3.36291,11.9755Q1.079583,14.7634,0.339457,18.3871Q-0.36560000000000004,21.8361,0.379762,25.1136Q1.102621,28.2921,3.06861,30.8115Q5.04803,33.3481,7.94583,34.7761Q10.9658,36.2644,14.5242,36.3109ZM26.4865,35.3162Q26.5716,35.1287,26.6527,34.9317L35.3241,13.8426Q35.4168,13.6188,35.5333,13.4608Q35.7185,13.2139,36.0262,13.2139L43.0719,13.2149Q44.1745,13.216,44.8836,13.3408Q48.2169,13.9251,50.1022,16.431800000000003Q51.8191,18.7148,51.7594,21.7121Q51.6998,24.7104,49.8914,26.9331Q47.9048,29.3747,44.5397,29.8484Q43.8479,29.9461,42.7186,29.9461L36.2091,29.9493L30.7314,43.2199L39.5973,35.8149Q39.6056,35.8079,39.6503,35.7507Q39.9822,35.3259,40.4493,35.3259Q40.7849,35.3257,41.4571,35.3309Q43.3557,35.3454,44.2842,35.2906Q45.8092,35.2005,46.9591,34.8869Q49.9991,34.058,52.3656,32.0379Q54.6431,30.0936,55.9193,27.3805Q57.2,24.6578,57.2269,21.68Q57.255,18.5659,55.8954,15.6953Q54.2247,12.1674,50.9941,10.05744Q47.7639,7.94772,43.8486,7.82645Q39.3413,7.68786,32.218199999999996,7.79357Q32.146100000000004,7.79466,32.1027,7.79804Q32.088499999999996,7.82695,32.0704,7.87094L23.1763,29.5046Q22.9947,29.9445,22.5188,29.9451L15.0835,29.944Q11.1104,29.9387,8.61784,27.3881Q6.9475,25.6786,6.45919,23.3937Q6.00086,21.2491,6.67608,19.1085Q7.34943,16.9739,8.95452,15.4608Q10.6586,13.8545,12.9885,13.3735Q13.766,13.213,15.1289,13.2075Q18.6277,13.1915,22.1245,13.2192Q22.1942,13.2195,22.2507,13.1939L26.9464,1.74914L18.5218,7.64814Q18.3139,7.7944,18.0609,7.79145Q18.0066,7.79083,17.8956,7.78954Q14.9949,7.75587,13.5982,7.88047Q11.3294,8.082889999999999,9.40829,8.80384Q6.29592,9.9725,4.13655,12.6091Q2.00988,15.2057,1.319196,18.5873Q0.657377,21.8249,1.354863,24.8918Q2.02825,27.8528,3.85698,30.1963Q5.69551,32.5523,8.38788,33.8792Q11.205,35.2675,14.537,35.311Q20.5082,35.3876,26.4865,35.3162ZM28.1061,0.937079Q28.1151,0.931041,28.1241,0.9245289999999999L28.1061,0.937079ZM27.4861,0.4336456Q27.4907,0.4218639,27.4959,0.4099234L27.4861,0.4336456Z" fill-rule="evenodd" fill="#0E043E" fill-opacity="1"/></g></svg>