<svg xmlns="http://www.w3.org/2000/svg" xmlns:xlink="http://www.w3.org/1999/xlink" fill="none" version="1.1" width="347" height="284" viewBox="0 0 347 284"><defs><filter id="master_svg0_2308_12442" filterUnits="objectBoundingBox" color-interpolation-filters="sRGB" x="0" y="0" width="347" height="284"><feFlood flood-opacity="0" result="BackgroundImageFix"/><feColorMatrix in="SourceAlpha" type="matrix" values="0 0 0 0 0 0 0 0 0 0 0 0 0 0 0 0 0 0 127 0"/><feOffset dy="4" dx="4"/><feGaussianBlur stdDeviation="0"/><feColorMatrix type="matrix" values="0 0 0 0 0.054901961237192154 0 0 0 0 0.01568627543747425 0 0 0 0 0.24313725531101227 0 0 0 1 0"/><feBlend mode="normal" in2="BackgroundImageFix" result="effect1_dropShadow"/><feBlend mode="normal" in="SourceGraphic" in2="effect1_dropShadow" result="shape"/></filter></defs><g filter="url(#master_svg0_2308_12442)"><path d="M0,264C0,272.837,7.16344,280,16,280L327,280C335.837,280,343,272.837,343,264L343,66.0176C343,57.181,335.837,50.0176,327,50.0176L230.414,50.0176C225.491,50.0176,221.067,47.0103,219.256,42.4321L205.47,7.58545C203.659,3.00731,199.235,0,194.311,0L16,0C7.16344,0,0,7.16344,0,16L0,264Z" fill="#FFFFFF" fill-opacity="1"/><path d="M0,264C0,272.837,7.16344,280,16,280L327,280C335.837,280,343,272.837,343,264L343,66.0176C343,57.181,335.837,50.0176,327,50.0176L230.414,50.0176C225.491,50.0176,221.067,47.0103,219.256,42.4321L205.47,7.58545C203.659,3.00731,199.235,0,194.311,0L16,0C7.16344,0,0,7.16344,0,16L0,264ZM2,264Q2,266.85,3.09937,269.449Q4.1619,271.961,6.10051,273.9Q8.03909,275.838,10.5512,276.901Q13.1503,278,16,278L327,278Q329.85,278,332.449,276.901Q334.961,275.838,336.9,273.9Q338.838,271.961,339.901,269.449Q341,266.85,341,264L341,66.0176Q341,63.1679,339.901,60.5688Q338.838,58.0567,336.9,56.1181Q334.961,54.1795,332.449,53.1169Q329.85,52.0176,327,52.0176L230.414,52.0176Q226.106,52.0176,222.544,49.5957Q218.981,47.1738,217.396,43.1679L203.61,8.32121Q202.478,5.45988,199.933,3.72994Q197.388,2,194.311,2L16,2Q13.1504,2,10.5512,3.09937Q8.03914,4.16188,6.10051,6.10051Q4.16188,8.03913,3.09937,10.5512Q2,13.1504,2,16L2,264Z" fill-rule="evenodd" fill="#0E043E" fill-opacity="1"/></g></svg>