<svg xmlns="http://www.w3.org/2000/svg" xmlns:xlink="http://www.w3.org/1999/xlink" fill="none" version="1.1" width="580" height="352" viewBox="0 0 580 352"><defs><filter id="master_svg0_721_7368" filterUnits="objectBoundingBox" color-interpolation-filters="sRGB" x="0" y="0" width="580" height="352"><feFlood flood-opacity="0" result="BackgroundImageFix"/><feColorMatrix in="SourceAlpha" type="matrix" values="0 0 0 0 0 0 0 0 0 0 0 0 0 0 0 0 0 0 127 0"/><feOffset dy="8" dx="8"/><feGaussianBlur stdDeviation="0"/><feColorMatrix type="matrix" values="0 0 0 0 0.054901961237192154 0 0 0 0 0.01568627543747425 0 0 0 0 0.24313725531101227 0 0 0 1 0"/><feBlend mode="normal" in2="BackgroundImageFix" result="effect1_dropShadow"/><feBlend mode="normal" in="SourceGraphic" in2="effect1_dropShadow" result="shape"/></filter></defs><g filter="url(#master_svg0_721_7368)"><path d="M0,320C0,333.255,10.7452,344,24,344L548,344C561.255,344,572,333.255,572,320L572,90.0176C572,76.7627,561.255,66.0176,548,66.0176L409,66.0176L376,0L24,0C10.7452,0,0,10.7452,0,24L0,320Z" fill="#FFFFFF" fill-opacity="1"/><path d="M376,0L409,66.0176L548,66.0176C561.255,66.0176,572,76.7627,572,90.0176L572,320C572,333.255,561.255,344,548,344L24,344C10.7452,344,0,333.255,0,320L0,24C0,10.7452,10.7452,0,24,0L376,0ZM24,2L374.764,2L407.764,68.0176L548,68.0176Q552.477,68.0176,556.563,69.7456Q560.511,71.4155,563.556,74.4612Q566.602,77.5071,568.272,81.4548Q570,85.5403,570,90.0176L570,320Q570,324.477,568.272,328.563Q566.602,332.51,563.556,335.556Q560.511,338.602,556.563,340.272Q552.477,342,548,342L24,342Q19.5228,342,15.4372,340.272Q11.4895,338.602,8.44365,335.556Q5.39777,332.51,3.72805,328.563Q2,324.477,2,320L2,24Q2,19.5228,3.72805,15.4372Q5.39778,11.4895,8.44365,8.44365Q11.4895,5.39779,15.4372,3.72805Q19.5228,2,24,2Z" fill-rule="evenodd" fill="#0E043E" fill-opacity="1"/></g></svg>